<svg xmlns="http://www.w3.org/2000/svg" viewBox="0 0 668.89 280.134">
<defs><style>.a,.b{fill:#fff;}.a{stroke:#707070;}.c{stroke:none;}.d{fill:none;}</style></defs>

<g transform="translate(135.538 -277.796)">
    <g >
        <g >
            <g class="a"><rect class="d" x="0.5" y="0.5" width="513.187" height="124.431"/></g>
        </g>
    </g>
<path class="b" d="M149.994,34.115a80.033,80.033,0,0,0-1.976-18.136C137.939-27.645,91.5-38.039,
64.563-14.61a37.879,37.879,0,0,0-47.7-6.562C-1.677-59.819-48.306-67.5-77.637-43.722a39.687,
39.687,0,0,0-33.886-.133c-17.909-32.449-59.777-37.067-84.168-13.4-34.235-26.359-87.158-17.775-108.793,
26.291A46,46,0,0,0-361.4-24.42C-399.006-47.5-459.746-34.636-470.93,14.814a75.31,75.31,0,0,0-1.81,
16.762V45H149.994V35.841c0-.582-.014-1.15-.024-1.726Z" 
transform="translate(348.537 387.586)"/>
</g>
</svg>