<svg xmlns="http://www.w3.org/2000/svg" viewBox="0 0 51.477 47.99"><defs><style>.a{fill:none;}.b,.d{fill:#59be6c;}.b{font-size:20px;font-family:SegoeUIBlack, Segoe UI;}.c,.d{stroke:none;}</style></defs><g transform="matrix(0.996, 0.087, -0.087, 0.996, -276.247, -104.361)"><g class="a" transform="matrix(0.875, -0.485, 0.485, 0.875, 285.749, 96.545)"><path class="c" d="M23.25,0c9.863,0,17.859,7.662,17.859,17.114s-8,17.114-17.859,17.114c-4.793,0-16.034-4.535-22.682-5.571C-2.67,25.685,8.984,25.8,8.984,20.944,5.661,12.009,13.387,0,23.25,0Z"/><path class="d" d="M 23.25018310546875 2.999994277954102 C 21.48263359069824 2.999994277954102 19.7430534362793 3.50517463684082 18.07975387573242 4.501504898071289 C 16.46901321411133 5.466354370117188 15.0001335144043 6.864835739135742 13.8319034576416 8.545774459838867 C 11.31732368469238 12.1639347076416 10.53724479675293 16.51407432556152 11.79608345031738 19.89859390258789 L 11.98427391052246 20.40456390380859 L 11.98427391052246 20.94441604614258 C 11.98427391052246 24.12290191650391 9.694637298583984 25.96551895141602 7.337486267089844 27.15618896484375 C 8.922809600830078 27.59882354736328 10.55437469482422 28.08725357055664 12.16340446472168 28.56893539428711 C 16.32822418212891 29.81572532653809 21.04873466491699 31.2288646697998 23.25018310546875 31.2288646697998 C 27.24304389953613 31.2288646697998 30.99054336547852 29.7448558807373 33.80235290527344 27.05020523071289 C 36.57935333251953 24.3889045715332 38.10871505737305 20.86032485961914 38.10871505737305 17.11443519592285 C 38.10871505737305 13.36854553222656 36.57935333251953 9.839954376220703 33.80235290527344 7.178665161132813 C 30.99054336547852 4.484004974365234 27.24304389953613 2.999994277954102 23.25018310546875 2.999994277954102 M 23.25018310546875 -3.814697265625e-06 C 33.11317443847656 -3.814697265625e-06 41.10871505737305 7.662395477294922 41.10871505737305 17.11443519592285 C 41.10871505737305 26.56647491455078 33.11317443847656 34.22886657714844 23.25018310546875 34.22886657714844 C 18.45679473876953 34.22886657714844 7.216203689575195 29.69424438476563 0.56866455078125 28.65756607055664 C -2.670394897460938 25.68506622314453 8.984273910522461 25.80279541015625 8.984273910522461 20.94441604614258 C 5.660953521728516 12.00933456420898 13.38718414306641 -3.814697265625e-06 23.25018310546875 -3.814697265625e-06 Z"/></g><text class="b" transform="translate(311.235 106.319)"><tspan x="0" y="0">i</tspan></text></g></svg>