<svg xmlns="http://www.w3.org/2000/svg" viewBox="0 0 27.888 27.888">
  <defs>
    <style>
      .cls-1 {
        fill: rgba(255,209,69,0.99);
      }

      .cls-2 {
        fill: #fff;
      }
    </style>
  </defs>
  <g id="Bildmaterial_7" data-name="Bildmaterial 7" transform="translate(13.944 13.944)">
    <g id="Bildmaterial_7-2" data-name="Bildmaterial 7" transform="translate(-13.944 -13.944)">
      <circle id="Ellipse_90" data-name="Ellipse 90" class="cls-1" cx="13.944" cy="13.944" r="13.944"/>
      <path id="Path_6088" data-name="Path 6088" class="cls-2" d="M32.061,28.3l-3.853-2.75a.331.331,0,0,0-.526.27v1.231H24.2l4.526-5.441a4.968,4.968,0,0,0,.633-.983,2.407,2.407,0,0,0,.257-1.066,2.557,2.557,0,0,0-.257-1.159,2.894,2.894,0,0,0-.687-.889H20.8V16.065l-4.379,3.124a.331.331,0,0,0,0,.541l3.854,2.75a.331.331,0,0,0,.526-.27V21.048h3.263l-4.634,5.441a4.951,4.951,0,0,0-.633.983,2.4,2.4,0,0,0-.257,1.066,2.552,2.552,0,0,0,.257,1.159,2.879,2.879,0,0,0,.687.889h8.2v1.385l4.379-3.124a.331.331,0,0,0,0-.545Z" transform="translate(-10.295 -10.161)"/>
    </g>
  </g>
</svg>
