<svg xmlns="http://www.w3.org/2000/svg" viewBox="0 0 167.168 202.766">
  <defs>
    <style>
      .cls-1 {
        fill: #fff;
      }

      .cls-2 {
        fill: #5faf9b;
      }

      .cls-3 {
        fill: #98e19c;
      }

      .cls-4 {
        fill: #00764f;
      }

      .cls-5 {
        fill: #2e6e6e;
      }

      .cls-6 {
        fill: #284b55;
      }
    </style>
  </defs>
  <g id="Bildmaterial_18" data-name="Bildmaterial 18" transform="translate(83.584 101.383)">
    <g id="Bildmaterial_18-2" data-name="Bildmaterial 18" transform="translate(-83.584 -101.383)">
      <path id="Path_29906" data-name="Path 29906" class="cls-1" d="M1.261,218.7c-.067.512.578.624.883.334a.524.524,0,0,0,.35.159c-.079.522-.146,1.048-.185,1.58a.442.442,0,0,0,.328.471c-.153.686-.295,1.376-.415,2.072-.111.648.848.937,1,.276v-.007c-.007.037-.015.074-.021.11a.53.53,0,0,0,.789.559c-.021.141-.048.28-.067.424a.55.55,0,0,0,.636.628c-.117.609-.221,1.219-.3,1.838a.512.512,0,0,0,.987.272c.087-.287.188-.569.278-.855-.04.249-.085.5-.12.745a.53.53,0,0,0,.424.612q-.188.8-.358,1.61a.5.5,0,0,0,.954.265l.68-1.783c.061.294.12.593.174.881l-.51,2.072a.445.445,0,0,0,.2.516.424.424,0,0,0,.207.347c-.011.046-.022.092-.032.138-.111.508.659.9.884.371.016-.038.032-.077.048-.116h0v0c.433-1.014.833-2.038,1.22-3.067a.426.426,0,0,0,.1.031l-1.023,4.655a.474.474,0,0,0,.9.278c.138.379.765.473.873-.012l.012-.053a.457.457,0,0,0,.487.114.928.928,0,0,0-.026.874.518.518,0,0,0,.212.256c-.078.521-.143,1.046-.189,1.576-.049.567.8.63.954.129q.153-.505.308-1.011c-.143.812-.277,1.626-.39,2.445a.474.474,0,0,0,.893.3.464.464,0,0,0,.67.4c0,.249,0,.5.021.751a.457.457,0,0,0,.893.121l.389-1.257a13.244,13.244,0,0,0-.086,1.477.443.443,0,0,0,.834.2c-.026.212-.056.424-.079.636-.053.494.7.551.834.113l.286-.962c-.042.519-.087,1.037-.124,1.556-.042.587.942.72,1.029.139q.27-1.8.66-3.577l.14.169c-.053.433-.095.866-.139,1.3a.438.438,0,0,0-.053.5c0,.03-.007.059-.01.089a.44.44,0,0,0,.407.481,24.4,24.4,0,0,0,1.532,1.969c-.023.253-.053.5-.071.759-.036.552.72.617.929.186q.506.523,1.047,1.019a.462.462,0,0,0,.653-.653c-.085-.1-.169-.2-.253-.3.4.274.792.55,1.19.823-.007.084-.018.168-.025.252-.044.547.789.622.928.126l.222-.79a.718.718,0,0,0,.47-.311.45.45,0,0,0,.134.2c.011.077.017.155.029.232.057.365.558.348.727.095.125-.187.235-.378.345-.569a.449.449,0,0,0,.785.012.335.335,0,0,0,.318-.185c.081-.14.159-.283.238-.424a.429.429,0,0,0,.786-.064l.249-.686a.219.219,0,0,0,.186-.128c.053-.15.117-.3.175-.443-.012.287-.028.573-.027.863,0,.371.583.587.753.2.123-.28.234-.564.35-.848a.4.4,0,0,0,.729.172l.366-.718c.164.188.467.246.6-.041l.41-.888a.344.344,0,0,0,.5-.131l.287-.583a.378.378,0,0,0,.546-.1c.106-.18.2-.363.3-.544v.053a.339.339,0,0,0,.662.09c.11-.295.223-.589.335-.883-.048.45-.1.9-.146,1.35-.063.632.924.625.986,0q.576-5.794,1.555-11.531-.462,3.6-.92,7.2c-.067.53.82.652.941.159a.4.4,0,0,0,.671-.212c.1-.562.189-1.125.284-1.687a.409.409,0,0,0,.129.015c-.029.166-.057.333-.085.5a.458.458,0,0,0-.022.128c-.033.188-.064.377-.1.565a.436.436,0,0,0,.053.293,3.019,3.019,0,0,0-.219.954.438.438,0,0,0,.3.432.445.445,0,0,0,.169.347c-.612.457-1.233.9-1.872,1.326a.44.44,0,0,0,.44.758c.612-.356,1.22-.723,1.818-1.1A12.149,12.149,0,0,0,40.5,237.05q.709-.411,1.387-.872a12,12,0,0,0,2.6-2.021.44.44,0,0,0,.053-.079,29.652,29.652,0,0,0,4.891-5.307h0l.053-.069a.27.27,0,0,0,.056-.159c.032-.034.062-.072.093-.106a.356.356,0,0,0,.62-.091q.169-.481.3-.964c.139-.164.287-.318.424-.485a.29.29,0,0,0,.061-.256.347.347,0,0,0,.356-.3,11.417,11.417,0,0,1,.191-1.289c.011.171.016.344.012.52a.279.279,0,0,0,.558,0c.006-.182,0-.356,0-.53l0-.8a.243.243,0,0,0-.131-.223c-.028-.13-.058-.261-.1-.4a.292.292,0,0,0-.559,0q-.119.354-.212.707c-.008-.112-.016-.224-.021-.337q.043-.728.022-1.468a.318.318,0,0,0,.358-.065,11.36,11.36,0,0,0,2-2.749,1.343,1.343,0,0,0,1.48-.477l7.391-9.743a1.337,1.337,0,0,0,.159-.292l1.836-2.439a1.1,1.1,0,0,0,.168-.33,40.34,40.34,0,0,0,13.477-7.109c.607.361,1.212.709,1.807,1.048a30.951,30.951,0,0,0,5.324,3.1,56.2,56.2,0,0,0,5.123,2.574q3.9,1.9,7.931,3.533c.22.131.441.261.657.4.731.477,1.432,1,2.114,1.533,2.288,2.26,4.624,4.48,7.068,6.554a.3.3,0,0,0,.029.053,7.73,7.73,0,0,0,2.011,1.735.3.3,0,0,0,.067.331c.068.073.142.139.212.212a.344.344,0,0,0-.044.521,22.755,22.755,0,0,0,3.03,2.353,12.693,12.693,0,0,0,1.246.87.438.438,0,0,0-.033.128,13.546,13.546,0,0,0,.11,2.748c.025.278.053.557.089.835.005.053.008.106.013.156h0c.005.037.007.074.012.111a.318.318,0,0,0,.216.265c.028.141.053.281.084.42a.353.353,0,0,0,.137.212c.069.262.131.524.212.784a.424.424,0,0,0,.814,0c.031-.1.053-.2.081-.294q1.134.848,2.3,1.639c1.113,1.013,2.258,1.984,3.452,2.892q2.1,1.675,4.311,3.214.57.419,1.163.811c.062.047.121.1.183.144l.008.007h0c.034.025.066.053.1.079a.389.389,0,0,0,.381.06.4.4,0,0,0,.091-.035c.136.3.271.595.407.892a.389.389,0,0,0,.663.034,2.96,2.96,0,0,0,.733.806q.179.723.371,1.442a.309.309,0,0,0,.343.271c.135.363.276.722.435,1.07a.345.345,0,0,0,.541.056.445.445,0,0,0,.3.144c.013.081.029.159.042.242.069.428.812.324.757-.1-.015-.115-.031-.23-.046-.345.053.153.1.306.159.457.169.457.948.451.964-.049.031.106.059.212.092.315.154.5.984.435.954-.1a.487.487,0,0,0,.867-.4c-.007-.045-.016-.09-.024-.135.3.106.721-.06.68-.433q-.185-1.677-.369-3.354a.519.519,0,0,0,.2.064q.579,2.333,1.191,4.657a.484.484,0,0,0,.946-.128q0-.308-.012-.614c.258.326.9.053.826-.454-.2-1.382-.385-2.764-.536-4.148a.62.62,0,0,0,.094-.024l.76,4.272c.091.513.954.391.907-.122q-.106-1.2-.2-2.407c.159.62.337,1.233.552,1.831.159.447.936.416.884-.12-.008-.087-.02-.174-.028-.261a.442.442,0,0,0,.613-.385,12.868,12.868,0,0,0-.132-2.351.328.328,0,0,0,.466-.047.544.544,0,0,0,.636-.51c0-.4-.019-.808-.027-1.212.254,1.145.515,2.288.756,3.435.119.568.947.4.969-.131a36.118,36.118,0,0,0-.106-4.4c.019.094.039.187.057.281a.53.53,0,0,0,1.033-.14c-.053-.593-.12-1.183-.182-1.775a.472.472,0,0,0,.17-.488c-.141-.631-.3-1.257-.446-1.886-.212-1.644-.45-3.287-.738-4.918l.831,2.551q.978,3.8,1.832,7.629c.142.636,1.045.349.954-.265-.084-.559-.182-1.113-.274-1.672a.5.5,0,0,0,.258-.424v-.059c.076.364.156.727.23,1.092.126.624,1.068.356.95-.262-.1-.513-.208-1.022-.313-1.533a.568.568,0,0,0,.444-.477c.017-.173.024-.344.033-.516.029.151.06.3.089.451.1.543,1.033.416.966-.131-.005-.044-.013-.087-.018-.131h0V233.4c-.028-.226-.061-.453-.091-.679a.435.435,0,0,0,.473-.195c.56,1.786,1.113,3.576,1.639,5.372a.473.473,0,0,0,.912-.251q-.73-2.911-1.538-5.8a.461.461,0,0,0,.546-.367.446.446,0,0,0,.106-.424c-.113-.486-.233-.969-.352-1.452-.014-.1-.03-.19-.044-.286.028.126.056.251.083.377a.444.444,0,0,0,.713.265c.073.305.149.609.22.915.137.594,1.021.338.906-.25-.207-1.06-.437-2.121-.677-3.173a12.382,12.382,0,0,0,.583,1.625c.242.78.493,1.558.728,2.34a.458.458,0,1,0,.883-.243c-.038-.246-.083-.489-.123-.734a.513.513,0,0,0,.11-.411q-.349-2.327-.791-4.635a.437.437,0,0,0,.518.189c.1.413.2.827.292,1.238a.374.374,0,0,0,.27.3c.173.674.343,1.35.5,2.029a.4.4,0,0,0,.583.265l.216.879c.135.549.9.3.823-.227a57.889,57.889,0,0,0-1.831-8.19l-.45-2.709c-.049-.3-.095-.6-.14-.9q1.417,4.585,2.541,9.26a.45.45,0,0,0,.55.312c1.1-.451,1.159-1.481.933-2.521-.047-.424-.106-.848-.159-1.273a.483.483,0,0,0,.148.177.388.388,0,0,0,.244.225q.279.983.557,1.966a.4.4,0,0,0,.776-.212c-.187-.825-.392-1.644-.6-2.462a.559.559,0,0,0,.348-.265.347.347,0,0,0,.245-.446c-.147-.518-.308-1.031-.461-1.547-.11-.581-.231-1.159-.367-1.732a.508.508,0,0,0,.25-.268.545.545,0,0,0,.216-.149l1.215,3.6c.141.416.792.243.663-.183-.183-.6-.375-1.207-.565-1.809a.359.359,0,0,0,.106-.286c-.013-.207-.033-.413-.049-.62q.376,1.285.753,2.569a3.98,3.98,0,0,0,.19.647c.188.477.941.3.787-.217l-.248-.822a.371.371,0,0,0,.2-.417c-.13-.63-.249-1.259-.363-1.889a.371.371,0,0,0,.352-.42c-.005-.039-.013-.078-.018-.118h0l0-.019c-.166-1.259-.385-2.506-.645-3.742q.265.837.53,1.671a.424.424,0,0,0,.209.257c.04.227.084.454.124.682.082.481.9.366.848-.115a72.746,72.746,0,0,0-1.361-8.682c.22.686.42,1.379.626,2.053.652,2.142,1.219,4.307,1.719,6.489.129.565.935.312.848-.234-.01-.063-.022-.126-.032-.189a.467.467,0,0,0,.746-.453l-1.2-7.239c-.07-.477-.146-.954-.238-1.432a.365.365,0,0,0-.248-.3c.106.053.227-.106.128-.188-.064-.053-.13-.1-.195-.15a.386.386,0,0,0,.163-.079,24.711,24.711,0,0,0-3.888-3.771c-.236-.134-.47-.27-.707-.4l-.057-.176q-.518-.374-1.056-.724a.411.411,0,0,0-.023.08l-.04-.119q-.212-.137-.428-.27a.236.236,0,0,0-.087.244c0,.017.008.035.012.053q-1.049-.551-2.115-1.072l-.033-.1a.366.366,0,0,0-.552-.179c-.318-.151-.632-.3-.95-.446a6.913,6.913,0,0,0-.884-.712l-.206-.494a.347.347,0,0,0-.636-.023c-1.089-.608-2.276-1.086-3.195-1.57l-.106-.057c-.226-.424-.449-.848-.686-1.268a.4.4,0,0,0-.731.308l.084.259-1.672-.88c-.155-.318-.3-.642-.46-.96a.442.442,0,0,0-.812.291l-1.507-.8c-.056-.087-.106-.177-.164-.265a.41.41,0,0,0-.6-.138l-2.252-1.185-1.219-.636c-.1-.217-.2-.436-.306-.653a.424.424,0,0,0-.787.081l-1.147-.6-.091-.262a.424.424,0,0,0-.728-.166l-.181-.094c-.149-.077-.3-.159-.453-.247a.318.318,0,0,0-.172-.1c-.4-.23-.812-.477-1.232-.7l-.074-.175a.368.368,0,0,0-.571-.144c-.129-.059-.259-.117-.389-.168l-.106-.287a.433.433,0,0,0-.827.017.194.194,0,0,1-.034-.008c-.011,0-.034,0-.053,0a.323.323,0,0,0-.381-.13.367.367,0,0,0-.346.162,2.73,2.73,0,0,0-.657.229.353.353,0,0,0-.366.22,1.8,1.8,0,0,0-.854,1.954.407.407,0,0,0-.2.438l.016.091a.453.453,0,0,0-.477.313,7.954,7.954,0,0,0-2.475-1.261c-.39-.232-.786-.453-1.185-.671a50.39,50.39,0,0,0-5.629-3.585.4.4,0,0,0-.591.184l-.577-.4a13.6,13.6,0,0,0,1.981-5.581c2.745-7.045.07-15.429-2.212-22.407a63.712,63.712,0,0,1-2.368-8.6,45.1,45.1,0,0,1-.341-8.828c.034-2.31-.323-4.881-1.776-6.616a2.4,2.4,0,0,0-2.139-1.546l-.041-.019a.31.31,0,0,0-.287.014,2.381,2.381,0,0,0-1.933,1.08l-.111.067c-3.977,1.949-5.71,6.234-6.207,10.557-.141,3.823,1.252,7.539.989,11.384a.212.212,0,0,1-.1.179c.172.939.345,1.878.5,2.818a47.643,47.643,0,0,1-4.783-4.423q-.734-.686-1.45-1.39c3-7.6,5.785-15.506,3.841-23.667-.6-2.528-4.556-2.164-4.813.221a2.625,2.625,0,0,0-.578.978c-1.957,5.779-3.789,11.579-5.82,17.274a3.385,3.385,0,0,0-1.962,1.014c.9-2.521,1.7-5.059,2.444-7.566,1.928-6.526,4.381-14.21,3.362-21.132a30.04,30.04,0,0,0-.732-12.007c-.689-2.339-3.7-2.071-4.56-.413a1.935,1.935,0,0,0-1.066,1.074c-3.066,7.032-3.938,14.673-5.319,22.171-1.718,4.019-3.6,7.938-5.555,11.815a111.423,111.423,0,0,0,4.47-15.453c1.192-5.305,2.364-10.676,3.048-16.074.033-.259.063-.521.092-.784.828-5.139,1.441-11.339-1.674-15.761-1.242-1.763-4.136-1.2-4.521.631a2.142,2.142,0,0,0-.521,2.287c.058.175.11.352.164.53a96.477,96.477,0,0,1-6.571,20.368c.037-.18.072-.362.106-.544a3,3,0,0,0,.265-.612,29.7,29.7,0,0,0-1.08-20.36,1.943,1.943,0,0,0-1.713-1.239c-.02-.026-.039-.053-.059-.078-1.789-2.249-5.129.641-3.838,2.962.106.19.206.383.3.577q-.477,5.216-1.41,10.3-.8,2.217-1.628,4.435c-.438-1.089-.874-2.174-1.289-3.259-.9-2.338-4.832-2.271-4.762.51a2.47,2.47,0,0,0-.4,1.916c.377,2.063.81,4.115,1.273,6.159a10.41,10.41,0,0,0,1.1,1.856c.2.275-.232.578-.434.3-.093-.126-.177-.257-.265-.386.014.059.026.119.04.179-2.147-2.615-4.306-5.221-6.416-7.864-1.335-1.672-3.861-.307-4.179,1.417a10.893,10.893,0,0,1-.174,1.267c-.056.629-.081,1.254-.077,1.88,1.419,3.774,2.949,7.635,4.706,11.377a53.709,53.709,0,0,1-4.1-4.79c-1.57-2.121-4.864-.692-4.657,1.356a2.257,2.257,0,0,0-.308,2.021c.186.655.392,1.305.6,1.955a2.368,2.368,0,0,0-.255,1.872,35.819,35.819,0,0,0,3.9,9.468c0,.01-.012.017-.016.027a6.981,6.981,0,0,0-.173,5.873q-2.241,3.808-4.168,7.794a26.373,26.373,0,0,0-.53-8.869,9.948,9.948,0,0,0-.916-4.348,15.639,15.639,0,0,0-.8-1.454,12.011,12.011,0,0,0-6-6.666,11.39,11.39,0,0,0-2.188-1.076,2.534,2.534,0,0,0-1.637-1.558,2.4,2.4,0,0,0-2.3.575l-.129.029a3.734,3.734,0,0,0-1.735.936,2.9,2.9,0,0,0-.831,1.785c.057.146.116.293.171.44a.24.24,0,0,1,.257.162,10.055,10.055,0,0,1,.277,1.075c.13.454.261.908.377,1.366l.169.258a2.8,2.8,0,0,0,1.239,1.053,39.206,39.206,0,0,1,1.011,9.06c.146,3.852.273,7.71.614,11.551.2,2.217.457,4.481.835,6.734a40.747,40.747,0,0,0,1.432,10.693,63.433,63.433,0,0,0,3.973,9.507c-1.541,2.082-3.017,4.227-4.577,6.3q-2.761,1.994-5.341,4.226a5.62,5.62,0,0,1-4.469.318,1.152,1.152,0,0,0-1.409.8,5,5,0,0,0-.172,1.7c-.11.046-.218.1-.329.14a.469.469,0,0,0-.1-.257c.212-.347-.116-.889-.53-.613-1.619,1.083-3.189,2.233-4.719,3.434l-2.778,1.712a.386.386,0,0,0-.2.309q-3.563,1.465-6.994,3.218a.419.419,0,0,0-.064.678l-2.4,1.093a.33.33,0,0,0-.195.414l-.654.284a.371.371,0,0,0-.162.515.463.463,0,0,0-.221.159.44.44,0,0,0-.062.027,1.172,1.172,0,0,0-.609,1.252.611.611,0,0,0,.167.334l-.459,1.6a.445.445,0,0,0,.031.321,17.644,17.644,0,0,0-.388,1.967l0,.011h0c-.006.046-.015.091-.021.136a.388.388,0,0,0,.23.444c-.1.5-.182.995-.251,1.5l0,.012h0C1.275,218.611,1.267,218.656,1.261,218.7Zm163.762-11.276c.343.222.689.442,1.025.668a.489.489,0,0,0-.6.489Q165.243,208,165.023,207.427Zm-4,4.142c.068.029.135.061.2.089l.873,3.348c.053.251.106.5.153.753q-.626-2.092-1.229-4.191Zm-3.265,9.809.091.278,1.162,4.049a.437.437,0,0,0,.173.236,1.591,1.591,0,0,1-.053.607q-.64-2.594-1.372-5.169Zm-3.76-1.305q.318.933.633,1.868.188,1.4.371,2.793-.459-2.339-1-4.66Zm-2.258-13.592c.286.711.563,1.425.837,2.14a.383.383,0,0,1-.11.145q-.356-1.144-.727-2.285Zm-9.706,25.277c-.167-.784-.34-1.567-.512-2.349.167.667.318,1.338.483,2.006.008.116.02.23.029.344Zm4.758-20.513-.064-.286q.809,1.756,1.529,3.546c.415,1.428.811,2.863,1.171,4.3-.829-2.537-1.714-5.057-2.636-7.565Zm-.815,13.449c.118.418.223.84.338,1.26.2.86.393,1.723.56,2.59-.285-1.286-.581-2.57-.9-3.849Zm-3.148,4.166a54.4,54.4,0,0,1,1.05,6.142c-.256-1.123-.53-2.242-.8-3.362q-.11-1.391-.255-2.779Zm-.53-21.119q1.445,3.549,2.81,7.129.753,2.81,1.413,5.643-1.418-4.878-3.134-9.665a.506.506,0,0,0-.287-.307c-.235-.742-.48-1.485-.721-2.227-.024-.189-.051-.38-.079-.572Zm-.086-10.041-.177-.522a.322.322,0,0,0,.006-.062l0-.086.022.061a.446.446,0,0,0,.293.293c.3.672.587,1.346.876,2.021l.043.2q-.518-.954-1.058-1.9Zm-.992,35.318c.283,1.35.551,2.7.82,4.058a8.969,8.969,0,0,1-.578-1.722.4.4,0,0,0-.106-.182c-.037-.717-.075-1.436-.134-2.152Zm-6.135-29.083-.153-.1q-.153-.442-.305-.883a.439.439,0,0,0,.106,0Q134.9,203.444,135.08,203.935Zm2.018-7.741a.425.425,0,0,0-.159-.022l-.363-.917a.419.419,0,0,0,.152-.029c.128.324.247.647.37.97Zm3.246,16.029a.449.449,0,0,0-.173.226q-.661-2.117-1.353-4.225c0-.04,0-.08-.005-.119q.792,2.051,1.532,4.12Zm-5.078-7.4a.564.564,0,0,0,.087-.111c1.544,4.348,3.032,8.713,4.384,13.123l.59,1.925q.421,2.027.757,4.068Q138.5,214.228,135.266,204.82Zm-1.424,11.741c.348,1.21.683,2.424,1,3.644.993,4.4,1.9,8.818,2.672,13.263-.022-.11-.044-.221-.066-.331-.113-.559-.925-.389-.949.128a15.479,15.479,0,0,0,.028,1.8q-.212-1.565-.447-3.128a.517.517,0,0,0,.152-.461q-1.2-7.453-2.384-14.911Zm-.05-9.73a.5.5,0,0,0,.043-.053,163.287,163.287,0,0,1,4.563,17.359q-.937-3.51-2.032-6.976c-.8-3.456-1.669-6.9-2.573-10.33Zm-.88.362c-.065-.063-.127-.128-.193-.19l-.118-.467.163.092c.052.188.1.375.15.565Zm.206,13.985c-.712-2.9-1.467-5.794-2.243-8.681a.525.525,0,0,0,.289-.28q.945,3.838,1.75,7.707c.071.417.139.836.206,1.253Zm.094-12.439a.511.511,0,0,0,.091-.053c.112.432.228.862.338,1.294l-.053-.013c-.122-.409-.249-.819-.374-1.229Zm-2.338,29.724a.489.489,0,0,0,.125-.093.33.33,0,0,0,.141.212q.021.484.064.966-.156-.545-.328-1.086Zm-2.74-20.6.758.537a.435.435,0,0,0,.12.053q1.432,4.311,2.613,8.7l1.627,7.141a.36.36,0,0,0-.069.1.377.377,0,0,0-.183-.247c-.013-.053-.023-.111-.036-.167-.12-.53-.863-.288-.792.218.02.144.034.288.053.432a5.718,5.718,0,0,0-.089.7.425.425,0,0,0-.042-.081c-.159-.83-.309-1.662-.477-2.492a80.861,80.861,0,0,0-2.1-10.534c-.122-.787-.251-1.574-.363-2.364-.023-.159-.3-.12-.281.038l.014.109c-.029-.1-.053-.191-.083-.286a.4.4,0,0,0-.268-.281c-.023-.09-.044-.18-.068-.269a.494.494,0,0,0,.092-.781c-.126-.113-.254-.223-.381-.335-.013-.064-.029-.128-.046-.193Zm-2,4.11c-.043-.257-.1-.508-.153-.76.013.012.031.014.045.023a.46.46,0,0,0,0,.19c.136.66.265,1.321.4,1.981q-.134-.419-.265-.838a.415.415,0,0,0-.159-.218.4.4,0,0,0,.134-.378Zm-9.624-37.249c0,.153-.006.306-.011.459a1.035,1.035,0,0,0-.175.089l.042-.533c.05-.006.1-.006.146-.014Zm-.321,40.321q.5.255,1,.5a.407.407,0,0,0-.318.308c0-.032-.011-.063-.015-.094a.393.393,0,0,0-.6-.315ZM58.21,190.884l.812-.734c.1-.006.2-.008.291-.022l-1.081.84C58.225,190.937,58.217,190.911,58.21,190.884Zm-9.052,32c.195-.174.391-.347.583-.522l-.513,3.1C49.182,224.606,49.158,223.748,49.158,222.887Zm-.967,5.98q.2-1.2.378-2.4.07.926.176,1.851Zm-.265-3.068c0-.624.019-1.247.053-1.869l.2-.172q-.115,1.022-.253,2.041Zm-2.111,5.432a.307.307,0,0,0,.028-.059c.159-.7.292-1.412.414-2.121.046-.069.094-.137.139-.207l.05,1.517a.38.38,0,0,0,.053.186Zm-.017-3.877c0-.284.005-.568.012-.852l.1-1.143a.784.784,0,0,0,.111-.011c-.056.67-.13,1.339-.219,2.006Zm-2.061-.974a.42.42,0,0,0-.238.14c.1-1.167.2-2.333.3-3.5C43.8,224.142,43.773,225.26,43.736,226.379Zm-.583,4.128q.024-.278.048-.556l.4-.507q-.017.318-.035.64Zm-1.561-1.736.047-.848q.223-2.663.444-5.327c.194-1.522.367-3.047.511-4.575a1.59,1.59,0,0,0,.2.166c-.294,3.525-.644,7.047-1.17,10.542Zm-2.72-22.962v.012l-.229.233-.253-.148c.106-.07.212-.139.315-.209C38.757,205.733,38.814,205.769,38.872,205.808Zm-.552,25.34q.433-2.646.831-5.3.191-1.18.385-2.359c-.306,2.566-.68,5.125-1.092,7.678a.448.448,0,0,0-.126-.022ZM34.865,214.98c-.023.133-.048.265-.071.4l-.243-.225c.014-.141.03-.281.044-.424.088.083.177.168.268.25Zm1.021-6.036-.243.225c-.18-.154-.362-.3-.541-.459.007-.093.015-.187.021-.28,0-.011,0-.019,0-.03q.383.27.766.545Zm-1.508,26.743q1.538-8.288,2.416-16.675c.092-.551.194-1.1.291-1.651-.011.52-.014,1.04-.006,1.561-.647,5.611-1.535,11.184-2.532,16.772A.36.36,0,0,0,34.378,235.688Zm-2.068,1.739a24.226,24.226,0,0,0,1.336-4.728c.41-2,.764-4.012,1.093-6.027-.512,3.45-1,6.9-1.517,10.345a.382.382,0,0,0-.546.1c-.079.106-.151.216-.221.326a.367.367,0,0,0-.145-.016Zm-1.548,2.662c.038-.241.07-.484.115-.723a.468.468,0,0,0,.258-.005Zm-1.293-3.159c.782-2.539,1.458-5.1,2.052-7.688q-.6,3.117-1.326,6.21a.406.406,0,0,0-.283.256Zm-1.113-.662.367-1.805.008-.027c0-.01,0-.017,0-.026l.252-1.238c-.1.59-.187,1.181-.281,1.771l-.276,1.153c-.022.059-.046.117-.07.175Zm-.445-2.165c.229-1.116.46-2.232.67-3.353.077-.321.153-.643.232-.963q-.445,2.121-.861,4.245a.493.493,0,0,0-.038.073ZM24.738,223.09c.173-.858.357-1.713.539-2.569a.293.293,0,0,0,.041.159Zm-.235-6.25-.524,2.67c.021-.249.046-.5.063-.745a.436.436,0,0,0-.04-.22Q24.238,217.689,24.5,216.84Zm-.714,20.491c.2-.993.438-1.982.685-2.964l-.436,2.215C23.956,236.83,23.867,237.077,23.789,237.331Zm-1.75,4.314q.171-.7.349-1.39c-.027.315-.041.63-.053.945a.392.392,0,0,0-.129.53c.025.047.045.095.069.142-.079-.081-.159-.154-.239-.231ZM14.8,228.59c.133-.523.271-1.045.4-1.568a.52.52,0,0,0,.106.035Zm-.115-4.535c.084-.284.17-.567.255-.848a.384.384,0,0,0,.134.106l-.007.032c-.131.232-.255.472-.382.71Zm-.822,7.344c.186-.733.389-1.461.6-2.187a.371.371,0,0,0,.169-.115Zm-3.357-11.521.124-.5c.028.145.062.289.091.434q-.074.2-.147.4Q10.536,220.042,10.505,219.878Zm-1.172-5.236.418-.76c.02.083.038.166.057.25-.1.408-.194.818-.27,1.233-.012-.008-.025-.01-.037-.017ZM7.748,226.31l.291-.761.033.1-.245,1C7.8,226.532,7.777,226.421,7.748,226.31Z" transform="translate(-0.59 -44.172)"/>
      <path id="Path_29907" data-name="Path 29907" class="cls-1" d="M196.574,199.489c.212,1.339.431,2.679.519,4.03C196.87,202.176,196.683,200.833,196.574,199.489Z" transform="translate(-92.347 -93.716)"/>
      <path id="Path_29908" data-name="Path 29908" class="cls-1" d="M117.361,31.984a20.06,20.06,0,0,0-6.239.9,19.754,19.754,0,0,1,5.153-5.355.434.434,0,0,0-.332-.789c-1.259.222-2.524.39-3.8.492a5.921,5.921,0,0,0-2.522.4.115.115,0,0,0,0,.2,5.46,5.46,0,0,0,3.014.2c.616-.047,1.229-.115,1.84-.2a21.385,21.385,0,0,0-4.724,5.564.45.45,0,0,0,.5.653,44.474,44.474,0,0,1,7.1-1.22.424.424,0,0,0,0-.846Z" transform="translate(-51.472 -12.557)"/>
      <path id="Path_29909" data-name="Path 29909" class="cls-1" d="M134.687,26.607a.424.424,0,0,0-.845,0c-.072,1.919-.128,3.833-.255,5.748a13.111,13.111,0,0,1-.625-2.339q-.409-1.5-.815-3.005c-.083-.308-.6-.43-.742-.1-.695,1.617-1.346,3.256-1.909,4.924a35.972,35.972,0,0,1-1.026-5.224c0-.042-.069-.043-.066,0,.089,1.441.168,2.848.326,4.257-.074-.318-.141-.633-.2-.954-.206-1.18-.233-2.378-.431-3.556-.006-.036-.06-.032-.068,0a12.445,12.445,0,0,0,.714,7.264.353.353,0,0,0,.685-.078.424.424,0,0,0,.387-.265c.579-1.654,1.178-3.291,1.845-4.908.294,1.125.586,2.25.884,3.374a2.875,2.875,0,0,0,1.177,2.058.441.441,0,0,0,.655-.375A59.686,59.686,0,0,0,134.687,26.607Z" transform="translate(-60.02 -12.317)"/>
      <path id="Path_29910" data-name="Path 29910" class="cls-1" d="M101.6,14.887c-1.373-1.007-2.724-2.047-4.1-3.056-.033-.024-.062.025-.04.053a21.654,21.654,0,0,0,3.778,3.619C101.606,15.779,101.971,15.158,101.6,14.887Z" transform="translate(-45.784 -5.555)"/>
      <path id="Path_29911" data-name="Path 29911" class="cls-1" d="M95.108,34.283c-.239.04-4.111.436-3.865-.226.031-.083-.069-.132-.134-.1-.633.284-.053.861.342,1.02a6.133,6.133,0,0,0,3.863.057.388.388,0,0,0-.206-.747Z" transform="translate(-42.669 -15.947)"/>
      <path id="Path_29912" data-name="Path 29912" class="cls-1" d="M97.678,48a24.823,24.823,0,0,0-3.16,3.575c.015-.084.03-.168.053-.25a.021.021,0,0,0-.04-.011,2.826,2.826,0,0,1-.242.619.1.1,0,0,0,.136.136,22.028,22.028,0,0,0,3.785-3.539C98.535,48.179,98.019,47.657,97.678,48Z" transform="translate(-44.289 -22.497)"/>
      <path id="Path_29913" data-name="Path 29913" class="cls-1" d="M119.357,50.225a5.131,5.131,0,0,0-1.708,2.7c-.038.139.17.235.239.1a6.567,6.567,0,0,1,1.9-2.241.355.355,0,1,0-.432-.559Z" transform="translate(-55.267 -23.551)"/>
      <path id="Path_29914" data-name="Path 29914" class="cls-1" d="M134.7,50.289a.029.029,0,0,0-.053-.022,9.74,9.74,0,0,0-1.319,6.34c.048.525.873.533.829,0A26.483,26.483,0,0,1,134.7,50.289Z" transform="translate(-62.606 -23.608)"/>
      <path id="Path_29915" data-name="Path 29915" class="cls-1" d="M148.754,26.212c-.506-.024-.644.785-.172.914-2.061.259-3.231,5.67-.535,5.957,1.676.178,2.1-2.324,2.306-3.474C150.6,28.245,150.537,26.3,148.754,26.212Zm.574,3.577c-.068.322-.375,2.059-.783,2.181-.709.212-1.081-.43-1.134-1a4.682,4.682,0,0,1,.111-1.259c.163-.867.575-2.208,1.556-2.393.7.492.388,1.814.249,2.471Z" transform="translate(-68.811 -12.313)"/>
      <path id="Path_29916" data-name="Path 29916" class="cls-1" d="M165.079,26.221c-2.145.5-2.6,3.768-2.857,5.51-.149,1.007-.269,2.049-.334,3.1a70.6,70.6,0,0,1-.556-7.412.033.033,0,0,0-.066,0c.028,4.317-.243,8.553.367,12.857.064.448.827.345.8-.106-.015-.2-.035-.4-.053-.606a60.445,60.445,0,0,1,.808-8.347,13.929,13.929,0,0,1,.445-1.77,6.326,6.326,0,0,1,.594-1.309l.414-.549,1.472.075c1.141.827.381,4.994-1.375,4.44-.625-.2-.878.763-.269.975C168.29,34.4,168.659,25.385,165.079,26.221Z" transform="translate(-75.742 -12.292)"/>
      <path id="Path_29917" data-name="Path 29917" class="cls-1" d="M151.776,49.1c-1.31.338-1.178,2.723-1.06,3.748.053.464.779.483.742,0-.049-.63-.1-1.259-.091-1.891.006-.53-.082-1.47.436-1.792a.036.036,0,0,0-.028-.065Z" transform="translate(-70.77 -23.065)"/>
      <path id="Path_29918" data-name="Path 29918" class="cls-1" d="M174.792,56.359a17.065,17.065,0,0,1-2.8-4.3c-.016-.038-.076-.024-.064.017a13.162,13.162,0,0,0,2.353,4.794C174.574,57.232,175.093,56.716,174.792,56.359Z" transform="translate(-80.767 -24.446)"/>
      <path id="Path_29919" data-name="Path 29919" class="cls-1" d="M181.185,42.779c-.284-.01-.564.028-.848,0a2.174,2.174,0,0,1-.505-.121.307.307,0,0,0-.243-.442c-.247-.021-.493-.029-.742-.031-.08,0-.159,0-.239,0a2.406,2.406,0,0,0-.928-.085.091.091,0,0,0-.075.12.1.1,0,0,0,.032.106,4.04,4.04,0,0,0,2.308,1.06.24.24,0,0,0,.246-.3,1.757,1.757,0,0,0,.992.332.322.322,0,1,0,0-.643Zm-2.321-.017a1.845,1.845,0,0,1-.31-.115h0a9.862,9.862,0,0,0,1.032.142.259.259,0,0,0,.06-.007l.1.047.053.029a4.227,4.227,0,0,1-.935-.095Z" transform="translate(-83.433 -19.773)"/>
      <path id="Path_29920" data-name="Path 29920" class="cls-1" d="M186.69,24.544A11.574,11.574,0,0,0,179.6,26.2c-.122.088-.1.332.086.318a29.446,29.446,0,0,0,3.325-.69c1.255-.253,2.531-.27,3.783-.5C187.27,25.238,187.1,24.586,186.69,24.544Z" transform="translate(-84.337 -11.509)"/>
      <path id="Path_29921" data-name="Path 29921" class="cls-1" d="M173.64,13.6a5.726,5.726,0,0,0-4.407,3.688.053.053,0,0,0,.09.053,10.089,10.089,0,0,1,4.552-2.885.444.444,0,1,0-.235-.856Z" transform="translate(-79.501 -6.382)"/>
      <path id="Path_29922" data-name="Path 29922" class="cls-1" d="M156.648.285a19.921,19.921,0,0,0-.713,6.856.053.053,0,0,0,.106,0A19.1,19.1,0,0,1,157.45.506C157.63,0,156.825-.218,156.648.285Z" transform="translate(-73.252 0)"/>
      <path id="Path_29923" data-name="Path 29923" class="cls-1" d="M143.064,8.454a6.687,6.687,0,0,0-1.192,1.9,1.956,1.956,0,0,0-.011.882c.077.335.224.4.446.639a.115.115,0,0,0,.179-.138c-.6-.967.834-2.15,1.269-2.878C144.02,8.412,143.345,8.029,143.064,8.454Z" transform="translate(-66.622 -3.885)"/>
      <path id="Path_29924" data-name="Path 29924" class="cls-1" d="M128.16,7.678A16.061,16.061,0,0,1,126.1,4.8c-.365-.767-.447-2.107-1.121-2.63a.038.038,0,0,0-.058.007c-.583.8.136,2.231.5,3.018a7.432,7.432,0,0,0,2.329,3.02C128.1,8.446,128.375,7.959,128.16,7.678Z" transform="translate(-58.58 -1.012)"/>
      <path id="Path_29925" data-name="Path 29925" class="cls-1" d="M116.753,15.662a1.582,1.582,0,0,1-.851-.458c-.232-.23-.447-.48-.659-.729A6.684,6.684,0,0,0,114,13.233c-.038-.027-.075.017-.07.053a4.673,4.673,0,0,0,1.171,2.16c.384.477,1.064,1.24,1.724.8a.321.321,0,0,0-.075-.579Z" transform="translate(-53.523 -6.213)"/>
      <path id="Path_29926" data-name="Path 29926" class="cls-2" d="M93.852,335.393c.033-.242.4-.139.367.1-.318,2.343-.705,4.69-.928,7.044a.221.221,0,1,1-.436-.059C93.273,340.133,93.53,337.753,93.852,335.393Z" transform="translate(-43.618 -157.496)"/>
      <path id="Path_29927" data-name="Path 29927" class="cls-2" d="M88.866,341.634a55.63,55.63,0,0,0,1.558-11.066.218.218,0,0,1,.437,0,42.555,42.555,0,0,1-1.446,11.217.285.285,0,0,1-.548-.151Z" transform="translate(-41.744 -155.191)"/>
      <path id="Path_29928" data-name="Path 29928" class="cls-2" d="M86.128,332.8a58.021,58.021,0,0,0,.4-7.595.222.222,0,1,1,.444,0c.058,4.947.058,10.412-1.368,15.2-.1.344-.7.3-.656-.089C85.253,337.8,85.827,335.319,86.128,332.8Z" transform="translate(-39.904 -152.669)"/>
      <path id="Path_29929" data-name="Path 29929" class="cls-2" d="M81.621,331.562c.386-3.181.764-6.379,1.007-9.576.02-.265.438-.27.419,0-.223,3.3-.435,6.587-.8,9.875a70.41,70.41,0,0,1-1.288,9.316c-.087.348-.663.285-.636-.086C80.546,337.912,81.238,334.727,81.621,331.562Z" transform="translate(-37.736 -151.168)"/>
      <path id="Path_29930" data-name="Path 29930" class="cls-2" d="M77.805,330.32c.45-3.842.882-7.7,1.163-11.563.021-.283.461-.287.444,0-.226,3.968-.477,7.915-.918,11.867a103.906,103.906,0,0,1-1.581,11.289c-.086.383-.738.309-.7-.094C76.607,337.976,77.356,334.162,77.805,330.32Z" transform="translate(-35.805 -149.645)"/>
      <path id="Path_29931" data-name="Path 29931" class="cls-2" d="M71.022,341.854a37.6,37.6,0,0,0,1.192-6.188c.357-2.342.694-4.687,1.023-7.033.685-4.878,1.336-9.753,1.835-14.655.027-.265.442-.265.415,0-.51,5.019-1,10.045-1.617,15.052q-.424,3.425-.906,6.843c-.283,2.032-.314,4.41-1.3,6.25a.35.35,0,0,1-.637-.269Z" transform="translate(-33.36 -147.407)"/>
      <path id="Path_29932" data-name="Path 29932" class="cls-2" d="M64.283,341.141l.119-.064a.337.337,0,0,1,.183-.037,1.007,1.007,0,0,1,.125-.512l.126-.6q.218-1.043.429-2.088.361-1.792.7-3.587.7-3.741,1.3-7.5c.8-5,1.191-10.083,2.068-15.067.053-.289.515-.219.508.069a124.881,124.881,0,0,1-1.946,16.113q-.643,4.062-1.413,8.1-.4,2.094-.832,4.182c-.151.729-.153,1.442-.771,1.9a.4.4,0,0,1-.41,0,.609.609,0,0,1-.369-.6.359.359,0,0,1,.185-.318Z" transform="translate(-30.112 -146.338)"/>
      <path id="Path_29933" data-name="Path 29933" class="cls-2" d="M56.556,340.481c3.823-11.212,5.33-23.059,7.087-34.747.043-.286.477-.165.435.12-.941,6.257-1.672,12.548-2.681,18.8-.932,5.771-2.015,11.816-4.477,17.162-.172.374-.717.159-.73-.2q-.006-.407-.044-.811a.335.335,0,0,1,.409-.325Z" transform="translate(-26.377 -143.55)"/>
      <path id="Path_29934" data-name="Path 29934" class="cls-2" d="M49.389,341.146a.371.371,0,0,1,.241-.225c1.9-5.753,3.56-11.574,4.887-17.49,1.473-6.565,2.371-13.188,3.382-19.83.038-.251.457-.193.443.06a126.085,126.085,0,0,1-2.963,19.7,163.765,163.765,0,0,1-5.538,19.667c-.151.43-.908.4-.853-.116A6.489,6.489,0,0,1,49.389,341.146Z" transform="translate(-23.012 -142.549)"/>
      <path id="Path_29935" data-name="Path 29935" class="cls-2" d="M43.449,341.623a270.236,270.236,0,0,0,9.942-40.1c.046-.285.477-.163.433.119a237.771,237.771,0,0,1-9.577,40.2C44.076,342.344,43.285,342.135,43.449,341.623Z" transform="translate(-20.401 -141.571)"/>
      <path id="Path_29936" data-name="Path 29936" class="cls-2" d="M41.492,339.261a.318.318,0,0,1,.343-.293A257.4,257.4,0,0,0,49.842,300c.029-.241.41-.246.383,0a237.951,237.951,0,0,1-8.083,40.768c-.12.408-.8.352-.769-.106S41.439,339.729,41.492,339.261Z" transform="translate(-19.435 -140.848)"/>
      <path id="Path_29937" data-name="Path 29937" class="cls-2" d="M33.565,337.5c.192-.729.384-1.458.572-2.188a.308.308,0,0,1,.53-.134c3.258-7.145,5.149-14.708,6.659-22.425.814-4.159,1.543-8.335,2.394-12.486.232-1.129.23-3.45,1.261-4.189.433-.31,1.068-.332,1.046.318-.006.191-.286.295-.382.106A6.117,6.117,0,0,0,45,297.772c-.128.436-.182.9-.272,1.35q-.271,1.353-.53,2.707c-.345,1.811-.672,3.625-1,5.439-.645,3.533-1.283,7.069-2.047,10.579-1.495,6.868-3.441,13.77-6.813,19.978a.424.424,0,0,1-.775-.325Z" transform="translate(-15.761 -138.993)"/>
      <path id="Path_29938" data-name="Path 29938" class="cls-2" d="M27.744,336.656c.109-.53.2-1.064.292-1.6a.262.262,0,0,1,.328-.2c2.3-6.654,4.762-13.2,6.622-20.018a197.881,197.881,0,0,0,4.926-22.443c.036-.24.4-.138.364.1a203.9,203.9,0,0,1-4.56,22.852,138.455,138.455,0,0,1-7.269,21.6C28.257,337.369,27.664,337.06,27.744,336.656Z" transform="translate(-13.03 -137.297)"/>
      <path id="Path_29939" data-name="Path 29939" class="cls-2" d="M22.875,334.772c.257-.715.488-1.439.722-2.162a.259.259,0,0,1,.2-.184,172.422,172.422,0,0,0,6.429-19.581c1.921-7.489,3.51-15.083,5.064-22.655.059-.289.493-.165.44.121-1.432,7.718-2.836,15.422-4.772,23.036-1.869,7.356-4.025,14.884-7.343,21.733a.406.406,0,0,1-.738-.309Z" transform="translate(-10.741 -136.248)"/>
      <path id="Path_29940" data-name="Path 29940" class="cls-2" d="M20.408,330.772l.019.067c4.03-12.522,7.905-25.021,10.76-37.883.053-.243.422-.139.371.1-2.734,13.27-6.027,26.62-10.751,39.338-.127.34-.742.452-.808,0q-.109-.726-.212-1.452C19.726,330.543,20.291,330.36,20.408,330.772Z" transform="translate(-9.293 -137.559)"/>
      <path id="Path_29941" data-name="Path 29941" class="cls-2" d="M15.75,328.291a.365.365,0,0,1,.446-.311c3.673-11.779,7.253-23.595,10.079-35.613.068-.287.508-.165.443.122a380.46,380.46,0,0,1-10.357,37.941c-.151.441-.936.407-.871-.118C15.574,329.639,15.663,328.966,15.75,328.291Z" transform="translate(-7.275 -137.271)"/>
      <path id="Path_29942" data-name="Path 29942" class="cls-2" d="M11.975,327.721a.306.306,0,0,1,.471-.265c2.813-10.091,5.749-20.138,8.435-30.269a.226.226,0,0,1,.435.12,278.362,278.362,0,0,1-8.545,32.215c-.151.443-.877.4-.855-.116Q11.953,328.565,11.975,327.721Z" transform="translate(-5.598 -139.538)"/>
      <path id="Path_29943" data-name="Path 29943" class="cls-2" d="M8.814,327.119a.348.348,0,0,1,.379-.147c.2-.906.722-2.45.8-2.765.241-1.02.4-2.057.589-3.087a57.375,57.375,0,0,1,1.622-6.346c.67-2.174,1.383-4.333,2.083-6.5a57.12,57.12,0,0,1,2.2-6.353c.12-.26.481-.064.435.183a67.062,67.062,0,0,1-2.215,7.54c-.786,2.515-1.616,5.021-2.314,7.563-.633,2.305-.968,4.65-1.485,6.978-.206.927-.574,3.491-1.8,3.652-.171.022-.3-.134-.357-.273a.407.407,0,0,1,.068-.449Z" transform="translate(-4.09 -141.78)"/>
      <path id="Path_29944" data-name="Path 29944" class="cls-2" d="M5.6,321.8a.261.261,0,0,1,.375-.025A161.824,161.824,0,0,0,11.743,303.1c.053-.234.414-.135.36.1a153.9,153.9,0,0,1-5.779,20.056.421.421,0,0,1-.7.183A1.1,1.1,0,0,1,5.6,321.8Z" transform="translate(-2.464 -142.329)"/>
      <path id="Path_29945" data-name="Path 29945" class="cls-2" d="M2.832,324.123c1.144-4.919,2.883-9.786,4.494-14.567a.255.255,0,0,1,.492.136c-.644,2.459-1.313,4.9-2.03,7.344q-.515,1.755-1.037,3.507L4.232,322.3a15.366,15.366,0,0,0-.627,1.713.349.349,0,0,1-.065.525l-.1.072a.348.348,0,0,1-.362,0l-.063-.045a.4.4,0,0,1-.181-.437Z" transform="translate(-1.325 -145.338)"/>
      <path id="Path_29946" data-name="Path 29946" class="cls-2" d="M.538,321.044a64.593,64.593,0,0,0,2.545-8.826c.053-.329.553-.189.5.138a31.09,31.09,0,0,1-2.374,8.972.371.371,0,0,1-.672-.284Z" transform="translate(-0.249 -146.585)"/>
      <path id="Path_29947" data-name="Path 29947" class="cls-2" d="M1.06,315.925a.289.289,0,0,1,.557.154,23.756,23.756,0,0,1-1.047,4.086A.307.307,0,0,1,0,320.008,23.483,23.483,0,0,1,1.06,315.925Z" transform="translate(0 -148.323)"/>
      <path id="Path_29948" data-name="Path 29948" class="cls-3" d="M298.1,299.112a52.491,52.491,0,0,1,2.911,7.411.275.275,0,0,1,.188.139,1.7,1.7,0,0,1,.247,1.31c-.053.371-.554.274-.658,0a64.682,64.682,0,0,1-3.01-8.726C297.742,299.061,298.008,298.928,298.1,299.112Z" transform="translate(-139.89 -140.475)"/>
      <path id="Path_29949" data-name="Path 29949" class="cls-3" d="M307.59,304.186a63.229,63.229,0,0,1,3.234,8.656.307.307,0,0,1,.209.163,2.063,2.063,0,0,1,.274,1.53c-.059.433-.615.318-.731,0a77.908,77.908,0,0,1-3.34-10.191C307.187,304.126,307.483,303.97,307.59,304.186Z" transform="translate(-144.331 -142.852)"/>
      <path id="Path_29950" data-name="Path 29950" class="cls-3" d="M301.776,300.281a79.712,79.712,0,0,1,4.494,11.3.424.424,0,0,1,.29.212,2.557,2.557,0,0,1,.381,2c-.082.565-.854.417-1.015,0-1.655-4.28-3.64-8.83-4.645-13.3C301.216,300.2,301.627,300,301.776,300.281Z" transform="translate(-141.532 -141.002)"/>
      <path id="Path_29951" data-name="Path 29951" class="cls-3" d="M292.074,294.507c1.283,3.107,2.53,6.224,3.665,9.389a68.136,68.136,0,0,1,3.142,9.56c.064.323-.424.589-.573.242-1.293-2.979-2.056-6.26-3.112-9.336-1.12-3.264-2.257-6.526-3.463-9.76C291.652,294.385,291.989,294.3,292.074,294.507Z" transform="translate(-137.045 -138.298)"/>
      <path id="Path_29952" data-name="Path 29952" class="cls-3" d="M286.827,291.926a121.39,121.39,0,0,1,4.16,11.67c1.4,4.083,2.82,8.16,4.189,12.253.163.487-.6.692-.766.212-1.369-3.984-2.694-7.984-4.03-11.978a123.874,123.874,0,0,1-3.878-12.02C286.462,291.877,286.738,291.735,286.827,291.926Z" transform="translate(-134.591 -137.098)"/>
      <path id="Path_29953" data-name="Path 29953" class="cls-3" d="M279.934,290.494a162.345,162.345,0,0,1,10.028,28.679.4.4,0,0,1-.769.212,254.744,254.744,0,0,0-9.582-28.754C279.535,290.447,279.853,290.311,279.934,290.494Z" transform="translate(-131.35 -136.427)"/>
      <path id="Path_29954" data-name="Path 29954" class="cls-3" d="M273.532,284.793a81.93,81.93,0,0,1,2.785,8.787q1.339,4.567,2.609,9.155,1.231,4.438,2.4,8.894a94.348,94.348,0,0,1,2.27,9.247.328.328,0,1,1-.633.174c-1-2.887-1.6-5.946-2.365-8.9q-1.2-4.607-2.45-9.2-1.209-4.445-2.462-8.877c-.856-3.035-1.921-6.082-2.5-9.184a.178.178,0,0,1,.343-.094Z" transform="translate(-128.337 -133.733)"/>
      <path id="Path_29955" data-name="Path 29955" class="cls-3" d="M267.679,280.915c2.276,6.469,4.077,13.115,5.8,19.746s3.363,13.314,4.645,20.046c.083.435-.53.767-.76.318a4.241,4.241,0,0,1-.516-2.129.387.387,0,0,1,.012-.056c-1.331-6-2.645-12-4.152-17.969-1.682-6.652-3.621-13.232-5.368-19.865a.177.177,0,0,1,.34-.091Z" transform="translate(-125.589 -131.914)"/>
      <path id="Path_29956" data-name="Path 29956" class="cls-3" d="M261.314,277.669a34.461,34.461,0,0,1,1.557,5.275q.769,2.931,1.485,5.874,1.4,5.738,2.639,11.516c1.641,7.613,3.271,15.309,4.262,23.038.053.406-.636.5-.716.1-1.518-7.73-2.767-15.5-4.4-23.212q-1.194-5.633-2.523-11.234-.695-2.95-1.423-5.891a40.013,40.013,0,0,1-1.214-5.371.181.181,0,0,1,.334-.09Z" transform="translate(-122.604 -130.404)"/>
      <path id="Path_29957" data-name="Path 29957" class="cls-3" d="M259.469,277.643c1.692,7.822,3.194,15.677,4.572,23.56q1.007,5.762,1.941,11.537c.621,3.859,1.459,7.776,1.723,11.678a.353.353,0,0,1-.689.093c-.873-3.778-1.243-7.716-1.852-11.546q-.943-5.932-1.945-11.854c-1.326-7.8-2.713-15.588-4.093-23.375C259.086,277.515,259.42,277.417,259.469,277.643Z" transform="translate(-121.73 -130.371)"/>
      <path id="Path_29958" data-name="Path 29958" class="cls-3" d="M254.8,278.155c1.791,8.259,3.413,16.543,4.813,24.88,1.364,8.121,2.9,16.39,3.5,24.61.033.444-.708.552-.786.106-1.425-8.218-2.251-16.557-3.562-24.8s-2.758-16.485-4.333-24.7C254.39,278.018,254.75,277.914,254.8,278.155Z" transform="translate(-119.526 -130.607)"/>
      <path id="Path_29959" data-name="Path 29959" class="cls-3" d="M253.451,294.547c1.691,6.8,3.251,13.632,4.525,20.525q.942,5.094,1.731,10.215a97.007,97.007,0,0,1,1.312,10.064.294.294,0,0,1-.575.078c-.7-3.369-1.007-6.836-1.526-10.238s-1.092-6.823-1.7-10.224c-1.22-6.8-2.549-13.591-4.1-20.327C253.061,294.421,253.4,294.327,253.451,294.547Z" transform="translate(-118.905 -138.313)"/>
      <path id="Path_29960" data-name="Path 29960" class="cls-3" d="M248.905,307.355c3.643,11.608,6.783,23.715,7.485,35.931a2.725,2.725,0,0,1,.06,1.016.389.389,0,0,1-.777,0c-.82-6.31-1.47-12.589-2.7-18.839a170.419,170.419,0,0,0-4.406-18.014C248.5,307.231,248.837,307.138,248.905,307.355Z" transform="translate(-116.766 -144.331)"/>
      <path id="Path_29961" data-name="Path 29961" class="cls-3" d="M244.773,319.115a263.1,263.1,0,0,1,6.2,29.645.314.314,0,0,1,.239.3c-.007.432-.008.863-.01,1.295,0,.454-.753.592-.823.111a282.921,282.921,0,0,0-6-31.244.2.2,0,1,1,.4-.109Z" transform="translate(-114.801 -149.843)"/>
      <path id="Path_29962" data-name="Path 29962" class="cls-3" d="M247.115,351.919c-.139-.136-.282-.265-.424-.4a69.809,69.809,0,0,1-1.417-7.149q-.686-3.666-1.367-7.332t-1.353-7.336a33.377,33.377,0,0,1-1-6.49.174.174,0,0,1,.34-.046c.883,2.121,1.094,4.688,1.531,6.938q.71,3.658,1.406,7.322t1.392,7.326a61.885,61.885,0,0,1,1.2,6.833.3.3,0,0,1-.3.332Z" transform="translate(-113.476 -151.761)"/>
      <path id="Path_29963" data-name="Path 29963" class="cls-3" d="M248.226,312.917c.032-.291.488-.3.463,0-.231,2.783.867,5.575,1.513,8.251q.921,3.818,1.655,7.682t1.3,7.75a60.858,60.858,0,0,1,.908,7.911c0,.389-.618.494-.7.094-.53-2.757-.685-5.608-1.09-8.386q-.589-4.04-1.357-8.05t-1.7-7.986C248.667,317.782,247.952,315.409,248.226,312.917Z" transform="translate(-116.583 -146.898)"/>
      <path id="Path_29964" data-name="Path 29964" class="cls-3" d="M242.829,352.738c-1.632-7.346-2.435-14.91-3.773-22.3-.048-.265.355-.375.4-.111,1.4,7.713,3.393,15.4,4.413,23.181C243.528,353.245,243.179,352.99,242.829,352.738Z" transform="translate(-112.302 -155.109)"/>
      <path id="Path_29965" data-name="Path 29965" class="cls-3" d="M235.6,333.058c-.047-.274.371-.391.419-.116,1.074,6.244,2.635,12.382,3.856,18.6.1.525-.686.754-.81.223q-.085-.382-.188-.76a.3.3,0,0,1,0-.066C237.481,345.041,236.624,339.021,235.6,333.058Z" transform="translate(-110.677 -156.336)"/>
      <path id="Path_29966" data-name="Path 29966" class="cls-3" d="M234.559,349.965c-.738-4.248-1.229-8.536-1.969-12.778-.04-.227.309-.325.348-.1.862,4.938,2.068,9.817,2.822,14.781.065.428-.534.786-.766.323a4.542,4.542,0,0,1-.53-2.015.273.273,0,0,1,.1-.215Z" transform="translate(-109.265 -158.297)"/>
      <path id="Path_29967" data-name="Path 29967" class="cls-3" d="M229.309,341.667c.427,1.97.888,3.933,1.314,5.9.2.918,1.052,2.788.455,3.651a.394.394,0,0,1-.424.172.477.477,0,0,1-.391-.293.353.353,0,0,1,.053-.418l.043-.043a.773.773,0,0,1-.053-.474q-.106-.6-.215-1.193-.212-1.195-.417-2.391c-.27-1.6-.521-3.2-.8-4.793C228.831,341.508,229.247,341.383,229.309,341.667Z" transform="translate(-107.521 -160.432)"/>
      <path id="Path_29968" data-name="Path 29968" class="cls-3" d="M226.249,349.511c-.153-1.557-.22-3.118-.424-4.673-.03-.225.325-.223.354,0,.243,1.843.689,3.646.938,5.489.046.338-.371.721-.656.382a1.149,1.149,0,0,1-.337-.984A.312.312,0,0,1,226.249,349.511Z" transform="translate(-106.087 -161.919)"/>
      <path id="Path_29969" data-name="Path 29969" class="cls-3" d="M221.89,347.739a.223.223,0,0,1,.436.059c.01.546.017,1.1.066,1.644a8.986,8.986,0,0,1,.24,1.621c-.024.251-.371.487-.571.236C221.352,350.409,221.518,348.739,221.89,347.739Z" transform="translate(-104.089 -163.287)"/>
      <path id="Path_29970" data-name="Path 29970" class="cls-4" d="M249.462,272.94a15.772,15.772,0,0,1,2.046,4.8c.1-.238.492-.3.539.011a57.589,57.589,0,0,0,2.583,9.056.327.327,0,0,1-.6.251,27.131,27.131,0,0,1-2.492-8.757.287.287,0,0,1-.491.015,17.251,17.251,0,0,1-.88-2.5c-.323-.919-.661-1.836-1.03-2.738C249.065,272.889,249.367,272.77,249.462,272.94Z" transform="translate(-117.036 -128.183)"/>
      <path id="Path_29971" data-name="Path 29971" class="cls-4" d="M305.222,301.345a15.772,15.772,0,0,1,2.046,4.8c.1-.238.492-.3.539.011a57.59,57.59,0,0,0,2.583,9.056.327.327,0,0,1-.6.251A27.132,27.132,0,0,1,307.3,306.7a.287.287,0,0,1-.491.015,17.249,17.249,0,0,1-.88-2.5c-.323-.919-.661-1.836-1.03-2.738C304.825,301.294,305.126,301.177,305.222,301.345Z" transform="translate(-143.231 -141.528)"/>
      <path id="Path_29972" data-name="Path 29972" class="cls-4" d="M248.457,274.007c.286,1.259.828,2.474,1.015,3.753a.331.331,0,0,1-.636.176c-.387-1.239-.424-2.574-.712-3.837C248.074,273.882,248.408,273.79,248.457,274.007Z" transform="translate(-116.561 -128.665)"/>
      <path id="Path_29973" data-name="Path 29973" class="cls-4" d="M307.007,303.31c.286,1.259.828,2.474,1.015,3.753a.331.331,0,0,1-.636.176c-.387-1.239-.424-2.574-.712-3.837C306.624,303.185,306.958,303.092,307.007,303.31Z" transform="translate(-144.067 -142.43)"/>
      <path id="Path_29974" data-name="Path 29974" class="cls-4" d="M219.7,343.178a6.813,6.813,0,0,1,.432,1.227,4.346,4.346,0,0,1,.268,1.314c-.013.3-.456.472-.611.165a4.314,4.314,0,0,1-.3-1.3,6.833,6.833,0,0,1-.12-1.314C219.372,343.1,219.617,343.009,219.7,343.178Z" transform="translate(-103.054 -161.176)"/>
      <path id="Path_29975" data-name="Path 29975" class="cls-4" d="M216.286,340.693a.186.186,0,1,1,.371,0,8.454,8.454,0,0,0,.318,2.439c.2.693.519,1.388.656,2.091a.325.325,0,0,1-.591.249C216.252,344.145,216.284,342.188,216.286,340.693Z" transform="translate(-101.606 -159.963)"/>
      <path id="Path_29976" data-name="Path 29976" class="cls-4" d="M294.438,294.457a87.345,87.345,0,0,1,3.4,8.924l1.665,4.608c.3.837,1.214,2.272.919,3.169a.4.4,0,0,1-.38.289l-.168-.011a.387.387,0,0,1-.378-.378l0-.132a.311.311,0,0,1,.076-.212.767.767,0,0,1-.115-.5l-.407-1.154-.611-1.731q-.763-2.164-1.523-4.33a81.747,81.747,0,0,1-2.789-8.414C294.081,294.408,294.348,294.275,294.438,294.457Z" transform="translate(-138.172 -138.289)"/>
      <path id="Path_29977" data-name="Path 29977" class="cls-4" d="M300.388,298.18a80.606,80.606,0,0,1,2.906,8q.712,2.064,1.423,4.129c.258.75,1.038,2.036.786,2.84a.346.346,0,0,1-.325.259l-.144-.01a.338.338,0,0,1-.323-.338l0-.118a.287.287,0,0,1,.065-.19.713.713,0,0,1-.1-.445l-.348-1.034-.522-1.551q-.652-1.94-1.3-3.88a76.317,76.317,0,0,1-2.386-7.54C300.084,298.136,300.312,298.017,300.388,298.18Z" transform="translate(-140.987 -140.042)"/>
      <path id="Path_29978" data-name="Path 29978" class="cls-4" d="M289.657,295.323a87.749,87.749,0,0,1,6.2,19.556c.081.472-.615.685-.732.2a151.714,151.714,0,0,0-5.79-19.623C289.266,295.274,289.578,295.141,289.657,295.323Z" transform="translate(-135.92 -138.696)"/>
      <path id="Path_29979" data-name="Path 29979" class="cls-4" d="M280.55,288.265a73.042,73.042,0,0,1,5.006,10.808,64.694,64.694,0,0,1,3.456,11.914.394.394,0,0,1-.76.212c-1.09-3.8-1.981-7.62-3.3-11.359-1.365-3.871-2.99-7.668-4.7-11.4C280.157,288.243,280.437,288.066,280.55,288.265Z" transform="translate(-131.647 -135.38)"/>
      <path id="Path_29980" data-name="Path 29980" class="cls-4" d="M275.207,285.728a74.55,74.55,0,0,1,4.295,11.494,63.76,63.76,0,0,1,2.764,11.979c.038.4-.591.469-.695.094-1.089-3.914-1.745-7.938-2.887-11.848s-2.565-7.7-3.877-11.551C274.729,285.662,275.1,285.5,275.207,285.728Z" transform="translate(-129.094 -134.178)"/>
      <path id="Path_29981" data-name="Path 29981" class="cls-4" d="M269.312,282.352a38.2,38.2,0,0,1,3.446,9.037c.841,2.962,1.973,6.406,1.88,9.51a.335.335,0,0,1-.654.089,41.078,41.078,0,0,1-.907-4.557q-.5-2.424-1.16-4.81c-.857-3.083-2.137-6.032-3-9.1a.217.217,0,0,1,.4-.166Z" transform="translate(-126.327 -132.592)"/>
      <path id="Path_29982" data-name="Path 29982" class="cls-4" d="M263.156,279.625c1.453,2.489,2.152,5.61,2.874,8.377a44.571,44.571,0,0,1,1.715,8.732.385.385,0,0,1-.752.1c-.731-2.829-1.078-5.761-1.8-8.6-.718-2.815-1.9-5.6-2.417-8.448a.212.212,0,0,1,.384-.16Z" transform="translate(-123.443 -131.318)"/>
      <path id="Path_29983" data-name="Path 29983" class="cls-4" d="M255.908,276.114c.926,2.957,1.825,5.919,2.612,8.916a68.833,68.833,0,0,1,1.994,8.565c.057.445-.626.493-.752.1-.912-2.831-1.4-5.846-2.121-8.735-.721-2.909-1.435-5.821-2.208-8.717a.247.247,0,0,1,.476-.131Z" transform="translate(-119.993 -129.627)"/>
      <path id="Path_29984" data-name="Path 29984" class="cls-5" d="M91.735,340.976c-.541-.981.071-3.037.2-4.083.162-1.348.407-2.688.548-4.037.035-.328.552-.331.518,0-.2,1.856-.269,3.729-.446,5.589-.087.916.106,2.433-.553,3.16a.393.393,0,0,1-.384.1l-.2-.053a.371.371,0,0,1-.262-.344l-.015-.17a.322.322,0,0,1,.595-.164Z" transform="translate(-42.816 -156.253)"/>
      <path id="Path_29985" data-name="Path 29985" class="cls-5" d="M85.936,342.158a59.688,59.688,0,0,0,1.319-7.374,36.055,36.055,0,0,1,1.1-6.553c.065-.221.44-.19.417.056-.235,2.545-.586,5.079-.823,7.626-.2,2.159-.367,4.56-1.4,6.5C86.362,342.758,85.855,342.514,85.936,342.158Z" transform="translate(-40.367 -154.127)"/>
      <path id="Path_29986" data-name="Path 29986" class="cls-5" d="M82.229,323.512c-.031-.216.261-.391.384-.162,1.383,2.58.453,6.266.075,9.01a54.115,54.115,0,0,1-2.248,10.9.358.358,0,0,1-.689-.19C80.768,336.635,83.17,330.1,82.229,323.512Z" transform="translate(-37.461 -151.853)"/>
      <path id="Path_29987" data-name="Path 29987" class="cls-5" d="M72.1,347.287a.277.277,0,0,1,.155-.229c.658-2.975,1.492-5.919,2.129-8.9.728-3.4,1.322-6.827,2.019-10.233.053-.255.487-.2.46.062a101.118,101.118,0,0,1-1.627,10.1,85.4,85.4,0,0,1-2.528,10.442.38.38,0,0,1-.733-.2Q72.035,347.805,72.1,347.287Z" transform="translate(-33.806 -153.974)"/>
      <path id="Path_29988" data-name="Path 29988" class="cls-5" d="M65.7,352.228c.747-3.124,1.734-6.144,2.338-9.312s1.214-6.31,2.03-9.428a.261.261,0,0,1,.5.139c-.841,3.213-1.231,6.515-1.8,9.784-.527,3.008-1.007,6.351-2.512,9.051a.305.305,0,0,1-.557-.234Z" transform="translate(-30.859 -156.58)"/>
      <path id="Path_29989" data-name="Path 29989" class="cls-5" d="M59.962,358.571q-.5.159-1,.33a113.308,113.308,0,0,0,4.26-17.736c.046-.327.542-.188.5.137A102.087,102.087,0,0,1,60.1,358.493Z" transform="translate(-27.7 -160.185)"/>
      <path id="Path_29990" data-name="Path 29990" class="cls-5" d="M53.323,362.993q-.657.282-1.3.593a39.231,39.231,0,0,0,2.364-7.592c.64-2.672,1.222-5.345,1.665-8.059.06-.371.622-.212.563.155-.474,2.905-.951,5.815-1.575,8.692A28.153,28.153,0,0,1,53.323,362.993Z" transform="translate(-24.439 -163.353)"/>
      <path id="Path_29991" data-name="Path 29991" class="cls-5" d="M45.482,368.234c-.3.3-.61.587-.937.855A81.277,81.277,0,0,0,47.938,354.9c.049-.387.665-.392.615,0a78.282,78.282,0,0,1-2.67,13.177A.524.524,0,0,0,45.482,368.234Z" transform="translate(-20.926 -166.586)"/>
      <path id="Path_29992" data-name="Path 29992" class="cls-5" d="M39.214,373.667c.6-2.927,1.757-5.667,2.165-8.663.045-.327.626-.253.583.079-.377,2.908-.7,6.233-2.072,8.868C39.688,374.341,39.132,374.06,39.214,373.667Z" transform="translate(-18.418 -171.372)"/>
      <path id="Path_29993" data-name="Path 29993" class="cls-6" d="M138.062,116.471a84.216,84.216,0,0,0,6.181-18.9c.3-1.682.159-4.473,2.476-4.57,1.856-.077,3.475,1.568,4.308,3.065,2.453,4.406,1.166,10.473.575,15.17A159.658,159.658,0,0,1,148,130.341q-1.385,5.487-3.155,10.866c-.8,2.439-1.5,5.506-3.987,6.771a.307.307,0,1,1-.309-.53c2.254-1.452,2.9-4.324,3.683-6.719q1.344-4.1,2.465-8.277a160.038,160.038,0,0,0,3.529-16.6c.776-4.92,1.845-10.267,1.366-15.27-.221-2.3-.941-4.729-2.871-6.172a2.79,2.79,0,0,0-2-.757,3.831,3.831,0,0,0-1.367,1.243,3.339,3.339,0,0,0-.15.869c-.208,1.318-.442,2.631-.719,3.936a61.083,61.083,0,0,1-6.069,16.971c-.131.234-.454.029-.352-.206Z" transform="translate(-64.85 -43.688)"/>
      <path id="Path_29994" data-name="Path 29994" class="cls-6" d="M144.433,157.459a69.451,69.451,0,0,0,7.863-19.081c.845-3.258,1.542-6.551,2.179-9.855.57-2.957.672-6.6,2.271-9.226,1.133-1.856,3.427-3.075,5.5-1.98,2.4,1.267,2.813,4.142,2.839,6.581a105.933,105.933,0,0,1-9.51,43.616c-.206.438-.828.053-.643-.375a110.811,110.811,0,0,0,9.18-37.221q.137-2.292.174-4.589c.029-1.829.148-3.864-.717-5.538-.915-1.769-2.916-2.75-4.732-1.612a6.418,6.418,0,0,0-2.471,4.229c-1.347,5.81-2.177,11.7-3.782,17.461a59.147,59.147,0,0,1-7.8,17.8c-.148.212-.494.021-.354-.207Z" transform="translate(-67.836 -54.919)"/>
      <path id="Path_29995" data-name="Path 29995" class="cls-6" d="M153.006,231.264c-.659-.491-1.208-1.1-1.872-1.591a5.545,5.545,0,0,0-1.253-.8l-.44-.232-.8,1.106c-.111.612.59,1.4.506,2.1a1.776,1.776,0,0,1-.583,1.167,1.22,1.22,0,0,1-1.83-.159,38.312,38.312,0,0,1-3.207-4.258c-.2-.265.251-.616.462-.356q.883,1.09,1.75,2.191a11.2,11.2,0,0,0,1.039,1.326l.345.443q1.523-.553,1.077-1.522c-.106-1.188-.738-1.987.265-2.988a.357.357,0,0,1,.417-.053,9.411,9.411,0,0,1,4.4,3.356c.093.159-.106.393-.27.27Z" transform="translate(-67.403 -106.918)"/>
      <path id="Path_29996" data-name="Path 29996" class="cls-6" d="M130.573,212.847a7.462,7.462,0,0,1-1.267-.465,3.336,3.336,0,0,0-1.047-.127l.315-.181c-.493,1.138,2.062,3,.413,4.09-1.273.843-2.752-1.113-3.188-2.083-.174-.387.359-.723.583-.34a4.591,4.591,0,0,0,1.232,1.437c.265.195.772.53,1.056.129.172-.241-.043-.751-.15-.985-.415-.911-1.054-1.594-.575-2.617a.358.358,0,0,1,.315-.181c.833.013,2.64.345,2.626,1.448a.279.279,0,0,1-.138.24.424.424,0,0,1-.45.043.26.26,0,0,1-.185-.242v-.106a.235.235,0,0,1,.46-.062Z" transform="translate(-59.082 -99.37)"/>
      <path id="Path_29997" data-name="Path 29997" class="cls-6" d="M109.719,197.763a4.059,4.059,0,0,1-2.96-.279.324.324,0,0,1,.249-.591,8.56,8.56,0,0,0,2.638.333.275.275,0,0,1,.073.537Z" transform="translate(-50.081 -92.492)"/>
      <path id="Path_29998" data-name="Path 29998" class="cls-6" d="M108.3,198.406a7.842,7.842,0,0,1,2.623,3.977.378.378,0,0,1-.549.424,6.819,6.819,0,0,1-2.578-3.038c-.147-.342.323-.645.514-.3a7.769,7.769,0,0,0,2.439,2.692l-.549.424a10.526,10.526,0,0,0-2.174-3.9.194.194,0,0,1,.274-.274Z" transform="translate(-50.627 -93.184)"/>
      <path id="Path_29999" data-name="Path 29999" class="cls-6" d="M121.769,183.353a9.128,9.128,0,0,0-4.6-3.4.314.314,0,0,1,.166-.6,6.516,6.516,0,0,1,4.82,3.782c.083.212-.249.408-.39.227Z" transform="translate(-54.944 -84.249)"/>
      <path id="Path_30000" data-name="Path 30000" class="cls-6" d="M142.341,198.248a4.147,4.147,0,0,1-.636-.914,7.786,7.786,0,0,0-.894-1.122,11.717,11.717,0,0,0-2.166-1.639c-.286-.187-.112-.7.244-.58a6.2,6.2,0,0,1,2.446,1.7,4.339,4.339,0,0,1,1.379,2.407.218.218,0,0,1-.371.153Z" transform="translate(-65.065 -91.125)"/>
      <path id="Path_30001" data-name="Path 30001" class="cls-6" d="M165.7,214.4a8.844,8.844,0,0,0-3.732-2.9c-.35-.135-.212-.689.159-.574a6.621,6.621,0,0,1,3.951,3.181c.116.228-.2.516-.378.291Z" transform="translate(-75.993 -99.081)"/>
      <path id="Path_30002" data-name="Path 30002" class="cls-6" d="M67.811,184.786a17.922,17.922,0,0,0-4.1-14.83,15.846,15.846,0,0,0-6.416-4.529,5.828,5.828,0,0,0-3.919-.226c-2.194.82-1.473,3.2-.868,4.889,4.361,12.154,1.488,25.447,4.6,37.875a62.084,62.084,0,0,0,8.654,19.052c.25.381-.34.7-.6.351a55,55,0,0,1-8.749-18.934c-1.819-7.115-1.841-14.359-2.077-21.649a67.941,67.941,0,0,0-1.156-11.649,40.414,40.414,0,0,0-1.445-5.1c-.438-1.256-.934-2.68-.334-3.977.918-1.98,3.527-2.015,5.344-1.533a15.218,15.218,0,0,1,6.563,4.023c4.168,4.159,6.451,10.557,4.952,16.36-.076.293-.493.164-.445-.122Z" transform="translate(-24.015 -77.17)"/>
      <path id="Path_30003" data-name="Path 30003" class="cls-6" d="M58.89,271.071c-1.252,2.174-3.67,4.01-5.567,5.62A37.014,37.014,0,0,1,47,281.313c-.293.156-.659-.254-.374-.485,2.078-1.678,4.312-3.14,6.355-4.873,1.9-1.61,3.61-3.752,5.679-5.117.144-.1.311.09.23.23Z" transform="translate(-21.855 -127.222)"/>
      <path id="Path_30004" data-name="Path 30004" class="cls-6" d="M203.031,291.485a8.277,8.277,0,0,1-6.343,2.8c-.309-.019-.416-.5-.077-.57a18.227,18.227,0,0,0,3.139-.749,15.093,15.093,0,0,0,3.061-1.771c.179-.125.347.138.22.285Z" transform="translate(-92.266 -136.784)"/>
      <path id="Path_30005" data-name="Path 30005" class="cls-6" d="M222.492,310.111l.468.245c.3.156.028.625-.265.453-2.62-1.538-5.137-3.274-7.672-4.949-2.379-1.571-4.9-3.047-7.123-4.832-.283-.227.079-.659.379-.49,2.545,1.432,4.923,3.265,7.35,4.889,2.444,1.636,4.946,3.208,7.331,4.931l-.318.412-.4-.339c-.181-.155.05-.42.245-.318Z" transform="translate(-97.619 -141.168)"/>
      <path id="Path_30006" data-name="Path 30006" class="cls-6" d="M186.815,320.463a57.946,57.946,0,0,1-7.915-5.43c-3.006-2.549-5.705-5.459-8.56-8.17a25.882,25.882,0,0,0-6.529-4.658c-2.63-1.277-5.427-2.191-8.12-3.326-3.707-1.562-7.257-3.234-10.191-6.06-.314-.3.141-.714.464-.464a37.792,37.792,0,0,0,5.419,3.771,68.905,68.905,0,0,0,6.538,2.9c4.593,1.837,8.84,3.566,12.5,7,2.885,2.7,5.576,5.62,8.545,8.236,2.5,2.2,5.392,3.871,8.067,5.832.221.162.027.524-.221.377Z" transform="translate(-68.303 -137.306)"/>
      <path id="Path_30007" data-name="Path 30007" class="cls-6" d="M193.264,210.912c-1.516-1.61-3.087-3.157-4.537-4.831-.247-.286.154-.7.419-.419,1.524,1.612,2.91,3.333,4.363,5.005.145.166-.091.409-.245.245Z" transform="translate(-88.624 -96.572)"/>
      <path id="Path_30008" data-name="Path 30008" class="cls-6" d="M113.931,124.636a12.193,12.193,0,0,0-1.127-1.53c-1.236-1.052-2.709.2-3.26,1.432a6.7,6.7,0,0,0-.312,4.51c.608,2.113,1.777,4.015,2.459,6.1.1.3-.389.516-.52.219-1.339-3.04-3.415-6.25-2.69-9.706.305-1.457,1.21-3.393,2.831-3.736,1.48-.312,2.73,1.22,2.909,2.545.02.151-.162.318-.29.169Z" transform="translate(-50.892 -57.257)"/>
      <path id="Path_30009" data-name="Path 30009" class="cls-6" d="M103.159,139.77c-1.843-2.015-3.462-4.245-5.18-6.363a14.765,14.765,0,0,0-2.4-2.863,2.3,2.3,0,0,0-2.853.388,3.774,3.774,0,0,0-.442.987,7.077,7.077,0,0,0-.132,2.768c.619,5.355,4.3,10.169,6.625,14.894a.31.31,0,0,1-.535.313,80.331,80.331,0,0,1-4.909-9.279c-1.2-2.655-2.585-5.922-1.708-8.878a3.422,3.422,0,0,1,2.426-2.519c1.425-.246,2.28,1.206,3.067,2.155,2.191,2.642,4.4,5.329,6.377,8.134.143.2-.177.446-.343.265Z" transform="translate(-42.916 -60.691)"/>
      <path id="Path_30010" data-name="Path 30010" class="cls-6" d="M94.224,159.389c-1.618-1.426-2.887-3.493-4.271-5.149-.736-.881-1.476-1.76-2.232-2.626a3.891,3.891,0,0,0-1.391-1.166c-1.881-.891-2.728,1.312-2.9,2.75a16.6,16.6,0,0,0,2.252,10.216,15.683,15.683,0,0,1,1.041,2.011c.218.524.431,1.052.674,1.566.106.222.448.685.259.645.38.079.25.6-.085.63-.643.065-1-1.3-1.176-1.709-.555-1.287-1.219-2.431-1.853-3.677-1.587-3.125-2.863-7.972-1.444-11.381a2.9,2.9,0,0,1,3.139-1.966c1.2.282,2.068,1.722,2.814,2.6q1.687,1.992,3.313,4.037a13.694,13.694,0,0,1,2.152,3.047c.072.176-.175.273-.292.17Z" transform="translate(-38.749 -70.22)"/>
      <path id="Path_30011" data-name="Path 30011" class="cls-6" d="M103.018,140.491c2.348-7.655,5.6-15.017,7.794-22.724,1.747-6.145,3.878-15.641-1.262-20.848a4.772,4.772,0,0,0-2.427-1.591c-1.768-.173-2.233,1.087-2.227,2.573a50.083,50.083,0,0,1-.148,5.678,47.857,47.857,0,0,1-2.481,10.47c-1.192,3.441-2.654,6.782-4.153,10.1-1.62,3.587-3.166,7.233-4.951,10.742-1.981,3.895-4.755,7.277-6.515,11.3-1.892,4.324-3.329,8.849-5.015,13.255-.165.433-.864.255-.706-.195,1.515-4.295,3.013-8.634,4.787-12.828,1.587-3.752,3.988-6.9,5.98-10.415,2.213-3.909,3.908-8.156,5.756-12.248a103.536,103.536,0,0,0,4.784-12.067,40.8,40.8,0,0,0,1.917-13.153c-.061-2.356.819-4.935,3.7-3.757,2.81,1.15,4.42,4.367,5.057,7.158a26.171,26.171,0,0,1-.065,10.143,80.96,80.96,0,0,1-4,13.815c-1.765,4.908-3.43,9.885-5.425,14.706-.1.24-.484.153-.4-.111Z" transform="translate(-38.007 -44.388)"/>
      <path id="Path_30012" data-name="Path 30012" class="cls-6" d="M146.705,185.294c2.041-4.493,4.065-8.982,5.828-13.593q1.2-3.128,2.253-6.31c.7-2.094,1.18-4.317,2.011-6.36,1.229-3.019,4.443-3.34,5.726-.184,1.414,3.471.782,8.084.177,11.671-1.5,8.883-5.6,17.029-8.657,25.427-2.692,7.4-4.726,15.111-8.445,22.1a36.433,36.433,0,0,1-7.961,10.339,50.342,50.342,0,0,1-11.8,7.456c-.437.208-.824-.432-.384-.657,7-3.594,13.376-7.85,17.684-14.593,3.9-6.1,6.082-13.077,8.378-19.883,2.483-7.361,5.715-14.438,8.177-21.8a50.386,50.386,0,0,0,2.654-12.049,25.864,25.864,0,0,0-.114-6.189,4.922,4.922,0,0,0-1.249-2.925c-1.975-1.71-3.346.944-3.813,2.39-2.805,8.686-5.775,17.294-10.174,25.331-.106.192-.376.023-.288-.169Z" transform="translate(-58.843 -73.577)"/>
      <path id="Path_30013" data-name="Path 30013" class="cls-6" d="M123.11,302.636a19.761,19.761,0,0,1-7.832,3.1c-.33.053-.477-.418-.142-.513a55.121,55.121,0,0,0,7.8-2.876.167.167,0,0,1,.169.288Z" transform="translate(-53.999 -142.026)"/>
      <path id="Path_30014" data-name="Path 30014" class="cls-6" d="M110.244,305.445a98.227,98.227,0,0,1-6.855,8.295c-2.458,2.839-4.878,5.771-7.55,8.41-.285.282-.674-.133-.431-.431,2.312-2.839,4.865-5.5,7.278-8.251s4.666-5.689,7.254-8.258c.152-.151.433.049.3.235Z" transform="translate(-44.784 -143.356)"/>
      <path id="Path_30015" data-name="Path 30015" class="cls-6" d="M197.333,302.177c.614-1.847,1.09-3.7,1.644-5.563a.194.194,0,0,1,.379.053,15.956,15.956,0,0,1-1.459,5.75C197.755,302.736,197.223,302.509,197.333,302.177Z" transform="translate(-92.696 -139.279)"/>
      <path id="Path_30016" data-name="Path 30016" class="cls-6" d="M91.117,185.235a14.291,14.291,0,0,0-1.139-.971c-.739-.392-.868.535-.978,1.157a6.469,6.469,0,0,0,.764,3.838c.111.261-.2.583-.429.331a5.343,5.343,0,0,1-.721-5.193c.159-.433.368-1.037.9-1.076.76-.053,1.49,1.147,1.844,1.674.1.144-.1.343-.242.242Z" transform="translate(-41.463 -86.12)"/>
      <path id="Path_30017" data-name="Path 30017" class="cls-6" d="M180.378,261.509a.221.221,0,1,1,.21-.221A.221.221,0,0,1,180.378,261.509Z" transform="translate(-84.639 -122.644)"/>
      <path id="Path_30018" data-name="Path 30018" class="cls-6" d="M208.216,221.816c8.174-10.816,1.232-24.284-1.644-35.634a39.184,39.184,0,0,1-1.332-9.1c-.038-2.964.969-6.9-1.591-9.143-3.022-2.651-6.62,1.644-7.857,4.172a18.508,18.508,0,0,0-1.317,9.956c.308,3.16,1.121,6.374.452,9.544-.617,2.926-2.62,5.249-4.549,7.426-.329.371-.839-.164-.537-.537,2.445-3.011,4.585-5.634,4.55-9.723-.03-3.545-.991-7-.827-10.559a15.2,15.2,0,0,1,2.692-8.378c1.276-1.735,3.486-3.8,5.84-3.465s3.667,2.757,3.94,4.908a28.714,28.714,0,0,1-.053,4.618,31.338,31.338,0,0,0,.461,6.337c1.225,7.2,4.348,13.9,5.673,21.071,1.19,6.432.761,13.536-3.558,18.767-.159.191-.5-.067-.347-.265Z" transform="translate(-89.14 -78.145)"/>
      <path id="Path_30019" data-name="Path 30019" class="cls-6" d="M180.128,254.586a21.3,21.3,0,0,0-.689,5.156,15.878,15.878,0,0,0,1.273,5.025c.115.295-.341.464-.5.212-1.766-2.885-2.212-7.549-.409-10.527a.178.178,0,0,1,.323.136Z" transform="translate(-83.927 -119.497)"/>
      <path id="Path_30020" data-name="Path 30020" class="cls-6" d="M176.45,271.75c-.323.089-.558.225-.9.29-.232.045-.465.082-.7.12a10.771,10.771,0,0,1-1.5.2.338.338,0,0,1-.09-.661,10.8,10.8,0,0,1,1.5-.237c.234-.03.468-.06.7-.083.339-.033.6.031.937.024a.18.18,0,0,1,.048.352Z" transform="translate(-81.285 -127.481)"/>
      <path id="Path_30021" data-name="Path 30021" class="cls-6" d="M210.1,343.883a.193.193,0,1,1,.183-.193A.193.193,0,0,1,210.1,343.883Z" transform="translate(-98.613 -161.368)"/>
      <path id="Path_30022" data-name="Path 30022" class="cls-6" d="M231.875,271.786c3.541-1.975,2.954,6.32,2.889,7.764a42.793,42.793,0,0,1-2.681,12.98c-2.953,7.922-8.494,15.936-15.79,20.458-.832.516-2.008.892-2.3-.26a16.782,16.782,0,0,1-.291-4.166.331.331,0,0,1,.661,0c.042,1.22.178,2.444.279,3.659.012.139-.03.53.053.636.23.305,1.316-.516,1.638-.738a35.13,35.13,0,0,0,2.913-2.265,42.364,42.364,0,0,0,8.727-10.362,44.031,44.031,0,0,0,5.114-12.566,41.986,41.986,0,0,0,1.03-6.91q.106-1.649.08-3.3c-.017-1,.207-5.581-2.174-4.58-.2.085-.336-.248-.148-.352Z" transform="translate(-100.38 -127.538)"/>
      <path id="Path_30023" data-name="Path 30023" class="cls-6" d="M288.574,295.294a.19.19,0,1,1,.19-.19A.19.19,0,0,1,288.574,295.294Z" transform="translate(-135.477 -138.544)"/>
      <path id="Path_30024" data-name="Path 30024" class="cls-6" d="M253.744,279.806a.19.19,0,1,1,.19-.19A.19.19,0,0,1,253.744,279.806Z" transform="translate(-119.115 -131.268)"/>
      <path id="Path_30025" data-name="Path 30025" class="cls-6" d="M240.492,276.1a54.431,54.431,0,0,1-7.02-3.648c-2.447-1.383-4.89-2.8-7.243-4.337-.3-.2-.029-.672.283-.485,2.33,1.4,4.637,2.832,7,4.177,2.347,1.336,4.864,2.482,7.121,3.96.162.106.063.41-.14.332Z" transform="translate(-106.216 -125.705)"/>
      <path id="Path_30026" data-name="Path 30026" class="cls-6" d="M247.509,272.561a15.183,15.183,0,0,0-1.627,2.9c-.139.27-.5.068-.457-.192a6.182,6.182,0,0,1,1.772-3.017c.2-.209.489.1.312.312Z" transform="translate(-115.294 -127.864)"/>
      <path id="Path_30027" data-name="Path 30027" class="cls-6" d="M273.634,284.588c-3.6-1.973-7.152-4.03-10.777-5.959s-7.339-3.679-10.959-5.61c-.333-.178-.04-.636.289-.5a159.421,159.421,0,0,1,21.651,11.712.2.2,0,0,1-.206.352Z" transform="translate(-118.268 -128.013)"/>
      <path id="Path_30028" data-name="Path 30028" class="cls-6" d="M216.17,348.462a78.59,78.59,0,0,1,14.443,11.122c.253.242-.117.591-.378.378-2.349-1.918-4.638-3.9-7.03-5.77s-4.9-3.55-7.274-5.419c-.179-.141.05-.42.24-.31Z" transform="translate(-101.409 -163.689)"/>
      <path id="Path_30029" data-name="Path 30029" class="cls-6" d="M70.194,316.717c-1.893-2.9-3.408-6-5.461-8.814a61.252,61.252,0,0,0-6.92-7.938,60.177,60.177,0,0,0-8.172-6.633q-2.048-1.382-4.208-2.591a23.815,23.815,0,0,0-2.677-1.344,8.981,8.981,0,0,0-1.406-.465c-.337-.075-2.584-.313-2.121.46.212.355-.309.636-.543.318-.606-.826.4-1.493,1.161-1.617,1.688-.274,3.649.812,5.071,1.571a59.288,59.288,0,0,1,10.452,7.158,60.61,60.61,0,0,1,8.71,9.139c2.445,3.169,5.1,6.813,6.431,10.622.067.192-.212.291-.318.134Z" transform="translate(-18.086 -135.32)"/>
      <path id="Path_30030" data-name="Path 30030" class="cls-6" d="M21.747,289.73a8.525,8.525,0,0,0,.571-.96l.434.335a56.4,56.4,0,0,1-9.235,6.922,77.652,77.652,0,0,1-10.6,5.642c-.418.182-.787-.43-.363-.621a88,88,0,0,0,10.358-5.509c3.337-2.088,6.337-4.547,9.5-6.866.261-.191.54.212.335.434a8.455,8.455,0,0,0-.732.835c-.125.152-.377-.046-.272-.212Z" transform="translate(-1.113 -135.588)"/>
      <path id="Path_30031" data-name="Path 30031" class="cls-6" d="M88.984,339.406a33.576,33.576,0,0,1-10.933,12.1c-.3.195-.665-.265-.384-.5a60.678,60.678,0,0,0,5.892-5.217,62.715,62.715,0,0,0,5.13-6.563.172.172,0,0,1,.3.173Z" transform="translate(-36.44 -159.329)"/>
      <path id="Path_30032" data-name="Path 30032" class="cls-6" d="M64.175,331.738a91.053,91.053,0,0,0-5.262-17.488,76.218,76.218,0,0,0-3.937-7.847c-1.454-2.525-2.966-5.376-5.714-6.669l.467-.467c3.552,8.329,9.167,16.013,10.463,25.165.513,3.624.656,8.065-2.159,10.816A34.58,34.58,0,0,1,47.292,341.9c-.413.173-.714-.537-.306-.727a39.128,39.128,0,0,0,10.233-6.39c3.243-3.036,2.651-8.521,1.812-12.473-1.733-8.161-6.667-15.12-9.89-22.7a.345.345,0,0,1,.467-.467c2.459,1.161,3.9,3.478,5.254,5.735a75.779,75.779,0,0,1,4.507,8.787,67.713,67.713,0,0,1,5.2,18.017c.029.219-.34.265-.386.053Z" transform="translate(-21.982 -140.513)"/>
      <path id="Path_30033" data-name="Path 30033" class="cls-6" d="M243.414,329.19c7.871-7.061,11.9-17.921,13.525-28.148a59.98,59.98,0,0,0,.733-8.677,14.479,14.479,0,0,0-.312-4.219c-.473-1.591-1.876-3.45-3.757-2.867-1.371.424-1.669,1.7-.954,2.932a9.613,9.613,0,0,0,1.4,1.485q1.6,1.68,3.19,3.363l5.948,6.285c4.672,4.936,9.418,9.821,13.94,14.895.261.294-.152.717-.435.435-5.249-5.235-10.269-10.71-15.358-16.1l-7.635-8.093c-1.346-1.432-3.424-3.22-1.624-5.177,1.389-1.51,3.585-1,4.844.4,1.787,1.977,1.557,5.048,1.488,7.515a60.926,60.926,0,0,1-3.8,19.551c-2.32,6.226-5.6,12.523-10.9,16.72-.208.164-.5-.113-.3-.3Z" transform="translate(-114.317 -133.6)"/>
      <path id="Path_30034" data-name="Path 30034" class="cls-6" d="M109.713,27.417c1.1-.007,2.2-.106,3.3-.183.916-.066,2.863-.587,3.568.153v-.362c-2.191,2.265-5.377,3.7-6.512,6.819-.089.245.206.4.4.307,2.277-1.047,4.459-1.931,7.01-1.765.284.019.354-.455.068-.5-2.6-.434-5.06.7-7.352,1.8l.4.307c1.078-2.992,4.258-4.421,6.35-6.6a.261.261,0,0,0,0-.362c-.715-.745-1.825-.452-2.751-.376-1.508.123-3.029.212-4.526.435-.192.029-.142.336.045.335Z" transform="translate(-51.462 -12.462)"/>
      <path id="Path_30035" data-name="Path 30035" class="cls-6" d="M128.777,26.173a28.609,28.609,0,0,0,.962,7.554.269.269,0,0,0,.513,0q1.273-3.3,2.559-6.589H132.3c.366,2.2.8,4.385,2.315,6.1a.271.271,0,0,0,.325.042c.7-.408.506-1.371.525-2.072.041-1.485.151-2.984.089-4.466a.244.244,0,0,0-.487,0c-.1,1.09-.088,2.2-.115,3.291l-.035,1.41-.023.94q-.186.424-.352-.085a5.463,5.463,0,0,1-1.2-2.651A25.045,25.045,0,0,1,132.81,27c-.047-.285-.424-.212-.507,0q-1.294,3.287-2.566,6.587h.513a45.032,45.032,0,0,1-1.129-7.412.173.173,0,0,0-.346,0Z" transform="translate(-60.496 -12.218)"/>
      <path id="Path_30036" data-name="Path 30036" class="cls-6" d="M149.054,26.5c-2.149.346-2.77,2.828-2.369,4.7.35,1.634,1.978,2.733,3.39,1.388,1.247-1.189,1.522-3.912.828-5.425-.843-1.838-2.394-1.228-2.874.449-.086.3.343.4.457.126.338-.809,1.283-1.571,1.867-.445a3.451,3.451,0,0,1,.326,1.514,5.025,5.025,0,0,1-.8,3.147c-1.506,1.771-2.686-.182-2.77-1.632-.088-1.525.458-3.042,2.026-3.536a.145.145,0,0,0-.077-.279Z" transform="translate(-68.856 -12.232)"/>
      <path id="Path_30037" data-name="Path 30037" class="cls-6" d="M161.367,28.293a35.057,35.057,0,0,0,.272,6.3c.144,2.093.244,4.208.515,6.288.043.335.56.357.542,0-.113-2.174-.371-4.348-.536-6.522a41.757,41.757,0,0,0-.506-6.1c-.04-.173-.268-.113-.286.039Z" transform="translate(-75.77 -13.224)"/>
      <path id="Path_30038" data-name="Path 30038" class="cls-6" d="M163.148,38.989A39.766,39.766,0,0,1,164,29.131a8.392,8.392,0,0,1,.578-1.988c.236-.472.7-1.235,1.314-1.242l1.506.728a2.462,2.462,0,0,1,.339.785,6.041,6.041,0,0,1,.1,2.188c-.084.836-.706,3.344-2.121,2.075a.27.27,0,0,0-.382.382,1.44,1.44,0,0,0,1.767.355,2.648,2.648,0,0,0,1.282-2.177c.241-1.557.223-4.493-1.844-4.885-2.346-.445-2.888,2.74-3.189,4.323a37.079,37.079,0,0,0-.563,9.315c.014.226.364.23.356,0Z" transform="translate(-76.438 -11.89)"/>
      <path id="Path_30039" data-name="Path 30039" class="cls-6" d="M97.478,11.666a11.339,11.339,0,0,0,3.466,3.181c.265.172.506-.248.246-.42A18.217,18.217,0,0,1,99.3,13c-.551-.48-1.028-1.041-1.581-1.515-.125-.106-.336.029-.239.185Z" transform="translate(-45.782 -5.375)"/>
      <path id="Path_30040" data-name="Path 30040" class="cls-6" d="M125.523,1.875A12.979,12.979,0,0,0,127.9,7.556c.169.226.554.006.383-.224a12.522,12.522,0,0,1-2.406-5.553c-.038-.229-.386-.131-.348.1Z" transform="translate(-58.968 -0.774)"/>
      <path id="Path_30041" data-name="Path 30041" class="cls-6" d="M156.718.638a24.709,24.709,0,0,0-.7,6.549.278.278,0,0,0,.555,0A36.392,36.392,0,0,1,157.1.744c.042-.249-.323-.362-.387-.106Z" transform="translate(-73.29 -0.231)"/>
      <path id="Path_30042" data-name="Path 30042" class="cls-6" d="M180.461,25.406a18.935,18.935,0,0,1,6.412-1.3.256.256,0,0,0,0-.512,15.626,15.626,0,0,0-6.526,1.394C180.094,25.1,180.205,25.514,180.461,25.406Z" transform="translate(-84.656 -11.085)"/>
      <path id="Path_30043" data-name="Path 30043" class="cls-6" d="M171.944,52.271c.786,1.619,1.5,3.295,2.436,4.836.159.26.509.033.4-.232-.705-1.656-1.644-3.215-2.5-4.8-.118-.22-.438-.027-.331.194Z" transform="translate(-80.766 -24.419)"/>
      <path id="Path_30044" data-name="Path 30044" class="cls-6" d="M135.29,50.222a19.947,19.947,0,0,0-.942,6.849.254.254,0,1,0,.508,0,23.366,23.366,0,0,1,.8-6.749.189.189,0,0,0-.365-.1Z" transform="translate(-63.107 -23.53)"/>
      <path id="Path_30045" data-name="Path 30045" class="cls-6" d="M95.233,52.273a8.972,8.972,0,0,0,3.337-3.033c.173-.258-.244-.5-.416-.243a9.774,9.774,0,0,1-3.124,2.93.2.2,0,1,0,.2.346Z" transform="translate(-44.597 -22.966)"/>
      <path id="Path_30046" data-name="Path 30046" class="cls-6" d="M92.818,34.063a26.077,26.077,0,0,0,3.315.525.253.253,0,0,0,.067-.5,26.087,26.087,0,0,0-3.337-.366.172.172,0,0,0-.046.336Z" transform="translate(-43.547 -15.844)"/>
      <path id="Path_30047" data-name="Path 30047" class="cls-6" d="M113.9,13.529a4.287,4.287,0,0,0,2.085,2.578.259.259,0,0,0,.261-.447,4.944,4.944,0,0,1-1.975-2.288c-.1-.212-.429-.06-.371.159Z" transform="translate(-53.506 -6.234)"/>
      <path id="Path_30048" data-name="Path 30048" class="cls-6" d="M142.628,11.92a2.632,2.632,0,0,1,.855-2.179c.245-.24-.111-.564-.366-.366a2.63,2.63,0,0,0-.894,2.6c.039.226.431.177.4-.053Z" transform="translate(-66.784 -4.376)"/>
      <path id="Path_30049" data-name="Path 30049" class="cls-6" d="M169.975,17.083a13.517,13.517,0,0,1,3.788-2.916.265.265,0,0,0-.2-.483,7.512,7.512,0,0,0-3.886,3.169.192.192,0,0,0,.3.233Z" transform="translate(-79.698 -6.422)"/>
      <path id="Path_30050" data-name="Path 30050" class="cls-6" d="M178.1,42.072a3.134,3.134,0,0,1,2.454,1.163.265.265,0,0,0,.411-.318,3.075,3.075,0,0,0-2.863-1.31c-.294.024-.3.475,0,.464Z" transform="translate(-83.562 -19.537)"/>
      <path id="Path_30051" data-name="Path 30051" class="cls-6" d="M151.862,49.633a8.961,8.961,0,0,0-.274,3.973c.049.287.522.221.508-.069a16.731,16.731,0,0,1,.181-3.79.216.216,0,0,0-.415-.115Z" transform="translate(-71.162 -23.248)"/>
      <path id="Path_30052" data-name="Path 30052" class="cls-6" d="M119.507,50.073a22.624,22.624,0,0,0-1.674,2.718c-.1.212.179.484.35.27A22.968,22.968,0,0,0,119.9,50.3a.23.23,0,1,0-.4-.232Z" transform="translate(-55.346 -23.469)"/>
    </g>
  </g>
</svg>
