<svg xmlns="http://www.w3.org/2000/svg" viewBox="0 0 251.244 249.394">
  <defs>
    <style>
      .cls-1 {
        fill: #fff;
      }

      .cls-2 {
        fill: #59be6c;
      }

      .cls-3 {
        fill: #5faf9b;
      }

      .cls-4 {
        fill: #2e6e6e;
      }

      .cls-5 {
        fill: #284b55;
      }
    </style>
  </defs>
  <g id="Bildmaterial_24" data-name="Bildmaterial 24" transform="translate(190.336 188.935)">
    <g id="Group_13251" data-name="Group 13251" transform="translate(-190.336 -188.935)">
      <path id="Path_29410" data-name="Path 29410" class="cls-1" d="M130.75,45.269a46,46,0,0,0-3.841-9.428c-.024-.084-.049-.169-.082-.255a51.348,51.348,0,0,0-6.6-12.158c-1.537-2.092-3.585-5.407-6.161-6.87a21.2,21.2,0,0,0-3.247-2.945A50.069,50.069,0,0,0,100.609,7.09a75.89,75.89,0,0,0-14.214-5.1C83.351,1.211,79.9.1,77.01,1.2A17.942,17.942,0,0,0,71.2,1.089a18.282,18.282,0,0,0-3.6-.3c-1.069.023-2.178.164-3.3.3L61.125.753a2.567,2.567,0,0,0-1.939.492A7.607,7.607,0,0,1,57.073.621a3.528,3.528,0,0,0-4.361,1.5A43.421,43.421,0,0,0,37.687,8.259a3.042,3.042,0,0,0-.99.278c-9.739,4.64-17.77,14.332-23.034,23.511A70.4,70.4,0,0,0,7.129,47.34C6.726,48.466,6.342,49.6,6,50.754a3.65,3.65,0,0,0-.3.66C5.083,53.255,4.555,55.16,4.1,57.1a2.632,2.632,0,0,0-.677,1.254,69.828,69.828,0,0,0-1.6,18.43V76.8a71.161,71.161,0,0,0,1.62,14.434,3.188,3.188,0,0,0,.153.929c.063.2.128.393.191.59a76.865,76.865,0,0,0,2.9,9.464c.03.081.066.164.094.246A55.267,55.267,0,0,0,17.665,122.2a27.1,27.1,0,0,0,6.076,6.5,125.167,125.167,0,0,0,10.688,9.108,65.716,65.716,0,0,0,9.632,7.392c2.358,1.523,4.924,3.284,7.624,4.8a2.35,2.35,0,0,0,1.059,1.372,3.131,3.131,0,0,0,1.616.415.612.612,0,0,0,.446-.158c.74.374,1.484.737,2.239,1.078,1.4,1.554,3.37,1.95,5.456,2.508,1.491.4,2.833,1.075,4.28,1.581a12.23,12.23,0,0,0,2.28.512,13.515,13.515,0,0,1-.832,2.64c-.211.366-.585.517-.914.767a3.223,3.223,0,0,0-.983,1.137,3.258,3.258,0,0,0-2.494.792,1,1,0,0,0,.235,1.8,27.184,27.184,0,0,0,8.787.75c1.831-.137,4.736-.479,5.708-2.276a1.142,1.142,0,0,0-.676-1.663,6.27,6.27,0,0,1-3.392-1.43,1.228,1.228,0,0,0-.076-.2c-.145-.3-.288-.607-.434-.909a5.613,5.613,0,0,0-.417-1.056A48.853,48.853,0,0,0,84.4,152.524l1.965-1.324a.809.809,0,0,0,.485-.175,54.472,54.472,0,0,1,7.209-4.444.83.83,0,0,0,.424-.824c.264-.2.525-.4.777-.616,12.481-7.843,21.181-21.753,27.816-34.65a2.99,2.99,0,0,0,1.629-1.541,94.124,94.124,0,0,0,7.349-20.032,3.2,3.2,0,0,0,.363-.955c.575-2.679,1.129-5.362,1.728-8.035a3.158,3.158,0,0,0,.007-1.415,60.29,60.29,0,0,0-3.4-33.244ZM22.2,107.848c-.335-.475-.68-.942-1.006-1.424a2.778,2.778,0,0,0-.011-.366c.348.56.7,1.116,1.056,1.674C22.225,107.771,22.212,107.809,22.2,107.848ZM38.5,101.8c-.039,0-.078-.011-.117-.014l1.208-2.278c-.37.761-.728,1.529-1.092,2.292Zm5.473,6.324.169-.3a3.407,3.407,0,0,0,.1.377l.243.76Z" transform="translate(-0.595 -0.125)"/>
      <path id="Path_29411" data-name="Path 29411" class="cls-1" d="M322.789,119.08l-.917-.931a1.531,1.531,0,0,0,.369-1.839c-.38-.66-.782-1.3-1.195-1.936a1.4,1.4,0,0,0-.51-.924c-.081-.07-.164-.136-.245-.205q-.541-.783-1.107-1.547c.651.3,1.3.605,1.954.9a1.406,1.406,0,0,0,1.9-.5,2.384,2.384,0,0,0-.673-3.052,1.467,1.467,0,0,0-.274-2.59L312,102.859a1.182,1.182,0,0,0-.405-.066l-.075-.046q-.937-.621-1.875-1.239c-2.062-1.36-5.394-4.562-8-4.394a1.243,1.243,0,0,0-1.144.871l-.153.416h0a1.485,1.485,0,0,0-.448-.229c-.055-.016-.106-.038-.16-.056a18.69,18.69,0,0,0-2.422-1.278l-1.965-1.262c-.264-.173-.52-.349-.779-.524-2.64-2.183-5.3-4.345-7.812-6.661-1.7-1.569-3.087-3.356-4.844-4.587l-.112-.117a1.437,1.437,0,0,0-.47-.34c-.139-.121-.277-.245-.424-.353a14.271,14.271,0,0,0-2.631-1.172c-.709-1.588-1.492-3.155-2.291-4.717-1.218-4.91-1.94-9.83-2.73-14.892-.488-3.124-.9-6.945-2.372-10.015-.528-5.445-1.447-10.89-2.33-16.28-.543-3.309-1.063-7.109-4.6-8.4a.868.868,0,0,0-.57-.019c-.014-.033-.026-.066-.04-.1-1.732-4.138-4.026-8.509-8.357-10.258-4.866-4.628-11.6-7.318-15.752-12.64a.828.828,0,0,0-1.309-.066c-.882-.205-1.682,1.045-.961,1.685a6.524,6.524,0,0,0,.413,4.349c-1.9-.539-3.828-.99-5.851-1.452L231.459,9a1.3,1.3,0,0,0-.377-.077h-.009c-.03-.007-.053-.007-.079-.011a1.077,1.077,0,0,0-1.688.539,5.431,5.431,0,0,0,2.31,6.31,12.126,12.126,0,0,0,4.191,1.42c2.585.57,3.942,1.831,5.769,3.643a22.723,22.723,0,0,0,4.338,3,11.2,11.2,0,0,1,4.446,5.166,87.083,87.083,0,0,1,3.414,9.152,34.386,34.386,0,0,0-3.707-1.35,1.168,1.168,0,0,0-.4-.048c-.132-.069-.264-.143-.4-.211a64.987,64.987,0,0,0-5.828-5.082c-1.584-1.278-2.893-1.816-4.884-1.234a.924.924,0,0,0-.733.994,12.145,12.145,0,0,0-2.155.909c-3.541,1.873-7.058,3.745-10.617,5.544a1.02,1.02,0,0,0-.4.066c-1.791.672-3.464,1.617-5.229,2.348a1.074,1.074,0,0,0-.5.409,2.26,2.26,0,0,0-1.759,2.5c.164,2.355,2.965,2.781,4.818,2.465.139-.024.28-.066.419-.1a3.394,3.394,0,0,0,.878-.025,5.8,5.8,0,0,0,5.588-2.97c.48-.3.947-.606,1.386-.9.208-.138.41-.282.612-.426,3,1.855,6.514,1.7,9.979,1.056a35.747,35.747,0,0,0,6.766,5.174,52.568,52.568,0,0,0,1.864,5.333q.747,3.468,1.491,6.937c-1.415,2.15-3.647,5.255-6.61,4.663a1.139,1.139,0,0,0-.3-.017A80.325,80.325,0,0,0,232.1,51.312c-2.772-2.267-7.729-6.4-11.608-4.417-3.626,1.852-.544,6.1,1.793,7.528,5.259,7.045,11.827,13.175,16.4,20.694,1.391,2.288,2.607,4.8,3.926,7.233a15.182,15.182,0,0,0,.826,1.811c1.832,4.281,5.389,7.471,9.482,9.82.107.061.22.124.33.185.02.03.047.059.071.089A1.46,1.46,0,0,0,254,95.1a21.87,21.87,0,0,0,2.891,1.491,1.716,1.716,0,0,0,.624.142,49.532,49.532,0,0,1,6.193,3.454c.374.251.726.517,1.076.792a1.023,1.023,0,0,0,.264.476c.731.763,1.128,1.575,2.112,2.076a3.786,3.786,0,0,0,.862.3l.11.1c.664.605.963.976,1.905,1.028a1.27,1.27,0,0,0,.605-.125c1.577,1.386,2.206,3.546,4.062,4.768a1.246,1.246,0,0,0,.478.19,54.369,54.369,0,0,0,4.213,3.521,1.056,1.056,0,0,0,.42.752q1.782,1.381,3.557,2.764a27.837,27.837,0,0,0,3.118,2.6c1.087.916,2.191,1.812,3.3,2.706a1.787,1.787,0,0,0-.09.911,4.784,4.784,0,0,0,1.142,2.376,1.469,1.469,0,0,0,.335,1.226c2.508,2.95,5.78,4.98,9.023,7.034,3.869,3.987,7.952,7.836,12.843,10.48a1.28,1.28,0,0,0,1.919-1.182,22.352,22.352,0,0,0,2.013,1.329,1.44,1.44,0,0,0,1.452-2.485c-.11-.066-.216-.139-.326-.207,0-.012.012-.02.016-.033.029-.083.043-.172.066-.257a1.558,1.558,0,0,0,1.17-2.649c-.34-.339-.692-.66-1.039-.99-.032-.188-.071-.378-.112-.568a1.562,1.562,0,0,0,1.544-2.307c-.4-.72-.826-1.419-1.264-2.108a1.43,1.43,0,0,0,1.127-2.216l-.626-.969a1.526,1.526,0,0,0,1.837-2.178c-.319-.564-.651-1.117-.99-1.665l.749.6a1.514,1.514,0,0,0,2.366-1.826,14.212,14.212,0,0,0-1.738-2.838,3.922,3.922,0,0,0,.548-.016,1.493,1.493,0,0,0,1.034-2.528Zm-72.12-46.432c.128-.219.258-.438.383-.66a11.356,11.356,0,0,0,.034,1.188C250.946,73,250.809,72.823,250.669,72.648Zm3.168,2.261a1.493,1.493,0,0,0,.351-.545c.011-.032.02-.066.032-.1.077.381.144.765.225,1.146-.2-.172-.4-.336-.607-.5Zm6.589,6.686a1.325,1.325,0,0,0,.116-.125l1.413,1.835c.172.234.348.462.518.7-.675-.806-1.358-1.612-2.045-2.41Zm3.04-43.3a1.549,1.549,0,0,0,.244-.132q.2.806.4,1.61-.316-.741-.638-1.478Zm43.305,92.279c-1.346-1.182-2.684-2.373-4-3.587q.959.771,1.914,1.552c.771.669,1.548,1.33,2.323,1.994a1.4,1.4,0,0,0-.235.042Z" transform="translate(-73.83 -1.411)"/>
      <path id="Path_29412" data-name="Path 29412" class="cls-2" d="M61.781,206.977A418.224,418.224,0,0,1,18.229,165.04q-5.72-6.39-11.147-13.032c-.132-.166-.368.07-.234.234a389.66,389.66,0,0,0,41.588,43.89c4.25,3.828,8.58,7.568,13.015,11.177C61.681,207.5,62.014,207.171,61.781,206.977Z" transform="translate(-2.315 -51.664)"/>
      <path id="Path_29413" data-name="Path 29413" class="cls-2" d="M72.022,202.415c-18.858-16.669-37.246-33.777-54.815-51.81-4.961-5.092-9.913-10.211-14.739-15.429-.132-.145-.348.071-.215.215,17.089,18.471,34.848,36.266,53.46,53.2,5.262,4.788,10.56,9.542,15.98,14.152C71.918,202.94,72.249,202.616,72.022,202.415Z" transform="translate(-0.752 -45.944)"/>
      <path id="Path_29414" data-name="Path 29414" class="cls-2" d="M82.622,196.566c-11.033-8.58-22.017-17.117-32.467-26.414q-15.646-13.919-30-29.192c-5.374-5.708-10.629-11.532-15.691-17.518-.127-.151-.344.066-.217.217a458.81,458.81,0,0,0,59.85,59.088c5.953,4.867,11.983,9.724,18.282,14.141C82.562,197.019,82.808,196.71,82.622,196.566Z" transform="translate(-1.43 -41.953)"/>
      <path id="Path_29415" data-name="Path 29415" class="cls-2" d="M85.577,187.057C61.008,169.51,39.454,148.21,18.772,126.2q-8.646-9.206-17.186-18.518c-.139-.152-.362.076-.224.227,20.45,22.3,40.87,44.72,64.033,64.185,6.432,5.405,13.062,10.58,19.922,15.414C85.588,187.7,85.845,187.249,85.577,187.057Z" transform="translate(-0.448 -36.595)"/>
      <path id="Path_29416" data-name="Path 29416" class="cls-2" d="M92.078,180.3c-25.12-19.84-47.892-42.464-69.955-65.782q-9.394-9.93-18.72-19.928c-.132-.145-.347.075-.213.219,21.957,23.685,43.928,47.432,68.057,68.815,6.685,5.924,13.517,11.682,20.561,17.151C92.084,180.989,92.348,180.513,92.078,180.3Z" transform="translate(-1.07 -32.145)"/>
      <path id="Path_29417" data-name="Path 29417" class="cls-2" d="M100.052,171.777A825.827,825.827,0,0,1,27.225,105.15Q17.655,95.234,8.421,85c-.132-.149-.355.071-.221.22a819.746,819.746,0,0,0,70.324,69.234q10.4,9.051,21.114,17.738C99.926,172.423,100.344,172.014,100.052,171.777Z" transform="translate(-2.774 -28.883)"/>
      <path id="Path_29418" data-name="Path 29418" class="cls-2" d="M104.831,161.312C92.218,150.188,79.47,139.247,67.1,127.843Q48.651,110.831,30.868,93.114q-10.121-10.08-20-20.4c-.165-.172-.426.09-.264.264q17.424,18.233,35.523,35.8,18.031,17.454,36.777,34.15c4.716,4.2,9.434,8.423,14.223,12.554-5.222-4.063-10.626-7.92-16.049-11.667-.168-.116-.323.156-.159.272,7.651,5.417,14.967,11.213,22.332,17a.28.28,0,0,0,.412-.08c.268.222.535.446.8.667S105.087,161.536,104.831,161.312Z" transform="translate(-3.587 -24.704)"/>
      <path id="Path_29419" data-name="Path 29419" class="cls-2" d="M111.071,153.9q-19.506-16.078-37.533-33.8c-12-11.733-23.593-23.873-35.054-36.13Q28.717,73.528,19.023,63.02c-.149-.162-.39.08-.242.242C30.2,75.687,41.521,88.185,53.2,100.361c11.609,12.1,23.483,23.958,35.863,35.27,7.026,6.421,14.2,12.694,21.6,18.678C110.949,154.541,111.359,154.141,111.071,153.9Z" transform="translate(-6.37 -21.409)"/>
      <path id="Path_29420" data-name="Path 29420" class="cls-2" d="M117.9,144q-10.67-9.763-21.426-19.428a.215.215,0,0,0,0-.337q-4.966-4.361-9.955-8.7-4.2-3.823-8.373-7.667-19.6-18.091-38.148-37.224C33.022,63.46,26.033,56.29,18.828,49.331c-.156-.151-.4.087-.238.238C31.365,61.986,43.362,75.177,56.058,87.675q7.837,7.714,15.885,15.206c-.158-.02-.31.175-.162.3q4.982,4.373,9.953,8.759Q88.334,118,94.971,124c7.507,6.8,14.99,13.632,22.534,20.394C117.77,144.63,118.162,144.242,117.9,144Z" transform="translate(-6.303 -16.756)"/>
      <path id="Path_29421" data-name="Path 29421" class="cls-2" d="M124.84,134.244c-13.286-11.946-26.492-23.958-39.4-36.307S59.849,73.006,47.4,60.194c-7.062-7.269-14.088-14.573-20.979-22-.125-.135-.33.066-.2.2C38.371,51.492,50.68,64.43,63.3,77.074S88.794,102.1,101.9,114.24c7.434,6.886,14.912,13.736,22.538,20.409C124.71,134.89,125.115,134.491,124.84,134.244Z" transform="translate(-8.902 -12.969)"/>
      <path id="Path_29422" data-name="Path 29422" class="cls-2" d="M133.138,122.851C120.374,110.8,107.48,98.9,94.852,86.708q-19.575-18.9-38.7-38.248Q45.286,37.489,34.574,26.372c-.158-.164-.408.086-.25.25q18.832,19.64,38.049,38.9,19.277,19.2,39.048,37.9c7.1,6.722,14.2,13.471,21.457,20.022Q133.007,123.144,133.138,122.851Z" transform="translate(-11.653 -8.948)"/>
      <path id="Path_29423" data-name="Path 29423" class="cls-2" d="M140.8,106.882c-6.017-5.927-12.342-11.566-18.469-17.38s-12.235-11.67-18.3-17.556q-18.2-17.659-36.05-35.684c-6.666-6.727-13.328-13.453-19.89-20.278a.145.145,0,0,0-.205.205c23.443,24.386,47.283,48.347,71.792,71.665,6.849,6.516,13.612,13.2,20.731,19.42C140.671,107.511,141.056,107.137,140.8,106.882Z" transform="translate(-16.265 -5.42)"/>
      <path id="Path_29424" data-name="Path 29424" class="cls-2" d="M150.331,97c-25.324-20.563-48.246-43.7-71.077-66.94Q69.2,19.819,59.091,9.627a.146.146,0,0,0-.207.207c22.787,23.724,45.56,47.642,70.008,69.678,6.838,6.163,13.816,12.176,21.028,17.9C150.209,97.639,150.624,97.236,150.331,97Z" transform="translate(-20.007 -3.259)"/>
      <path id="Path_29425" data-name="Path 29425" class="cls-2" d="M156.226,84.481c-10.7-10.438-21.662-20.62-32.5-30.912s-21.662-20.554-32.5-30.822C85.049,16.9,78.806,11.114,72.639,5.258c-.142-.132-.358.08-.215.215,21.648,20.572,43.192,41.261,64.84,61.835C142.94,72.7,148.573,78.144,154.3,83.483l-.057-.03a.236.236,0,0,0-.238.408l1.868,1.082a.293.293,0,0,0,.352-.462Z" transform="translate(-24.608 -1.774)"/>
      <path id="Path_29426" data-name="Path 29426" class="cls-2" d="M164.6,74.523c-4.525-4.994-9.334-9.74-14.058-14.546-1.825-1.858-3.664-3.7-5.494-5.554a239.812,239.812,0,0,0-23-23.838c-.175-.159-.436.1-.26.26a241.808,241.808,0,0,1,18.035,18.3c-1.17-1.179-2.332-2.366-3.5-3.543q-14.183-14.241-28.594-28.253C102.277,12.051,96.751,6.837,91.28,1.568c-.137-.132-.345.077-.208.208,18.576,17.883,36.819,36.142,54.915,54.513.766.92,1.533,1.839,2.29,2.772.121.148.3.048.339-.1,5.208,5.3,10.307,10.734,15.657,15.895a.235.235,0,0,0,.33-.335Z" transform="translate(-30.949 -0.519)"/>
      <path id="Path_29427" data-name="Path 29427" class="cls-2" d="M168.939,63.061a555.168,555.168,0,0,0-45.948-49.254C118.392,9.43,113.65,5.2,108.929.954c-.141-.127-.352.082-.21.209a595.4,595.4,0,0,1,47.333,47.928c4.211,4.752,8.325,9.586,12.408,14.45C168.741,63.877,169.212,63.4,168.939,63.061Z" transform="translate(-36.948 -0.311)"/>
      <path id="Path_29428" data-name="Path 29428" class="cls-2" d="M173.069,47.475c-3.239-4.033-6.958-7.736-10.45-11.55q-5.082-5.551-10.17-11.1c-6.9-7.524-13.911-14.938-20.8-22.464-.135-.148-.354.073-.22.22,6.9,7.531,13.668,15.173,20.56,22.709L162.149,36.4c3.491,3.812,6.85,7.842,10.582,11.418C172.957,48.036,173.259,47.713,173.069,47.475Z" transform="translate(-44.67 -0.787)"/>
      <path id="Path_29429" data-name="Path 29429" class="cls-2" d="M180.569,41.778c-2.342-3.211-4.933-6.269-7.573-9.268a.125.125,0,0,0-.007-.156l-5.471-7.29c-.124-.166-.407,0-.281.164l3.833,5.112-1.353-1.518c-3.848-4.315-7.867-8.441-11.928-12.555-.176-.178-.451.1-.275.275,3.994,4.046,7.826,8.282,11.595,12.54s7.289,8.742,11.037,13.02C180.347,42.325,180.749,42.024,180.569,41.778Z" transform="translate(-53.536 -5.511)"/>
      <path id="Path_29430" data-name="Path 29430" class="cls-2" d="M54.675,208.972a99.7,99.7,0,0,0-8.907-9.134c.779.643,1.562,1.282,2.353,1.906.183.145.445-.1.264-.264-7.234-6.417-14.4-12.817-21.208-19.7-.126-.127-.319.066-.2.2,3.84,4.081,7.834,8.095,11.988,11.918-.363-.3-.726-.613-1.088-.915-.154-.132-.378.092-.222.222,5.972,4.991,11.246,10.56,16.691,16.1C54.56,209.517,54.864,209.2,54.675,208.972Z" transform="translate(-9.16 -61.792)"/>
      <path id="Path_29431" data-name="Path 29431" class="cls-2" d="M75.36,215.826c-3.543-3.145-7.249-6.109-10.806-9.24q-5.244-4.62-10.338-9.4c-6.84-6.426-13.563-13.036-19.975-19.892-.124-.132-.323.066-.2.2,6.483,6.93,13.091,13.7,20.014,20.2,6.772,6.356,13.666,12.819,21.045,18.473C75.294,216.311,75.541,215.988,75.36,215.826Z" transform="translate(-11.562 -60.264)"/>
      <path id="Path_29432" data-name="Path 29432" class="cls-2" d="M95.535,216.723c-3.667-2.832-7.537-5.425-11.22-8.241q-5.642-4.31-11.079-8.862-10.769-9.019-20.7-18.894c-.149-.149-.384.078-.236.228,6.63,6.688,13.543,13.128,20.779,19.206q5.321,4.468,10.844,8.7c3.679,2.822,7.379,5.753,11.316,8.234C95.467,217.24,95.756,216.892,95.535,216.723Z" transform="translate(-17.765 -61.43)"/>
      <path id="Path_29433" data-name="Path 29433" class="cls-2" d="M101.889,211.819A513.049,513.049,0,0,1,59.1,174.1c-.155-.154-.391.088-.237.244a459,459,0,0,0,42.727,38.009C101.9,212.592,102.19,212.057,101.889,211.819Z" transform="translate(-19.995 -59.177)"/>
      <path id="Path_29434" data-name="Path 29434" class="cls-2" d="M111.347,205.411C96.129,191.757,80.828,178.2,65.623,164.528c-.145-.132-.36.083-.215.214,15.2,13.662,30.307,27.434,45.5,41.111C111.2,206.122,111.647,205.679,111.347,205.411Z" transform="translate(-22.222 -55.926)"/>
      <path id="Path_29435" data-name="Path 29435" class="cls-2" d="M118.094,194.861c-4.349-3.452-8.7-6.82-12.87-10.5q-6.336-5.587-12.642-11.205c-8.662-7.675-17.292-15.387-26.054-22.95-.16-.138-.4.09-.234.235,8.6,7.869,17.341,15.591,26.046,23.348,4.264,3.8,8.519,7.612,12.8,11.393,4,3.533,8.063,7.3,12.589,10.157C118.012,195.517,118.368,195.078,118.094,194.861Z" transform="translate(-22.522 -51.056)"/>
      <path id="Path_29436" data-name="Path 29436" class="cls-2" d="M125.4,189.559c-7.014-5.328-14.109-10.494-20.884-16.13-6.715-5.588-13.239-11.424-19.508-17.5-3.522-3.417-6.94-6.943-10.3-10.522-.144-.154-.375.077-.232.23A343.478,343.478,0,0,0,113.4,181.4c3.814,2.984,7.656,6,11.689,8.691C125.423,190.311,125.7,189.791,125.4,189.559Z" transform="translate(-25.307 -49.42)"/>
      <path id="Path_29437" data-name="Path 29437" class="cls-2" d="M130.385,180.8c-14.009-11.94-27.836-24.058-41.238-36.68q-5.732-5.4-11.314-10.94a.14.14,0,0,0-.2.2c13.084,12.939,26.457,25.566,40.339,37.649,3.955,3.443,7.927,6.872,11.977,10.2C130.252,181.486,130.691,181.058,130.385,180.8Z" transform="translate(-26.381 -45.266)"/>
      <path id="Path_29438" data-name="Path 29438" class="cls-2" d="M136.542,169.931c-8.547-5.3-15.691-12.131-22.92-19.063q-1.844-1.768-3.676-3.549l8.191,6.783c.285.235.7-.17.409-.409q-6.868-5.715-13.763-11.4-6.858-6.712-13.62-13.522c-4.233-4.266-8.509-8.5-12.664-12.845a.145.145,0,0,0-.205.205c7.007,7.322,14.01,14.632,21.186,21.789q-7.007-5.766-14.038-11.506c-.18-.146-.438.106-.257.257q9.291,7.814,18.633,15.57c6.336,6.285,12.712,12.557,19.359,18.5a68.237,68.237,0,0,0,13.068,9.7.294.294,0,0,0,.3-.508Z" transform="translate(-26.606 -39.401)"/>
      <path id="Path_29439" data-name="Path 29439" class="cls-2" d="M142.524,158.288c-8.021-6.91-16.212-13.613-24.159-20.612s-15.774-14.128-23.49-21.378c-4.373-4.109-8.75-8.224-13.042-12.417a.171.171,0,0,0-.242.242q22.616,22.317,46.692,43.039c4.554,3.9,9.1,7.845,13.815,11.55C142.4,158.946,142.822,158.544,142.524,158.288Z" transform="translate(-27.724 -35.303)"/>
      <path id="Path_29440" data-name="Path 29440" class="cls-2" d="M148.973,148.929c-15.869-13.86-31.656-27.771-47.058-42.164-4.4-4.11-8.807-8.212-13.158-12.372-.139-.132-.349.077-.211.213q22.587,22.115,46.309,42.981c4.518,3.973,9.038,7.951,13.651,11.814C148.829,149.668,149.3,149.211,148.973,148.929Z" transform="translate(-30.09 -32.08)"/>
      <path id="Path_29441" data-name="Path 29441" class="cls-2" d="M151.379,131.429c-7.75-6.76-15.565-13.409-23.049-20.477Q116.408,99.694,105.2,87.71q-6.429-6.861-12.62-13.937a.149.149,0,0,0-.257.084l-.192-.211a.207.207,0,0,0-.028-.237,71.3,71.3,0,0,0-10.183-9.636c-.154-.12-.374.093-.218.218a78.636,78.636,0,0,1,5.94,5.307c2.329,2.911,4.977,5.617,7.55,8.305a.2.2,0,0,0,.3,0,489.038,489.038,0,0,0,43.014,43.606c4.12,3.679,8.27,7.371,12.575,10.844Z" transform="translate(-27.761 -21.671)"/>
      <path id="Path_29442" data-name="Path 29442" class="cls-2" d="M157.759,120.549c-8.439-8.505-17.241-16.667-25.787-25.067s-17.048-16.859-25.492-25.368c-4.825-4.862-9.6-9.777-14.506-14.554a.144.144,0,0,0-.2.2c8.123,8.807,16.665,17.252,25.138,25.722s17.018,16.889,25.619,25.24c4.91,4.768,9.768,9.623,14.838,14.22C157.628,121.189,158.015,120.808,157.759,120.549Z" transform="translate(-31.187 -18.876)"/>
      <path id="Path_29443" data-name="Path 29443" class="cls-2" d="M161.054,101.049c-9.554-8.466-19.081-16.911-28.268-25.779-9.121-8.806-18.031-17.831-26.884-26.908Q98.354,40.618,90.825,32.85c-.172-.177-.44.092-.271.271,17.543,18.425,35.148,36.8,53.875,54.041,5.3,4.875,10.631,9.753,16.214,14.3C160.93,101.7,161.342,101.3,161.054,101.049Z" transform="translate(-30.77 -11.15)"/>
      <path id="Path_29444" data-name="Path 29444" class="cls-2" d="M159.714,77.227c-.515-.508-1.041-1.007-1.571-1.5a.288.288,0,0,0,.287-.475c-4.349-4.565-9.113-8.789-13.7-13.118-2.7-2.548-5.412-5.076-8.123-7.61-13.191-14.03-26.563-27.9-39.888-41.8C92.8,8.634,88.887,4.539,84.918.495c-.14-.145-.354.073-.218.218,13.478,14.49,27.265,28.7,40.938,43.007q2.455,2.568,4.916,5.13-13.537-12.574-27.3-24.9c-5.346-4.79-10.762-9.5-16.165-14.23-.143-.125-.352.082-.21.21Q114.983,35,142.392,60.855c3.791,3.576,7.493,7.282,11.3,10.858a.219.219,0,0,0-.184.37c1.948,1.83,3.835,3.744,5.833,5.518C159.6,77.824,159.958,77.468,159.714,77.227Z" transform="translate(-28.783 -0.152)"/>
      <path id="Path_29445" data-name="Path 29445" class="cls-2" d="M166.983,69.46c-7.277-8.593-15.15-16.744-23.1-24.712q-11.946-11.976-24.691-23.126Q111.9,15.271,104.431,9.128c-.185-.152-.453.112-.264.264A538.465,538.465,0,0,1,153.5,55.631c4.426,4.686,8.7,9.509,13.042,14.268C166.816,70.2,167.24,69.763,166.983,69.46Z" transform="translate(-35.395 -3.088)"/>
      <path id="Path_29446" data-name="Path 29446" class="cls-2" d="M176.615,60.1c-.013-.053-.027-.106-.04-.16-5.619-5.951-11.466-11.712-17.246-17.49Q148.983,32.111,138.4,22.015c-4.051-3.864-8.173-7.651-12.263-11.472-.169-.158-.424.1-.254.255,14.21,13.345,28.083,27.084,41.738,41,3.081,3.138,6.111,6.331,9.188,9.474Q176.713,60.684,176.615,60.1Z" transform="translate(-42.78 -3.568)"/>
      <path id="Path_29447" data-name="Path 29447" class="cls-2" d="M177.035,48.525c-3.391-7.1-9.464-12.726-15.184-17.952-3.126-2.854-6.27-5.681-9.285-8.657-3.317-3.279-6.5-6.69-9.722-10.056-.18-.188-.462.094-.284.285,5.912,6.477,12.078,12.641,18.525,18.585C167,36.19,172.49,41.793,176.536,48.813,176.724,49.143,177.193,48.857,177.035,48.525Z" transform="translate(-48.451 -4.011)"/>
      <path id="Path_29448" data-name="Path 29448" class="cls-2" d="M20.843,162.359c-2.165-2.772-4.712-5.3-7.128-7.854a96.385,96.385,0,0,0-7.48-7.517.149.149,0,1,0-.211.211c2.264,2.7,4.869,5.148,7.277,7.722s4.678,5.322,7.185,7.8C20.723,162.953,21.036,162.608,20.843,162.359Z" transform="translate(-2.033 -49.961)"/>
      <path id="Path_29449" data-name="Path 29449" class="cls-2" d="M20.7,170.639l-1.369-1.7c-.151-.187-.41.078-.264.264l1.355,1.71C20.574,171.113,20.854,170.834,20.7,170.639Z" transform="translate(-6.466 -57.419)"/>
      <path id="Path_29450" data-name="Path 29450" class="cls-2" d="M19.564,148.775c-2.476-2.844-5.37-5.359-7.92-8.15C9,137.728,6.385,134.757,4,131.642c-.117-.152-.379,0-.264.152,2.321,3.025,4.649,6.019,7.184,8.872a66.838,66.838,0,0,0,8.3,8.455.246.246,0,0,0,.35-.347Z" transform="translate(-1.259 -44.737)"/>
      <path id="Path_29451" data-name="Path 29451" class="cls-2" d="M15.967,130.456a42.961,42.961,0,0,0-3.732-4.331q-1.964-2.206-3.94-4.4-4.046-4.481-8.039-9.009c-.132-.147-.345.066-.215.215q3.907,4.441,7.748,8.933,1.839,2.149,3.7,4.281a46.558,46.558,0,0,0,4.111,4.594C15.789,130.9,16.123,130.687,15.967,130.456Z" transform="translate(0 -38.306)"/>
      <path id="Path_29452" data-name="Path 29452" class="cls-2" d="M12.765,114.088c-3.583-3.791-7.4-7.362-11.106-11.031a.152.152,0,0,0-.215.215c3.639,3.737,7.176,7.585,10.938,11.2a.272.272,0,0,0,.384-.385Z" transform="translate(-0.478 -35.026)"/>
      <path id="Path_29453" data-name="Path 29453" class="cls-2" d="M161.089,133.189c-4.151-3.105-8.148-6.376-12.029-9.774a.269.269,0,0,0,.073-.426q-15.08-15.662-30.243-31.244c-.177-.183-.455.1-.279.279q14.328,14.911,28.663,29.816a339.006,339.006,0,0,1-28.134-28.86c-3.639-4.13-7.234-8.3-10.85-12.452-.137-.157-.358.071-.226.227,12.573,14.928,25.388,29.816,40.051,42.738,4.07,3.586,8.274,7.042,12.672,10.216C161.1,133.937,161.393,133.418,161.089,133.189Z" transform="translate(-36.728 -27.362)"/>
      <path id="Path_29454" data-name="Path 29454" class="cls-2" d="M53.591,34.055c-1.782-1.859-3.63-3.656-5.513-5.412a48.6,48.6,0,0,0-5.487-4.765c-.139-.094-.281.11-.174.225,1.681,1.81,3.689,3.366,5.483,5.072s3.564,3.48,5.312,5.258C53.454,34.681,53.829,34.3,53.591,34.055Z" transform="translate(-14.409 -8.111)"/>
      <path id="Path_29455" data-name="Path 29455" class="cls-2" d="M64.216,24.924l-.437-.44a.233.233,0,0,0,.268-.372c-3.9-3.828-7.969-7.6-12.193-11.066-.148-.121-.357.077-.214.214.317.3.64.606.959.909a.143.143,0,0,0,0,.23q.869.7,1.739,1.422c2.266,2.128,4.558,4.232,6.854,6.327.944,1,1.848,2.039,2.684,3.113C64.063,25.5,64.438,25.147,64.216,24.924Z" transform="translate(-17.541 -4.423)"/>
      <path id="Path_29456" data-name="Path 29456" class="cls-2" d="M75.9,18.634a24.758,24.758,0,0,0-5.178-5.9,30.515,30.515,0,0,0-6.411-4.524.191.191,0,0,0-.193.33,47.3,47.3,0,0,1,6.32,4.784c1.875,1.74,3.322,3.762,5.029,5.645C75.682,19.2,76.049,18.9,75.9,18.634Z" transform="translate(-21.771 -2.784)"/>
      <path id="Path_29457" data-name="Path 29457" class="cls-2" d="M83.462,10.628,80.738,7.9a.23.23,0,0,0-.325.325l2.724,2.724a.23.23,0,0,0,.325-.325Z" transform="translate(-27.32 -2.667)"/>
      <path id="Path_29458" data-name="Path 29458" class="cls-2" d="M42.222,45.1c-2.97-2.926-5.731-6.09-8.58-9.134-.132-.145-.352.073-.217.217,2.847,3.045,5.818,6.015,8.538,9.174C42.118,45.532,42.39,45.266,42.222,45.1Z" transform="translate(-11.35 -12.213)"/>
      <path id="Path_29459" data-name="Path 29459" class="cls-2" d="M33.119,55.527a58.7,58.7,0,0,1-8.686-9.291c-.142-.189-.462,0-.321.188a63.7,63.7,0,0,0,8.675,9.438C33.012,56.06,33.347,55.724,33.119,55.527Z" transform="translate(-8.186 -15.693)"/>
      <path id="Path_29460" data-name="Path 29460" class="cls-2" d="M26.8,64.951c-3.083-3.3-6.2-6.513-9.025-10.047-.15-.188-.412.078-.264.264a97.023,97.023,0,0,0,8.915,10.157.265.265,0,1,0,.374-.374Z" transform="translate(-5.94 -18.646)"/>
      <path id="Path_29461" data-name="Path 29461" class="cls-2" d="M25.1,80.006c-1.914-2.244-3.923-4.406-5.906-6.587q-1.444-1.59-2.892-3.176c-1.063-1.162-2.362-2.29-2.7-3.888-.049-.228-.382-.128-.345.1a6.187,6.187,0,0,0,1.687,3.012c1.047,1.211,2.121,2.4,3.185,3.6,2.183,2.454,4.334,4.944,6.6,7.326C24.96,80.638,25.319,80.267,25.1,80.006Z" transform="translate(-4.504 -22.517)"/>
      <path id="Path_29462" data-name="Path 29462" class="cls-2" d="M18.553,90.222c-2.831-3.515-5.818-6.863-8.491-10.508-.143-.2-.474-.009-.33.193a87.179,87.179,0,0,0,8.476,10.66C18.432,90.8,18.745,90.461,18.553,90.222Z" transform="translate(-3.297 -27.074)"/>
      <path id="Path_29463" data-name="Path 29463" class="cls-2" d="M14.874,100.846A36.332,36.332,0,0,1,9.66,93.572c-.122-.234-.477-.027-.355.207a29.068,29.068,0,0,0,5.252,7.383A.224.224,0,0,0,14.874,100.846Z" transform="translate(-3.155 -31.78)"/>
      <path id="Path_29464" data-name="Path 29464" class="cls-2" d="M26.406,131.2a.2.2,0,1,0,.2.2A.2.2,0,0,0,26.406,131.2Z" transform="translate(-8.91 -44.608)"/>
      <path id="Path_29465" data-name="Path 29465" class="cls-2" d="M119.776,16.666A72.876,72.876,0,0,0,104.134,2.633c-.164-.11-.314.153-.154.264A78.44,78.44,0,0,1,119.437,17C119.638,17.24,119.97,16.9,119.776,16.666Z" transform="translate(-35.33 -0.887)"/>
      <path id="Path_29466" data-name="Path 29466" class="cls-2" d="M137.242,16.238A141.948,141.948,0,0,0,124.881,3.994c-.176-.156-.434.1-.259.259,4.3,3.908,8.335,8.063,12.3,12.31C137.12,16.781,137.437,16.455,137.242,16.238Z" transform="translate(-42.352 -1.342)"/>
      <path id="Path_29467" data-name="Path 29467" class="cls-2" d="M159.195,23.993A105.242,105.242,0,0,0,143.9,7.746c-.149-.126-.36.077-.217.217a212.2,212.2,0,0,1,15.134,16.321C158.991,24.49,159.361,24.21,159.195,23.993Z" transform="translate(-48.837 -2.62)"/>
      <path id="Path_29468" data-name="Path 29468" class="cls-2" d="M168.389,122.269c-13.88-12.355-27.618-24.838-41.031-37.708-3.9-3.744-7.806-7.491-11.651-11.3a.147.147,0,0,0-.208.208c13.554,13.464,27.35,26.664,41.542,39.453,3.716,3.35,7.444,6.687,11.22,9.969A5.555,5.555,0,0,1,168.389,122.269Z" transform="translate(-39.257 -24.898)"/>
      <path id="Path_29469" data-name="Path 29469" class="cls-2" d="M181.6,119.2a102.726,102.726,0,0,0-19.57-21.128c-.154-.132-.378.092-.222.222a121.461,121.461,0,0,1,19.331,21.176C181.34,119.733,181.8,119.484,181.6,119.2Z" transform="translate(-54.997 -33.329)"/>
      <path id="Path_29470" data-name="Path 29470" class="cls-2" d="M87.252,222.881c-5.412-4.539-10.885-8.976-16.1-13.728s-10.221-9.685-15.105-14.742c-.154-.16-.4.078-.248.24,4.827,5.23,9.9,10.243,15.157,15.066a205.127,205.127,0,0,0,16,13.54C87.174,223.421,87.465,223.059,87.252,222.881Z" transform="translate(-18.957 -66.082)"/>
      <path id="Path_29471" data-name="Path 29471" class="cls-2" d="M103.53,228.488A120.9,120.9,0,0,0,83.2,211.9c-.162-.107-.311.144-.153.251A156.231,156.231,0,0,1,103.2,228.808C103.413,229.015,103.736,228.7,103.53,228.488Z" transform="translate(-28.212 -72.039)"/>
      <path id="Path_29472" data-name="Path 29472" class="cls-2" d="M106.815,224.108c-6.2-5.148-12.613-10.071-18.892-15.132-.156-.126-.38.1-.222.222,6.275,5.058,12.44,10.272,18.784,15.241C106.716,224.621,107.049,224.3,106.815,224.108Z" transform="translate(-29.8 -71.039)"/>
      <path id="Path_29473" data-name="Path 29473" class="cls-2" d="M113.474,219.41c-9-7.811-18.26-15.292-27.115-23.29-.163-.147-.4.1-.239.247,8.844,7.99,17.671,16.129,27.024,23.485C113.389,220.044,113.711,219.615,113.474,219.41Z" transform="translate(-29.262 -66.665)"/>
      <path id="Path_29474" data-name="Path 29474" class="cls-2" d="M109.844,207.722c-4.928-3.245-9.018-7.384-13.147-11.659-3.63-3.757-7.344-7.468-11.786-10.113Q76.471,178.6,68.5,170.723a.147.147,0,0,0-.207.207q7.372,7.606,15.35,14.619a.15.15,0,0,0,.082.132c.066.034.124.071.187.106q3.216,2.823,6.516,5.544c.253.208.617-.15.363-.363q-1.921-1.6-3.814-3.234c8.233,5.906,13.824,15.317,22.6,20.46C109.875,208.37,110.131,207.909,109.844,207.722Z" transform="translate(-23.209 -58.034)"/>
      <path id="Path_29475" data-name="Path 29475" class="cls-2" d="M128.8,209.578c-10.245-5.708-17.048-16.056-26.749-22.559-.185-.123-.355.183-.172.306,9.724,6.518,16.393,16.988,26.609,22.809a.319.319,0,0,0,.312-.556Z" transform="translate(-34.614 -63.577)"/>
      <path id="Path_29476" data-name="Path 29476" class="cls-2" d="M149.166,189.8c-8.328-6.884-16.447-13.97-24.1-21.6a.187.187,0,0,0-.264.264,300.41,300.41,0,0,0,23.971,21.734C149.048,190.415,149.446,190.029,149.166,189.8Z" transform="translate(-42.417 -57.172)"/>
      <path id="Path_29477" data-name="Path 29477" class="cls-2" d="M154.423,182.52q-5.178-4.133-10.241-8.406c-3.366-2.854-6.609-5.871-10-8.694-.152-.127-.366.077-.221.221,3.118,3.1,6.534,5.961,9.868,8.827s6.747,5.693,10.194,8.453C154.3,183.147,154.709,182.748,154.423,182.52Z" transform="translate(-45.53 -56.23)"/>
      <path id="Path_29478" data-name="Path 29478" class="cls-2" d="M160.478,179.5a112.769,112.769,0,0,0-8.839-7.727q-4.5-3.781-9.121-7.407c-.156-.122-.381.092-.222.222q4.522,3.736,8.981,7.547c2.954,2.54,5.759,5.346,8.832,7.734C160.364,180.068,160.719,179.748,160.478,179.5Z" transform="translate(-48.362 -55.872)"/>
      <path id="Path_29479" data-name="Path 29479" class="cls-2" d="M167.679,172.247a88.073,88.073,0,0,0-10.1-9.881c-1.635-1.379-3.309-2.706-5.027-3.96-1.562-1.141-3.074-2.346-5-2.517-.234-.02-.226.363,0,.391,2.1.264,3.938,2.013,5.6,3.3q2.681,2.083,5.236,4.345a123.885,123.885,0,0,1,8.819,8.828C167.511,173.091,167.972,172.588,167.679,172.247Z" transform="translate(-50.108 -53.002)"/>
      <path id="Path_29480" data-name="Path 29480" class="cls-2" d="M171.179,165.743c-.909.764-4.982-3.454-5.727-4.1q-2.334-2.018-4.652-4.056c-3.168-2.781-6.339-5.554-9.438-8.408-.169-.156-.42.1-.251.256,3.875,3.6,7.733,7.216,11.687,10.727q2.856,2.535,5.742,5.031c.733.634,2.133,2.109,3.058.974a.3.3,0,0,0-.418-.426Z" transform="translate(-51.358 -50.705)"/>
      <path id="Path_29481" data-name="Path 29481" class="cls-2" d="M175.865,160.226a63.724,63.724,0,0,1-8.037-6.965,60.957,60.957,0,0,0-7.4-6.674c-.212-.154-.414.2-.205.351a64.843,64.843,0,0,1,7.8,7.335c2.272,2.326,4.68,4.871,7.577,6.423a.272.272,0,0,0,.275-.47Z" transform="translate(-54.444 -49.827)"/>
      <path id="Path_29482" data-name="Path 29482" class="cls-2" d="M183.983,141.276a107.573,107.573,0,0,0-13.737-11.119c-.2-.142-.384.184-.19.325,4.766,3.455,9.06,7.385,13.541,11.18C183.865,141.886,184.238,141.529,183.983,141.276Z" transform="translate(-57.791 -44.242)"/>
      <path id="Path_29483" data-name="Path 29483" class="cls-2" d="M194.446,124.951c-2.026-1.94-4.187-3.681-6.182-5.671s-3.894-4.083-5.724-6.261c-.2-.241-.515.119-.321.364,3.493,4.383,7.445,8.91,11.873,12.086C194.368,125.665,194.7,125.2,194.446,124.951Z" transform="translate(-61.934 -38.4)"/>
      <path id="Path_29484" data-name="Path 29484" class="cls-2" d="M195.886,99.774a.242.242,0,1,0,.242.242.242.242,0,0,0-.242-.242Z" transform="translate(-66.519 -33.923)"/>
      <path id="Path_29485" data-name="Path 29485" class="cls-2" d="M138.709,73.973c-7.583-7.238-15.4-14.242-23.118-21.335s-15.464-14.172-23.2-21.261c-.156-.143-.389.088-.233.233L115.25,52.975c7.7,7.11,15.328,14.325,23.166,21.288C138.614,74.443,138.9,74.159,138.709,73.973Z" transform="translate(-31.317 -10.653)"/>
      <path id="Path_29486" data-name="Path 29486" class="cls-2" d="M98.887,58.484c-4.56-4.926-9.438-9.588-14.166-14.35-.141-.141-.356.075-.218.218,4.671,4.818,9.24,9.784,14.078,14.437a.216.216,0,0,0,.306-.3Z" transform="translate(-28.716 -14.99)"/>
      <path id="Path_29487" data-name="Path 29487" class="cls-2" d="M86.265,93.51l-4.349-4.835c-.132-.148-.351.071-.218.218l4.349,4.833C86.18,93.876,86.4,93.657,86.265,93.51Z" transform="translate(-27.763 -30.133)"/>
      <path id="Path_29488" data-name="Path 29488" class="cls-3" d="M329.806,185.258l-.055-.136a.183.183,0,0,0-.219-.125l-.086.024a.18.18,0,0,0-.061.03c-.443-1.466-1.373-7.647-1.441-8.206-.022-.187-.319-.189-.3,0,.207,1.711.462,3.416.783,5.11.166.879.337,1.762.543,2.633.109.462.088.736.485.974a.184.184,0,0,0,.221-.028l.079-.1A.182.182,0,0,0,329.806,185.258Z" transform="translate(-111.4 -60.08)"/>
      <path id="Path_29489" data-name="Path 29489" class="cls-3" d="M332.642,186.127c-.65-2.544-1.435-5.016-1.878-7.614a64.516,64.516,0,0,1-.743-8.239.165.165,0,1,0-.33,0,39.107,39.107,0,0,0,2.583,15.954C332.366,186.447,332.7,186.372,332.642,186.127Z" transform="translate(-112.084 -57.837)"/>
      <path id="Path_29490" data-name="Path 29490" class="cls-3" d="M335.029,184.656c-.692-3.4-1.572-6.741-2.127-10.173-.579-3.577-.892-7.169-1.208-10.776-.016-.187-.3-.194-.3,0a78.539,78.539,0,0,0,.977,10.4,66.4,66.4,0,0,0,2.27,10.656.2.2,0,0,0,.384-.106Z" transform="translate(-112.675 -55.612)"/>
      <path id="Path_29491" data-name="Path 29491" class="cls-3" d="M338.509,183.974c-1.072-4.279-2.082-8.56-2.819-12.911-.762-4.5-1.193-9.019-1.65-13.556-.021-.212-.345-.221-.337,0a108.751,108.751,0,0,0,4.371,26.586.226.226,0,0,0,.435-.119Z" transform="translate(-113.459 -53.497)"/>
      <path id="Path_29492" data-name="Path 29492" class="cls-3" d="M342.025,181.047a.211.211,0,0,0-.292-.17,208.271,208.271,0,0,1-4.743-30.656c-.014-.189-.309-.191-.3,0a178.666,178.666,0,0,0,5.073,33.046c.066.264.528.218.49-.066C342.163,182.483,342.1,181.763,342.025,181.047Z" transform="translate(-114.476 -51.027)"/>
      <path id="Path_29493" data-name="Path 29493" class="cls-3" d="M345.332,184.982l-.024.011c-.433-2.61-2.344-16.073-2.546-17.556q-1.3-9.511-2.34-19.056c-.02-.188-.317-.192-.3,0q1.182,12.555,2.936,25.046.434,3.051.9,6.1.253,1.65.515,3.3c.117.73.107,2.4.544,3C345.934,187.078,346.906,184.669,345.332,184.982Z" transform="translate(-115.642 -50.401)"/>
      <path id="Path_29494" data-name="Path 29494" class="cls-3" d="M350.114,187.174a96.43,96.43,0,0,1-2.4-10.545c-.547-3.644-.863-7.319-1.173-10.99-.594-7.021-1.237-14.041-3.137-20.856a.149.149,0,1,0-.288.079c1.973,7.071,2.382,14.438,2.962,21.721.272,3.408.574,6.814,1.071,10.2a46.692,46.692,0,0,0,2.466,10.528C349.733,187.616,350.2,187.507,350.114,187.174Z" transform="translate(-116.657 -49.189)"/>
      <path id="Path_29495" data-name="Path 29495" class="cls-3" d="M355.251,188.222a.22.22,0,0,0-.182-.221c-2.074-13.8-4.179-27.6-5.931-41.448-.024-.194-.33-.2-.309,0,1.725,14.423,3.537,28.837,5.866,43.177.057.35.641.269.619-.084C355.286,189.17,355.265,188.7,355.251,188.222Z" transform="translate(-118.602 -49.778)"/>
      <path id="Path_29496" data-name="Path 29496" class="cls-3" d="M357.3,172.128c-1.142-7.173-2.205-14.362-3.062-21.574-.028-.231-.4-.234-.366,0,.832,7,1.7,13.992,2.75,20.967q.784,5.214,1.667,10.413c.616,3.618,1.142,7.3,2.043,10.86.066.264.531.22.494-.066C359.929,185.835,358.4,179,357.3,172.128Z" transform="translate(-120.317 -51.129)"/>
      <path id="Path_29497" data-name="Path 29497" class="cls-3" d="M366.514,194.1c-1.152-6.793-2.765-13.525-4.02-20.3s-2.413-13.577-3.544-20.378c-.039-.233-.382-.132-.351.1.95,6.839,2.066,13.653,3.293,20.447,1.22,6.76,2.31,13.646,4.03,20.3a.308.308,0,0,0,.593-.164Z" transform="translate(-121.923 -52.118)"/>
      <path id="Path_29498" data-name="Path 29498" class="cls-3" d="M369.707,188.716c-1.128-5.453-2.7-10.824-3.852-16.274s-2.189-10.93-2.991-16.441c-.031-.213-.353-.122-.323.089.779,5.528,1.641,11.037,2.732,16.513a135.161,135.161,0,0,0,3.872,16.269.292.292,0,0,0,.562-.156Z" transform="translate(-123.263 -52.999)"/>
      <path id="Path_29499" data-name="Path 29499" class="cls-3" d="M372.744,181.939q-.841-3.948-1.694-7.894c-1.127-5.174-2.279-10.342-3.371-15.523-.051-.241-.419-.139-.369.1,1.065,5.1,2.07,10.217,3.1,15.328q.773,3.832,1.568,7.656a56.869,56.869,0,0,0,1.682,7.628c.092.258.531.242.51-.066A53.538,53.538,0,0,0,372.744,181.939Z" transform="translate(-124.884 -53.851)"/>
      <path id="Path_29500" data-name="Path 29500" class="cls-3" d="M376.053,180.258l-1.931-8.75a.18.18,0,0,0,.039-.166q-.33-1.379-.683-2.752l-.726-3.276a.172.172,0,0,0-.2-.139c-.417-1.479-.853-2.952-1.323-4.415-.06-.186-.354-.106-.294.081q.931,2.895,1.707,5.83l3.021,13.694C375.723,180.616,376.109,180.509,376.053,180.258Z" transform="translate(-126.116 -54.622)"/>
      <path id="Path_29501" data-name="Path 29501" class="cls-3" d="M373.869,159.252c-.078-.222-.427-.132-.357.1.94,3.078,1.777,6.184,2.458,9.33s1.091,6.336,1.637,9.509c.061.352.655.273.626-.084A75.746,75.746,0,0,0,373.869,159.252Z" transform="translate(-126.991 -54.103)"/>
      <path id="Path_29502" data-name="Path 29502" class="cls-4" d="M328.6,175.019c-.025-.208-.354-.21-.33,0,.45,3.728.946,7.486,1.659,11.173.053.275.467.157.418-.116C329.691,182.395,329.05,178.734,328.6,175.019Z" transform="translate(-111.612 -59.453)"/>
      <path id="Path_29503" data-name="Path 29503" class="cls-4" d="M334.836,189.565c-.72-3.513-1.286-7.062-1.922-10.594-.044-.244-.416-.141-.373.1.636,3.53,1.346,7.056,1.9,10.6C334.48,189.931,334.889,189.827,334.836,189.565Z" transform="translate(-113.063 -60.803)"/>
      <path id="Path_29504" data-name="Path 29504" class="cls-4" d="M335.73,178.654q-.392-2.155-.745-4.317c-.125-.763-.244-1.527-.363-2.291a23.476,23.476,0,0,1-.5-2.757.2.2,0,0,0,.409,0c.038-.323-.189-.462-.486-.457a.264.264,0,0,0-.23.132c-.462.842.066,2.344.2,3.252.258,1.787.544,3.569.846,5.346.587,3.46,1.152,6.972,2.026,10.373.111.432.735.245.66-.182C336.993,184.714,336.284,181.7,335.73,178.654Z" transform="translate(-113.432 -57.403)"/>
      <path id="Path_29505" data-name="Path 29505" class="cls-4" d="M343.072,194.207c-1.473-5.661-2.851-11.322-3.947-17.071-.05-.264-.441-.149-.4.11a163.7,163.7,0,0,0,3.674,17.146.349.349,0,0,0,.67-.185Z" transform="translate(-115.166 -60.175)"/>
      <path id="Path_29506" data-name="Path 29506" class="cls-4" d="M349.083,198.344a125.266,125.266,0,0,1-4.643-21.169c-.028-.249-.422-.253-.4,0a94.14,94.14,0,0,0,4.433,21.337C348.611,198.888,349.2,198.737,349.083,198.344Z" transform="translate(-116.975 -60.176)"/>
      <path id="Path_29507" data-name="Path 29507" class="cls-4" d="M354.065,200.367a122.611,122.611,0,0,1-2.584-19.894c-.01-.269-.43-.27-.419,0a112.963,112.963,0,0,0,2.435,20.051C353.58,200.895,354.141,200.737,354.065,200.367Z" transform="translate(-119.361 -61.292)"/>
      <path id="Path_29508" data-name="Path 29508" class="cls-4" d="M359.712,202.987c-.736-3.63-1.65-7.226-2.376-10.864q-.541-2.724-.979-5.468a17.72,17.72,0,0,1-.273-6.149c.05-.257-.341-.369-.4-.11-.76,3.546.207,7.4.845,10.9.726,3.97,1.526,7.956,2.52,11.868C359.165,203.6,359.8,203.414,359.712,202.987Z" transform="translate(-120.839 -61.285)"/>
      <path id="Path_29509" data-name="Path 29509" class="cls-4" d="M365.428,206.713c-.9-3.674-1.956-7.292-2.723-11q-1.193-5.766-1.927-11.609c-.035-.28-.479-.288-.447,0a110.823,110.823,0,0,0,4.465,22.785.33.33,0,0,0,.632-.174Z" transform="translate(-122.512 -62.522)"/>
      <path id="Path_29510" data-name="Path 29510" class="cls-4" d="M371.725,208.987a159.068,159.068,0,0,1-4.547-20.172c-.034-.228-.434-.176-.406.055a111.928,111.928,0,0,0,4.241,20.313.37.37,0,0,0,.712-.2Z" transform="translate(-124.702 -64.147)"/>
      <path id="Path_29511" data-name="Path 29511" class="cls-4" d="M375.995,215.17c-.4-1.969-1.175-3.894-1.674-5.844s-.888-3.955-1.2-5.957c-.047-.3-.509-.174-.462.127q.492,3.126,1.2,6.211a28.823,28.823,0,0,0,1.632,5.676C375.627,215.686,376.05,215.462,375.995,215.17Z" transform="translate(-126.702 -69.087)"/>
      <path id="Path_29512" data-name="Path 29512" class="cls-4" d="M99.208,248.474a.245.245,0,0,0-.269-.11l-.046.014h0a5.377,5.377,0,0,1-.467-.433c-.215-.189-.428-.378-.644-.564-.375-.323-.759-.62-1.152-.918-.145-.11-.3.12-.188.244.454.489.92.954,1.41,1.41.293.273.708.882,1.152.847a.264.264,0,0,0,.246-.187.3.3,0,0,0-.044-.3Z" transform="translate(-32.777 -83.788)"/>
      <path id="Path_29513" data-name="Path 29513" class="cls-4" d="M102.343,248.37c-.389-.38-.865-.675-1.28-1.028s-.81-.735-1.188-1.129c-.161-.167-.406.083-.253.253a10.559,10.559,0,0,0,2.459,2.249.22.22,0,0,0,.262-.344Z" transform="translate(-33.855 -83.694)"/>
      <path id="Path_29514" data-name="Path 29514" class="cls-4" d="M105.427,247.415c-.781-.792-1.67-1.488-2.493-2.237a23.638,23.638,0,0,0-2.29-2.016c-.15-.1-.361.1-.255.255a16.279,16.279,0,0,0,2.231,2.323,26.1,26.1,0,0,0,2.442,2.144C105.345,248.086,105.659,247.65,105.427,247.415Z" transform="translate(-34.123 -82.666)"/>
      <path id="Path_29515" data-name="Path 29515" class="cls-4" d="M108.745,246.539c-1.309-1.363-2.738-2.625-4.107-3.93a.209.209,0,1,0-.3.3c1.331,1.342,2.622,2.745,4.01,4.026a.277.277,0,0,0,.392-.391Z" transform="translate(-35.456 -82.466)"/>
      <path id="Path_29516" data-name="Path 29516" class="cls-4" d="M110.132,245.006c-2.191-2.6-4.78-4.906-7.208-7.28-.2-.2-.506.111-.306.306,2.445,2.391,4.646,5.012,7.073,7.414C109.981,245.733,110.387,245.308,110.132,245.006Z" transform="translate(-34.868 -80.805)"/>
      <path id="Path_29517" data-name="Path 29517" class="cls-4" d="M114.463,244.435a71.585,71.585,0,0,0-5.561-5.112c-.22-.189-.528.108-.322.322a71.588,71.588,0,0,0,5.429,5.244.321.321,0,0,0,.454-.453Z" transform="translate(-36.894 -81.35)"/>
      <path id="Path_29518" data-name="Path 29518" class="cls-4" d="M64.593,215.7c-2.932-2.6-5.937-5.1-8.736-7.851s-5.44-5.632-8-8.592c-.137-.158-.354.066-.227.227a93.721,93.721,0,0,0,16.683,16.585C64.522,216.23,64.792,215.878,64.593,215.7Z" transform="translate(-16.18 -67.73)"/>
      <path id="Path_29519" data-name="Path 29519" class="cls-4" d="M78.663,222.113c-3.582-2.93-7.224-5.76-10.675-8.851s-6.768-6.3-9.955-9.658c-.17-.179-.438.09-.271.271a135.725,135.725,0,0,0,20.579,18.652C78.586,222.7,78.895,222.3,78.663,222.113Z" transform="translate(-19.621 -69.205)"/>
      <path id="Path_29520" data-name="Path 29520" class="cls-4" d="M88.256,225.195c-3.216-2.883-6.688-5.5-9.948-8.335s-6.472-5.753-9.581-8.762c-.164-.158-.413.09-.25.25,3.154,3.081,6.349,6.114,9.643,9.046a116.158,116.158,0,0,0,9.818,8.213C88.18,225.779,88.477,225.393,88.256,225.195Z" transform="translate(-23.264 -70.736)"/>
      <path id="Path_29521" data-name="Path 29521" class="cls-4" d="M93.16,225.078c-3.781-3.489-7.735-6.788-11.492-10.309S74.251,207.633,70.7,203.9c-.174-.182-.449.094-.276.276,3.541,3.734,7.152,7.4,10.864,10.967,3.692,3.546,7.44,7.164,11.458,10.343C93.032,225.717,93.44,225.339,93.16,225.078Z" transform="translate(-23.926 -69.307)"/>
      <path id="Path_29522" data-name="Path 29522" class="cls-4" d="M102.432,227.262c-3.346-3.043-6.818-5.94-10.144-9.01s-6.6-6.183-9.834-9.346c-.183-.18-.465.1-.282.282,6.438,6.3,12.972,12.672,19.9,18.427C102.325,227.817,102.676,227.481,102.432,227.262Z" transform="translate(-27.918 -71.009)"/>
      <path id="Path_29523" data-name="Path 29523" class="cls-4" d="M108.582,225.371q-3.509-2.838-6.894-5.808a.152.152,0,0,0-.051-.117q-6.165-5.813-12.592-11.339c-.14-.12-.345.082-.2.2q3.389,2.91,6.689,5.911a.16.16,0,0,0,.041.18,153.511,153.511,0,0,0,12.706,11.277C108.491,225.849,108.8,225.549,108.582,225.371Z" transform="translate(-30.19 -70.744)"/>
      <path id="Path_29524" data-name="Path 29524" class="cls-4" d="M116.265,222.843c-3.211-2.844-6.725-5.384-10.032-8.118s-6.592-5.537-9.834-8.367c-.194-.169-.479.11-.284.284q4.878,4.412,9.907,8.651c3.223,2.716,6.429,5.6,9.893,8.006C116.183,223.484,116.511,223.061,116.265,222.843Z" transform="translate(-32.657 -70.144)"/>
      <path id="Path_29525" data-name="Path 29525" class="cls-4" d="M121.393,220.35c-3.138-2.518-6.316-4.975-9.385-7.578s-5.973-5.394-9.027-8.012a.2.2,0,0,0-.279.279,114.925,114.925,0,0,0,9.046,8.34c3,2.581,6.06,5.134,9.269,7.458C121.3,221.041,121.667,220.571,121.393,220.35Z" transform="translate(-34.902 -69.603)"/>
      <path id="Path_29526" data-name="Path 29526" class="cls-4" d="M130.356,216.764c-2.738-2.421-5.767-4.563-8.622-6.847s-5.728-4.6-8.58-6.913c-.175-.142-.427.1-.251.251q4.264,3.674,8.624,7.232c2.781,2.268,5.52,4.7,8.476,6.737C130.274,217.413,130.606,216.985,130.356,216.764Z" transform="translate(-38.367 -69.007)"/>
      <path id="Path_29527" data-name="Path 29527" class="cls-4" d="M136.274,212.714c-4.858-3.817-9.57-7.777-14.036-12.047-.185-.176-.462.1-.281.281a140.753,140.753,0,0,0,13.934,12.262C136.175,213.425,136.557,212.936,136.274,212.714Z" transform="translate(-41.445 -68.208)"/>
      <path id="Path_29528" data-name="Path 29528" class="cls-4" d="M143.331,207.284a74.216,74.216,0,0,1-13.879-10.192.154.154,0,0,0-.217.217,60.22,60.22,0,0,0,13.8,10.48.293.293,0,0,0,.3-.5Z" transform="translate(-43.924 -66.996)"/>
      <path id="Path_29529" data-name="Path 29529" class="cls-4" d="M149.673,203.359c-3.887-3.228-7.854-6.359-11.748-9.575-.191-.158-.467.115-.275.275,3.882,3.223,7.695,6.528,11.588,9.738C149.541,204.049,149.98,203.613,149.673,203.359Z" transform="translate(-46.779 -65.871)"/>
      <path id="Path_29530" data-name="Path 29530" class="cls-4" d="M156.475,195.682c-3.943-2.74-7.735-5.637-11.571-8.519-.149-.112-.337.132-.2.259a107.733,107.733,0,0,0,11.453,8.8C156.494,196.455,156.8,195.912,156.475,195.682Z" transform="translate(-49.183 -63.626)"/>
      <path id="Path_29531" data-name="Path 29531" class="cls-4" d="M162.088,188.559q-2.442-1.858-4.85-3.755-1.074-.847-2.146-1.7c-.7-.554-2.1-1.313-2.258-2.28-.045-.264-.44-.15-.4.111a2.585,2.585,0,0,0,1.155,1.575c.879.754,1.776,1.488,2.672,2.222q2.691,2.2,5.43,4.341a.33.33,0,1,0,.4-.516Z" transform="translate(-51.826 -61.43)"/>
      <path id="Path_29532" data-name="Path 29532" class="cls-4" d="M159.364,191.307c-3.185-2.65-6.468-5.225-9.868-7.59-.185-.132-.425.175-.244.316,3.252,2.542,6.5,5.074,9.686,7.7C159.234,191.979,159.663,191.556,159.364,191.307Z" transform="translate(-50.724 -62.453)"/>
      <path id="Path_29533" data-name="Path 29533" class="cls-4" d="M163.775,179.657c-6.682-5.319-13.349-10.742-20.245-15.783-.132-.1-.3.121-.175.226,6.2,5.227,12.677,10.171,19.089,15.136a.019.019,0,0,0-.013,0q-4.014-2.99-7.991-6.03c-.158-.121-.368.149-.214.278,2.783,2.328,5.63,4.584,8.514,6.784.253.193.623-.187.44-.44l-.04-.055.29.224C163.675,180.185,164.021,179.85,163.775,179.657Z" transform="translate(-48.726 -55.709)"/>
      <path id="Path_29534" data-name="Path 29534" class="cls-4" d="M171.544,177.959c-3.12-2.689-6.261-5.318-9.262-8.147a.192.192,0,1,0-.272.272,77.975,77.975,0,0,0,9.154,8.366C171.447,178.663,171.812,178.19,171.544,177.959Z" transform="translate(-55.064 -57.717)"/>
      <path id="Path_29535" data-name="Path 29535" class="cls-4" d="M173.282,172.851c-2.661-2.229-5.473-4.279-8.135-6.514-.193-.162-.474.11-.281.281a98.1,98.1,0,0,0,8.08,6.666C173.2,173.463,173.523,173.052,173.282,172.851Z" transform="translate(-56.033 -56.538)"/>
      <path id="Path_29536" data-name="Path 29536" class="cls-4" d="M176.334,167.27a31.813,31.813,0,0,1-7.562-6.336c-.16-.186-.427.084-.269.269a30.992,30.992,0,0,0,7.565,6.52.264.264,0,0,0,.266-.453Z" transform="translate(-57.275 -54.696)"/>
      <path id="Path_29537" data-name="Path 29537" class="cls-4" d="M180.888,160.567c-2.532-2.121-5.082-4.224-7.6-6.357-.195-.165-.478.115-.282.282,2.517,2.133,5,4.3,7.509,6.446C180.773,161.159,181.147,160.786,180.888,160.567Z" transform="translate(-58.8 -52.415)"/>
      <path id="Path_29538" data-name="Path 29538" class="cls-4" d="M185.351,154.85c-2.787-1.98-5.582-3.894-8.246-6.044-.183-.148-.447.106-.264.264a74.706,74.706,0,0,0,8.226,6.264C185.377,155.529,185.641,155.057,185.351,154.85Z" transform="translate(-60.105 -50.579)"/>
      <path id="Path_29539" data-name="Path 29539" class="cls-4" d="M188.787,146.315c-1.6-.979-3.23-1.919-4.784-2.978-1.534-1.045-3.25-2.159-4.092-3.872-.1-.2-.447-.056-.36.152a8.892,8.892,0,0,0,3.2,3.544,58.726,58.726,0,0,0,5.7,3.718.33.33,0,0,0,.327-.564Z" transform="translate(-61.042 -47.386)"/>
      <path id="Path_29540" data-name="Path 29540" class="cls-4" d="M190.058,137.595a58.255,58.255,0,0,0-6.015-4.59c-.219-.145-.424.208-.205.351a45.794,45.794,0,0,1,5.9,4.559C189.953,138.112,190.277,137.783,190.058,137.595Z" transform="translate(-62.473 -45.21)"/>
      <path id="Path_29541" data-name="Path 29541" class="cls-4" d="M192.061,132.181a57.79,57.79,0,0,0-9.372-7.453c-.174-.114-.325.158-.161.275a112.232,112.232,0,0,1,9.138,7.569C191.934,132.808,192.313,132.437,192.061,132.181Z" transform="translate(-62.036 -42.398)"/>
      <path id="Path_29542" data-name="Path 29542" class="cls-4" d="M191.351,122.14a62.355,62.355,0,0,1-9.08-8.261c-.132-.154-.351.066-.222.222a46.77,46.77,0,0,0,9.019,8.524C191.37,122.835,191.629,122.354,191.351,122.14Z" transform="translate(-61.883 -38.701)"/>
      <path id="Path_29543" data-name="Path 29543" class="cls-4" d="M196.286,117.385c-3.451-2.939-6.872-5.83-10.054-9.069-.164-.167-.415.086-.256.256a81.991,81.991,0,0,0,9.971,9.253C196.2,118.015,196.528,117.593,196.286,117.385Z" transform="translate(-63.215 -36.809)"/>
      <path id="Path_29544" data-name="Path 29544" class="cls-4" d="M196.991,106.8c-2.64-1.955-5.114-4.163-7.649-6.248-.185-.152-.451.112-.264.264,2.549,2.1,5.205,4.11,7.645,6.331a.221.221,0,1,0,.268-.348Z" transform="translate(-64.265 -34.172)"/>
      <path id="Path_29545" data-name="Path 29545" class="cls-4" d="M198.068,97.4c-2.668-2.463-5.524-4.732-8.241-7.142-.147-.132-.362.085-.215.215,2.714,2.406,5.305,4.966,8.066,7.317C197.945,98.02,198.332,97.646,198.068,97.4Z" transform="translate(-64.451 -30.674)"/>
      <path id="Path_29546" data-name="Path 29546" class="cls-4" d="M197.9,86.178a35.845,35.845,0,0,0-6-5.346c-.2-.149-.4.188-.2.335a49.374,49.374,0,0,1,5.85,5.359C197.777,86.757,198.106,86.416,197.9,86.178Z" transform="translate(-65.15 -27.47)"/>
      <path id="Path_29547" data-name="Path 29547" class="cls-4" d="M55.026,209.044q-3.252-3.241-6.51-6.475a.164.164,0,0,0-.231.231q3.229,3.263,6.461,6.523a.2.2,0,0,0,.28-.28Z" transform="translate(-16.403 -68.86)"/>
      <path id="Path_29548" data-name="Path 29548" class="cls-4" d="M127.141,210.8a169.549,169.549,0,0,1-14.388-13.975c-.146-.164-.385.077-.24.24a129.26,129.26,0,0,0,14.278,14.086C127.031,211.35,127.38,211.015,127.141,210.8Z" transform="translate(-38.239 -66.902)"/>
      <path id="Path_29549" data-name="Path 29549" class="cls-4" d="M143.1,201.113c-6.27-4.752-12.513-9.445-18.46-14.6-.148-.128-.364.083-.217.217a163.756,163.756,0,0,0,18.436,14.8C143.116,201.7,143.332,201.294,143.1,201.113Z" transform="translate(-42.286 -63.4)"/>
      <path id="Path_29550" data-name="Path 29550" class="cls-4" d="M144.667,190.828c-6.805-5.074-13.273-10.506-19.549-16.219-.174-.158-.429.094-.259.259A187.7,187.7,0,0,0,144.391,191.3C144.677,191.51,144.947,191.036,144.667,190.828Z" transform="translate(-42.433 -59.35)"/>
      <path id="Path_29551" data-name="Path 29551" class="cls-4" d="M152.5,182.538c-4.97-3.994-9.82-8.158-14.422-12.572-.139-.132-.35.078-.211.211,4.605,4.418,9.34,8.678,14.311,12.684C152.4,183.042,152.729,182.722,152.5,182.538Z" transform="translate(-46.859 -57.774)"/>
      <path id="Path_29552" data-name="Path 29552" class="cls-4" d="M179.319,153.337c-4.233-3.284-8.453-6.586-12.69-9.865-.15-.116-.364.091-.213.213,4.182,3.338,8.382,6.653,12.569,9.986C179.222,153.859,179.557,153.523,179.319,153.337Z" transform="translate(-56.564 -48.769)"/>
      <path id="Path_29553" data-name="Path 29553" class="cls-4" d="M182.294,145.291a113.012,113.012,0,0,1-13.64-10.56c-.139-.127-.349.08-.208.208a108.715,108.715,0,0,0,13.636,10.714C182.309,145.8,182.519,145.441,182.294,145.291Z" transform="translate(-57.256 -45.795)"/>
      <path id="Path_29554" data-name="Path 29554" class="cls-4" d="M186.413,137.586a142.111,142.111,0,0,0-15.8-12.6c-.164-.112-.3.147-.152.264,5.378,4.032,10.56,8.24,15.56,12.731C186.284,138.222,186.679,137.83,186.413,137.586Z" transform="translate(-57.933 -42.486)"/>
      <path id="Path_29555" data-name="Path 29555" class="cls-4" d="M188.343,125.857a79.606,79.606,0,0,1-7.986-5.336c-2.554-1.967-4.834-4.186-7.227-6.336a.154.154,0,0,0-.218.218,58.462,58.462,0,0,0,15.151,11.926.275.275,0,0,0,.28-.472Z" transform="translate(-58.775 -38.808)"/>
      <path id="Path_29556" data-name="Path 29556" class="cls-4" d="M190.528,116.78a101.574,101.574,0,0,0-12.144-10.444c-.156-.115-.3.143-.15.257a111.761,111.761,0,0,1,11.92,10.56C190.393,117.4,190.767,117.023,190.528,116.78Z" transform="translate(-60.578 -36.145)"/>
      <path id="Path_29557" data-name="Path 29557" class="cls-4" d="M193.184,106.49a73.008,73.008,0,0,0-11.6-9.654c-.2-.138-.39.189-.191.327a77.306,77.306,0,0,1,11.367,9.749C193.028,107.186,193.448,106.767,193.184,106.49Z" transform="translate(-61.646 -32.913)"/>
      <path id="Path_29558" data-name="Path 29558" class="cls-4" d="M196.565,99.121a.288.288,0,0,0-.2-.2l-.145-.029a.264.264,0,0,0-.336.289,3.681,3.681,0,0,0-.745-.758l-.783-.66-1.174-.99-2.938-2.47c-1.778-1.488-3.528-3.042-5.4-4.417-.2-.149-.44.174-.264.344,2.558,2.486,5.4,4.719,8.11,7.031l1.947,1.658c.316.268.761.829,1.2.92C196.363,99.951,196.7,99.639,196.565,99.121Z" transform="translate(-62.737 -30.547)"/>
      <path id="Path_29559" data-name="Path 29559" class="cls-4" d="M196.251,89.4l-2.734-2.392c-.216-.189-.534.127-.317.317l2.734,2.392C196.151,89.906,196.468,89.591,196.251,89.4Z" transform="translate(-65.664 -29.563)"/>
      <path id="Path_29560" data-name="Path 29560" class="cls-4" d="M195.975,76.119a.189.189,0,1,0,.178.189A.189.189,0,0,0,195.975,76.119Z" transform="translate(-66.571 -25.881)"/>
      <path id="Path_29561" data-name="Path 29561" class="cls-2" d="M97.977,186.072a130.629,130.629,0,0,0-25.172-23.48c-.154-.112-.3.143-.149.254a146.534,146.534,0,0,1,24.943,23.6C97.824,186.714,98.19,186.336,97.977,186.072Z" transform="translate(-24.682 -55.272)"/>
      <path id="Path_29562" data-name="Path 29562" class="cls-2" d="M109.565,174.047c-10.054-8.157-19.9-16.548-29.451-25.287-.174-.16-.436.1-.26.26,9.542,8.729,19.3,17.24,29.341,25.4C109.451,174.632,109.824,174.263,109.565,174.047Z" transform="translate(-27.131 -50.562)"/>
      <path id="Path_29563" data-name="Path 29563" class="cls-2" d="M140.944,136.432a13.292,13.292,0,0,0-3.132-3.292l-4.525-3.875q-4.525-3.875-9.052-7.748-9.054-7.746-18.1-15.5c-.187-.16-.462.11-.272.272q8.837,7.6,17.658,15.213,4.314,3.72,8.631,7.439l4.316,3.718a20.146,20.146,0,0,1,4.055,4.02.244.244,0,0,0,.421-.247Z" transform="translate(-35.971 -36.029)"/>
      <path id="Path_29564" data-name="Path 29564" class="cls-2" d="M151.9,112.921c-9.529-9.293-19.145-18.506-28.735-27.742-.139-.132-.349.077-.211.211,9.522,9.306,19.023,18.629,28.6,27.873C151.784,113.482,152.128,113.14,151.9,112.921Z" transform="translate(-41.79 -28.946)"/>
      <path id="Path_29565" data-name="Path 29565" class="cls-2" d="M116.05,159.732a105.787,105.787,0,0,0-15.9-14.75c-.132-.1-.3.121-.175.226a177.921,177.921,0,0,1,15.774,14.82C115.938,160.227,116.229,159.932,116.05,159.732Z" transform="translate(-33.978 -49.286)"/>
      <path id="Path_29566" data-name="Path 29566" class="cls-2" d="M135.081,141.781q-12.314-10.9-24.09-22.389c-.137-.132-.347.076-.21.209q11.753,11.5,24,22.475C134.986,142.255,135.282,141.96,135.081,141.781Z" transform="translate(-37.651 -40.579)"/>
      <path id="Path_29567" data-name="Path 29567" class="cls-5" d="M219.469,69.311c-.892,1.286-.351,2.763.4,3.994a44.734,44.734,0,0,0,3.4,4.6c2.622,3.274,5.443,6.38,8.161,9.573A75.634,75.634,0,0,1,239.2,98c2.095,3.559,3.472,7.5,5.68,10.994,2.467,3.9,6.138,6.376,10.026,8.712a.249.249,0,0,0,.251-.429c-3.511-2.156-7-4.364-9.372-7.822-2.132-3.105-3.435-6.673-5.2-9.982-3.574-6.706-8.826-12.281-13.75-17.993-1.439-1.67-2.858-3.359-4.212-5.1-1.32-1.7-4.244-4.642-2.9-6.917.1-.168-.15-.306-.257-.15Z" transform="translate(-74.462 -23.542)"/>
      <path id="Path_29568" data-name="Path 29568" class="cls-5" d="M339.14,100.1a.191.191,0,1,0-.18-.191.191.191,0,0,0,.18.191Z" transform="translate(-115.246 -33.903)"/>
      <path id="Path_29569" data-name="Path 29569" class="cls-5" d="M272.887,142.044c2.468,1.876,5.539,2.515,8.15,4.128a20.943,20.943,0,0,1,3.519,3.317,8.835,8.835,0,0,0,4.04,2.055.236.236,0,0,0,.125-.455,8.949,8.949,0,0,1-4.709-2.838,12.343,12.343,0,0,0-3.109-2.632c-2.546-1.452-5.483-2.078-7.87-3.828-.152-.112-.292.14-.147.251Z" transform="translate(-92.761 -48.199)"/>
      <path id="Path_29570" data-name="Path 29570" class="cls-5" d="M296.764,156.23a129.213,129.213,0,0,0,9.627,9.462q4.967,4.572,10.182,8.864c.236.194.576-.141.339-.339q-5.2-4.309-10.183-8.863c-3.318-3.043-6.442-6.291-9.756-9.334a.147.147,0,0,0-.208.208Z" transform="translate(-100.887 -53.034)"/>
      <path id="Path_29571" data-name="Path 29571" class="cls-5" d="M308.6,121.369c2.609.061,4.443,1.925,6.129,3.7s3.4,3.474,5.234,5.071a68.573,68.573,0,0,0,11.7,8.184.212.212,0,0,0,.214-.366,72.518,72.518,0,0,1-12.953-9.372c-1.8-1.643-3.4-3.472-5.179-5.133-1.433-1.341-3.1-2.485-5.141-2.389a.149.149,0,1,0,0,.3Z" transform="translate(-104.873 -41.161)"/>
      <path id="Path_29572" data-name="Path 29572" class="cls-5" d="M218.983,69.686a8.431,8.431,0,0,1,7.71-.834c2.489.981,4.512,3.006,6.455,4.784a117.375,117.375,0,0,1,10.936,11.575c.2.24.528-.1.34-.34a99.664,99.664,0,0,0-12.654-13.216c-1.839-1.606-3.828-3.254-6.3-3.729a8.712,8.712,0,0,0-6.638,1.509c-.155.1-.009.358.148.252Z" transform="translate(-74.382 -23.048)"/>
      <path id="Path_29573" data-name="Path 29573" class="cls-5" d="M257.895,95.72a70.288,70.288,0,0,0,6.186,7.089.236.236,0,0,0,.369-.285c-.462-.854-.9-1.716-1.289-2.6q-.376-.858-.7-1.737-.166-.455-.319-.914-.444-.649.2-.429c.562-.037,1.394.891,1.886,1.174a3.971,3.971,0,0,0,1.813.548c.33.021.326-.486,0-.513A4.457,4.457,0,0,1,263.674,97a6.252,6.252,0,0,0-1.247-.964.681.681,0,0,0-.9.174c-.442.688.449,2.133.708,2.782a31.226,31.226,0,0,0,1.807,3.767l.369-.285a92.775,92.775,0,0,1-6.285-6.937c-.106-.128-.334.044-.233.18Z" transform="translate(-87.675 -32.468)"/>
      <path id="Path_29574" data-name="Path 29574" class="cls-5" d="M216.073,62.43A8.61,8.61,0,0,0,230.054,60.9a.264.264,0,0,0-.453-.264c-1.579,2.239-3.529,3.954-6.373,4.244a8.567,8.567,0,0,1-6.947-2.658c-.132-.136-.33.066-.207.207Z" transform="translate(-73.452 -20.581)"/>
      <path id="Path_29575" data-name="Path 29575" class="cls-5" d="M237.066,61.048a6.3,6.3,0,0,0,4.219,1.307c1.914-.132,3.65-1.171,5.595-.66a.27.27,0,0,0,.143-.521,7.339,7.339,0,0,0-4.1.38,6.6,6.6,0,0,1-5.706-.761c-.159-.108-.3.144-.148.254Z" transform="translate(-80.58 -20.661)"/>
      <path id="Path_29576" data-name="Path 29576" class="cls-5" d="M251.936,61.56c2.5,2.365,5.92,3.528,7.491,6.789,1.386,2.874,1.576,6.168,3.21,8.944a.258.258,0,0,0,.445-.26c-1.674-2.889-1.827-6.347-3.418-9.263-1.675-3.072-5.023-4.191-7.517-6.421-.143-.127-.352.078-.211.211Z" transform="translate(-85.642 -20.845)"/>
      <path id="Path_29577" data-name="Path 29577" class="cls-5" d="M266.772,87.037a6.006,6.006,0,0,1-3.53,4.111.213.213,0,1,0,.164.391,6.234,6.234,0,0,0,3.647-4.422c.043-.183-.238-.264-.282-.078Z" transform="translate(-89.453 -29.557)"/>
      <path id="Path_29578" data-name="Path 29578" class="cls-5" d="M254.935,43.961c3.5,4.371,8.654,6.4,13.349,9.18A25.882,25.882,0,0,1,279.725,66.78c.109.306.6.175.491-.135a25.82,25.82,0,0,0-10.311-13.108c-4.915-3.194-10.946-5.109-14.762-9.78-.12-.147-.325.062-.208.208Z" transform="translate(-86.666 -14.86)"/>
      <path id="Path_29579" data-name="Path 29579" class="cls-5" d="M242.507,44.077c-1.952-1.166-4.074-.667-6.053.212-2.7,1.2-5.112,2.921-7.671,4.373a75.942,75.942,0,0,1-8.538,3.736c-1.488.618-4.6,1.736-3.775,3.912.116.306.6.183.5-.137-.8-2.435,4.9-3.828,6.512-4.461a42.978,42.978,0,0,0,5.966-2.812c1.957-1.142,3.836-2.417,5.843-3.474,2.067-1.088,4.807-2.376,7.069-1.094a.147.147,0,1,0,.148-.254Z" transform="translate(-73.553 -14.754)"/>
      <path id="Path_29580" data-name="Path 29580" class="cls-5" d="M234.292,13a6,6,0,0,0,2.716,6.061,9.542,9.542,0,0,0,4.026,1.452c1.5.211,3.3-.049,4.422,1.188.2.216.492-.1.315-.315-1.357-1.674-4-1.114-5.869-1.584-3.082-.778-5.819-3.306-5.319-6.72.028-.189-.255-.277-.294-.081Z" transform="translate(-79.631 -4.383)"/>
      <path id="Path_29581" data-name="Path 29581" class="cls-5" d="M249.337,24.808c1.647,1.22,2.777,2.964,4.366,4.243,1.529,1.23,3.4,1.769,4.765,3.243,2.847,3.071,3.487,7.465,5.621,10.972a.246.246,0,0,0,.424-.248c-2.109-3.564-2.8-7.979-5.692-11.076-1.465-1.567-3.513-2.105-5.116-3.465-1.474-1.25-2.6-2.831-4.215-3.927-.161-.11-.3.146-.15.257Z" transform="translate(-84.753 -8.338)"/>
      <path id="Path_29582" data-name="Path 29582" class="cls-5" d="M234.437,12.484c.945-3.254,6.246-.59,8.32.114,2.366.8,4.722,1.635,7.038,2.574a47.02,47.02,0,0,1,13.17,7.722c.26.224.641-.15.38-.38A48.262,48.262,0,0,0,248.3,13.991c-2.814-1.071-5.676-2.005-8.545-2.913-1.889-.6-4.961-1.32-5.614,1.327a.151.151,0,1,0,.292.081Z" transform="translate(-79.607 -3.575)"/>
      <path id="Path_29583" data-name="Path 29583" class="cls-5" d="M277.264,28.4c1.914,3.353,3.828,6.674,5.412,10.2a83.3,83.3,0,0,1,4.045,11.246.251.251,0,0,0,.485-.132,67.99,67.99,0,0,0-9.683-21.465.148.148,0,0,0-.256.15Z" transform="translate(-94.265 -9.584)"/>
      <path id="Path_29584" data-name="Path 29584" class="cls-5" d="M247.035,9.742a5.2,5.2,0,0,1-.508-2.5,5.774,5.774,0,0,1,.189-1.156,4,4,0,0,1,.353-.9l1.475-.448c.573.114,1.308.953,1.751,1.305.546.435,1.08.884,1.609,1.339,2.067,1.777,4.042,3.662,6.194,5.34,3.93,3.064,8.91,4.852,12.127,8.778.205.251.551-.106.354-.354-1.91-2.41-4.534-3.982-7.147-5.525a55.332,55.332,0,0,1-8.55-6.283c-1.28-1.13-2.55-2.274-3.878-3.348-.838-.678-2.206-2.22-3.4-1.914-.842.216-1.205,1.348-1.372,2.088a5.43,5.43,0,0,0,.548,3.726c.088.173.337.021.257-.15Z" transform="translate(-83.679 -1.374)"/>
      <path id="Path_29585" data-name="Path 29585" class="cls-5" d="M282.186,29.744a46.934,46.934,0,0,1,7.18,21.78c.022.3.487.306.473,0a42.626,42.626,0,0,0-7.392-21.935c-.109-.158-.366-.014-.264.152Z" transform="translate(-95.934 -10.037)"/>
      <path id="Path_29586" data-name="Path 29586" class="cls-5" d="M285.638,34.474a12.37,12.37,0,0,0,2.93,3.945,10.151,10.151,0,0,1,3.06,5.382c.924,4.916,1.151,10.043,1.6,15.02.028.315.52.321.5,0a149.68,149.68,0,0,0-1.584-14.929,9.306,9.306,0,0,0-2.336-4.835c-1.378-1.523-3-2.8-3.894-4.7-.071-.15-.33-.042-.271.114Z" transform="translate(-97.114 -11.658)"/>
      <path id="Path_29587" data-name="Path 29587" class="cls-5" d="M296.538,72.19c5.668,9.614,2.15,21.952,8.305,31.356.207.315.716.022.508-.3-6.114-9.391-2.434-21.831-8.553-31.211a.152.152,0,1,0-.264.152Z" transform="translate(-100.815 -24.467)"/>
      <path id="Path_29588" data-name="Path 29588" class="cls-5" d="M235.713,57.77c-.02-.152-.04-.3-.056-.455l-.318.086c.44.647.918,1.25,1.3,1.936a.223.223,0,0,0,.385-.225,9.265,9.265,0,0,0-1.418-1.919.172.172,0,0,0-.285.166c.034.149.066.3.1.449s.317.132.3-.04Z" transform="translate(-80.008 -19.43)"/>
      <path id="Path_29589" data-name="Path 29589" class="cls-5" d="M249.647,59.75a14.19,14.19,0,0,1,1.3-4.1l-.435-.183a6.123,6.123,0,0,0,.264,3.206c.113.311.611.18.5-.138a6.132,6.132,0,0,1-.306-2.942c.034-.238-.313-.454-.435-.183a13.607,13.607,0,0,0-1.183,4.3.151.151,0,0,0,.3.04Z" transform="translate(-84.779 -18.798)"/>
      <path id="Path_29590" data-name="Path 29590" class="cls-5" d="M294.18,90.669a30.161,30.161,0,0,0,3.076,9.38c.148.292.585.035.44-.257a41.679,41.679,0,0,1-3.188-9.214c-.052-.218-.356-.119-.33.09Z" transform="translate(-100.02 -30.755)"/>
      <path id="Path_29591" data-name="Path 29591" class="cls-5" d="M328.652,173.934c-2.2.3-1.476-3.461-1.363-4.566q.2-1.973.585-3.922a42.484,42.484,0,0,1,1.98-6.882,41.539,41.539,0,0,1,3.313-6.771c1.212-2,2.734-4.743,5.332-4.96l-.236-.411c-2.376,3.074-3.779,6.684-5.141,10.286-.116.307.352.479.515.217,2.39-3.872,5.082-8.063,9.6-9.618l-.36-.36a9.5,9.5,0,0,1-1.01,3.168.3.3,0,0,0,.338.44c.733-.232,1.466-.462,2.195-.707.354-.119.208-.673-.156-.564-.736.222-1.467.462-2.2.694l.338.44a10.048,10.048,0,0,0,1.056-3.316c.027-.2-.124-.442-.36-.36-4.667,1.619-7.458,5.883-9.928,9.9l.515.217c1.342-3.56,2.733-7.117,5.069-10.16a.274.274,0,0,0-.236-.411c-2.556.218-4.058,2.488-5.32,4.475a42.283,42.283,0,0,0-4.209,8.716,41.7,41.7,0,0,0-2.088,9.219c-.151,1.386-.984,6.257,1.812,5.529C328.851,174.187,328.825,173.911,328.652,173.934Z" transform="translate(-111.06 -49.738)"/>
      <path id="Path_29592" data-name="Path 29592" class="cls-5" d="M344.09,144.958c2.046-1.128,3.975.7,5.556,1.816q2.1,1.488,4.337,2.778a59.5,59.5,0,0,0,8.953,4.21c.33.124.472-.4.146-.528a62.054,62.054,0,0,1-10.831-5.357c-1.565-.977-3.023-2.231-4.652-3.091a3.63,3.63,0,0,0-3.683-.128.174.174,0,0,0,.176.3Z" transform="translate(-116.902 -49.034)"/>
      <path id="Path_29593" data-name="Path 29593" class="cls-5" d="M327.231,180.267c7.018,6.409,14.343,12.482,21.842,18.319a.291.291,0,0,0,.411-.411c-7.907-9.118-10.775-22.272-6.573-33.693l-.5-.066c-.016,5.83-2.724,12.028-.22,17.678,2.455,5.539,8.4,8.223,12.637,12.144.284.264.71-.16.426-.426-4.087-3.837-9.834-6.382-12.38-11.636-2.7-5.576.037-11.93.046-17.761a.255.255,0,0,0-.5-.066c-4.323,11.534-1.413,25.054,6.653,34.239l.352-.457c-7.524-5.784-14.808-11.86-21.958-18.1-.161-.141-.4.09-.237.237Z" transform="translate(-111.241 -55.817)"/>
      <path id="Path_29594" data-name="Path 29594" class="cls-5" d="M233.494,86.188a10.883,10.883,0,0,1,3.757-2.367l-.308-.308q-.389.928-.772,1.859c-.16.387-.533.94-.4,1.382.277.879,1.254.315,1.616-.108.213-.246-.127-.6-.362-.362a.243.243,0,0,1-.416.1q-.424,0-.135-.34a4.468,4.468,0,0,1,.316-.8q.316-.8.631-1.6a.252.252,0,0,0-.308-.308A10.906,10.906,0,0,0,233.2,85.9a.2.2,0,0,0,.289.289Z" transform="translate(-79.271 -28.332)"/>
      <path id="Path_29595" data-name="Path 29595" class="cls-5" d="M252.143,44.439c-.061.366-.118.732-.183,1.1a.164.164,0,0,0,.156.2,1.422,1.422,0,0,0,1.134-.7h-.368a6.031,6.031,0,0,0,.278.568c.148.252.49.031.381-.223a6.031,6.031,0,0,0-.29-.56.215.215,0,0,0-.368,0,1.082,1.082,0,0,1-.808.6l.2.2c.056-.366.12-.732.181-1.1.034-.2-.276-.289-.31-.085Z" transform="translate(-85.664 -15.07)"/>
      <path id="Path_29596" data-name="Path 29596" class="cls-5" d="M275.507,28.852a15.089,15.089,0,0,1-.781,1.439c-.1.15.066.3.211.275.391-.059.779-.127,1.167-.206.292-.059.17-.517-.124-.449-.384.088-.764.187-1.142.3l.23.23a14.767,14.767,0,0,1,.71-1.425C275.869,28.831,275.6,28.673,275.507,28.852Z" transform="translate(-93.396 -9.783)"/>
      <path id="Path_29597" data-name="Path 29597" class="cls-5" d="M208.624,66.9a193.737,193.737,0,0,0-28.02,8.125c-.256.1-.15.515.116.419,8.364-3.017,16.9-5.5,25.456-7.892a.225.225,0,0,0-.119-.434C197.449,69.346,189,72.138,180.6,75.028l.116.419c9.116-3.512,18.563-5.755,27.984-8.25a.154.154,0,0,0-.082-.3Z" transform="translate(-61.355 -22.745)"/>
      <path id="Path_29598" data-name="Path 29598" class="cls-5" d="M68.841.339C53.713-1.548,38.52,4.629,27.271,14.533c-11,9.68-18.772,22.839-22.88,36.836a85.128,85.128,0,0,0-1.122,43.89,70.752,70.752,0,0,0,8.682,21c4.231,6.7,9.931,12.262,15.794,17.533,10.947,9.84,23.33,18.634,37.495,23.108,1.8.57,3.63,1.056,5.472,1.48.407.093.581-.533.173-.627-14.4-3.325-27.166-11.231-38.385-20.643a118.2,118.2,0,0,1-16.21-15.828A63.9,63.9,0,0,1,5.435,100.688c-8.969-27.758-2.3-60.323,17.924-81.583C35.167,6.689,51.554-.733,68.841.633,69.033.648,69.024.362,68.841.339Z" transform="translate(-0.314 0)"/>
      <path id="Path_29599" data-name="Path 29599" class="cls-5" d="M93.653.748c13.6-.208,27.63,1,39.981,7.16a46.969,46.969,0,0,1,15.789,12.617,74.42,74.42,0,0,1,11.418,21.2c5.516,15.241,7.424,32.656,2.42,48.283a150.646,150.646,0,0,1-9.727,22.327,99.9,99.9,0,0,1-12.363,19.013,91.786,91.786,0,0,1-37.5,26.5c-.4.154-.234.8.18.655a89.794,89.794,0,0,0,34.676-23.091,92.517,92.517,0,0,0,12.851-17.55,177.85,177.85,0,0,0,10.758-22.606,65.373,65.373,0,0,0,4.692-24.6,86.933,86.933,0,0,0-3.757-24.376c-4.282-14.221-11.912-28.453-24.838-36.48C126.593,2.571,112.4.329,98.9.322q-2.627,0-5.247.132a.147.147,0,0,0,0,.292Z" transform="translate(-31.795 -0.11)"/>
      <path id="Path_29600" data-name="Path 29600" class="cls-5" d="M101.514,238.27a4.739,4.739,0,0,1-1.848,3.971c-.184.16.059.48.264.341a4.768,4.768,0,0,0,1.909-4.312c-.014-.207-.337-.208-.323,0Z" transform="translate(-33.864 -80.959)"/>
      <path id="Path_29601" data-name="Path 29601" class="cls-5" d="M110.863,238.29a4.148,4.148,0,0,0,3,3.691.2.2,0,1,0,.107-.388,3.779,3.779,0,0,1-2.8-3.3c-.016-.19-.314-.192-.3,0Z" transform="translate(-37.693 -80.971)"/>
      <path id="Path_29602" data-name="Path 29602" class="cls-5" d="M98.422,244.943c-1.094-1.161-4.408.171-3.28,1.841.8,1.188,3,1.371,4.249,1.559a20.855,20.855,0,0,0,5.832.05c1.282-.169,7.585-1.132,5.72-3.847-.746-1.087-2.616-.528-3.662-.418a20.206,20.206,0,0,1-6.825-.181.269.269,0,0,0-.143.519,17.961,17.961,0,0,0,6.247.326c.735-.066,2.451-.58,3.1-.278l.883,1.148a2.178,2.178,0,0,1-1.36,1.172,12.429,12.429,0,0,1-1.507.469,20.406,20.406,0,0,1-6.787.63,18.45,18.45,0,0,1-3.688-.623c-.43-.123-1.2-.288-1.487-.676-.99-1.346,1.914-2.061,2.508-1.5a.14.14,0,1,0,.2-.2Z" transform="translate(-32.27 -82.921)"/>
      <path id="Path_29603" data-name="Path 29603" class="cls-5" d="M179.242,62.8a8.106,8.106,0,0,1,1.386,6.27c-.264,1.548-1.366,3.109-.942,4.711.361,1.364,1.579,2.286,2.536,3.228a6.534,6.534,0,0,1,1.9,6.167.29.29,0,0,0,.558.154,6.37,6.37,0,0,0-.6-5.006c-.972-1.716-3.311-2.756-3.82-4.7-.325-1.242.453-2.442.746-3.612a9.452,9.452,0,0,0,.286-2.68,8,8,0,0,0-1.832-4.744c-.119-.152-.33.061-.213.213Z" transform="translate(-60.931 -21.264)"/>
      <path id="Path_29604" data-name="Path 29604" class="cls-5" d="M188.708,83.463a3.742,3.742,0,0,1,2.74.768c.314.22.59-.283.3-.507a3.926,3.926,0,0,0-3.136-.624c-.242.048-.132.4.1.363Z" transform="translate(-64.081 -28.221)"/>
      <path id="Path_29605" data-name="Path 29605" class="cls-5" d="M172.855,74.1c-1.254-1.9-3.432-3.846-5.882-3.612a.264.264,0,0,0,0,.521,6.541,6.541,0,0,1,5.615,3.247c.109.165.376.011.264-.156Z" transform="translate(-56.695 -23.959)"/>
      <path id="Path_29606" data-name="Path 29606" class="cls-5" d="M177.968,87.423a4,4,0,0,1-1,2.637c-.187.246.2.5.409.316a3.3,3.3,0,0,0,.889-2.993c-.026-.17-.306-.132-.3.04Z" transform="translate(-60.152 -29.673)"/>
      <path id="Path_29607" data-name="Path 29607" class="cls-5" d="M186.037,71.923a3.889,3.889,0,0,0,1.393-2.711c-.007-.242-.406-.322-.444-.06a5.105,5.105,0,0,1-.272,1.422,3.418,3.418,0,0,1-.886,1.14c-.143.125.066.33.208.208Z" transform="translate(-63.166 -23.456)"/>
      <path id="Path_29608" data-name="Path 29608" class="cls-5" d="M30.375,41.121c-4.743,6.2-7.062,13.735-8.6,21.288A134.795,134.795,0,0,0,18.761,88.29c-.1,15.1,4.061,31.184,15.613,41.646,1.788,1.619,5.177,4.224,7.3,1.622,1.025-1.254,1.386-3.225,1.675-4.764a22.42,22.42,0,0,0,.325-5.874c-.523-6.726-4.388-14.586-11.771-15.62-6.9-.968-11.319,5.425-10.933,11.772a25.259,25.259,0,0,0,3.619,10.582,68.227,68.227,0,0,0,5.808,8.722,71.959,71.959,0,0,0,33.994,23.965c1.705.56,3.432,1.047,5.174,1.475a.269.269,0,0,0,.143-.519A71.431,71.431,0,0,1,36.3,142.278a68.574,68.574,0,0,1-11.474-15.289c-3.216-5.874-5.8-15.093.85-19.8,3.121-2.208,7.37-1.769,10.471.237a15.959,15.959,0,0,1,6.183,8.976,21.88,21.88,0,0,1,.173,11.844c-.528,1.962-1.341,4.372-3.883,3.8-1.782-.4-3.216-1.81-4.5-3.022-10.58-9.957-14.706-24.818-14.923-38.959a130.048,130.048,0,0,1,2.772-26.692c1.518-7.818,3.786-15.668,8.664-22.1.115-.151-.141-.3-.254-.148Z" transform="translate(-6.378 -13.961)"/>
      <path id="Path_29609" data-name="Path 29609" class="cls-5" d="M113.635,189.711a32.494,32.494,0,0,1,13.946-7.1l-.22-.286a51.622,51.622,0,0,1-7.92,12.658.216.216,0,0,0,.15.363c3.828.014,7.182-1.855,10.119-4.158a83.273,83.273,0,0,0,9.33-8.824,109.274,109.274,0,0,0,14.916-20.255,108.413,108.413,0,0,0,6.152-12.626c.11-.264-.323-.381-.432-.119a109.655,109.655,0,0,1-27.657,39.27c-3.48,3.142-7.512,6.3-12.428,6.287l.15.363a51.4,51.4,0,0,0,7.959-12.762.2.2,0,0,0-.22-.286,32.794,32.794,0,0,0-14.058,7.26c-.145.127.066.336.211.211Z" transform="translate(-38.547 -50.735)"/>
      <path id="Path_29610" data-name="Path 29610" class="cls-5" d="M101.967,250.288c-2.792,4.388-5.894,9.329-5.432,14.761.4,4.71,3.414,8.564,5.557,12.606a17.581,17.581,0,0,1,2.31,8.045,38.409,38.409,0,0,1-1.557,9.583q-2.205,9.078-3.769,18.295-1.731,10.248-2.633,20.609c-.034.38.56.378.594,0a263.4,263.4,0,0,1,5.874-36.791c1.246-5.325,3.045-10.936,1.234-16.349-1.53-4.576-4.888-8.265-6.468-12.815-2.244-6.454,1.16-12.463,4.549-17.79.1-.162-.154-.31-.256-.15Z" transform="translate(-32.79 -85.076)"/>
    </g>
  </g>
</svg>
