<svg xmlns="http://www.w3.org/2000/svg" viewBox="0 0 224.27 166.626">
  <defs>
    <style>
      .cls-1 {
        fill: #fff;
      }

      .cls-2 {
        fill: #98e19c;
      }

      .cls-3 {
        fill: #5faf9b;
      }

      .cls-4 {
        fill: #00764f;
      }

      .cls-5 {
        fill: #284b55;
      }
    </style>
  </defs>
  <g id="Bildmaterial_22" data-name="Bildmaterial 22" transform="translate(224.746 166.98)">
    <g id="Group_13246" data-name="Group 13246" transform="translate(-224.746 -166.98)">
      <path id="Path_28442" data-name="Path 28442" class="cls-1" d="M368.257,1.092l-.529,1.331a1,1,0,0,0-.114-.079c.356-.854-.863-1.6-1.3-.736-.028.05-.054.1-.082.153a77.117,77.117,0,0,0-12.441,3.317c-2.15.668-4.291,1.358-6.424,2-4.666,1.4-9.462,2.621-14.048,4.3-5.333,1.47-10.659,2.965-15.941,4.606a110.5,110.5,0,0,0-15.233,4.473q-1.8.427-3.6.9c-1,.146-1.989.338-2.983.582a.731.731,0,0,0-.506.406c-1.327.4-2.649.811-3.965,1.253-.267-.039-.535-.084-.8-.112a.544.544,0,0,0-.272,1.006c.033.015.067.028.1.044a.675.675,0,0,0,.689.624l.819.015c2.9,1.117,6.1,1.749,9.043,2.594,2.415.695,4.845,1.454,7.313,1.986A67.456,67.456,0,0,0,311,44.356c-.062,2.851,1.038,5.754,2.067,8.358a.774.774,0,0,0,.115.2,3.17,3.17,0,0,0-.06,1.8.791.791,0,0,0,.333.508,2.584,2.584,0,0,0-.1.457c-.064.5.6.649.908.376.959-.848,1.905-1.821,2.825-2.724a12.689,12.689,0,0,0,2-2.476c4.808-4.79,9.591-9.613,14.189-14.6.6.233,1.2.441,1.805.636a1.961,1.961,0,0,0,2.028.58c.243.061.485.124.73.179a.824.824,0,0,0,.568.534q3.692,1.133,7.346,2.387a.829.829,0,0,0,.615.93c1.322.4,2.65.748,3.988,1.062q2.112.611,4.2,1.317a.735.735,0,0,0,.561-.03,2.208,2.208,0,0,0,.321.167.894.894,0,0,0,1.09-.619q2.44-8.789,5.205-17.486c2.35-6.661,4.463-13.421,6.722-20.107a.786.786,0,0,0-.46-1.03c.425-1.133.855-2.264,1.3-3.386C369.549.735,368.509.455,368.257,1.092Zm-6.172,4.3c-.079.066-.157.135-.236.2a.968.968,0,0,0-.227.129l-.237.183a1.008,1.008,0,0,0-.157-.164.964.964,0,0,0-.027-.1c.3-.081.59-.166.885-.247Z" transform="translate(-145.19 -0.37)"/>
      <path id="Path_28443" data-name="Path 28443" class="cls-2" d="M294.264,47.882a11.3,11.3,0,0,1-1.6-2.644.176.176,0,0,0-.338.093,5.093,5.093,0,0,0,1.649,2.836C294.149,48.292,294.376,48.052,294.264,47.882Z" transform="translate(-146.473 -22.609)"/>
      <path id="Path_28444" data-name="Path 28444" class="cls-2" d="M298.315,48.6a23.183,23.183,0,0,0-1.46-2.409.177.177,0,1,0-.3.179,23.463,23.463,0,0,0,1.461,2.466C298.159,49.027,298.4,48.787,298.315,48.6Z" transform="translate(-148.577 -23.106)"/>
      <path id="Path_28445" data-name="Path 28445" class="cls-2" d="M303.359,47.41a40.414,40.414,0,0,0-2.209-3.6.179.179,0,0,0-.309.181,40.546,40.546,0,0,0,2.175,3.622.2.2,0,0,0,.343-.2Z" transform="translate(-150.727 -21.909)"/>
      <path id="Path_28446" data-name="Path 28446" class="cls-2" d="M308.057,48.071c-1.021-1.826-2.345-3.484-3.367-5.317-.113-.2-.421-.022-.311.182a26.946,26.946,0,0,0,3.361,5.38C307.9,48.491,308.17,48.268,308.057,48.071Z" transform="translate(-152.501 -21.382)"/>
      <path id="Path_28447" data-name="Path 28447" class="cls-2" d="M313.083,49.064c-1.119-2.055-2.518-3.968-3.675-6.008a.157.157,0,0,0-.087-.073,9.441,9.441,0,0,0-.9-1.177c-.154-.172-.407.082-.253.253a8.975,8.975,0,0,1,1.421,2.137.163.163,0,0,0,.055.065,30.423,30.423,0,0,0,3.1,5.061C312.9,49.518,313.194,49.27,313.083,49.064Z" transform="translate(-154.388 -20.922)"/>
      <path id="Path_28448" data-name="Path 28448" class="cls-2" d="M317.582,48.888c-1.262-2.429-2.9-4.681-4.324-7.021a.179.179,0,1,0-.309.181c1.419,2.339,2.659,4.834,4.231,7.075a.233.233,0,1,0,.4-.235Z" transform="translate(-156.794 -20.937)"/>
      <path id="Path_28449" data-name="Path 28449" class="cls-2" d="M322.1,46.622c-1.262-2.651-2.85-5.2-4.341-7.734a.178.178,0,0,0-.307.18c1.365,2.6,2.694,5.295,4.284,7.765a.21.21,0,1,0,.364-.212Z" transform="translate(-159.053 -19.447)"/>
      <path id="Path_28450" data-name="Path 28450" class="cls-2" d="M326.584,44.978q-2.1-3.719-4.155-7.459c-.114-.208-.432-.022-.318.186,1.367,2.5,2.706,5.009,4.039,7.527C326.3,45.518,326.742,45.262,326.584,44.978Z" transform="translate(-161.385 -18.757)"/>
      <path id="Path_28451" data-name="Path 28451" class="cls-2" d="M331.276,44.322a63.625,63.625,0,0,0-4.508-8.254.194.194,0,0,0-.335.2,63.678,63.678,0,0,0,4.424,8.3.243.243,0,0,0,.419-.245Z" transform="translate(-163.552 -18.031)"/>
      <path id="Path_28452" data-name="Path 28452" class="cls-2" d="M335.772,42.81c-1.48-2.6-3.075-5.145-4.59-7.73a.2.2,0,0,0-.341.2c1.513,2.585,2.946,5.219,4.49,7.783a.254.254,0,0,0,.441-.253Z" transform="translate(-165.764 -17.542)"/>
      <path id="Path_28453" data-name="Path 28453" class="cls-2" d="M340.867,40.826c-1.454-2.441-3.163-4.643-4.391-7.226-.114-.239-.469-.03-.356.208a29.045,29.045,0,0,0,4.375,7.306.239.239,0,0,0,.371-.288Z" transform="translate(-168.406 -16.786)"/>
      <path id="Path_28454" data-name="Path 28454" class="cls-2" d="M344.892,39.549a33.7,33.7,0,0,0-3.531-4.982c-.154-.2-.5,0-.345.2,1.232,1.623,2.2,3.428,3.421,5.046a.264.264,0,0,0,.456-.264Z" transform="translate(-170.85 -17.282)"/>
      <path id="Path_28455" data-name="Path 28455" class="cls-2" d="M347.946,36.933a46.943,46.943,0,0,1-3.336-5.688c-.1-.223-.434-.029-.33.193a35.365,35.365,0,0,0,3.186,5.775C347.673,37.5,348.144,37.239,347.946,36.933Z" transform="translate(-172.496 -15.609)"/>
      <path id="Path_28456" data-name="Path 28456" class="cls-2" d="M352.994,36.234c-1.043-1.471-1.96-3.05-2.927-4.572-.138-.217-.484-.016-.345.2.967,1.522,2.007,3.022,2.894,4.59C352.757,36.7,353.155,36.461,352.994,36.234Z" transform="translate(-175.216 -15.821)"/>
      <path id="Path_28457" data-name="Path 28457" class="cls-2" d="M356.646,33.818a41.921,41.921,0,0,0-3.7-6,.2.2,0,0,0-.349.206,42.185,42.185,0,0,0,3.607,6.13C356.414,34.43,356.766,34.083,356.646,33.818Z" transform="translate(-176.665 -13.904)"/>
      <path id="Path_28458" data-name="Path 28458" class="cls-2" d="M361.6,32.5c-.808-1.324-1.8-2.572-2.668-3.861-.15-.225-.52-.013-.367.214.869,1.287,1.655,2.67,2.58,3.913C361.339,33.033,361.778,32.8,361.6,32.5Z" transform="translate(-179.643 -14.306)"/>
      <path id="Path_28459" data-name="Path 28459" class="cls-2" d="M366.848,31.565c-.32-.584-.768-1.1-1.131-1.665l-1.091-1.688c-.156-.242-.545-.017-.388.227l1.091,1.688c.361.559.653,1.184,1.05,1.712a.271.271,0,0,0,.468-.273Z" transform="translate(-182.488 -14.087)"/>
      <path id="Path_28460" data-name="Path 28460" class="cls-2" d="M371.636,28.911c-.985-1.734-2.2-3.306-3.12-5.089-.141-.272-.552-.032-.411.24a28.607,28.607,0,0,0,3.072,5.2C371.394,29.525,371.8,29.189,371.636,28.911Z" transform="translate(-184.429 -11.879)"/>
      <path id="Path_28461" data-name="Path 28461" class="cls-2" d="M376.5,27.709c-.407-.576-.7-1.237-1.091-1.831-.356-.546-.742-1.069-1.148-1.578-.177-.223-.487.092-.312.312a12.007,12.007,0,0,1,2.084,3.293C376.159,28.274,376.707,28,376.5,27.709Z" transform="translate(-187.346 -12.141)"/>
      <path id="Path_28462" data-name="Path 28462" class="cls-2" d="M380.032,26.105a37.534,37.534,0,0,0-2.89-4.119c-.167-.214-.463.025-.417.243a1.312,1.312,0,0,0,.367.7.166.166,0,0,0,.08.05,34.023,34.023,0,0,0,2.4,3.482C379.786,26.719,380.194,26.384,380.032,26.105Z" transform="translate(-188.76 -10.978)"/>
      <path id="Path_28463" data-name="Path 28463" class="cls-2" d="M385.187,25.083l-1.673-2.668c-.146-.232-.515-.018-.369.216l1.673,2.668C384.964,25.531,385.334,25.317,385.187,25.083Z" transform="translate(-191.962 -11.185)"/>
      <path id="Path_28464" data-name="Path 28464" class="cls-2" d="M389.609,23.092a10.387,10.387,0,0,0-1.1-1.56,18.645,18.645,0,0,1-1.016-1.618c-.15-.262-.524-.032-.4.233q.436.914.948,1.787a5.36,5.36,0,0,0,1.112,1.508.29.29,0,0,0,.453-.35Z" transform="translate(-193.947 -9.924)"/>
      <path id="Path_28465" data-name="Path 28465" class="cls-2" d="M394.388,20.46,392.7,18.045c-.167-.239-.563-.011-.394.231l1.691,2.415C394.161,20.929,394.557,20.7,394.388,20.46Z" transform="translate(-196.547 -8.994)"/>
      <path id="Path_28466" data-name="Path 28466" class="cls-2" d="M399.162,19.4a16.842,16.842,0,0,0-1.013-1.814,12.9,12.9,0,0,0-1.017-1.575c-.135-.169-.438.013-.365.213a12.887,12.887,0,0,0,.822,1.69,16.8,16.8,0,0,0,1.024,1.807.318.318,0,0,0,.548-.321Z" transform="translate(-198.799 -7.992)"/>
      <path id="Path_28467" data-name="Path 28467" class="cls-2" d="M403.6,17.308l-1.205-1.692c-.168-.236-.562-.009-.392.229l1.205,1.692C403.377,17.773,403.77,17.547,403.6,17.308Z" transform="translate(-201.407 -7.778)"/>
      <path id="Path_28468" data-name="Path 28468" class="cls-2" d="M407.627,14.447c-.51-.7-.966-1.452-1.44-2.18-.165-.253-.573-.017-.407.237.474.728.974,1.447,1.41,2.2C407.356,14.988,407.816,14.707,407.627,14.447Z" transform="translate(-203.301 -6.096)"/>
      <path id="Path_28469" data-name="Path 28469" class="cls-2" d="M413.195,13.876a6.19,6.19,0,0,1-.691-.676.21.21,0,0,0-.3.3,6.177,6.177,0,0,1,.676.692.226.226,0,1,0,.312-.312Z" transform="translate(-206.512 -6.589)"/>
      <path id="Path_28470" data-name="Path 28470" class="cls-2" d="M417.016,11.278l-.272-.409a.253.253,0,0,0,.025-.4c-.3-.229-.64-.534-.554-.967a.208.208,0,0,0-.4-.11,1.191,1.191,0,0,0,.026.91,1.354,1.354,0,0,0,.243.364.21.21,0,0,0,.036.131l.483.725C416.773,11.775,417.187,11.535,417.016,11.278Z" transform="translate(-208.31 -4.64)"/>
      <path id="Path_28471" data-name="Path 28471" class="cls-2" d="M421.722,9.48l-.963-1.21c-.193-.242-.531.1-.34.34l.963,1.21C421.574,10.062,421.912,9.72,421.722,9.48Z" transform="translate(-210.627 -4.106)"/>
      <path id="Path_28472" data-name="Path 28472" class="cls-2" d="M426.8,7.446a4.085,4.085,0,0,0-.395-.726c-.15-.249-.27-.514-.4-.775-.142-.292-.578-.036-.437.255.126.259.261.516.361.787a3.5,3.5,0,0,0,.293.7C426.411,7.975,426.926,7.8,426.8,7.446Z" transform="translate(-213.224 -2.917)"/>
      <path id="Path_28473" data-name="Path 28473" class="cls-2" d="M432.193,6.373c-.092-.155-.17-.317-.249-.477-.143-.284-.568-.034-.426.249.071.141.15.28.208.426C431.87,6.917,432.381,6.688,432.193,6.373Z" transform="translate(-216.202 -2.895)"/>
      <path id="Path_28474" data-name="Path 28474" class="cls-2" d="M411.4,11.7c-.107-.121-.21-.24-.306-.371-.142-.193-.467-.005-.324.19.106.145.2.29.291.444C411.219,12.227,411.609,11.943,411.4,11.7Z" transform="translate(-205.802 -5.641)"/>
      <path id="Path_28475" data-name="Path 28475" class="cls-2" d="M364.324,66.061c-.431-.79-.851-1.585-1.27-2.381-.11-.21-.428-.024-.318.186.42.8.837,1.594,1.247,2.395C364.1,66.488,364.447,66.288,364.324,66.061Z" transform="translate(-181.742 -31.865)"/>
      <path id="Path_28476" data-name="Path 28476" class="cls-2" d="M367.551,64.4a34.323,34.323,0,0,0-1.963-3.675c-.1-.2-.406-.023-.3.177A34.024,34.024,0,0,0,367.1,64.6C367.246,64.812,367.654,64.684,367.551,64.4Z" transform="translate(-183.02 -30.388)"/>
      <path id="Path_28477" data-name="Path 28477" class="cls-2" d="M371.928,63.811a27.915,27.915,0,0,1-3.421-5.532c-.1-.222-.425-.029-.326.191a25.978,25.978,0,0,0,3.354,5.644C371.711,64.333,372.1,64.037,371.928,63.811Z" transform="translate(-184.472 -29.156)"/>
      <path id="Path_28478" data-name="Path 28478" class="cls-2" d="M377.186,65.058,372.8,57.837c-.126-.208-.453-.018-.326.191l4.391,7.221C376.986,65.455,377.313,65.265,377.186,65.058Z" transform="translate(-186.616 -28.938)"/>
      <path id="Path_28479" data-name="Path 28479" class="cls-2" d="M381.473,63.988c-2.1-3.427-4.416-6.725-6.586-10.107-.125-.195-.438-.014-.311.182,2.17,3.38,4.2,6.856,6.445,10.19C381.206,64.53,381.651,64.279,381.473,63.988Z" transform="translate(-187.671 -26.959)"/>
      <path id="Path_28480" data-name="Path 28480" class="cls-2" d="M385.163,62.982c-2.369-3.973-5.022-7.846-7.665-11.64-.13-.187-.431-.019-.309.181,2.395,3.953,4.862,7.944,7.534,11.718C384.905,63.5,385.333,63.27,385.163,62.982Z" transform="translate(-188.981 -25.688)"/>
      <path id="Path_28481" data-name="Path 28481" class="cls-2" d="M391.623,63.651c-2.933-5.048-5.937-10.118-9.071-15.043a.179.179,0,1,0-.309.181c2.7,5.16,5.749,10.252,8.913,15.138a.271.271,0,1,0,.468-.275Z" transform="translate(-191.515 -24.314)"/>
      <path id="Path_28482" data-name="Path 28482" class="cls-2" d="M397.863,63.874l-.1-.042a.307.307,0,0,0-.4.143c-.119-.387-.3-.973-.366-1.1-.235-.444-.546-.87-.814-1.3l-1.464-2.335q-1.463-2.336-2.932-4.668-2.934-4.669-5.921-9.3a.176.176,0,0,0-.3.177c2.132,3.6,4.323,7.165,6.53,10.721q1.614,2.6,3.243,5.2c.539.86,1.037,1.77,1.628,2.594.208.29.268.488.619.575a.3.3,0,0,0,.359-.2l.046-.132a.288.288,0,0,0-.131-.326Z" transform="translate(-193.184 -22.648)"/>
      <path id="Path_28483" data-name="Path 28483" class="cls-2" d="M402.886,62.835c-2.133-3.4-4.606-6.573-6.686-10.021s-3.7-7.144-5.794-10.56c-.107-.176-.42-.063-.345.146a61.693,61.693,0,0,0,5.625,10.715,70.009,70.009,0,0,0,6.8,10.025C402.679,63.354,403.037,63.075,402.886,62.835Z" transform="translate(-195.439 -21.132)"/>
      <path id="Path_28484" data-name="Path 28484" class="cls-2" d="M408.006,62.323c-4.421-7.422-9.138-14.692-13.811-21.958-.123-.192-.426-.018-.307.18,4.46,7.4,8.9,14.833,13.616,22.072C407.707,62.929,408.2,62.647,408.006,62.323Z" transform="translate(-197.348 -20.187)"/>
      <path id="Path_28485" data-name="Path 28485" class="cls-2" d="M410.082,57.067c-4.241-6.752-8.756-13.33-13.1-20.013-.124-.191-.433-.013-.307.18,4.345,6.682,8.526,13.471,12.976,20.088C409.827,57.587,410.256,57.343,410.082,57.067Z" transform="translate(-198.742 -18.529)"/>
      <path id="Path_28486" data-name="Path 28486" class="cls-2" d="M413.212,53.68C409.176,47.021,405,40.53,401.4,33.608c-.11-.212-.421-.025-.318.186a130.076,130.076,0,0,0,11.688,20.142C412.963,54.193,413.386,53.964,413.212,53.68Z" transform="translate(-200.958 -16.797)"/>
      <path id="Path_28487" data-name="Path 28487" class="cls-2" d="M416.32,49.144c-2.474-2.251-3.86-5.764-5.462-8.645-1.756-3.158-3.559-6.287-5.3-9.456-.111-.2-.421-.021-.309.181,1.84,3.35,3.61,6.736,5.434,10.094,1.516,2.79,2.83,6.07,5.213,8.248C416.181,49.824,416.6,49.4,416.32,49.144Z" transform="translate(-203.043 -15.513)"/>
      <path id="Path_28488" data-name="Path 28488" class="cls-2" d="M420.41,45.107c-3.065-5.474-6.842-10.612-10.223-15.9-.126-.2-.442-.015-.316.185,3.354,5.3,6.409,10.892,10.069,15.986a.272.272,0,0,0,.47-.275Z" transform="translate(-205.356 -14.597)"/>
      <path id="Path_28489" data-name="Path 28489" class="cls-2" d="M423.54,41.4c-2.775-5.3-6.244-10.252-9.33-15.367a.184.184,0,0,0-.318.186c3.084,5.117,5.846,10.5,9.23,15.426a.242.242,0,0,0,.418-.244Z" transform="translate(-207.374 -13.003)"/>
      <path id="Path_28490" data-name="Path 28490" class="cls-2" d="M426.439,36.483l-.089-.008a.23.23,0,0,0-.183.054,16.913,16.913,0,0,0-.682-1.559q-.471-.79-.945-1.578-.948-1.576-1.9-3.147c-1.278-2.1-2.55-4.188-3.795-6.3a.178.178,0,0,0-.307.18c1.5,2.555,2.958,5.134,4.428,7.708q1.064,1.863,2.142,3.719c.291.5.577,1.5,1.226,1.634a.307.307,0,0,0,.381-.29l.012-.123C426.738,36.6,426.579,36.5,426.439,36.483Z" transform="translate(-209.7 -11.959)"/>
      <path id="Path_28491" data-name="Path 28491" class="cls-2" d="M429.469,31.755c-2.188-4.291-4.8-8.332-7.372-12.393-.119-.188-.417-.015-.3.175,2.54,4.081,4.777,8.345,7.175,12.508A.287.287,0,0,0,429.469,31.755Z" transform="translate(-211.333 -9.664)"/>
      <path id="Path_28492" data-name="Path 28492" class="cls-2" d="M432.478,26.524a115.157,115.157,0,0,0-6.224-10.9.172.172,0,1,0-.3.173,115.3,115.3,0,0,0,6.063,10.993.265.265,0,0,0,.458-.267Z" transform="translate(-213.419 -7.79)"/>
      <path id="Path_28493" data-name="Path 28493" class="cls-2" d="M435.1,21.216a88.362,88.362,0,0,1-5.167-8.4c-.1-.2-.412-.024-.307.18a57.943,57.943,0,0,0,5.039,8.472C434.856,21.722,435.284,21.492,435.1,21.216Z" transform="translate(-215.259 -6.381)"/>
      <path id="Path_28494" data-name="Path 28494" class="cls-2" d="M439.207,18.583a37.929,37.929,0,0,1-4.8-7.756c-.089-.21-.4-.029-.307.18a27.071,27.071,0,0,0,4.723,7.869C439.011,19.072,439.372,18.807,439.207,18.583Z" transform="translate(-217.505 -5.382)"/>
      <path id="Path_28495" data-name="Path 28495" class="cls-2" d="M441.61,14.226c-.906-1.631-2.034-3.17-3.007-4.767-.122-.2-.439-.017-.316.185.972,1.6,1.823,3.3,2.856,4.855a.27.27,0,1,0,.466-.272Z" transform="translate(-219.595 -4.7)"/>
      <path id="Path_28496" data-name="Path 28496" class="cls-2" d="M443.485,10.35a33.691,33.691,0,0,0-1.961-2.884c-.15-.223-.511-.021-.367.214a33.841,33.841,0,0,0,1.832,2.959.287.287,0,0,0,.5-.289Z" transform="translate(-221.03 -3.696)"/>
      <path id="Path_28497" data-name="Path 28497" class="cls-2" d="M445.49,7.626a23.205,23.205,0,0,0-2.006-2.68c-.15-.193-.473.058-.339.261a23.173,23.173,0,0,0,1.9,2.767C445.26,8.221,445.647,7.9,445.49,7.626Z" transform="translate(-222.027 -2.447)"/>
      <path id="Path_28498" data-name="Path 28498" class="cls-3" d="M445.247.5a.233.233,0,1,0,.233.233A.233.233,0,0,0,445.247.5Z" transform="translate(-222.979 -0.254)"/>
      <path id="Path_28499" data-name="Path 28499" class="cls-4" d="M335.749,98.936a41.338,41.338,0,0,0-2.855-6.844c-.108-.2-.39-.024-.3.177.963,2.248,1.884,4.49,2.758,6.777C335.443,99.289,335.831,99.193,335.749,98.936Z" transform="translate(-166.641 -46.102)"/>
      <path id="Path_28500" data-name="Path 28500" class="cls-4" d="M335.57,91.929c-1.557-3.483-3.343-6.865-4.989-10.306-.1-.2-.395-.025-.3.175,1.646,3.443,3.163,6.959,4.9,10.357C335.314,92.416,335.684,92.187,335.57,91.929Z" transform="translate(-165.482 -40.858)"/>
      <path id="Path_28501" data-name="Path 28501" class="cls-4" d="M335.037,81.963c-2.677-5.807-5.421-11.586-7.983-17.445-.089-.2-.387-.027-.3.175,2.474,5.676,4.918,11.364,7.55,16.97a.217.217,0,0,0,.006.024l.258.549C334.72,82.55,335.182,82.276,335.037,81.963Z" transform="translate(-163.716 -32.286)"/>
      <path id="Path_28502" data-name="Path 28502" class="cls-4" d="M335.98,75.361c-2.866-6.091-5.934-12.084-8.87-18.14-.1-.2-.4-.025-.3.176,2.926,6.067,5.72,12.2,8.715,18.231C335.676,75.933,336.123,75.665,335.98,75.361Z" transform="translate(-163.742 -28.63)"/>
      <path id="Path_28503" data-name="Path 28503" class="cls-4" d="M339.641,70.869c-2.653-5.551-5.615-10.959-8.377-16.457-.1-.2-.4-.024-.3.175,2.764,5.5,5.339,11.109,8.21,16.555C339.339,71.452,339.789,71.18,339.641,70.869Z" transform="translate(-165.824 -27.223)"/>
      <path id="Path_28504" data-name="Path 28504" class="cls-4" d="M342.914,68.156a163.121,163.121,0,0,0-7.876-15.136.176.176,0,0,0-.3.177c2.814,4.957,5.214,10.115,7.7,15.242C342.591,68.767,343.055,68.48,342.914,68.156Z" transform="translate(-167.713 -26.53)"/>
      <path id="Path_28505" data-name="Path 28505" class="cls-4" d="M345.882,63.294c-2.117-4-4.372-7.989-6.743-11.845a.174.174,0,0,0-.3.176c2.046,4.041,4.265,8.049,6.566,11.948a.276.276,0,0,0,.475-.279Z" transform="translate(-169.771 -25.746)"/>
      <path id="Path_28506" data-name="Path 28506" class="cls-4" d="M349.384,58.763c-1.635-3.319-3.583-6.526-5.468-9.708a.176.176,0,0,0-.3.177c1.7,3.287,3.385,6.64,5.333,9.787a.254.254,0,0,0,.439-.256Z" transform="translate(-172.161 -24.543)"/>
      <path id="Path_28507" data-name="Path 28507" class="cls-4" d="M353.346,55.077c-1.429-3.184-3.089-6.26-4.587-9.411-.1-.2-.4-.026-.3.177,1.5,3.157,2.838,6.392,4.407,9.517C353.027,55.685,353.491,55.4,353.346,55.077Z" transform="translate(-174.589 -22.84)"/>
      <path id="Path_28508" data-name="Path 28508" class="cls-4" d="M357.751,52.3c-1.4-2.519-2.978-4.948-4.427-7.442a.174.174,0,0,0-.3.176c1.447,2.495,2.78,5.067,4.274,7.53a.263.263,0,0,0,.452-.265Z" transform="translate(-176.878 -22.444)"/>
      <path id="Path_28509" data-name="Path 28509" class="cls-4" d="M361.923,49.466q-1.957-3.606-3.887-7.222c-.09-.17-.4-.05-.318.134a60.636,60.636,0,0,0,3.7,7.381.291.291,0,0,0,.5-.293Z" transform="translate(-179.232 -21.129)"/>
      <path id="Path_28510" data-name="Path 28510" class="cls-4" d="M366.616,48.079c-1.334-2.951-2.867-5.807-4.263-8.728-.1-.205-.4-.026-.3.178,1.4,2.926,2.657,5.917,4.117,8.814C366.318,48.647,366.754,48.381,366.616,48.079Z" transform="translate(-181.399 -19.675)"/>
      <path id="Path_28511" data-name="Path 28511" class="cls-4" d="M370.958,45.265c-.976-2.495-2.278-4.876-3.484-7.264-.1-.2-.4-.024-.3.177,1.205,2.389,2.167,4.871,3.293,7.294C370.594,45.745,371.067,45.55,370.958,45.265Z" transform="translate(-183.965 -19)"/>
      <path id="Path_28512" data-name="Path 28512" class="cls-4" d="M375.141,42.512c-.983-2.031-2.3-3.923-3.405-5.887a.174.174,0,0,0-.3.176c1.1,1.969,2.042,4.073,3.27,5.967a.253.253,0,0,0,.435-.255Z" transform="translate(-186.104 -18.317)"/>
      <path id="Path_28513" data-name="Path 28513" class="cls-4" d="M379.875,39.175c-1.08-1.667-2.174-3.343-3.125-5.087-.108-.2-.406-.023-.3.177a54.035,54.035,0,0,0,2.941,5.194C379.587,39.761,380.074,39.481,379.875,39.175Z" transform="translate(-188.613 -17.04)"/>
      <path id="Path_28514" data-name="Path 28514" class="cls-4" d="M384.775,37.921a55.239,55.239,0,0,0-3.286-5.713.173.173,0,0,0-.3.175,55.346,55.346,0,0,0,3.125,5.808.267.267,0,1,0,.461-.269Z" transform="translate(-190.987 -16.098)"/>
      <path id="Path_28515" data-name="Path 28515" class="cls-4" d="M388.685,34.346a23.9,23.9,0,0,0-2.322-4.581c-.1-.163-.4-.061-.327.138a23.868,23.868,0,0,0,2.207,4.629C388.384,34.751,388.782,34.616,388.685,34.346Z" transform="translate(-193.422 -14.877)"/>
      <path id="Path_28516" data-name="Path 28516" class="cls-4" d="M393.963,33.416a14.257,14.257,0,0,0-2.388-4.6c-.107-.131-.356.01-.291.17.3.748.711,1.447,1.057,2.177.388.815.7,1.665,1.1,2.473C393.586,33.925,394.057,33.722,393.963,33.416Z" transform="translate(-196.052 -14.416)"/>
      <path id="Path_28517" data-name="Path 28517" class="cls-4" d="M398.037,28.924a6.234,6.234,0,0,1-1.452-3.009c-.039-.229-.387-.132-.349.1a7.041,7.041,0,0,0,1.438,3.276C397.89,29.54,398.241,29.176,398.037,28.924Z" transform="translate(-198.537 -12.923)"/>
      <path id="Path_28518" data-name="Path 28518" class="cls-4" d="M402.936,26.277a24.338,24.338,0,0,1-1.646-2.784c-.079-.185-.394-.053-.327.138A8.541,8.541,0,0,0,402.5,26.61C402.715,26.842,403.094,26.545,402.936,26.277Z" transform="translate(-200.902 -11.73)"/>
      <path id="Path_28519" data-name="Path 28519" class="cls-4" d="M408.658,23.416a10.89,10.89,0,0,0-1.285-2.453.178.178,0,0,0-.323.136,10.871,10.871,0,0,0,1.059,2.548C408.274,23.934,408.78,23.743,408.658,23.416Z" transform="translate(-203.955 -10.466)"/>
      <path id="Path_28520" data-name="Path 28520" class="cls-4" d="M412.654,20.717c-.327-.562-.667-1.108-.967-1.686-.106-.2-.413-.023-.307.18.3.58.555,1.174.829,1.766C412.346,21.275,412.826,21.01,412.654,20.717Z" transform="translate(-206.116 -9.495)"/>
      <path id="Path_28521" data-name="Path 28521" class="cls-4" d="M416.867,18.433c-.2-.549-.36-1.116-.531-1.677-.065-.213-.4-.122-.334.092.171.56.352,1.118.493,1.687C416.555,18.779,416.952,18.663,416.867,18.433Z" transform="translate(-208.439 -8.339)"/>
      <path id="Path_28522" data-name="Path 28522" class="cls-4" d="M420.422,15.631a15.03,15.03,0,0,0-1.027-1.9c-.1-.164-.4-.058-.323.136a15.452,15.452,0,0,0,.878,2.035C420.122,16.224,420.556,15.945,420.422,15.631Z" transform="translate(-209.975 -6.845)"/>
      <path id="Path_28523" data-name="Path 28523" class="cls-4" d="M424.12,14.2a5,5,0,0,1-.484-.9c-.1-.2-.407-.024-.3.178a4.966,4.966,0,0,1,.427.935C423.84,14.738,424.358,14.5,424.12,14.2Z" transform="translate(-212.105 -6.624)"/>
      <path id="Path_28524" data-name="Path 28524" class="cls-4" d="M427.849,11.6a5.611,5.611,0,0,0-.341-.745c-.089-.194-.371-.05-.329.139a5.253,5.253,0,0,0,.162.748C427.458,12.055,427.946,11.935,427.849,11.6Z" transform="translate(-214.041 -5.398)"/>
      <path id="Path_28525" data-name="Path 28525" class="cls-4" d="M432.381,9.059V9.3a.183.183,0,0,0,.366,0V9.059a.183.183,0,0,0-.366,0Z" transform="translate(-216.649 -4.456)"/>
      <path id="Path_28526" data-name="Path 28526" class="cls-4" d="M341.132,106.9a2.242,2.242,0,0,0-.306-.241.179.179,0,0,0-.243.243,2.24,2.24,0,0,0,.24.306C341.014,107.416,341.339,107.09,341.132,106.9Z" transform="translate(-170.641 -53.435)"/>
      <path id="Path_28527" data-name="Path 28527" class="cls-4" d="M343.612,103.123a13.2,13.2,0,0,1-.829-2.145c-.042-.187-.357-.15-.34.046a4.284,4.284,0,0,0,.727,2.286C343.319,103.5,343.729,103.4,343.612,103.123Z" transform="translate(-171.585 -50.538)"/>
      <path id="Path_28528" data-name="Path 28528" class="cls-4" d="M345.764,98.954c-.507-.79-.976-1.6-1.452-2.414a.173.173,0,0,0-.3.175c.476.809.96,1.615,1.4,2.442C345.541,99.386,345.9,99.172,345.764,98.954Z" transform="translate(-172.359 -48.333)"/>
      <path id="Path_28529" data-name="Path 28529" class="cls-4" d="M349.141,94.844c-.531-.859-1.027-1.735-1.523-2.615a.178.178,0,0,0-.307.18c.5.88.988,1.758,1.447,2.658C348.892,95.319,349.291,95.088,349.141,94.844Z" transform="translate(-174.014 -46.175)"/>
      <path id="Path_28530" data-name="Path 28530" class="cls-4" d="M352.325,89.945a16.8,16.8,0,0,0-2.648-3.7c-.159-.17-.414.086-.255.255a14.219,14.219,0,0,1,2.495,3.681C352.046,90.456,352.467,90.217,352.325,89.945Z" transform="translate(-175.056 -43.191)"/>
      <path id="Path_28531" data-name="Path 28531" class="cls-4" d="M355.5,84.875q-1.247-2.154-2.441-4.332c-.111-.2-.418-.021-.307.18q1.2,2.18,2.361,4.379C355.244,85.356,355.644,85.126,355.5,84.875Z" transform="translate(-176.737 -40.316)"/>
      <path id="Path_28532" data-name="Path 28532" class="cls-4" d="M358.819,77.883a30.7,30.7,0,0,0-3.493-5.542c-.133-.171-.362.046-.281.217a30.741,30.741,0,0,0,3.38,5.63C358.612,78.427,358.931,78.122,358.819,77.883Z" transform="translate(-177.891 -36.22)"/>
      <path id="Path_28533" data-name="Path 28533" class="cls-4" d="M363.211,73.763a43.1,43.1,0,0,1-3.847-6.776c-.092-.209-.4-.028-.307.18a43.783,43.783,0,0,0,3.661,6.885C362.921,74.353,363.415,74.068,363.211,73.763Z" transform="translate(-179.901 -33.521)"/>
      <path id="Path_28534" data-name="Path 28534" class="cls-4" d="M367.559,73.827c-.549-1.482-1.37-2.923-2.016-4.372-.094-.21-.4-.028-.309.181.641,1.437,1.154,2.99,1.884,4.377C367.243,74.251,367.655,74.087,367.559,73.827Z" transform="translate(-182.996 -34.758)"/>
      <path id="Path_28535" data-name="Path 28535" class="cls-4" d="M372.6,73.529l-.724-1.207a.2.2,0,0,0-.349.2l.724,1.207a.2.2,0,0,0,.349-.2Z" transform="translate(-186.146 -36.196)"/>
      <path id="Path_28536" data-name="Path 28536" class="cls-5" d="M325.1,58c1.858,9.127,3.8,18.261,6.093,27.289a.109.109,0,0,0,.211-.058c-2.125-9.077-4.257-18.145-6.117-27.282-.025-.121-.211-.07-.186.05Z" transform="translate(-162.893 -29.003)"/>
      <path id="Path_28537" data-name="Path 28537" class="cls-5" d="M338.038,92.707c3.3-3.293,6.416-6.779,9.606-10.175s6.45-6.746,9.58-10.2c.133-.15-.079-.364-.22-.22-3.248,3.345-6.378,6.813-9.564,10.217s-6.462,6.742-9.537,10.244c-.081.092.05.225.136.136Z" transform="translate(-169.297 -36.111)"/>
      <path id="Path_28538" data-name="Path 28538" class="cls-5" d="M357.662,65.9c2.717.962,5.5,1.757,8.238,2.662s5.47,1.84,8.191,2.8c5.442,1.926,10.827,4,16.2,6.114.166.065.235-.2.073-.266-5.342-2.178-10.758-4.191-16.2-6.11q-4.081-1.441-8.192-2.8c-2.733-.9-5.473-1.864-8.257-2.594a.1.1,0,0,0-.05.189Z" transform="translate(-179.184 -32.93)"/>
      <path id="Path_28539" data-name="Path 28539" class="cls-5" d="M423.281,44.457c2.481-11.714,7.678-22.619,10.869-34.127A75.315,75.315,0,0,0,436.264.406c.029-.211-.293-.3-.325-.09C434.179,12.2,429.294,23.19,425.7,34.564c-1.023,3.239-1.9,6.518-2.6,9.842-.025.12.159.172.185.05Z" transform="translate(-211.996 -0.101)"/>
      <path id="Path_28540" data-name="Path 28540" class="cls-5" d="M285.769,23.942c20.93-5.984,41.784-12.245,62.667-18.4q8.856-2.609,17.712-5.227a.16.16,0,0,0-.085-.308Q334.726,9.208,303.42,18.5c-5.9,1.746-11.808,3.482-17.7,5.271a.088.088,0,0,0,.047.17Z" transform="translate(-143.134 -0.007)"/>
      <path id="Path_28541" data-name="Path 28541" class="cls-5" d="M285.127,48.249c6.273.549,11.84,4.172,18.158,4.421.194.007.193-.29,0-.3-6.3-.353-11.9-3.768-18.158-4.315-.125-.011-.125.185,0,.2Z" transform="translate(-142.819 -24.082)"/>
      <path id="Path_28542" data-name="Path 28542" class="cls-5" d="M323.273,29.316c8.116-3.449,16.108-7.226,24.107-10.937s15.981-7.484,23.926-11.326c4.453-2.151,8.9-4.313,13.327-6.519.2-.1.024-.394-.174-.3-15.839,7.778-31.733,15.436-47.789,22.76-4.5,2.052-9.031,4.033-13.508,6.126-.13.06-.016.243.111.19Z" transform="translate(-161.895 -0.112)"/>
      <path id="Path_28543" data-name="Path 28543" class="cls-5" d="M356.384,33.672q17.563-12.649,35.162-25.251c3.32-2.387,6.681-4.728,9.956-7.177.158-.118.01-.387-.158-.27-5.927,4.109-11.716,8.432-17.566,12.652L366.218,26.288c-3.319,2.395-6.618,4.814-9.939,7.206-.107.077,0,.255.1.178Z" transform="translate(-178.495 -0.477)"/>
      <path id="Path_28544" data-name="Path 28544" class="cls-5" d="M347.261,65.119c-1.806,8.44-7.322,15.467-9.655,23.726a.157.157,0,0,0,.3.083c2.445-8.222,7.734-15.317,9.538-23.758.026-.12-.159-.172-.185-.05Z" transform="translate(-169.159 -32.598)"/>
      <path id="Path_28545" data-name="Path 28545" class="cls-5" d="M165.33,123.66c-9.1,7.715-14.195,20.568-9.056,31.982,1.1,2.441,2.707,4.579,5.339,5.485,1.936.667,4.861.136,5.2-2.287.392-2.794-2.866-5.328-4.59-7.035a61.134,61.134,0,0,0-7.764-6.64c-10.692-7.529-27.471-10.244-37.482-.018-8.514,8.7-8.332,22.674-2.808,32.88a38.789,38.789,0,0,0,13.11,13.906c5.16,3.339,12.265,5.819,17.935,2.111,5.571-3.642,1.961-11.226-.808-15.559a43.132,43.132,0,0,0-13.874-13.047c-10.653-6.6-23.221-9.705-35.661-10.266a84.323,84.323,0,0,0-37.241,6.518c-11.315,4.922-20.856,13.289-29.11,22.326A163.348,163.348,0,0,0,5.049,218.126q-2.641,5-5.027,10.133c-.112.239.243.449.357.209,10.638-22.629,24.913-44.383,45.262-59.418,9.277-6.854,20.5-10.8,31.836-12.528a86.416,86.416,0,0,1,35.36,1.83c11.417,3.087,23.141,9.076,30.192,18.873,3.233,4.49,7.98,13.324,1.221,16.885-6.284,3.31-13.358-.022-18.568-3.792-9.735-7.044-16.246-18.648-14.818-30.868a23.62,23.62,0,0,1,7.749-15.247c5.15-4.416,12.136-5.788,18.755-5.151a36.325,36.325,0,0,1,18.983,8.041,75.387,75.387,0,0,1,7.132,6.559,10.728,10.728,0,0,1,2.744,3.7c.782,2.227-1.142,3.876-3.293,3.678-6.073-.559-8.114-9.05-8.351-13.977a27.333,27.333,0,0,1,4.831-16.415,33.533,33.533,0,0,1,6.119-6.775c.14-.119-.062-.319-.2-.2Z" transform="translate(0 -61.948)"/>
    </g>
  </g>
</svg>
