<svg xmlns="http://www.w3.org/2000/svg" viewBox="0 0 145 196.871">
  <defs>
    <style>
      .cls-1 {
        fill: #fff;
      }

      .cls-2 {
        fill: #98e19c;
      }

      .cls-3 {
        fill: #59be6c;
      }

      .cls-4 {
        fill: #00764f;
      }

      .cls-5 {
        fill: #284b55;
      }
    </style>
  </defs>
  <g id="Bildmaterial_10" data-name="Bildmaterial 10" transform="translate(84.343 114.515)">
    <g id="Group_13196" data-name="Group 13196" transform="translate(-84.343 -114.515)">
      <path id="Path_16167" data-name="Path 16167" class="cls-1" d="M144.438,171.154a.32.32,0,0,0,.3-.381,40.307,40.307,0,0,0-2.427-7.281.963.963,0,0,0,.1-.776q-2.447-9.139-4.282-18.418-.414-3.2-.629-6.431.738-.449,1.475-.9a1.111,1.111,0,0,0,.464-.563l.629-.471a2.715,2.715,0,0,0,.68-.508l.049-.036c.648.049,1.308.142,1.454-.692a5.965,5.965,0,0,0-.42-2.128l-.131-.551a2.366,2.366,0,0,0,.2-1.355c-.446-3.266-1.009-6.517-1.642-9.754a65.166,65.166,0,0,0-2.511-11.544,2.508,2.508,0,0,0-.284-.6c-.474-2.234-1.07-4.447-1.721-6.607-1.045-3.469-2.152-7.268-4.034-10.394-2.819-4.681-8.759-8.437-14.356-9.778-.734-.472-1.483-.92-2.244-1.331-5.328-2.87-11.32-3.678-17.088-5.181a1.885,1.885,0,0,0-2.026.624,2.094,2.094,0,0,0-.519-.449l-.03-.022c-.243-.2-.487-.39-.748-.563a16.93,16.93,0,0,1-1.854-4.1c-.633-1.819-1.223-3.659-1.882-5.47-.469-3.2-.774-6.427-1.21-9.54A24.16,24.16,0,0,0,91.641,47.9c.005-.1,0-.19,0-.28a2.2,2.2,0,0,0,1.067-.929,2.328,2.328,0,0,0,.235-1.792q-.053-.155-.111-.308c-.052-.132-.109-.262-.164-.392.045-1.027.024-2.055.114-3.082a20.015,20.015,0,0,0,.353-3.293,3.718,3.718,0,0,0-1.383-2.638c.011-.034.019-.069.029-.1a.248.248,0,0,1-.1-.4,1.966,1.966,0,0,0,.33-.521,16.087,16.087,0,0,0-1.22-8.871,2.343,2.343,0,0,0-.038-.348.2.2,0,0,1-.115-.078.348.348,0,0,1-.027-.052l-.005,0s-.022-.045-.04-.087a.21.21,0,0,1-.251-.233.315.315,0,0,1,.19-.256,2.643,2.643,0,0,0-.6-.732c-.013-.145-.035-.287-.058-.429.019-.021.022-.019,0-.005v0a.513.513,0,0,0,.284-.438.863.863,0,0,0-.629-.854.039.039,0,0,1-.018,0c-.045-.116-.09-.231-.138-.345a8.591,8.591,0,0,0-1.2-1.928h0a.505.505,0,0,0-.342-.554.5.5,0,0,0-.148-.018c-.187-.209-.386-.407-.58-.609a4.185,4.185,0,0,1,1-.595.555.555,0,0,0,.131-1,13.288,13.288,0,0,0-2.944-1.577,1.438,1.438,0,0,0,.125-.36l.225-.613a.51.51,0,0,0-.177-.587c-.09-.436-.643-.774-.979-.34-.029.037-.061.072-.09.109,0-.263-.005-.526,0-.789a.472.472,0,0,0-.251-.446c.09-.274.17-.52.212-.7a7.988,7.988,0,0,0,.333-2.627.609.609,0,0,0-1.023-.424,10.731,10.731,0,0,0-2,2.073A9.194,9.194,0,0,1,81.639,6.3c.08-.581-.743-.854-.909-.251-.33,1.2-1.29,1.974-1.852,3.008a42.861,42.861,0,0,0-3.545-4.421C74.171,3.32,72.436.75,70.549.573c-.288-.027-.4.36-.225.546l.456.468a.336.336,0,0,0-.024.32q.117.27.233.539a.652.652,0,0,0,.065.337l1.3,2.781c.083.182.168.363.252.545-.017.017-.031.036-.045.053a28.282,28.282,0,0,0-6.416-4.036C64.391,1.3,61.8-.121,59.925.9a.31.31,0,0,0,.155.573l.06,0a.616.616,0,0,0,.025.09q.318.845.634,1.69l.351,1.368c-.491-.037-.977-.083-1.459-.147q-.421-.135-.842-.274a8.47,8.47,0,0,0-2.28-.642.481.481,0,0,0-.114.015,7.927,7.927,0,0,1-.863-.48.25.25,0,0,0-.3.391c.094.09.193.18.291.266a.214.214,0,0,0-.1.27c.156.411.308.84.449,1.275a4.792,4.792,0,0,0,.233,1.828.5.5,0,0,0,.056.1.6.6,0,0,0-.289-.207,5.075,5.075,0,0,1-1.275-.647.464.464,0,0,0-.4-.08c-.168-.151-.335-.3-.506-.442a.27.27,0,0,0-.419.323,3.766,3.766,0,0,0,.424.646.449.449,0,0,0-.13.478c.154.582.318,1.161.48,1.74a2.345,2.345,0,0,0-.391,2.1c.1.237.18.48.254.724a3.644,3.644,0,0,0-.867-.319c-.71-.318-1.442-.59-2.157-.894q-1.25-.944-2.451-1.953c-.22-.23-.439-.461-.654-.7a.558.558,0,0,0-.124-.1c-.132-.166-.267-.331-.4-.494a.2.2,0,0,0-.13-.073l-.032-.059a.52.52,0,0,0-.177-.195c-.023-.1-.042-.2-.068-.291a.249.249,0,1,0-.481.133c.014.06.022.124.034.185a.549.549,0,0,0-.2.69c.072.162.132.325.2.488q-.009,1.786-.038,3.572c-.031.44-.054.88-.063,1.313a.453.453,0,0,0-.556.539c.018.076.033.142.045.2a4.334,4.334,0,0,0,.6,1.418.512.512,0,0,0,.093.106,4.536,4.536,0,0,0,.852,1.9,2.016,2.016,0,0,0,.465.742h0l-.315.041c-.126.04-.245.083-.36.127a.512.512,0,0,0-.416.037,7.488,7.488,0,0,1-2.009.755A6.5,6.5,0,0,0,43.51,19a.611.611,0,0,0-.511.225.24.24,0,0,0-.062.2v.019a.422.422,0,0,0,.2.365c.734,1.327,1.609,2.57,2.362,3.888a5.154,5.154,0,0,1,1,3.99c-.045.3-.34.492-.338.805a4.9,4.9,0,0,0,1.9,3.738,2.157,2.157,0,0,0-.285.989,19.557,19.557,0,0,0,.122,3.257c.018.031.037.06.054.09a.235.235,0,0,1,.112.14c.029.093.054.187.077.282l.028.1c.037.116.07.235.1.356a.2.2,0,0,1-.026.157,3.14,3.14,0,0,1-.045.9c.18,1.03.387,2.06.581,3.11a9.7,9.7,0,0,0,1.783,3.655,2.2,2.2,0,0,0-.5,2.627,53.352,53.352,0,0,0,3.574,5.585A5.457,5.457,0,0,0,54.726,54.7c.381.771.8,1.521,1.238,2.255l0,.009a22.073,22.073,0,0,0,3.88,5.278c.522.654,1.052,1.3,1.6,1.937l.012.012c-.008.3-.01.6-.022.9-.072,1.761-.2,3.523-.445,5.269-.027.192-.053.43-.08.7a22.68,22.68,0,0,0-1.061,2.193c-.209.454-.465.9-.723,1.336-1.831-.416-3.658.045-5.587.449C50.87,75.589,48.207,76.184,45.6,77c-3.84,1.2-8.731,3.007-11.071,6.553A19.453,19.453,0,0,0,31.3,85.43c-.735.534-3.033,3.015-3.82,2.846a1.955,1.955,0,0,0-.285-.036,6.083,6.083,0,0,0,.41-2.217A5.719,5.719,0,0,0,26.462,82.7c-.1-.145-.206-.288-.323-.426-.073-.087-.152-.166-.23-.247a4.329,4.329,0,0,0,1.933-3.461,5.524,5.524,0,0,0-1.173-3.493,13.6,13.6,0,0,0-2.1-4.055c-.084-.122-.163-.244-.239-.365.494-3.008-1.521-5.829-2.361-8.783-.522-1.836-.663-4.109-1.169-6.183a2.12,2.12,0,0,0-.014-1.143,17.825,17.825,0,0,0-3.632-6.918,2.255,2.255,0,0,0-.315-1.038l-.253-.2a.2.2,0,0,1-.184-.034c-.35-.288-.875-.555-1.251-.9a3.187,3.187,0,0,0-2.862.36,2.6,2.6,0,0,0-.894,2.805c.037.13.087.257.135.383a4.306,4.306,0,0,0,.749,1.285l.1.075c.7,2.658,1.8,5.195,2.223,7.944a37.222,37.222,0,0,1,.09,8.395A17.963,17.963,0,0,1,9.7,70.313c-1.85.876-3.846,1.674-5.061,3.42A5.663,5.663,0,0,0,3.63,76.41c-.123,1.145.356,2.375-.084,3.453-.364.893-1.2,1.588-1.606,2.49a6.684,6.684,0,0,0-.484,3.59c.144,1.214.591,2.364.741,3.57a23.071,23.071,0,0,1-.326,3.635A28.739,28.739,0,0,0,3.148,100.7a3.36,3.36,0,0,0-.372,1,2.837,2.837,0,0,0,1.858,3.146,30.294,30.294,0,0,0,4.54,1.244c.669.174,1.336.326,2.007.445a41.164,41.164,0,0,0,8.76,10.433.817.817,0,0,0,.339.786l3.432,2.5a.658.658,0,0,0,.9-.064c.053.135.107.265.167.4.013.143.034.285.058.426a.834.834,0,0,0-.058.391.232.232,0,0,0-.032.187,6.627,6.627,0,0,0,1.726,3.209,2.76,2.76,0,0,0,.995.851.267.267,0,0,0,.392-.263,3.09,3.09,0,0,0,.952.249,8.775,8.775,0,0,0,6.618-.454c.674,6.484,1.458,12.968,2.735,19.353a44.841,44.841,0,0,0,.458,9.8l.277,6.573a.973.973,0,0,0-.114.571q.083.87.167,1.74a.306.306,0,0,0-.229.5c.107.129.212.259.318.387a1.209,1.209,0,0,0,.315.679c-.189-.17-.378-.34-.572-.506-.225-.193-.653.07-.445.343q1.259,1.66,2.478,3.346c-.691-.74-1.406-1.458-2.166-2.136a.277.277,0,1,0-.392.392q2.247,2.626,4.3,5.405l-3.251-4.018c-.184-.225-.578.075-.408.315l2.019,2.838-1.137-1.348c-.135-.159-.4.014-.356.188a.114.114,0,0,0-.045.172c1.573,1.991,3.113,4,4.642,6.027h0l.029.038.006-.007c.138.114.36,0,.334-.152l.183.225c.18.219.564-.072.4-.307l-.8-1.134,2.231,2.766c.192.238.584-.07.422-.325q-1.306-2.068-2.716-4.059c.955,1.291,1.875,2.61,2.787,3.93.2.294.685.022.485-.284-.407-.625-.821-1.245-1.236-1.866.595.7,1.19,1.4,1.8,2.088a.2.2,0,0,0,.333-.062l.032.048a.3.3,0,0,0,.534-.1c.155.218.311.435.464.654a.3.3,0,0,0,.334.122l1.414,1.748a.24.24,0,0,0,.351.021c.2.1.51.018.473-.262a2.712,2.712,0,0,0-1.117-1.933.217.217,0,0,0-.076-.035.122.122,0,0,0,0-.011q-.641-.936-1.3-1.855a1.41,1.41,0,0,0,.259-.141l.413.417,2.811,3.5c.208.259.634-.077.458-.354L52.369,177a1.143,1.143,0,0,0,.589-.348l2.175,2.645c.218.264.668-.083.476-.367l-2.351-3.491a1.33,1.33,0,0,0-.236-.454l-.487-.619-.293-.435,1.336,1.209,4.345,5.1c.225.262.694-.093.483-.373l-2.483-3.287a1.363,1.363,0,0,0,.261-.081l2.521,2.9c.27.309.682-.135.441-.441l-2.335-3a1.036,1.036,0,0,0,.053-.094l3.664,4.135c.275.31.7-.135.449-.449l-1.4-1.749a.963.963,0,0,0,.379.128l2.926,3.236c.282.312.7-.138.453-.453l-2.472-3.114a1.469,1.469,0,0,0,.293-.376l3.616,3.846c.289.308.723-.144.458-.458l-3.191-3.771q2.3,2.544,4.751,4.944a.328.328,0,0,0,.463-.463l-2.422-2.542a1.214,1.214,0,0,0,.442.245l3.473,3.669c.292.307.753-.157.463-.463q-1.552-1.63-3.041-3.317a1.3,1.3,0,0,0,.214-.156q2.388,2.7,4.963,5.225c.3.3.74-.149.463-.463-.143-.163-.289-.324-.433-.487.429.435.854.871,1.294,1.3.308.3.735-.146.465-.465q-1.6-1.894-3.239-3.757,1.419,1.5,2.88,2.967a.315.315,0,0,0,.543-.18c.481.48.965.957,1.456,1.427a.339.339,0,0,0,.479-.479c-.145-.168-.294-.33-.44-.5a.368.368,0,0,0,.245-.608q-1.577-1.779-3.169-3.542a1.287,1.287,0,0,0,.227-.027q2.6,2.863,5.06,5.843a.286.286,0,0,0,.49-.083l.47.571c.264.32.7-.135.449-.449-.449-.574-.916-1.133-1.388-1.686l-1.034-1.254q.265.229.529.461l.417.528a.253.253,0,0,0,.285.083q2.581,2.292,5.025,4.741c.3.3.719-.142.455-.455l-1.607-1.914a.329.329,0,0,0,.022-.441q-2.247-2.787-4.634-5.452l7,6.6a.33.33,0,0,0,.485-.444l.021.02a.341.341,0,0,0,.482-.482l-4.323-4.545,5.655,5.228a.348.348,0,1,0,.494-.489l.107.1a.354.354,0,1,0,.5-.5l-3.317-3.767a1.376,1.376,0,0,0,.539-.106l4.83,4.585a.342.342,0,0,0,.418.053l.7.729c.331.345.847-.175.523-.523q-1.19-1.279-2.42-2.517l-3.236-3.371a1.142,1.142,0,0,0-.081-.494c2.284,2.029,4.475,4.167,6.654,6.309a.371.371,0,0,0,.525-.525l-4.023-4.247a1.585,1.585,0,0,0,.3.033c1.9,1.813,3.759,3.667,5.613,5.525a.362.362,0,0,0,.61-.184.382.382,0,0,0,.329-.627c-.693-.829-1.4-1.644-2.118-2.452l4.764,4.792c.335.337.833-.169.518-.518L94.365,183.6a1.4,1.4,0,0,0,.315-.045l6.363,6.025a.368.368,0,1,0,.52-.52l-3.056-3.314,4.45,4.3a.369.369,0,0,0,.521-.522l-3.449-3.821a1.168,1.168,0,0,0,.24-.045l4.865,4.63a.37.37,0,0,0,.523-.524l-3.289-3.6,3.088,3c.348.338.829-.165.525-.525l-2.586-3.064a.48.48,0,0,0,.064-.006l4.987,5.051a.343.343,0,0,0,.5,0c.166.18.336.357.5.539.329.36.851-.171.532-.532l-4.276-4.838q2.323,2.309,4.613,4.652c.344.352.878-.184.539-.539-.175-.184-.348-.37-.523-.555l1.009,1a.357.357,0,0,0,.484.03l.319.4c.225.277.694-.066.539-.36.418.38.839.756,1.267,1.124a.242.242,0,0,0,.264.024l.44.395a.349.349,0,0,0,.564-.161l1.5,1.262c.337.282.809-.169.49-.49l-2.593-2.593a.352.352,0,0,0-.067-.118c-.023-.027-.045-.053-.069-.08l4.211,3.745c.339.3.825-.173.5-.5l-4.374-4.45,6.275,5.663c.346.312.852-.184.515-.515l-4.468-4.376,4.5,3.906c.36.311.867-.182.526-.526L116.6,187.1l8.34,7.177a.392.392,0,0,0,.607-.128c.207.188.411.379.619.566.355.32.879-.2.528-.528l-5.671-5.368q-.963-.954-1.909-1.926l6.835,6.266c.354.324.878-.194.529-.529q-3.615-3.461-6.922-7.215l5.349,5.358a.375.375,0,0,0,.529-.529c-.282-.294-.557-.6-.837-.892a.4.4,0,0,0,.161-.623q-1.963-2.347-3.81-4.785l3.007,3.416c.278.315.84-.106.59-.455l-.154-.214c.285.09.659-.258.446-.551l-1.211-1.674a.32.32,0,0,0,.034-.42c-.326-.506-.632-1.022-.927-1.543a.96.96,0,0,0,.045-.109c.032.042.067.081.1.124.236.315.833.151.691-.291l-.529-1.645a1.237,1.237,0,0,0,.776-.494v.059a.28.28,0,0,0,.128.233q.006,1.57.012,3.141a.317.317,0,0,0,.634,0l.018-1.079c-.1-.716-.2-1.431-.293-2.147a.571.571,0,0,0-.162-.6c0-.285,0-.569-.013-.854a13.82,13.82,0,0,1-.138-1.685v0c0-.042,0-.084-.005-.126a.4.4,0,0,1,.012-.068c.064.194.13.388.191.584a.346.346,0,0,0-.01.2l.206.833a.362.362,0,0,0-.09.321l.344,2.113a.293.293,0,0,0,.407.234l.094.38a.321.321,0,0,0,.109.173c.189-.1.379-.2.569-.306a.348.348,0,0,0,0-.054c-.055-.262-.118-.521-.186-.776a.338.338,0,0,0,.038-.245c-.022-.1-.049-.2-.072-.3a.315.315,0,0,0,.27-.36l.273.73a.351.351,0,0,0,.09.135,16.379,16.379,0,0,1,2.615-1.188q-.086-.553-.172-1.106c.029.1.052.194.084.291a.394.394,0,0,0,.139.19c.071.176.149.351.225.526l.018-.007a.422.422,0,0,1,.252-.486c.15-.073.3-.142.452-.214-.173-1.023-.345-2.046-.53-3.065l.005.013.774,2.935q.633-.3,1.273-.573l-.09-.39.113.38q1.623-.7,3.291-1.255c-.1-.43-.2-.859-.3-1.287.039.1.076.192.116.288a.394.394,0,0,0,.759-.209c-.1-.438-.21-.873-.317-1.309l.4,1.071a.392.392,0,0,0,.764-.125.4.4,0,0,0,.166-.189.4.4,0,0,0,.575.108.425.425,0,0,0,.6-.059l.3.83c.267-.065.536-.125.8-.183-.045-.173-.095-.346-.141-.519a.4.4,0,0,0,.6-.443l-.491-1.905q.4.951.838,1.892c.212.459.822.105.755-.318-.05-.317-.107-.633-.161-.949.09.235.173.471.264.7a.419.419,0,0,0,.735.119c.035.138.072.276.108.414.492-.185.986-.352,1.487-.49l-.1-.372a.434.434,0,0,0,.069-.068.426.426,0,0,0,.684-.189.442.442,0,0,0,.327-.045.413.413,0,0,0,.149.2l.08.208a11.682,11.682,0,0,1,1.359-.162Q144.816,172.4,144.438,171.154Zm-4.506-36.939a.315.315,0,0,0,.539-.254c.087.145.169.292.257.436a.27.27,0,0,0,.152.121c-.275.108-.551.218-.825.334a.248.248,0,0,0-.012-.071l-.124-.348c-.013-.08-.025-.161-.038-.242a.243.243,0,0,0,.049.025Zm-.449.707c.009.06.02.121.029.18-.06.03-.123.057-.18.09l-.219-.657c.115.132.24.26.368.387ZM42.5,165.43a1.23,1.23,0,0,0-.486.452c-.034-.037-.07-.071-.1-.107a1.086,1.086,0,0,0,0-.146c-.024-.34-.042-.68-.063-1.019Zm2.367,7.312q-2.01-2.942-4.116-5.817a56.964,56.964,0,0,1,5.3,6.531q.5.8.977,1.624-1.076-1.173-2.157-2.339ZM47.275,120.5l.012-.658c.067-.369.139-.738.21-1.107q-.115.881-.222,1.765Zm3.264,26.669c0-.071,0-.143,0-.215a1.192,1.192,0,0,0,.331.1c.005.131.013.262.019.392-.116-.091-.23-.184-.346-.274Zm6.244-36.659a.982.982,0,0,0-1.37-.089,13.316,13.316,0,0,0-1.7,1.775c-.04-.016-.08-.031-.122-.045-.019-.112-.049-.218-.076-.326.329-.414.651-.833.972-1.253a.972.972,0,0,0,.941-1.249q.846-1.151,1.659-2.325a15.681,15.681,0,0,0-.311,3.512Zm2.4,20.582q-1.073,1.169-2.126,2.355v-.158q1.576-1.725,3.173-3.431Zm-5.84-26.938c-.049-.048-.1-.1-.145-.146.688-1.638,1.461-3.239,2.292-4.809,2.306-4.351,5.028-8.462,7.75-12.56a2.743,2.743,0,0,0,.261-.489L67,84.224l.007.01c-5.056,6.27-9.03,13.338-13.66,19.92ZM73.953,179.42l-.872-1.059a1.14,1.14,0,0,0,.035-.119q.5.655,1,1.312l-.169-.134Zm4.18,3.44a.3.3,0,0,0,.087.058l.5.6q-.76-.688-1.53-1.364-.467-.629-.951-1.242c.625.653,1.251,1.306,1.889,1.947Zm.029-6.065,2.884,2.582.614.7Zm30.549,8.644-1.259-1.565c0-.019,0-.038.006-.057l.862.84.9.9c.3.351.6.7.892,1.058Zm1.546-.374q-.344-.363-.691-.724a1.037,1.037,0,0,0,.111,0l1.6,1.623Zm3.439.3c.022-.024.042-.049.062-.075l.912.92Zm-.336-2.035-2.689-3.533.712.747a.385.385,0,0,0,.094.267c1.142,1.361,2.333,2.674,3.555,3.959Zm9.974-10.583a1.843,1.843,0,0,0,.193.09c.036.562.072,1.124.116,1.686a.41.41,0,0,0-.161.016c-.055-.6-.1-1.2-.149-1.793Zm.27,3.049c.036.1.076.2.111.3.007.36.013.719.021,1.081-.05-.458-.09-.918-.135-1.377Zm3.448.169c-.056-.729-.116-1.459-.169-2.188.036.263.075.526.112.789q.131,1.364.246,2.731-.1-.664-.193-1.33Zm9.3-41.838c-.033.024-.067.045-.1.069a1.073,1.073,0,0,0-.663.18l-.055.036-.04-.135a1.184,1.184,0,0,0-.017-.616l.074-.052.01.045a.317.317,0,0,0,.508.17.334.334,0,0,0,.308.025c.035.037.068.076.1.112a.317.317,0,0,0,.076.053,1.061,1.061,0,0,0-.211.114Z" transform="translate(-0.766 -0.303)"/>
      <path id="Path_16168" data-name="Path 16168" class="cls-1" d="M86.807,379.9a.009.009,0,0,0-.013.013l.339.339a.011.011,0,0,0,.015-.015Z" transform="translate(-47.781 -209.15)"/>
      <g id="Group_13195" data-name="Group 13195" transform="translate(39.035 170.559)">
        <path id="Path_16169" data-name="Path 16169" class="cls-1" d="M93.522,387.425l0,0-.027-.034,0,0-.007-.007c-.494-.645-1.012-1.269-1.539-1.885a.09.09,0,0,0-.11-.019c-.054-.067-.11-.132-.164-.2l.152.2a.1.1,0,0,0-.052.149c.458.674.926,1.342,1.422,1.988a.187.187,0,0,0,.322-.189Z" transform="translate(-89.506 -382.667)"/>
        <path id="Path_16170" data-name="Path 16170" class="cls-1" d="M86.849,379.488q.375.427.749.858c-.243-.293-.485-.584-.736-.871C86.855,379.466,86.842,379.479,86.849,379.488Z" transform="translate(-86.847 -379.472)"/>
        <path id="Path_16171" data-name="Path 16171" class="cls-1" d="M89.938,383.151c-.452-.594-.931-1.169-1.419-1.734C89,381.994,89.467,382.571,89.938,383.151Z" transform="translate(-87.767 -380.543)"/>
      </g>
      <path id="Path_16172" data-name="Path 16172" class="cls-2" d="M83.47,364.82c3.321,4.242,6.859,8.338,10.334,12.455l.245-.245c-.4-.449-.8-.894-1.211-1.334-.124-.135-.307.061-.2.2.382.466.771.925,1.162,1.383.146.17.386-.075.245-.245-3.437-4.142-6.843-8.345-10.43-12.358C83.529,364.568,83.389,364.716,83.47,364.82Z" transform="translate(-45.94 -200.746)"/>
      <path id="Path_16173" data-name="Path 16173" class="cls-2" d="M83.978,360.068c2.185,3.073,4.647,5.981,7.051,8.884q3.723,4.495,7.6,8.86c.119.135.388-.008.315-.183a7.943,7.943,0,0,0-2.346-3.146c-.145-.118-.354.084-.209.209a7.886,7.886,0,0,1,2.192,3.037l.315-.183q-3.82-4.291-7.5-8.7c-2.45-2.939-4.768-5.993-7.24-8.911-.08-.094-.245.031-.173.135Z" transform="translate(-46.223 -198.138)"/>
      <path id="Path_16174" data-name="Path 16174" class="cls-2" d="M82.346,355.135c5.811,6.715,11.8,13.265,18.086,19.542.188.187.446-.09.285-.285-1.025-1.262-2.049-2.524-3.083-3.779-.131-.159-.346.066-.225.225,1,1.285,2.011,2.562,3.021,3.841l.285-.285c-6.244-6.3-12.36-12.745-18.215-19.413-.094-.107-.249.049-.156.156Z" transform="translate(-45.318 -195.41)"/>
      <path id="Path_16175" data-name="Path 16175" class="cls-2" d="M81.643,349.249c-.256-.308-.5-.613-.739-.937l-.232.18c3.461,4.129,7.192,8.062,10.882,11.983s7.463,7.793,11.294,11.594a.186.186,0,0,0,.263-.263q-2.056-2.145-4.117-4.285c-.127-.132-.324.067-.2.2q2.019,2.181,4.055,4.348l.263-.263q-5.743-5.7-11.3-11.587c-3.7-3.924-7.258-7.983-10.93-11.936-.129-.139-.342.072-.209.209.285.294.555.6.822.908.09.1.237-.045.15-.15Z" transform="translate(-44.389 -191.718)"/>
      <path id="Path_16176" data-name="Path 16176" class="cls-2" d="M83.156,344.86c1.639,2.255,3.575,4.341,5.421,6.427q2.948,3.331,6.031,6.539c4.065,4.232,8.284,8.336,12.7,12.2.116.1.355.045.338-.14a3.959,3.959,0,0,0-2.02-2.729c-.162-.117-.31.148-.155.265a3.575,3.575,0,0,1,1.779,2.464l.338-.14c-4.32-3.9-8.546-7.881-12.587-12.067q-3.028-3.136-5.936-6.386c-1.933-2.162-3.735-4.463-5.712-6.583-.1-.1-.282.035-.2.152Z" transform="translate(-45.769 -189.756)"/>
      <path id="Path_16177" data-name="Path 16177" class="cls-2" d="M82.492,336.946a166.905,166.905,0,0,0,13.03,14.308q6.815,6.87,14.175,13.169a.214.214,0,0,0,.3-.3q-2.348-2.589-4.7-5.177c-.135-.148-.348.07-.218.218q2.3,2.635,4.614,5.261l.3-.3q-7.345-6.3-14.19-13.154c-4.564-4.577-8.775-9.439-13.138-14.2-.113-.124-.277.054-.18.18Z" transform="translate(-45.398 -185.379)"/>
      <path id="Path_16178" data-name="Path 16178" class="cls-2" d="M77.761,323.77c4.516,5.163,9.363,10.068,14.129,15s9.6,9.825,14.483,14.657c2.787,2.761,5.567,5.538,8.424,8.225a.2.2,0,0,0,.289-.289c-1.318-1.566-2.622-3.143-3.931-4.717-.129-.156-.347.067-.221.221,1.29,1.593,2.584,3.183,3.865,4.784l.289-.289c-9.753-9.68-19.552-19.289-29.039-29.237-2.707-2.839-5.352-5.745-8.106-8.537-.116-.117-.286.058-.18.18Z" transform="translate(-42.793 -178.127)"/>
      <path id="Path_16179" data-name="Path 16179" class="cls-2" d="M82.5,325.8c11.4,9.318,20.483,21,31.38,30.85a86.6,86.6,0,0,0,9.5,7.556c.2.138.391-.155.249-.322-.455-.533-.929-1.049-1.389-1.578-.135-.155-.35.068-.225.225.444.546.874,1.1,1.323,1.644l.249-.322c-12.056-8.405-21.273-19.884-31.7-30.084a110.053,110.053,0,0,0-9.2-8.157c-.135-.1-.323.079-.189.189Z" transform="translate(-45.396 -179.248)"/>
      <path id="Path_16180" data-name="Path 16180" class="cls-2" d="M79.1,313.987c11.375,11.683,22.574,23.544,34.067,35.112a78.831,78.831,0,0,0,9.39,8.336c.191.139.436-.176.254-.329-.47-.395-.932-.8-1.393-1.2-.159-.14-.392.09-.235.235.449.418.894.837,1.331,1.266l.254-.329c-6.238-4.7-11.514-10.532-16.948-16.1q-8.465-8.681-16.939-17.355c-3.2-3.269-6.427-6.51-9.619-9.787-.1-.106-.265.056-.162.162Z" transform="translate(-43.532 -172.754)"/>
      <path id="Path_16181" data-name="Path 16181" class="cls-2" d="M76.15,300.714c6,6.887,12.326,13.52,18.667,20.1s12.813,13.046,19.39,19.395c3.72,3.59,7.444,7.191,11.279,10.657a.21.21,0,0,0,.3-.3l-2.157-2.369c-.142-.156-.367.073-.231.231q1.048,1.216,2.092,2.435l.3-.3c-6.62-6.308-13.286-12.557-19.774-19s-12.855-13-19.124-19.656c-3.546-3.765-7.012-7.6-10.543-11.383-.12-.128-.3.061-.191.191Z" transform="translate(-41.905 -165.426)"/>
      <path id="Path_16182" data-name="Path 16182" class="cls-2" d="M82.346,290.455c6.134,7.4,12.683,14.5,19.269,21.5s13.353,13.862,20.275,20.552c3.929,3.8,7.892,7.566,11.952,11.224l.312-.312q-1.452-1.192-2.9-2.387c-.16-.135-.392.09-.232.232q1.414,1.229,2.821,2.467c.212.186.521-.117.312-.312-14.113-13.1-27.822-26.595-40.771-40.861-3.673-4.045-7.244-8.18-10.877-12.263-.1-.108-.248.049-.158.158Z" transform="translate(-45.32 -159.8)"/>
      <path id="Path_16183" data-name="Path 16183" class="cls-2" d="M79.569,275.144a504.731,504.731,0,0,0,45.518,49.972c4.526,4.39,9.1,8.741,13.818,12.929l.277-.36-2.094-1.5c-.166-.119-.383.159-.22.285l2.037,1.573c.225.174.546-.118.323-.323-8.327-7.692-16.553-15.468-24.479-23.576q-11.758-12.027-22.78-24.747c-4.131-4.764-8.157-9.619-12.184-14.47-.127-.153-.335.064-.216.216Z" transform="translate(-43.786 -151.329)"/>
      <path id="Path_16184" data-name="Path 16184" class="cls-2" d="M85.116,274.8c15.012,17.871,31.062,34.93,47.529,51.461,4.669,4.687,9.331,9.41,14.2,13.885.171.157.42-.09.256-.256-8.217-8.3-16.638-16.384-24.754-24.785s-16.073-16.945-23.886-25.62c-4.428-4.922-8.788-9.9-13.169-14.864-.108-.123-.282.055-.18.18Z" transform="translate(-46.842 -151.168)"/>
      <path id="Path_16185" data-name="Path 16185" class="cls-2" d="M88.264,269.446A322.428,322.428,0,0,0,111.85,297.24c8.387,8.968,17.106,17.619,25.862,26.223,5.128,5.039,10.2,10.139,15.413,15.095a.159.159,0,1,0,.225-.225c-8.726-8.837-17.749-17.381-26.519-26.176-8.621-8.646-17.091-17.454-25.1-26.675q-6.854-7.891-13.2-16.193c-.118-.154-.384,0-.265.155Z" transform="translate(-48.576 -148.219)"/>
      <path id="Path_16186" data-name="Path 16186" class="cls-2" d="M163.588,333.926Q148.2,318.538,132.711,303.25c-4.928-4.895-9.993-9.693-14.608-14.89a189.19,189.19,0,0,1-11.458-15.09c-1.911-2.641-3.875-5.248-6.015-7.709-1.126-1.295-2.3-2.545-3.543-3.731q-.9-.865-1.851-1.681c-.215-.184-.434-.364-.653-.544-.229-.29-.46-.578-.689-.867-.068-.086-.2-.021-.225.067a.977.977,0,0,1-.15-.42q-.553-.839.3-.307c-.121.014-.127.2,0,.195a.546.546,0,0,0,.252-.967c-.567-.479-1.146.36-1.092.891a1.95,1.95,0,0,0,.823,1.2c.261.225.523.444.784.665q12.146,15.776,24.837,31.122,6.569,7.948,13.265,15.789,1.908,2.234,3.816,4.473-3.631-3.623-7.191-7.312-12.936-13.418-24.87-27.757c-4.475-5.377-8.759-10.9-13.1-16.38-.13-.164-.418.055-.292.225,7.326,9.888,15.35,19.327,23.527,28.515q11.715,13.168,24.332,25.5c2.218,2.552,4.47,5.073,6.8,7.514a69.1,69.1,0,0,0,15.77,12.816.232.232,0,0,0,.234-.4c-6.612-3.9-12.2-9.108-17.394-14.712q5.684,5.383,11.526,10.6c.105.094.261-.061.156-.155q-7.3-6.529-14.324-13.356c-2.411-2.717-4.759-5.487-7.1-8.22q-7.619-8.876-15.079-17.889c2.241,2.446,4.562,4.823,6.929,7.175q8.675,8.616,17.35,17.229,9.76,9.692,19.527,19.377a.2.2,0,0,0,.282-.279Zm-55.111-56.941q-6.417-7.926-12.742-15.928c.024.022.05.045.074.065,1.229,1.124,2.4,2.309,3.516,3.541,4.436,4.886,8.066,10.412,11.937,15.739C110.335,279.263,109.4,278.128,108.477,276.986Z" transform="translate(-50.11 -141.578)"/>
      <path id="Path_16187" data-name="Path 16187" class="cls-2" d="M98.576,251.911c4.265,5.743,8.847,11.271,13.289,16.878,4.383,5.533,8.744,11.085,13.244,16.523a289.25,289.25,0,0,0,28.841,29.9q8.615,7.8,17.518,15.282c.175.148.43-.1.255-.255C161.41,321.2,150.97,312.3,141.289,302.562c-9.811-9.865-18.5-20.678-27.151-31.555-5.1-6.419-10.076-12.982-15.379-19.237-.085-.1-.262.035-.183.141Z" transform="translate(-54.259 -138.59)"/>
      <path id="Path_16188" data-name="Path 16188" class="cls-2" d="M105.411,237.806c4.9,5.964,9.986,11.782,15,17.652,4.674,5.475,9.341,10.954,14.063,16.387,9.383,10.8,18.972,21.427,29.164,31.47,5.746,5.663,11.669,11.175,17.883,16.322.222.183.542-.129.32-.32a377.255,377.255,0,0,1-30.958-29.866c-9.75-10.481-19.075-21.346-28.386-32.217-5.612-6.552-11.147-13.185-16.883-19.63-.123-.138-.315.062-.2.2Z" transform="translate(-58.013 -130.786)"/>
      <path id="Path_16189" data-name="Path 16189" class="cls-2" d="M105.268,226.793a341.194,341.194,0,0,0,26.625,34.174,357.647,357.647,0,0,0,30.93,30.976c6.074,5.379,12.315,10.588,18.773,15.5.186.142.438-.18.252-.327a380.638,380.638,0,0,1-32.6-28.462,360.693,360.693,0,0,1-28.968-32.153q-7.715-9.675-14.79-19.84c-.093-.133-.311-.008-.219.128Z" transform="translate(-57.941 -124.758)"/>
      <path id="Path_16190" data-name="Path 16190" class="cls-2" d="M173.094,289.577c-.265-.214-.525-.432-.789-.648a.194.194,0,0,0,.045-.309c-2.944-2.436-5.9-4.851-8.828-7.3q-4.749-4.366-9.219-9.037c-5.843-6.106-11.432-12.453-17.237-18.6-8.462-8.958-17.179-17.687-25.451-26.823-.376-.487-.758-.969-1.132-1.458-5.31-6.929-10.433-14-15.629-21.011-.111-.149-.365-.007-.254.148,4.315,6.03,8.672,12.039,13.139,17.964-1.006-1.151-2.011-2.3-3-3.471A198.909,198.909,0,0,1,88.8,197.458c-.093-.146-.322-.014-.232.135,6.5,10.832,14.573,20.654,23.063,30.016q5.45,7.052,11.187,13.87a338.735,338.735,0,0,0,30.492,31.6c3.293,3,6.635,5.975,10.051,8.859,3.021,2.779,6.128,5.466,9.352,8.023C172.98,290.175,173.366,289.8,173.094,289.577Zm-33.178-30.043a355.676,355.676,0,0,1-24.372-27.666q1.158,1.245,2.321,2.481c5.466,5.812,11.042,11.519,16.538,17.3,5.809,6.113,11.417,12.411,17.18,18.567q2.341,2.5,4.747,4.933c-.258-.229-.517-.455-.774-.685q-8.055-7.217-15.64-14.935Z" transform="translate(-48.747 -108.674)"/>
      <path id="Path_16191" data-name="Path 16191" class="cls-2" d="M67.381,191.188c-.207-.273-.4-.549-.6-.831l-.221.171c1.057,1.143,2.2,2.169,3.171,3.393a43.385,43.385,0,0,1,2.73,4.084.169.169,0,1,0,.292-.171,20.177,20.177,0,0,0-2.639-4.071,18.3,18.3,0,0,0-3.384-3.457c-.137-.1-.27.107-.171.221.225.261.44.523.653.792.076.1.246-.033.172-.132Z" transform="translate(-36.622 -104.758)"/>
      <path id="Path_16192" data-name="Path 16192" class="cls-2" d="M72.484,185.3a24.806,24.806,0,0,0,1.964,2.974q1.01,1.471,2.023,2.94c1.281,1.858,2.484,3.82,3.91,5.571.116.142.338-.04.249-.192-1.186-2.046-2.672-3.952-4.02-5.894q-.964-1.389-1.933-2.776a23.652,23.652,0,0,0-2.006-2.767c-.1-.1-.245.028-.188.145Z" transform="translate(-39.898 -101.918)"/>
      <path id="Path_16193" data-name="Path 16193" class="cls-2" d="M79.077,181.234c4.665,5.872,8.967,12.022,13.2,18.212.116.17.393.013.279-.163-4.083-6.326-8.62-12.332-13.3-18.223-.1-.124-.272.051-.174.174Z" transform="translate(-43.519 -99.658)"/>
      <path id="Path_16194" data-name="Path 16194" class="cls-2" d="M171.409,273.841c-6.33-5.782-12.668-11.54-18.8-17.532q-9.074-8.866-17.714-18.163Q117.41,219.33,101.8,198.881c-5.82-7.628-11.357-15.443-16.86-23.3-.087-.124-.29-.009-.205.12q1.648,2.5,3.343,4.983a.129.129,0,0,0-.135.192,305.564,305.564,0,0,0,26.8,36.842c9.949,11.821,20.6,23.037,31.457,34.018q9.157,9.259,18.477,18.353a.232.232,0,1,0,.328-.327c-10.848-10.818-21.783-21.547-32.289-32.7a422.1,422.1,0,0,1-29.989-35.1c-4.968-6.592-9.7-13.369-14.046-20.387,8.3,12.1,17.333,23.757,26.7,35.033q16.375,19.714,34.623,37.764c6.848,6.773,13.832,13.462,21.139,19.74C171.326,274.258,171.588,274,171.409,273.841Z" transform="translate(-46.64 -96.636)"/>
      <path id="Path_16195" data-name="Path 16195" class="cls-2" d="M90.437,174.178c9.339,13.283,19.417,26.082,29.869,38.5q15.788,18.766,33,36.265c6.458,6.565,13.04,13.016,19.829,19.24.191.175.474-.106.285-.285-11.793-11.163-23.3-22.6-34.306-34.548q-16.554-17.975-31.706-37.171c-5.736-7.264-11.263-14.682-16.744-22.139-.1-.135-.327-.007-.228.135Z" transform="translate(-49.776 -95.788)"/>
      <path id="Path_16196" data-name="Path 16196" class="cls-2" d="M96.972,172.757c9.129,12.424,18.872,24.426,28.946,36.092q15.278,17.7,31.8,34.268c6.175,6.19,12.435,12.324,18.913,18.2.211.191.523-.116.315-.315-11.248-10.635-22.317-21.414-32.916-32.7s-20.776-22.912-30.564-34.907c-5.562-6.814-10.947-13.763-16.285-20.752-.09-.12-.3,0-.206.121Z" transform="translate(-53.374 -95.017)"/>
      <path id="Path_16197" data-name="Path 16197" class="cls-2" d="M103.723,168.529c8.957,12.23,18.544,24.025,28.465,35.483q14.992,17.314,31.238,33.485,9.1,9.057,18.581,17.721c.212.193.523-.112.315-.315q-.838-.83-1.668-1.668c-.173-.174-.439.09-.27.27q.814.854,1.62,1.715l.315-.315c-11.125-10.293-21.951-20.893-32.353-31.917s-20.4-22.414-29.984-34.149c-5.479-6.71-10.782-13.555-16.036-20.441-.1-.132-.328,0-.225.135Z" transform="translate(-57.088 -92.681)"/>
      <path id="Path_16198" data-name="Path 16198" class="cls-2" d="M112.049,165.534c4.218,5.846,8.748,11.486,13.285,17.087s9.157,11.116,13.877,16.555q14.327,16.515,29.747,32.036c5.768,5.806,11.613,11.554,17.652,17.08.209.191.517-.112.315-.315q-.985-.964-1.972-1.926a.191.191,0,0,0-.27.27l1.929,1.969.315-.315c-10.513-10.023-20.869-20.174-30.8-30.774q-14.832-15.821-28.6-32.6c-5.195-6.327-10.174-12.818-15.273-19.22-.087-.109-.277.036-.195.15Z" transform="translate(-61.678 -91.029)"/>
      <path id="Path_16199" data-name="Path 16199" class="cls-2" d="M118.527,164.362c3.944,5.293,8.185,10.383,12.4,15.459q6.488,7.813,13.212,15.427,13.314,15.1,27.459,29.446c5.33,5.4,10.712,10.776,16.277,15.94.2.18.485-.106.294-.294-9.6-9.386-19.155-18.8-28.354-28.586s-18.121-19.808-26.768-30.074c-4.854-5.761-9.523-11.671-14.351-17.452-.077-.093-.243.032-.169.131Z" transform="translate(-65.243 -90.398)"/>
      <path id="Path_16200" data-name="Path 16200" class="cls-2" d="M139.171,182.55c7.147,8.477,14.76,16.6,22.308,24.721Q172.687,219.329,184.2,231.1c4.35,4.444,8.708,8.886,13.172,13.214a.2.2,0,0,0,.283-.283c-7.776-7.918-15.62-15.767-23.3-23.781q-11.39-11.887-22.492-24.047c-4.194-4.589-8.293-9.27-12.527-13.823-.107-.115-.27.053-.17.17Z" transform="translate(-76.601 -100.386)"/>
      <path id="Path_16201" data-name="Path 16201" class="cls-2" d="M211.955,248.918q-1.094-.939-2.185-1.881a.225.225,0,0,0-.07-.234c-6.329-5.913-12.683-11.768-18.756-17.95S179,216.326,173.322,209.791c-3.244-3.731-6.4-7.537-9.56-11.337-.12-.144-.315.06-.2.2a366.475,366.475,0,0,0,34.9,38.414l.282.27q-4.582-4.131-9.044-8.4-10.715-10.308-20.712-21.33-5.663-6.245-11.126-12.671c-.088-.1-.231.045-.147.147a400.758,400.758,0,0,0,41.207,43.066c3.465,3.138,6.969,6.247,10.556,9.254l-.011-.007c-.188-.113-.351.174-.171.292q1.2.783,2.4,1.559C211.9,249.381,212.14,249.076,211.955,248.918Z" transform="translate(-86.813 -107.303)"/>
      <path id="Path_16202" data-name="Path 16202" class="cls-2" d="M168.542,196.265A411.4,411.4,0,0,0,205.5,235.132c3.673,3.416,7.345,6.9,11.233,10.065.19.155.461-.1.275-.275-3.3-3.06-6.733-5.974-10.041-9.027q-4.9-4.52-9.659-9.184-9.587-9.384-18.617-19.316c-3.383-3.717-6.691-7.5-9.985-11.3-.1-.116-.262.051-.167.167Z" transform="translate(-92.772 -107.939)"/>
      <path id="Path_16203" data-name="Path 16203" class="cls-2" d="M181.87,199.446c2.543,3.07,5.338,5.955,8.05,8.875q4.014,4.322,8.1,8.576,8.23,8.579,16.732,16.891c3.191,3.125,6.346,6.34,9.711,9.279.177.154.427-.09.26-.26-2.787-2.855-5.753-5.544-8.609-8.328q-4.225-4.117-8.388-8.3-8.4-8.417-16.54-17.076c-3.067-3.253-6.018-6.638-9.166-9.812-.1-.1-.236.045-.15.15Z" transform="translate(-100.112 -109.702)"/>
      <path id="Path_16204" data-name="Path 16204" class="cls-2" d="M190.311,196.244c4.654,5.618,9.7,10.961,14.732,16.237s10.21,10.455,15.493,15.507c3,2.867,5.978,5.8,9.139,8.495.194.165.472-.1.284-.284-2.641-2.562-5.412-5-8.081-7.536q-3.94-3.745-7.8-7.574-7.779-7.722-15.222-15.773c-2.823-3.052-5.561-6.182-8.384-9.234-.1-.111-.258.051-.164.164Z" transform="translate(-104.756 -107.931)"/>
      <path id="Path_16205" data-name="Path 16205" class="cls-2" d="M197.26,194.872c2.2,2.832,4.736,5.446,7.116,8.127,2.4,2.706,4.82,5.4,7.29,8.045q7.08,7.582,14.709,14.625c2.9,2.677,5.82,5.388,8.906,7.853.207.166.5-.113.3-.3-5.183-4.672-10.443-9.214-15.423-14.113-5.016-4.932-9.8-10.08-14.508-15.307-2.723-3.025-5.329-6.237-8.238-9.084-.1-.1-.233.045-.151.151Z" transform="translate(-108.584 -107.183)"/>
      <path id="Path_16206" data-name="Path 16206" class="cls-2" d="M204.2,193.206c2.052,2.575,4.346,4.973,6.589,7.382q3.309,3.555,6.715,7.019,6.933,7.054,14.243,13.724,2.023,1.845,4.07,3.661.992.878,1.989,1.75.532.465,1.066.927c.1.09,1.427,1.268,1.192,1.348a.194.194,0,0,0-.1-.373l-.094.027a.2.2,0,0,0-.143.188.414.414,0,0,0,.76.27c.2-.36-.129-.728-.36-.964-.694-.706-1.521-1.316-2.267-1.969q-4.321-3.779-8.523-7.69-8.339-7.761-16.2-16.018c-2.963-3.108-5.772-6.373-8.785-9.43-.1-.1-.233.045-.15.15Z" transform="translate(-112.404 -106.269)"/>
      <path id="Path_16207" data-name="Path 16207" class="cls-2" d="M206.134,188.911c4.255,5.009,8.987,9.677,13.638,14.314q6.938,6.916,14.186,13.512c2.762,2.514,5.519,5.065,8.41,7.43.178.145.432-.1.257-.257l-.62-.561c-.156-.142-.385.084-.233.233l.6.584.257-.257c-4.867-4.445-9.86-8.74-14.653-13.271q-7.119-6.731-13.934-13.773c-2.6-2.684-5.107-5.469-7.74-8.122-.108-.109-.262.052-.166.166Z" transform="translate(-113.467 -103.892)"/>
      <path id="Path_16208" data-name="Path 16208" class="cls-2" d="M219.854,179.889c.467-.251-.2-.871-.567-.515-.347.339.03.884.234,1.154.634.839,1.379,1.614,2.068,2.406q4.453,5.109,9.117,10.029,9.2,9.713,19.173,18.657c3.789,3.4,7.625,6.783,11.618,9.941l.235-.3q-.633-.42-1.27-.836c-.177-.115-.326.158-.162.278q.616.449,1.237.893c.18.127.4-.162.235-.3-5.833-4.953-11.641-9.9-17.222-15.139q-8.421-7.911-16.291-16.385-2.188-2.355-4.331-4.75-1.043-1.165-2.075-2.339-.574-.653-1.144-1.308c-.235-.27-1.423-1.342-.961-1.657a.106.106,0,0,0,.107.182Z" transform="translate(-120.647 -98.694)"/>
      <path id="Path_16209" data-name="Path 16209" class="cls-2" d="M260.317,212.872q-2.424-2.056-4.816-4.146c-5-5.3-10.149-10.466-15.206-15.7-6.131-6.348-12.293-12.666-18.421-19.018-.13-.135-.336.071-.206.206,6.117,6.363,12.2,12.76,18.312,19.128,3.309,3.447,6.588,6.935,9.895,10.394-7.257-6.546-14.286-13.331-21.015-20.446-2.815-2.977-5.509-6.068-8.319-9.048-.1-.1-.244.048-.156.156,4.554,5.552,9.636,10.745,14.682,15.848q7.6,7.681,15.655,14.883,1.677,1.5,3.371,2.98,2.115,2.166,4.262,4.3c.193.191.478-.1.3-.3-.135-.147-.273-.293-.408-.44.594.5,1.188,1,1.788,1.49C260.231,213.32,260.515,213.041,260.317,212.872Z" transform="translate(-121.314 -95.774)"/>
      <path id="Path_16210" data-name="Path 16210" class="cls-2" d="M223.338,169.269c-.544-.32-1.076-.658-1.613-.989-.156-.1-.3.116-.189.245,4.608,5.2,9.593,10.1,14.579,14.935s10.1,9.583,15.237,14.28c2.922,2.67,5.807,5.4,8.8,7.985l.211-.363q-.886-.334-1.774-.661c-.184-.068-.317.241-.135.32q.9.383,1.793.761c.206.087.36-.225.211-.363-5.048-4.789-10.317-9.353-15.414-14.093s-10.131-9.545-15.039-14.479c-2.793-2.807-5.5-5.694-8.25-8.54l-.189.245c.555.3,1.112.6,1.66.91a.109.109,0,0,0,.11-.189Z" transform="translate(-121.941 -92.632)"/>
      <path id="Path_16211" data-name="Path 16211" class="cls-2" d="M229.559,169.82c4.645,5.239,9.636,10.2,14.66,15.077q7.485,7.259,15.356,14.1,1.143.994,2.295,1.978a8.9,8.9,0,0,0,1.856,1.542c.512.218,1.018-.209.5-.6a.154.154,0,0,0-.159,0l-.09.055a.151.151,0,0,0,.153.261c-.258.121-1.456-1.126-1.686-1.324q-.947-.812-1.89-1.628-1.753-1.517-3.486-3.053Q253.6,193.154,250.2,190q-6.722-6.245-13.159-12.794c-2.456-2.5-4.852-5.059-7.294-7.572-.121-.124-.3.061-.189.189Z" transform="translate(-126.361 -93.368)"/>
      <path id="Path_16212" data-name="Path 16212" class="cls-2" d="M238.526,172.015c.978,1.176,2.166,2.21,3.257,3.281q1.67,1.64,3.345,3.273,3.416,3.337,6.832,6.671c4.556,4.444,9.076,8.931,13.688,13.317.2.186.488-.105.3-.3-4.509-4.492-9.117-8.889-13.682-13.324q-3.358-3.261-6.718-6.52-1.748-1.694-3.5-3.386a46.151,46.151,0,0,0-3.371-3.168.108.108,0,0,0-.152.152Z" transform="translate(-131.3 -94.603)"/>
      <path id="Path_16213" data-name="Path 16213" class="cls-2" d="M253.249,179.029a51.148,51.148,0,0,0,4.866,5.3q2.535,2.655,5.137,5.248c3.492,3.49,7,7.052,10.771,10.245.19.16.458-.1.276-.276-3.486-3.434-7.142-6.7-10.618-10.144q-2.544-2.522-5.034-5.1-1.31-1.348-2.607-2.713a34.273,34.273,0,0,0-2.619-2.7c-.09-.075-.252.024-.174.135Z" transform="translate(-139.41 -98.476)"/>
      <path id="Path_16214" data-name="Path 16214" class="cls-3" d="M264.135,183.711c2.232,2.737,4.848,5.217,7.277,7.778s4.873,5.163,7.339,7.716l.322-.322c-.255-.2-.514-.4-.769-.611-.166-.135-.4.081-.239.239.23.231.456.464.686.694.208.208.523-.109.322-.322-2.433-2.584-4.9-5.133-7.36-7.695-2.443-2.546-4.795-5.276-7.423-7.632a.11.11,0,0,0-.155.156Z" transform="translate(-145.399 -101.04)"/>
      <path id="Path_16215" data-name="Path 16215" class="cls-3" d="M276.821,190.011c1.169,1.414,2.4,2.773,3.539,4.216,1.2,1.519,2.289,3.109,3.425,4.674.129.18.422.019.3-.177a44.4,44.4,0,0,0-7.108-8.87c-.106-.1-.248.049-.158.158Z" transform="translate(-152.383 -104.505)"/>
      <path id="Path_16216" data-name="Path 16216" class="cls-2" d="M288.028,266.96c1.691,1.855,3.724,3.469,5.586,5.152a68.32,68.32,0,0,0,5.435,4.839c.162.117.325-.129.2-.264a70.873,70.873,0,0,0-5.629-5.109c-1.789-1.6-3.53-3.365-5.464-4.789-.1-.076-.211.084-.132.17Z" transform="translate(-158.554 -146.867)"/>
      <path id="Path_16217" data-name="Path 16217" class="cls-2" d="M285.482,275.552a86.291,86.291,0,0,0,6.8,5.7,59.317,59.317,0,0,0,6.922,5.06c.164.094.364-.141.209-.27-2.157-1.83-4.622-3.358-6.866-5.092-2.337-1.807-4.576-3.742-6.907-5.556-.109-.085-.263.055-.156.156Z" transform="translate(-157.147 -151.603)"/>
      <path id="Path_16218" data-name="Path 16218" class="cls-2" d="M284.766,280.411c-.292-.158-.571-.315-.848-.5-.149-.1-.308.12-.187.243,1.959,2,4.216,3.766,6.32,5.61s4.187,3.789,6.391,5.539c.167.135.4-.085.241-.241-2.068-2-4.309-3.831-6.472-5.722-2.073-1.811-4.09-3.776-6.293-5.428l-.119.282a9.144,9.144,0,0,1,.857.4c.125.064.235-.121.11-.189Z" transform="translate(-156.18 -154.09)"/>
      <path id="Path_16219" data-name="Path 16219" class="cls-3" d="M282.459,285.732l.066-.051a.113.113,0,0,0,.018-.135.293.293,0,0,0-.388-.18.138.138,0,0,0-.1.1c-.174.686.857,1.278,1.273,1.674q1.55,1.471,3.109,2.931c2.02,1.9,3.98,3.938,6.138,5.68a.164.164,0,0,0,.232-.232c-1.631-1.766-3.5-3.346-5.259-4.983-.445-.414-5.253-4.948-5.247-4.954-.108.1.045.238.155.155Z" transform="translate(-155.272 -157.094)"/>
      <path id="Path_16220" data-name="Path 16220" class="cls-2" d="M279.792,294.538a1.494,1.494,0,0,0-.648-1.294c-.16-.126-.387.082-.231.231,2.472,2.35,5.021,4.623,7.556,6.9.168.151.475-.049.33-.255a1.712,1.712,0,0,0-.875-.692c-.182-.071-.306.227-.135.315a1.211,1.211,0,0,1,.645.588l.33-.255c-2.522-2.3-5.038-4.61-7.623-6.836l-.2.257a1.009,1.009,0,0,1,.629,1.037.109.109,0,0,0,.218,0Z" transform="translate(-153.521 -161.421)"/>
      <path id="Path_16221" data-name="Path 16221" class="cls-2" d="M279.572,300.594c-.468-.36-.944-.712-1.372-1.116-.172-.161-.433.112-.255.255,2.14,1.716,4.138,3.546,6.117,5.442.2.187.494-.108.3-.3q-.225-.215-.442-.437c-.164-.164-.391.077-.249.249s.265.321.394.485l.3-.3a47.406,47.406,0,0,0-6.2-5.428l-.18.311a17.98,17.98,0,0,1,1.48,1.021C279.576,300.867,279.682,300.678,279.572,300.594Z" transform="translate(-152.985 -164.847)"/>
      <path id="Path_16222" data-name="Path 16222" class="cls-2" d="M277.7,306.589a30.325,30.325,0,0,0,4.014,3.925.162.162,0,1,0,.23-.23,30.354,30.354,0,0,0-4.087-3.852.111.111,0,1,0-.156.156Z" transform="translate(-152.866 -168.685)"/>
      <path id="Path_16223" data-name="Path 16223" class="cls-3" d="M276.908,310.712a2.757,2.757,0,0,0,2.455,2.134.17.17,0,0,0,.045-.333,2.936,2.936,0,0,1-2.208-1.881.151.151,0,0,0-.292.08Z" transform="translate(-152.445 -170.957)"/>
      <path id="Path_16224" data-name="Path 16224" class="cls-2" d="M132,345.792q-.613-.582-1.227-1.161a.236.236,0,0,0,.092-.39q-20.969-20.721-40.6-42.735c-3.686-4.147-7.365-8.3-10.976-12.514-.11-.129-.294.057-.185.185Q98.148,311.7,118.759,332.8q3.74,3.825,7.539,7.591c-5.289-4.995-10.574-9.991-15.748-15.11q-10.485-10.375-20.592-21.125c-3.82-4.062-7.555-8.2-11.376-12.263-.114-.121-.287.058-.18.18,6.462,7.482,13.34,14.636,20.217,21.734q10.265,10.594,20.915,20.8c4.024,3.859,8.054,7.721,12.215,11.433C131.921,346.2,132.174,345.953,132,345.792Z" transform="translate(-43.144 -159.078)"/>
      <path id="Path_16225" data-name="Path 16225" class="cls-4" d="M51.347,267.81a23.8,23.8,0,0,0,3.806,4.884c.173.18.438-.09.272-.272-1.378-1.528-2.58-3.179-3.915-4.738-.079-.093-.218.026-.164.126Z" transform="translate(-28.262 -147.352)"/>
      <path id="Path_16226" data-name="Path 16226" class="cls-4" d="M55.625,269.233a20.865,20.865,0,0,0,2.01,2.823c.569.764,1.114,1.556,1.748,2.267a.165.165,0,0,0,.258-.2c-.564-.893-1.25-1.716-1.888-2.557a18.85,18.85,0,0,0-1.967-2.458.1.1,0,0,0-.162.125Z" transform="translate(-30.616 -148.139)"/>
      <path id="Path_16227" data-name="Path 16227" class="cls-4" d="M62.959,278.669a.188.188,0,1,0-.179-.188A.188.188,0,0,0,62.959,278.669Z" transform="translate(-34.562 -153.211)"/>
      <path id="Path_16228" data-name="Path 16228" class="cls-4" d="M59.5,269.309a40.993,40.993,0,0,0,3.99,5.217c.135.155.4-.049.289-.225a.758.758,0,0,0-.545-.378.138.138,0,1,0-.073.266l.3.3.289-.225c-1.393-1.675-2.707-3.4-4.049-5.111-.09-.115-.277.034-.2.155Z" transform="translate(-32.744 -148.155)"/>
      <path id="Path_16229" data-name="Path 16229" class="cls-4" d="M64.342,269.993c.551.8,1.2,1.534,1.824,2.279.392.472.907,1.492,1.573,1.534a.18.18,0,0,0,.155-.09.285.285,0,0,0-.076-.4.169.169,0,0,0-.228,0l-.048.037c-.15.117.042.3.186.241-.056.024-1.462-1.753-1.589-1.9-.53-.618-1.048-1.256-1.63-1.825-.083-.081-.236.026-.166.128Z" transform="translate(-35.413 -148.555)"/>
      <path id="Path_16230" data-name="Path 16230" class="cls-4" d="M67.628,268.511a23.659,23.659,0,0,0,2.806,3.789.165.165,0,0,0,.258-.2,18.993,18.993,0,0,0-1.339-1.794c-.5-.652-1-1.319-1.56-1.924a.107.107,0,0,0-.167.129Z" transform="translate(-37.224 -147.738)"/>
      <path id="Path_16231" data-name="Path 16231" class="cls-4" d="M71.26,268.512a14.1,14.1,0,0,0,1.161,1.573,15.675,15.675,0,0,0,1.364,1.666.17.17,0,0,0,.267-.206A14.488,14.488,0,0,0,72.842,270a15.215,15.215,0,0,0-1.405-1.624.113.113,0,0,0-.178.135Z" transform="translate(-39.224 -147.735)"/>
      <path id="Path_16232" data-name="Path 16232" class="cls-4" d="M74.413,269.479a5.479,5.479,0,0,0,1.753,1.852.16.16,0,0,0,.192-.249c-.291-.3-.612-.556-.911-.845s-.574-.6-.868-.885a.105.105,0,0,0-.164.127Z" transform="translate(-40.961 -148.273)"/>
      <path id="Path_16233" data-name="Path 16233" class="cls-4" d="M78.634,268.475a2.842,2.842,0,0,0,1.353,1.289c.155.062.284-.174.162-.279-.225-.193-.476-.345-.7-.539s-.438-.4-.646-.6a.108.108,0,0,0-.169.131Z" transform="translate(-43.283 -147.717)"/>
      <path id="Path_16234" data-name="Path 16234" class="cls-4" d="M82.093,266.769a4.854,4.854,0,0,0,.618.782c.26.216.52,0,.441-.3a.148.148,0,0,0-.283,0,.639.639,0,0,0-.018.067q.076-.07.032-.037c.191-.09.121.04.071-.032a2.027,2.027,0,0,0-.192-.187c-.156-.165-.3-.334-.476-.484a.137.137,0,0,0-.193.193Z" transform="translate(-45.173 -146.739)"/>
      <path id="Path_16235" data-name="Path 16235" class="cls-4" d="M85.25,265.415a6.851,6.851,0,0,0,.728.9.149.149,0,0,0,.233-.18,7.036,7.036,0,0,0-.755-.923c-.124-.145-.317.062-.205.205Z" transform="translate(-46.914 -145.982)"/>
      <path id="Path_16236" data-name="Path 16236" class="cls-4" d="M88.467,263.945c0,.069,0,.135.009.205a.117.117,0,0,0,.235,0c0-.068.007-.135.009-.205a.126.126,0,1,0-.253,0Z" transform="translate(-48.704 -145.243)"/>
      <path id="Path_16237" data-name="Path 16237" class="cls-4" d="M84.1,363.162c.987,1.507,2.388,2.817,3.517,4.225,1.21,1.511,2.272,3.146,3.5,4.638.135.165.394-.045.291-.225a36.446,36.446,0,0,0-3.269-4.441,25.741,25.741,0,0,0-3.874-4.327c-.086-.067-.238.018-.166.128Z" transform="translate(-46.291 -199.85)"/>
      <path id="Path_16238" data-name="Path 16238" class="cls-4" d="M83.166,355.7a53.053,53.053,0,0,0,3.926,4.935c1.412,1.687,2.787,3.461,4.341,5.019.144.144.424-.053.292-.225-1.281-1.663-2.739-3.208-4.094-4.813-1.417-1.678-2.749-3.488-4.3-5.047-.083-.084-.234.026-.167.129Z" transform="translate(-45.777 -195.74)"/>
      <path id="Path_16239" data-name="Path 16239" class="cls-4" d="M82.639,346.764c1.568,1.93,3.181,3.82,4.772,5.733a72.341,72.341,0,0,0,4.933,5.6c.182.18.431-.085.275-.275-1.58-1.908-3.348-3.681-5.006-5.523s-3.24-3.77-4.807-5.7c-.1-.118-.262.05-.167.167Z" transform="translate(-45.48 -190.793)"/>
      <path id="Path_16240" data-name="Path 16240" class="cls-4" d="M82.5,331.083a98.631,98.631,0,0,0,10.1,11.7.169.169,0,0,0,.239-.239c-3.485-3.794-7.012-7.475-10.152-11.569C82.6,330.866,82.413,330.974,82.5,331.083Z" transform="translate(-45.405 -182.189)"/>
      <path id="Path_16241" data-name="Path 16241" class="cls-4" d="M79.8,318.494c1.727,2.475,3.758,4.773,5.663,7.111,1.973,2.421,3.88,4.975,6.043,7.23.135.14.4-.049.276-.213-1.8-2.429-3.881-4.678-5.812-7-2-2.407-3.887-4.95-6-7.254-.081-.09-.238.029-.168.13Z" transform="translate(-43.923 -175.254)"/>
      <path id="Path_16242" data-name="Path 16242" class="cls-4" d="M80.85,312.662a112.474,112.474,0,0,0,10.612,12.855c.175.174.427-.085.27-.27-3.637-4.189-7.348-8.248-10.652-12.717-.1-.135-.326,0-.225.132Z" transform="translate(-44.499 -172.029)"/>
      <path id="Path_16243" data-name="Path 16243" class="cls-4" d="M79.733,302.684a145.519,145.519,0,0,0,9.63,12.414c.154.175.473-.063.328-.253-1.553-2.043-3.227-4-4.819-6.013-1.655-2.094-3.268-4.221-4.926-6.313-.095-.12-.3.039-.213.164Z" transform="translate(-43.884 -166.525)"/>
      <path id="Path_16244" data-name="Path 16244" class="cls-4" d="M79.307,292.641q2.24,2.846,4.468,5.7c1.483,1.9,2.889,3.883,4.459,5.708.135.157.413-.053.29-.225-1.379-1.917-2.942-3.715-4.411-5.564q-2.309-2.9-4.6-5.822c-.115-.146-.317.059-.2.2Z" transform="translate(-43.642 -160.972)"/>
      <path id="Path_16245" data-name="Path 16245" class="cls-4" d="M77.709,282.123c3.028,3.809,5.922,7.78,9.129,11.44.143.163.436-.057.3-.235-2.891-3.931-6.151-7.624-9.226-11.413C77.8,281.768,77.593,281.977,77.709,282.123Z" transform="translate(-42.762 -155.178)"/>
      <path id="Path_16246" data-name="Path 16246" class="cls-4" d="M82.88,278.976c3.125,4.05,6.1,8.261,9.406,12.165.144.17.443-.057.312-.24-2.973-4.165-6.325-8.081-9.484-12.105-.1-.132-.338.045-.234.18Z" transform="translate(-45.614 -153.462)"/>
      <path id="Path_16247" data-name="Path 16247" class="cls-4" d="M87.294,274.574c1.81,2.354,3.6,4.779,5.554,7.018.144.166.44-.057.308-.238-1.749-2.4-3.714-4.688-5.607-6.976-.116-.14-.368.05-.255.2Z" transform="translate(-48.043 -151.029)"/>
      <path id="Path_16248" data-name="Path 16248" class="cls-4" d="M92.887,270.046a25.207,25.207,0,0,1,3.789,5.865c.086.18.4.05.324-.135a21.249,21.249,0,0,0-3.876-5.965c-.145-.161-.379.076-.237.237Z" transform="translate(-51.113 -148.512)"/>
      <path id="Path_16249" data-name="Path 16249" class="cls-4" d="M95.136,263.179a17.1,17.1,0,0,0,3.88,4.674.191.191,0,0,0,.27-.27c-1.31-1.528-2.7-2.977-3.984-4.533-.078-.094-.225.027-.167.129Z" transform="translate(-52.368 -144.802)"/>
      <path id="Path_16250" data-name="Path 16250" class="cls-4" d="M96.617,251.045a32.015,32.015,0,0,0,2.691,4.17c.142.159.351-.045.275-.212a31.947,31.947,0,0,0-2.7-4.113c-.109-.165-.374-.013-.267.156Z" transform="translate(-53.177 -138.086)"/>
      <path id="Path_16251" data-name="Path 16251" class="cls-4" d="M100.31,244.709a14.518,14.518,0,0,1,.879,1.269c.262.441.441.944.729,1.364a.166.166,0,0,0,.3-.127,6.368,6.368,0,0,0-1.669-2.692C100.434,244.4,100.2,244.568,100.31,244.709Z" transform="translate(-55.209 -134.596)"/>
      <path id="Path_16252" data-name="Path 16252" class="cls-4" d="M101.308,238.978c.156.16.305.326.473.473a.174.174,0,0,0,.245-.245c-.147-.168-.315-.318-.473-.473a.174.174,0,1,0-.245.245Z" transform="translate(-55.745 -131.404)"/>
      <path id="Path_16253" data-name="Path 16253" class="cls-4" d="M63.306,192.887a26.046,26.046,0,0,0,2.766,2.564c.918.857,1.769,1.8,2.721,2.621a.177.177,0,0,0,.25-.25,26.094,26.094,0,0,0-2.8-2.787,14.734,14.734,0,0,0-2.814-2.31.1.1,0,0,0-.125.161Z" transform="translate(-34.837 -106.096)"/>
      <path id="Path_16254" data-name="Path 16254" class="cls-4" d="M68.476,188.351q.543-.23.722.375l.329.436q.329.436.661.87.719.941,1.442,1.879c.9,1.163,1.753,2.386,2.73,3.484a.185.185,0,0,0,.289-.225c-1.321-1.971-2.905-3.8-4.372-5.669-.337-.428-.936-1.637-1.583-1.665-.347-.016-.483.252-.43.542.022.123.209.09.212-.029Z" transform="translate(-37.576 -103.412)"/>
      <path id="Path_16255" data-name="Path 16255" class="cls-4" d="M76.366,185.129a39.285,39.285,0,0,0,2.882,3.827c.95,1.288,1.8,2.66,2.771,3.926.148.192.462.029.335-.2a37.876,37.876,0,0,0-2.846-4.087,21.1,21.1,0,0,0-2.971-3.6.11.11,0,0,0-.172.132Z" transform="translate(-42.035 -101.833)"/>
      <path id="Path_16256" data-name="Path 16256" class="cls-4" d="M81.772,178.7c.985,1.583,2.277,3.011,3.41,4.49,1.079,1.41,2.086,2.895,3.232,4.251.143.17.426-.051.307-.237-.956-1.493-2.11-2.877-3.2-4.278a40.23,40.23,0,0,0-3.581-4.357.109.109,0,0,0-.17.132Z" transform="translate(-45.009 -98.295)"/>
      <path id="Path_16257" data-name="Path 16257" class="cls-4" d="M88.243,175.819c.883,1.337,1.881,2.6,2.844,3.882.9,1.193,1.753,2.452,2.745,3.57a.194.194,0,0,0,.3-.234c-.816-1.251-1.8-2.409-2.717-3.591-.979-1.267-1.936-2.562-2.991-3.768-.087-.1-.258.031-.184.142Z" transform="translate(-48.571 -96.699)"/>
      <path id="Path_16258" data-name="Path 16258" class="cls-4" d="M94.137,173.068c.872,1.274,1.888,2.461,2.85,3.667,1.026,1.286,2.01,2.652,3.146,3.842.142.149.409-.048.29-.225-.868-1.276-1.918-2.447-2.894-3.641-1.042-1.276-2.05-2.607-3.184-3.8-.1-.107-.294.035-.208.16Z" transform="translate(-51.814 -95.173)"/>
      <path id="Path_16259" data-name="Path 16259" class="cls-4" d="M101.926,171.605c.737,1.063,1.6,2.044,2.419,3.041.889,1.079,1.746,2.211,2.723,3.211.15.154.438-.052.306-.236-.755-1.052-1.645-2.018-2.483-3-.9-1.065-1.785-2.171-2.778-3.156-.093-.093-.267.03-.188.145Z" transform="translate(-56.103 -94.379)"/>
      <path id="Path_16260" data-name="Path 16260" class="cls-4" d="M110.421,170.439a48.607,48.607,0,0,0,4.617,5.591c.156.162.458-.057.319-.246a48.668,48.668,0,0,0-4.716-5.515c-.109-.109-.315.036-.22.17Z" transform="translate(-60.777 -93.72)"/>
      <path id="Path_16261" data-name="Path 16261" class="cls-4" d="M115.854,166.987a17.225,17.225,0,0,1,2.1,1.831c.64.695,1.075,1.51,1.652,2.247.114.145.365-.012.307-.18a8.27,8.27,0,0,0-3.9-4.109c-.128-.064-.292.112-.164.212Z" transform="translate(-63.756 -91.81)"/>
      <path id="Path_16262" data-name="Path 16262" class="cls-4" d="M121.433,166.188a2.864,2.864,0,0,1,1.438,1.669.187.187,0,0,0,.36-.1,2.517,2.517,0,0,0-1.675-1.871.165.165,0,0,0-.127.3Z" transform="translate(-66.809 -91.326)"/>
      <path id="Path_16263" data-name="Path 16263" class="cls-4" d="M277.116,309.624a6.29,6.29,0,0,0,1.142,1.144,12.324,12.324,0,0,0,1.237,1.073c.174.121.342-.135.216-.28a12.693,12.693,0,0,0-1.244-1.134,6,6,0,0,0-1.2-.952c-.09-.045-.211.05-.148.148Z" transform="translate(-152.552 -170.372)"/>
      <path id="Path_16264" data-name="Path 16264" class="cls-4" d="M277.287,303.145c.881.814,1.834,1.549,2.725,2.352s1.7,1.708,2.611,2.492a.189.189,0,0,0,.267-.267,30.112,30.112,0,0,0-5.472-4.748.109.109,0,0,0-.132.17Z" transform="translate(-152.638 -166.792)"/>
      <path id="Path_16265" data-name="Path 16265" class="cls-4" d="M280.045,296.727c.854,1.1,1.855,2.09,2.808,3.1a33.541,33.541,0,0,0,2.906,3c.14.116.4-.04.276-.213a32.392,32.392,0,0,0-2.757-2.96c-1-1.045-1.982-2.141-3.079-3.088a.109.109,0,1,0-.155.155Z" transform="translate(-154.156 -163.257)"/>
      <path id="Path_16266" data-name="Path 16266" class="cls-4" d="M280.677,288.614a25.1,25.1,0,0,0,2.478,2.9q1.388,1.537,2.819,3.035.683.719,1.374,1.427a7.979,7.979,0,0,0,1.186,1.189c.284.18.752.233.69-.244a.2.2,0,0,0-.135-.18l-.084-.03c-.193-.068-.3.217-.135.32-.04-.026-.24-.417-.3-.491-.153-.18-.34-.343-.507-.512q-.506-.513-1.007-1.03-1.066-1.1-2.118-2.21a54.984,54.984,0,0,0-4.074-4.319c-.095-.08-.261.023-.183.141Z" transform="translate(-154.511 -158.799)"/>
      <path id="Path_16267" data-name="Path 16267" class="cls-4" d="M283.573,282.971a36.6,36.6,0,0,1,4.082,4.017,13.465,13.465,0,0,0,4.142,3.544.2.2,0,0,0,.205-.352,22.476,22.476,0,0,1-4.31-3.826,16.123,16.123,0,0,0-3.953-3.6c-.131-.071-.292.113-.166.216Z" transform="translate(-156.091 -155.659)"/>
      <path id="Path_16268" data-name="Path 16268" class="cls-4" d="M286.144,276.261a20.756,20.756,0,0,0,5.66,6.049c.183.122.386-.151.232-.3-.977-.961-2.041-1.819-2.99-2.814s-1.788-2.064-2.66-3.121c-.112-.135-.336.04-.244.188Z" transform="translate(-157.519 -151.962)"/>
      <path id="Path_16269" data-name="Path 16269" class="cls-4" d="M286.9,269.642a14.271,14.271,0,0,0,2.857,3.511,15.518,15.518,0,0,0,3.618,2.739.21.21,0,1,0,.212-.363,36.428,36.428,0,0,1-3.612-2.813c-1.053-1.008-1.883-2.167-2.844-3.252-.115-.13-.306.035-.232.18Z" transform="translate(-157.938 -148.324)"/>
      <path id="Path_16270" data-name="Path 16270" class="cls-4" d="M288.807,262.591c.7.682,1.4,1.366,2.068,2.086s1.228,1.544,1.933,2.207a.174.174,0,0,0,.272-.21,12.459,12.459,0,0,0-1.814-2.169,26.628,26.628,0,0,0-2.242-2.127c-.147-.123-.356.076-.214.214Z" transform="translate(-158.973 -144.428)"/>
      <path id="Path_16271" data-name="Path 16271" class="cls-4" d="M291.319,260.586a3.782,3.782,0,0,0,.739.74.169.169,0,0,0,.229-.229,3.78,3.78,0,0,0-.744-.735.159.159,0,0,0-.225.225Z" transform="translate(-160.355 -143.314)"/>
      <path id="Path_16272" data-name="Path 16272" class="cls-4" d="M81.977,337.536a52.918,52.918,0,0,0,4.18,5.831,42.581,42.581,0,0,0,4.944,5.6.172.172,0,0,0,.243-.243c-1.47-1.86-3.164-3.551-4.66-5.394-1.561-1.927-2.959-3.965-4.46-5.936-.109-.143-.346-.019-.249.145Z" transform="translate(-45.118 -185.713)"/>
      <path id="Path_16273" data-name="Path 16273" class="cls-2" d="M110.649,363.779c-3.74-4.857-7.881-9.455-11.944-14.041q-6.243-7.047-12.77-13.839c-.12-.125-.31.064-.191.191q6.391,6.765,12.53,13.76c4.1,4.661,7.968,9.511,12.04,14.188C110.472,364.219,110.8,363.973,110.649,363.779Z" transform="translate(-47.184 -184.903)"/>
      <path id="Path_16274" data-name="Path 16274" class="cls-2" d="M124.547,356.062c-6.226-6.472-12.685-12.725-18.947-19.164S93.132,323.963,86.992,317.4c-.131-.14-.34.07-.21.21q9.169,9.875,18.531,19.568c6.237,6.449,12.439,12.987,18.962,19.147a.191.191,0,1,0,.272-.268Z" transform="translate(-47.754 -174.718)"/>
      <path id="Path_16275" data-name="Path 16275" class="cls-2" d="M135.132,339.473c-7.512-7.222-14.912-14.525-22.047-22.123-7.082-7.541-13.961-15.268-20.8-23.03q-5.83-6.618-11.593-13.293c-.111-.128-.3.058-.185.185,13.582,15.706,27.094,31.485,41.66,46.3,4.116,4.186,8.278,8.352,12.622,12.3C135.019,340.023,135.357,339.69,135.132,339.473Z" transform="translate(-44.304 -154.693)"/>
      <path id="Path_16276" data-name="Path 16276" class="cls-2" d="M181.4,328.989c-5.9-4.928-11.755-9.878-17.365-15.137q-2.677-2.509-5.291-5.084c-3.591-4.745-7.079-9.523-11.035-13.989-4.647-5.245-9.587-10.218-14.325-15.379-4.959-5.4-9.656-11.033-14.206-16.782-5.2-6.574-10.168-13.327-15.234-20.007-.1-.135-.335-.006-.232.135a434.4,434.4,0,0,0,27.246,34.684c4.868,5.46,10.033,10.646,14.937,16.074,3.7,4.1,7.045,8.417,10.356,12.8q-4.256-4.25-8.379-8.63c-10.528-11.175-20.459-22.9-30.157-34.792-5.439-6.674-10.726-13.479-16.214-20.113-.09-.109-.285.039-.2.153,4.617,6.042,9.424,11.948,14.2,17.865q7.265,9,14.743,17.834c8.907,10.455,18.146,20.642,27.951,30.264l.354.471.228.3c-5.123-4.912-10.247-9.821-15.281-14.824-4.92-4.895-9.753-9.881-14.369-15.068s-8.908-10.648-13.131-16.171a170.669,170.669,0,0,0-14.357-17.041.14.14,0,0,0-.2.2c9.532,9.574,16.746,21.187,25.567,31.384,9.124,10.548,19.2,20.209,29.212,29.9q2.75,2.663,5.484,5.345a45.253,45.253,0,0,0,8.12,7.883q2.142,2.052,4.308,4.079a.254.254,0,0,0,.36-.36c-.665-.669-1.337-1.332-2.006-2,.169.1.335.2.507.293.267.147.5-.259.238-.408-.8-.449-1.573-.939-2.32-1.454q-4.741-4.681-9.557-9.287-.324-.4-.644-.809c.343.33.681.666,1.026.995a236.454,236.454,0,0,0,19.446,16.957C181.341,329.4,181.557,329.121,181.4,328.989Z" transform="translate(-55.757 -133.536)"/>
      <path id="Path_16277" data-name="Path 16277" class="cls-2" d="M181.983,323.494c-5.859-4.03-10.625-9.517-15.462-14.669q-7.339-7.815-14.478-15.815C142.408,282.242,133,271.272,123.67,260.24c-5.205-6.154-10.374-12.339-15.6-18.475-.121-.142-.32.062-.2.2,18.42,22.45,37.192,44.686,57.017,65.914,5.254,5.626,10.42,11.724,16.826,16.083C182,324.163,182.271,323.692,181.983,323.494Z" transform="translate(-59.365 -133.075)"/>
      <path id="Path_16278" data-name="Path 16278" class="cls-2" d="M172.6,271.126c-10.891-10.074-21.626-20.226-31.755-31.08q-15.163-16.247-28.815-33.821c-5.216-6.7-10.278-13.52-15.123-20.5-.1-.14-.329-.007-.231.135,8.46,12.19,17.387,24.038,26.918,35.412q14.342,17.116,30.233,32.853c5.984,5.929,12.069,11.818,18.453,17.317C172.5,271.634,172.818,271.326,172.6,271.126Z" transform="translate(-53.211 -102.218)"/>
      <path id="Path_16279" data-name="Path 16279" class="cls-2" d="M179.783,269.451q-4.156-4.161-8.348-8.287c1.165,1.021,2.33,2.041,3.506,3.048.267.229.658-.157.389-.389A421.448,421.448,0,0,1,143.9,233.876,418.683,418.683,0,0,1,115.668,200.7c-4.972-6.5-9.8-13.122-14.376-19.906-.1-.151-.35-.009-.247.144A412.242,412.242,0,0,0,126.933,215.6a412,412,0,0,0,29.707,31.946q5.675,5.491,11.566,10.755a.132.132,0,0,0,.04.116c3.767,3.757,7.5,7.551,11.272,11.3a.187.187,0,0,0,.265-.264Z" transform="translate(-55.615 -99.501)"/>
      <path id="Path_16280" data-name="Path 16280" class="cls-2" d="M175.38,254.373a353.092,353.092,0,0,1-31.3-30.345c-9.81-10.686-19.117-21.822-28.227-33.107q-7.741-9.591-15.4-19.25c-.105-.135-.291.055-.187.187,9.034,11.458,18,22.966,27.368,34.153,9.3,11.1,18.968,21.915,29.26,32.109,5.824,5.768,11.844,11.345,18.116,16.624C175.265,254.959,175.639,254.592,175.38,254.373Z" transform="translate(-55.182 -94.487)"/>
      <path id="Path_16281" data-name="Path 16281" class="cls-2" d="M184.094,250.244c-4.983-4.547-10.165-8.86-15.082-13.484s-9.7-9.379-14.351-14.264a375.932,375.932,0,0,1-26.229-30.719q-6.852-8.949-13.173-18.286c-.1-.145-.334-.009-.236.138a363.471,363.471,0,0,0,51.649,61.634,228.059,228.059,0,0,0,17.107,15.295C184,250.729,184.311,250.441,184.094,250.244Z" transform="translate(-63.312 -95.48)"/>
      <path id="Path_16282" data-name="Path 16282" class="cls-2" d="M193.471,250.251c-9.16-8.336-18.246-16.678-26.849-25.6q-12.88-13.356-24.609-27.758-6.726-8.246-13.08-16.782c-.1-.138-.34-.006-.236.138a419.827,419.827,0,0,0,48.868,56.078c5.057,4.877,10.185,9.74,15.562,14.267C193.363,250.792,193.705,250.463,193.471,250.251Z" transform="translate(-70.839 -99.127)"/>
      <path id="Path_16283" data-name="Path 16283" class="cls-2" d="M204.613,253.883a540.15,540.15,0,0,1-43.5-43.6c-3.86-4.358-7.686-8.759-11.386-13.255-.11-.135-.3.058-.191.191A503.677,503.677,0,0,0,191.4,242.395c4.221,4.015,8.5,7.978,12.879,11.821C204.508,254.411,204.838,254.085,204.613,253.883Z" transform="translate(-82.309 -108.45)"/>
      <path id="Path_16284" data-name="Path 16284" class="cls-2" d="M224.88,248.128c-5.528-6-11.408-11.713-17.058-17.606s-11.286-11.818-16.882-17.772c-3.167-3.371-6.364-6.713-9.5-10.113-.121-.131-.315.065-.2.2,11.077,12.023,22.2,23.989,33.569,35.737,3.211,3.318,6.363,6.73,9.7,9.918a.255.255,0,0,0,.36-.36Z" transform="translate(-99.762 -111.537)"/>
      <path id="Path_16285" data-name="Path 16285" class="cls-2" d="M229.219,240.511c-6.877-6.242-13.675-12.535-20.171-19.178s-12.732-13.49-18.739-20.573c-.111-.131-.3.058-.188.188A327.911,327.911,0,0,0,228.89,240.84C229.115,241.033,229.442,240.715,229.219,240.511Z" transform="translate(-104.65 -110.503)"/>
      <path id="Path_16286" data-name="Path 16286" class="cls-2" d="M239.4,230.842c-13.085-9.986-22.808-23.4-34.965-34.375-.135-.121-.334.076-.2.2,12.022,11.105,21.664,24.822,34.938,34.564C239.407,231.4,239.625,231.014,239.4,230.842Z" transform="translate(-112.413 -108.142)"/>
      <path id="Path_16287" data-name="Path 16287" class="cls-2" d="M258.051,227.289q-4.769-3.751-9.415-7.63a.168.168,0,0,0,.122-.278q-2.032-2.264-4.071-4.52,1.246,1.02,2.517,2.006c.126.1.28-.032.294-.165a99.166,99.166,0,0,1,9.074,8.055.2.2,0,0,0,.283-.283,58.142,58.142,0,0,0-10.12-8.7.123.123,0,0,0-.184.039q-2.095-1.753-4.175-3.518-12.757-14.138-25.558-28.238c-.125-.138-.327.067-.2.2q11.85,13.115,23.673,26.253c-2.2-1.9-4.378-3.82-6.5-5.81q-6.607-6.179-12.737-12.843-1.75-1.9-3.458-3.842-.8-.9-1.588-1.816l-.9-1.045a6.382,6.382,0,0,1-.8-1.082.108.108,0,0,0,.079.018l.1-.015a.1.1,0,0,0,.075-.075c.058-.3-.266-.6-.531-.369-.658.566,1.237,2.239,1.508,2.556q3.523,4.13,7.242,8.086,7.311,7.791,15.308,14.9c1.558,1.385,3.131,2.765,4.726,4.116q2.784,3.075,5.571,6.146a309.4,309.4,0,0,1-25.392-23.642c-3.056-3.207-5.943-6.578-9.008-9.776-.131-.135-.315.062-.2.2,2.435,3.074,5.177,5.944,7.86,8.8q4.112,4.377,8.4,8.588,8.422,8.26,17.473,15.844c3.356,2.811,6.756,5.59,10.263,8.212C257.977,227.823,258.262,227.456,258.051,227.289Z" transform="translate(-117.669 -101.055)"/>
      <path id="Path_16288" data-name="Path 16288" class="cls-2" d="M288.254,246.787c-4.857-5.2-9.97-10.149-15.229-14.941-.131-.12-.328.076-.2.2,5.256,4.795,10.271,9.843,15.132,15.038C288.141,247.274,288.434,246.982,288.254,246.787Z" transform="translate(-150.177 -127.62)"/>
      <path id="Path_16289" data-name="Path 16289" class="cls-2" d="M305.811,284.089l-8.039-7.382c-.135-.123-.334.076-.2.2l8.039,7.382C305.745,284.411,305.945,284.212,305.811,284.089Z" transform="translate(-163.799 -152.317)"/>
      <path id="Path_16290" data-name="Path 16290" class="cls-2" d="M248.836,293.962a220.192,220.192,0,0,0-20.342-20.106c-.131-.114-.323.076-.192.192a237.578,237.578,0,0,1,20.216,20.229C248.711,294.5,249.026,294.178,248.836,293.962Z" transform="translate(-125.664 -150.75)"/>
      <path id="Path_16291" data-name="Path 16291" class="cls-5" d="M25.971,122.055a16.414,16.414,0,0,0,.558-9.293,35.733,35.733,0,0,0-1.407-5.082c-.553-1.593-1.294-3.153-1.762-4.771a2.013,2.013,0,0,1,1.235-2.757,3.269,3.269,0,0,1,2.677.539,10.145,10.145,0,0,1,3.269,3.706c1.618,2.91,2.148,6.231,2.859,9.439a42.152,42.152,0,0,0,1.608,5.432A23.977,23.977,0,0,1,36.581,125c.029.27.452.278.43,0-.3-3.727-2.227-7.151-3.061-10.774-.809-3.506-1.334-7.16-3.175-10.316-1.2-2.052-3.96-5.357-6.7-4.012a2.347,2.347,0,0,0-1.148,2.951c.527,1.9,1.424,3.723,2.054,5.6,1.5,4.477,2.168,8.953.794,13.551-.039.129.147.171.2.054Z" transform="translate(-12.552 -54.829)"/>
      <path id="Path_16292" data-name="Path 16292" class="cls-5" d="M13.309,149.625c-1.719.865-3.386,1.84-5.061,2.787a19.032,19.032,0,0,0-4.221,2.607,5,5,0,0,0-1.219,3.461,8.59,8.59,0,0,1-1.127,4.667,7.975,7.975,0,0,0-1.658,3.286c-.165,1.388.575,2.625,1,3.9a3.886,3.886,0,0,1,.1,2.506,14.7,14.7,0,0,0-.761,2.256c-.218,1.477.552,2.828.978,4.192.767,2.455-.4,7.346,3.166,8.084.262.054.375-.337.111-.4-3.29-.839-2.092-5.541-2.884-7.947-.482-1.466-1.25-2.861-.782-4.441.366-1.236.992-2.241.732-3.575-.246-1.264-1-2.375-1.185-3.653-.22-1.513.709-2.673,1.493-3.86a6.558,6.558,0,0,0,1.148-3.078c.145-1.469-.1-3.107.662-4.441.864-1.507,3.034-2.308,4.478-3.132,1.724-.984,3.47-1.945,5.145-3.011a.114.114,0,0,0-.115-.2Z" transform="translate(-0.001 -82.368)"/>
      <path id="Path_16293" data-name="Path 16293" class="cls-5" d="M7.2,231.386a31.853,31.853,0,0,0,10.994,2.308c2.763.1,6.953.187,8.266-2.864.086-.2-.185-.375-.3-.176-1.786,3.065-5.937,2.8-9.018,2.6a37.568,37.568,0,0,1-9.875-2.112c-.156-.053-.212.18-.067.242Z" transform="translate(-3.916 -126.936)"/>
      <path id="Path_16294" data-name="Path 16294" class="cls-5" d="M32.08,224.122c-.185-1.081.15-2.574-.711-3.455-.791-.809-2.307-.427-3.293-.414a58.527,58.527,0,0,1-10.286-.934c-.237-.039-.346.309-.1.369a38.918,38.918,0,0,0,8.2.981c1.37.035,2.758-.144,4.12-.086,2.076.09,1.459,2.21,1.828,3.607.045.162.273.09.246-.068Z" transform="translate(-9.663 -120.743)"/>
      <path id="Path_16295" data-name="Path 16295" class="cls-5" d="M15.419,219.4c-.294.07-.593.154-.891.2-.243.038-.144.424.1.374a3.058,3.058,0,0,0,.478-.152.172.172,0,0,0-.09-.332,3.055,3.055,0,0,0-.489.109l.15.355c.257-.126.539-.225.8-.329a.117.117,0,0,0-.062-.225Z" transform="translate(-7.921 -120.788)"/>
      <path id="Path_16296" data-name="Path 16296" class="cls-5" d="M16.617,219.635a.119.119,0,1,0-.112-.119.119.119,0,0,0,.112.119Z" transform="translate(-9.087 -120.787)"/>
      <path id="Path_16297" data-name="Path 16297" class="cls-5" d="M47.142,211.3c1.868-.433,3.995-.949,4.882-2.869s-.04-4.338-1.521-5.682a.18.18,0,0,0-.254.254c1.265,1.46,2.354,3.638,1.278,5.525-.881,1.546-2.842,2.123-4.446,2.551a.115.115,0,0,0,.061.221Z" transform="translate(-25.877 -111.598)"/>
      <path id="Path_16298" data-name="Path 16298" class="cls-5" d="M14.046,198.805a36.748,36.748,0,0,0,8.664,1.855,34.6,34.6,0,0,0,8.855-.02c.184-.029.139-.33-.045-.323a64.241,64.241,0,0,1-8.636-.028,56,56,0,0,1-8.764-1.74.135.135,0,0,0-.071.256Z" transform="translate(-7.692 -109.31)"/>
      <path id="Path_16299" data-name="Path 16299" class="cls-5" d="M53.453,189.6c1.778-1.386,3.2-3.326,2.94-5.683a5.584,5.584,0,0,0-3.447-4.529c-.18-.07-.289.213-.129.306a5.669,5.669,0,0,1,3.2,4.57c.111,2.264-1.366,3.607-2.735,5.169a.12.12,0,0,0,.169.169Z" transform="translate(-29.035 -98.754)"/>
      <path id="Path_16300" data-name="Path 16300" class="cls-5" d="M16.954,175.262a37.975,37.975,0,0,0,8.132,1.859,36.748,36.748,0,0,0,8.032.374.153.153,0,0,0,0-.306c-2.728-.1-5.418-.106-8.131-.468a77.934,77.934,0,0,1-7.97-1.687.118.118,0,1,0-.063.228Z" transform="translate(-9.286 -96.362)"/>
      <path id="Path_16301" data-name="Path 16301" class="cls-5" d="M52.8,171.4c1.59.5,2.966-.91,3.321-2.349a6.447,6.447,0,0,0-1.259-5.319c-.126-.162-.39.045-.283.218a7.147,7.147,0,0,1,1.265,4.165,2.9,2.9,0,0,1-3.015,3.056c-.135-.007-.151.188-.031.225Z" transform="translate(-29.023 -90.111)"/>
      <path id="Path_16302" data-name="Path 16302" class="cls-5" d="M40.874,161.375c-1.933-.076-3.859-.083-5.787-.243-2.033-.169-4.036-.5-6.049-.814-.2-.032-.3.27-.087.315a40.12,40.12,0,0,0,11.924.979.12.12,0,0,0,0-.239Z" transform="translate(-15.873 -88.261)"/>
      <path id="Path_16303" data-name="Path 16303" class="cls-5" d="M12.107,173.617a6.054,6.054,0,0,1-.048.707c-.031.208.278.3.323.09q.075-.352.145-.706c.033-.164.075-.692.213-.7.292-.025.741.95.86,1.189a.216.216,0,0,0,.295.077,2.028,2.028,0,0,0,.841-1.438c.026-.218-.335-.264-.382-.052a1.947,1.947,0,0,1-.719,1.151l.338.045a5.849,5.849,0,0,0-.654-1.008c-.153-.188-.36-.476-.639-.472-.247,0-.329.2-.392.4a9.512,9.512,0,0,0-.229,1.429h.323a6.034,6.034,0,0,1-.064-.707.106.106,0,1,0-.211,0Z" transform="translate(-6.638 -94.967)"/>
      <path id="Path_16304" data-name="Path 16304" class="cls-5" d="M10.583,198.824a2.807,2.807,0,0,1,.458-1.33l-.312-.04a2.549,2.549,0,0,0,2.077,1.274.168.168,0,0,0,.045-.328,2.638,2.638,0,0,1-1.778-1.147.2.2,0,0,0-.343,0,1.712,1.712,0,0,0-.345,1.6.11.11,0,0,0,.2-.026Z" transform="translate(-5.679 -108.544)"/>
      <path id="Path_16305" data-name="Path 16305" class="cls-5" d="M12.474,218.321a.34.34,0,0,1-.11-.36c.077-.3.43-.293.647-.187.245.12.32.346.465.556a.56.56,0,0,0,1.076-.111,12.488,12.488,0,0,0,.458-1.631.177.177,0,0,0-.342-.094c-.117.367-.232.734-.341,1.1-.041.142-.072.479-.18.566-.159.131-.364-.09-.447-.171-.293-.292-.427-.64-.918-.649-.608-.011-1,.823-.42,1.162.124.072.218-.106.11-.187Z" transform="translate(-6.65 -119.117)"/>
      <path id="Path_16306" data-name="Path 16306" class="cls-5" d="M20.965,235.634c3.52,3.863,6.216,8.55,10.211,11.967,3.354,2.869,8.147,4.8,12.45,2.9.195-.086.055-.422-.146-.347-4.79,1.792-9.591-.415-13.068-3.769-3.453-3.331-5.785-7.638-9.241-10.958a.144.144,0,0,0-.2.2Z" transform="translate(-11.52 -129.591)"/>
      <path id="Path_16307" data-name="Path 16307" class="cls-5" d="M59.554,194.73a32.74,32.74,0,0,1,8.347,7.911,21.465,21.465,0,0,1,3.707,10.085c.023.21.337.222.337,0C71.931,205.28,65.9,198,59.679,194.517a.124.124,0,0,0-.125.214Z" transform="translate(-32.756 -107.082)"/>
      <path id="Path_16308" data-name="Path 16308" class="cls-5" d="M61.1,211.834a47.949,47.949,0,0,1,5.307,6.358c.128.192.436.017.312-.182a24.8,24.8,0,0,0-5.429-6.366c-.135-.106-.315.062-.191.191Z" transform="translate(-33.617 -116.5)"/>
      <path id="Path_16309" data-name="Path 16309" class="cls-5" d="M60.984,188.615a11.8,11.8,0,0,1,1.429-1.605,11.461,11.461,0,0,1,2.093-1.285c1.613-.813,3.26-1.559,4.878-2.362.2-.1.025-.385-.172-.294-1.808.83-3.65,1.634-5.4,2.581-1.135.614-2.644,1.528-3.011,2.859-.028.1.11.193.184.107Z" transform="translate(-33.47 -100.778)"/>
      <path id="Path_16310" data-name="Path 16310" class="cls-5" d="M74.341,173.213a28.315,28.315,0,0,1,4.938-3.77A33.577,33.577,0,0,1,85.1,166.97c4.326-1.433,8.834-2.254,13.161-3.667a.2.2,0,0,0-.108-.391c-2.592.553-5.15,1.365-7.708,2.062-2.068.564-4.138,1.139-6.162,1.85-3.589,1.262-7.8,3.077-10.1,6.262-.073.1.08.2.165.127Z" transform="translate(-40.826 -89.687)"/>
      <path id="Path_16311" data-name="Path 16311" class="cls-5" d="M127.656,163.708a25.968,25.968,0,0,0,14.669,13.763c6.644,2.427,14.989,2.107,20.756-2.33,2.991-2.3,5.147-5.964,4.846-9.828-.021-.27-.434-.278-.427,0,.214,7.689-7.061,12.2-13.92,13.052a24.52,24.52,0,0,1-19.122-6.1,30.7,30.7,0,0,1-6.6-8.681c-.073-.138-.262-.017-.2.119Z" transform="translate(-70.273 -90.03)"/>
      <path id="Path_16312" data-name="Path 16312" class="cls-5" d="M129.529,152.9c1.366-.989,1.666-3.229,1.933-4.772a15.829,15.829,0,0,0,.253-5.652c-.045-.228-.384-.129-.346.1a16.7,16.7,0,0,1-.3,5.329,20.268,20.268,0,0,1-.629,2.742,4.916,4.916,0,0,1-1.029,2.1c-.085.077.029.23.125.161Z" transform="translate(-71.226 -78.371)"/>
      <path id="Path_16313" data-name="Path 16313" class="cls-5" d="M199.7,127.273a40.969,40.969,0,0,0,1.693,12.057c.662,2.337,1.712,6.274,4.641,6.652.24.031.241-.315.053-.39A5.522,5.522,0,0,1,203,142.6a24.945,24.945,0,0,1-1.534-4.595,57.589,57.589,0,0,1-1.565-10.736.1.1,0,0,0-.2,0Z" transform="translate(-109.939 -70.017)"/>
      <path id="Path_16314" data-name="Path 16314" class="cls-5" d="M127.858,99.426a10.909,10.909,0,0,0,.975-.961,6.4,6.4,0,0,1,1.733-1.127,6.877,6.877,0,0,1,3.6-.5c.2.023.248-.318.048-.355a6.4,6.4,0,0,0-3.721.426c-1,.428-2.461,1.288-2.8,2.4a.107.107,0,0,0,.156.12Z" transform="translate(-70.301 -53.058)"/>
      <path id="Path_16315" data-name="Path 16315" class="cls-5" d="M128.7,95.9a11.157,11.157,0,0,0,.707,1.075,6.772,6.772,0,0,0,.712.942.153.153,0,0,0,.239-.184,7.422,7.422,0,0,0-.749-1.05,10.194,10.194,0,0,0-.741-.912.107.107,0,0,0-.168.13Z" transform="translate(-70.846 -52.713)"/>
      <path id="Path_16316" data-name="Path 16316" class="cls-5" d="M133.162,93.445a7.865,7.865,0,0,0,.685,2.195c.086.169.315.045.287-.121a7.857,7.857,0,0,0-.776-2.157c-.06-.115-.214-.03-.2.082Z" transform="translate(-73.309 -51.37)"/>
      <path id="Path_16317" data-name="Path 16317" class="cls-5" d="M137.886,92.643a5.888,5.888,0,0,0,.267,1.838.165.165,0,0,0,.323-.045,5.843,5.843,0,0,0-.378-1.823.108.108,0,0,0-.212.029Z" transform="translate(-75.911 -50.947)"/>
      <path id="Path_16318" data-name="Path 16318" class="cls-5" d="M168.71,88.647a12.03,12.03,0,0,1,2.731-1.181,5.683,5.683,0,0,1,3.571.607.2.2,0,0,0,.2-.337,5.554,5.554,0,0,0-3.58-.732,4.347,4.347,0,0,0-3.038,1.487C168.545,88.564,168.621,88.685,168.71,88.647Z" transform="translate(-92.807 -47.874)"/>
      <path id="Path_16319" data-name="Path 16319" class="cls-5" d="M169.323,84.7a11.592,11.592,0,0,0,.719,2c.083.163.338.049.291-.123a11.609,11.609,0,0,0-.813-1.964c-.054-.111-.231-.033-.2.083Z" transform="translate(-93.216 -46.56)"/>
      <path id="Path_16320" data-name="Path 16320" class="cls-5" d="M174.33,84.305a2.325,2.325,0,0,0-.035.494c.01.124.022.248.033.371a3.432,3.432,0,0,0,.11.79.18.18,0,0,0,.351-.048,3.807,3.807,0,0,0-.072-.867c-.013-.1-.024-.2-.038-.3a2.288,2.288,0,0,0-.138-.472.107.107,0,0,0-.21.028Z" transform="translate(-95.954 -46.357)"/>
      <path id="Path_16321" data-name="Path 16321" class="cls-5" d="M180.323,83.11c0,.716-.1,1.429-.059,2.145a.167.167,0,1,0,.333,0c.045-.715-.059-1.429-.059-2.145a.108.108,0,0,0-.215,0Z" transform="translate(-99.235 -45.702)"/>
      <path id="Path_16322" data-name="Path 16322" class="cls-5" d="M153.031,89.937a32.566,32.566,0,0,1,1.8,7.784c.078.929-.236,4.572,1.739,3.69.217-.1.061-.432-.158-.375l-1.028-1.108-.015-.323a6.334,6.334,0,0,1-.036-.686q-.045-.686-.122-1.369c-.1-.869-.234-1.735-.4-2.593a23.81,23.81,0,0,0-1.579-5.1c-.05-.111-.238-.032-.2.084Z" transform="translate(-84.246 -49.44)"/>
      <path id="Path_16323" data-name="Path 16323" class="cls-5" d="M149.072,123.856a4.238,4.238,0,0,0,1.663.09q.977-.03,1.951-.127a19.439,19.439,0,0,0,3.881-.764,10.825,10.825,0,0,0,6.191-4.511c.127-.214-.18-.375-.324-.189a11.94,11.94,0,0,1-6.472,4.413,20.441,20.441,0,0,1-3.647.643c-.566.052-1.133.084-1.7.106a4.715,4.715,0,0,0-1.543.129.111.111,0,0,0,0,.211Z" transform="translate(-82.026 -65.115)"/>
      <path id="Path_16324" data-name="Path 16324" class="cls-5" d="M156.042,125.538c1.175.348,2.355.649,3.551.935a3.879,3.879,0,0,0,2.578.166,4.386,4.386,0,0,0,1.528-1.877c.705-1.183,1.476-2.354,2.085-3.59a.173.173,0,0,0-.3-.175c-.579.822-1.066,1.711-1.579,2.575A9.972,9.972,0,0,1,162.351,126c-.894.795-2.468.118-3.5-.117-.916-.208-1.826-.384-2.75-.545a.1.1,0,1,0-.054.2Z" transform="translate(-85.867 -66.57)"/>
      <path id="Path_16325" data-name="Path 16325" class="cls-5" d="M218.679,166.919a118.022,118.022,0,0,1,18.873,6.685c5.128,2.389,11.467,5.1,14.057,10.5.113.236.455.03.349-.2-2.45-5.421-8.8-8.163-13.868-10.527a91.886,91.886,0,0,0-19.344-6.7.128.128,0,1,0-.068.246Z" transform="translate(-120.338 -91.758)"/>
      <path id="Path_16326" data-name="Path 16326" class="cls-5" d="M292.128,204.4a201.85,201.85,0,0,1,6.661,21.366,181.457,181.457,0,0,1,3.678,22.384c.025.231.386.24.369,0a144.376,144.376,0,0,0-7.07-34.642c-1.019-3.106-2.1-6.207-3.405-9.206-.057-.131-.28-.037-.232.1Z" transform="translate(-160.822 -112.442)"/>
      <path id="Path_16327" data-name="Path 16327" class="cls-5" d="M275.543,305.827a52.945,52.945,0,0,0,10.215-3.734,84.127,84.127,0,0,0,9.895-5.181.192.192,0,0,0-.194-.331,104.476,104.476,0,0,1-9.613,4.985q-2.562,1.156-5.187,2.155c-1.712.654-3.492,1.164-5.181,1.872a.122.122,0,0,0,.065.235Z" transform="translate(-151.61 -163.266)"/>
      <path id="Path_16328" data-name="Path 16328" class="cls-5" d="M280.573,259.49c.263-.522.516-1.05.8-1.558l-.231-.135a70.747,70.747,0,0,0-3.628,10.465,114.039,114.039,0,0,0-2.678,11.717,155.068,155.068,0,0,0-2.091,27.789c.045,6.4.384,12.8.955,19.175.023.256.424.261.4,0-1.446-19.026-1.525-38.425,3.389-57,1.085-4.1,2.587-8.021,3.893-12.046.045-.142-.184-.244-.245-.1-.231.539-.5,1.06-.757,1.586-.06.122.122.23.183.107Z" transform="translate(-150.148 -141.89)"/>
      <path id="Path_16329" data-name="Path 16329" class="cls-5" d="M76.447,275.755a13.107,13.107,0,0,0,.211,2.613q.142,1.307.28,2.614.255,2.427.494,4.857.488,4.952.9,9.911.837,10.012,1.4,20.046c.014.245.4.248.384,0q-.515-10.127-1.378-20.231-.427-5.052-.93-10.1-.242-2.429-.505-4.857a23.855,23.855,0,0,0-.624-4.884.12.12,0,0,0-.233.031Z" transform="translate(-42.085 -151.752)"/>
      <path id="Path_16330" data-name="Path 16330" class="cls-5" d="M86.084,331.971l-.149-.783q.165-.256.336-.508.258-.381.527-.753.623-.864,1.3-1.687c.879-1.069,1.819-2.088,2.8-3.065a68.94,68.94,0,0,1,6.293-5.484,141.689,141.689,0,0,1,13.461-9.268,147.644,147.644,0,0,1,30.2-14.047,64.3,64.3,0,0,1,8.27-2.251,25.386,25.386,0,0,1,8.8-.457c2.642.449,5.369,2.3,4.331,5.336-.832,2.436-3.3,4.332-5.266,5.868-8.046,6.295-18.123,9.626-27.626,13.012-12.023,4.283-23.834,9.017-34.993,15.259a.209.209,0,0,0,.049.378,24.039,24.039,0,0,0,7.5-.225c2.635-.4,5.265-.83,7.905-1.2,5.629-.792,11.282-1.425,16.956-1.793a150.731,150.731,0,0,1,16.563-.218,83.376,83.376,0,0,1,16.2,2.062,27.173,27.173,0,0,1,7.332,2.6c1.02.608,2.3,1.875,1.171,3.047-1.147,1.188-3.146.435-4.368-.2-3.938-2.052-7.308-5.009-10.856-7.641-6.248-4.634-16.687-10.2-22.906-2.542a25.629,25.629,0,0,0-3.316,5.938,53.6,53.6,0,0,0-2.773,7.881,49.4,49.4,0,0,0-1.489,16.776c.023.27.449.275.427,0a49.73,49.73,0,0,1,1.25-15.662,52.593,52.593,0,0,1,2.454-7.53,32.528,32.528,0,0,1,3.215-6.341c6.554-9.358,18.338-1.677,24.974,3.444,1.759,1.358,3.509,2.731,5.349,3.978,1.7,1.154,3.744,2.673,5.843,2.926,1.448.174,3.344-.618,3.056-2.375-.3-1.811-2.774-2.631-4.227-3.186a58.3,58.3,0,0,0-15.309-3.2,133.308,133.308,0,0,0-16.887-.474c-6.382.2-12.748.791-19.08,1.6q-4.571.584-9.122,1.313c-3.224.509-6.493,1.155-9.757.623l.049.378a222.914,222.914,0,0,1,34.292-15.009c10-3.564,20.718-7.024,29.051-13.853,1.863-1.528,4.142-3.384,4.806-5.806a4.185,4.185,0,0,0-2.576-4.928c-2.392-1.068-5.254-.914-7.794-.651a48.173,48.173,0,0,0-8.855,1.872A147.741,147.741,0,0,0,96.79,319.533a65.381,65.381,0,0,0-6.716,5.968,39.893,39.893,0,0,0-2.808,3.227q-.534.688-1.03,1.4a4.275,4.275,0,0,0-.838,1.375c-.1.513.272.931.771.779a.163.163,0,1,0-.087-.315Z" transform="translate(-47.005 -161.34)"/>
      <path id="Path_16331" data-name="Path 16331" class="cls-5" d="M304.534,305.826a167.11,167.11,0,0,0,3.041,17.854,174.9,174.9,0,0,0,4.77,17.806.157.157,0,0,0,.3-.084c-1.726-5.84-3.349-11.7-4.669-17.647s-2.266-11.942-3.2-17.965c-.021-.138-.26-.107-.245.033Z" transform="translate(-167.655 -168.301)"/>
      <path id="Path_16332" data-name="Path 16332" class="cls-5" d="M287.532,365.651a4.453,4.453,0,0,1,1.19-.831,12.232,12.232,0,0,1,1.271-.7,13.938,13.938,0,0,1,2.845-.971c.222-.051.128-.386-.094-.34a11.817,11.817,0,0,0-5.024,2.288c-.164.132-.606.426-.41.7a.243.243,0,0,0,.428-.031C287.816,365.636,287.617,365.526,287.532,365.651Z" transform="translate(-158.146 -199.739)"/>
      <path id="Path_16333" data-name="Path 16333" class="cls-5" d="M107.834,82.143c.764,3.409,1.785,6.773,2.832,10.1a82.145,82.145,0,0,0,3.056,8.558,22.821,22.821,0,0,0,4.527,6.987,21.748,21.748,0,0,0,7.333,4.5c3.294,1.355,6.925,3.031,10.569,2.669.225-.022.231-.371,0-.356-3.258.211-6.288-1.044-9.264-2.206a24.42,24.42,0,0,1-7.944-4.464c-4.221-3.914-6.013-9.775-7.725-15.09-1.148-3.563-2.108-7.173-3.14-10.77a.126.126,0,0,0-.244.067Z" transform="translate(-59.364 -45.137)"/>
      <path id="Path_16334" data-name="Path 16334" class="cls-5" d="M171.279,111.29c2.481-2.443,5.129-4.716,7.578-7.189a21.3,21.3,0,0,0,5.083-7.374c1.244-3.351.921-7.035.605-10.522a72.6,72.6,0,0,0-1.75-10.9c-.054-.218-.378-.125-.334.092a103.651,103.651,0,0,1,1.656,10.8c.315,3.448.643,7.1-.587,10.409-2.329,6.272-8.418,9.516-12.431,14.5-.1.123.06.294.178.178Z" transform="translate(-94.179 -41.394)"/>
      <path id="Path_16335" data-name="Path 16335" class="cls-5" d="M102.318,17.392c-1.82-1.407-1.781-3.569-1.552-5.663a19.484,19.484,0,0,0,.135-6.215l-.347.146A18.453,18.453,0,0,0,103.9,9.128a9.967,9.967,0,0,0,3.669,2.123c.8.167,1.677-.105,1.679-1.047a10.255,10.255,0,0,0-.712-2.652q-.445-1.511-.881-3.023l-.36.209a9,9,0,0,0,3.14,2.146c.172.071.3-.128.274-.274q-.415-2.157-.821-4.315l-.349.27a19.675,19.675,0,0,0,5.872,1.7c.167.021.267-.173.236-.309a10.712,10.712,0,0,0-1.51-3.573l-.147.36c4.786-1.046,9.131,2.178,12.716,4.92.228.174.447-.149.353-.353l-.951-2.049a10.763,10.763,0,0,1-.952-2.049q-.389-.392.115-.494A.4.4,0,0,1,125.895.7a3.268,3.268,0,0,1,.7.456A14.612,14.612,0,0,1,128.2,2.52a40.911,40.911,0,0,1,4.843,6.227c.16.228.532.022.38-.222-1.812-2.911-3.85-5.9-6.7-7.9-.479-.336-2.1-1.18-2.346-.059-.117.536.577,1.443.807,1.938q.714,1.536,1.43,3.072l.353-.353c-3.714-2.833-8.166-6.036-13.1-4.952a.248.248,0,0,0-.147.36,10.354,10.354,0,0,1,1.463,3.455l.236-.309a19.047,19.047,0,0,1-5.632-1.627.241.241,0,0,0-.349.27q.43,2.153.849,4.307l.274-.274A8.722,8.722,0,0,1,107.6,4.435a.216.216,0,0,0-.36.209q.592,1.95,1.173,3.9c.2.683.868,2.33-.35,2.376a3.423,3.423,0,0,1-1.654-.588,17.135,17.135,0,0,1-5.531-4.865.191.191,0,0,0-.347.146c.516,2.435-.109,4.843-.237,7.281-.1,1.861.266,3.581,1.847,4.722.13.094.3-.125.173-.225Z" transform="translate(-55.209 -0.005)"/>
      <path id="Path_16336" data-name="Path 16336" class="cls-5" d="M173.75,14.973A9.121,9.121,0,0,1,177,10.3l-.288-.222a19.327,19.327,0,0,0-.218,5.493.213.213,0,0,0,.394.107,7.357,7.357,0,0,1,1.147-1.338c.187-.165.7-.663.976-.613l.584.508a5.513,5.513,0,0,1-.125.768c-.24,1.224-.535,2.44-.8,3.659a.228.228,0,0,0,.378.22c.294-.276,1.992-.534,1.143.349-.168.174.082.415.262.262a1.039,1.039,0,0,0,.086-1.414c-.562-.644-1.371.069-1.811.484l.378.22c.25-1.163.5-2.325.747-3.489.119-.564.4-1.462-.187-1.877-1.12-.792-2.648,1.335-3.14,2.049l.394.107a19.871,19.871,0,0,1,.174-5.388c.024-.147-.135-.334-.288-.222a9.289,9.289,0,0,0-3.276,4.954c-.045.144.18.2.225.062Z" transform="translate(-95.529 -5.465)"/>
      <path id="Path_16337" data-name="Path 16337" class="cls-5" d="M188.9,29.356A3.384,3.384,0,0,0,187.766,31a.188.188,0,0,0,.13.229,6.677,6.677,0,0,1,3.6,2.308l.151-.363a2.212,2.212,0,0,0-1.88,1.072.222.222,0,0,0,.079.3l1.321.764-.08-.3-.343.524a.229.229,0,0,0,.035.27,24.974,24.974,0,0,1,1.632,2.238c.211.329.489.564.284.986-.045.09-.2.156-.234.262-.285.938.465,1.621.87,2.407,1.272,2.472.981,5.39.776,8.064-.021.274.392.265.422,0,.3-2.611.507-5.446-.6-7.907-.317-.7-.962-1.294-.9-2.072.037-.425.329-.629.285-1.045-.057-.539-.7-1.223-1-1.656-.365-.523-1.243-1.22-.836-1.846a.225.225,0,0,0-.08-.3l-1.324-.761.079.3a1.753,1.753,0,0,1,1.5-.867.216.216,0,0,0,.151-.363,6.88,6.88,0,0,0-2.345-1.873c-.218-.1-1.095-.288-1.164-.425-.2-.4.567-1.135.772-1.422.067-.094-.067-.23-.161-.161Z" transform="translate(-103.368 -16.153)"/>
      <path id="Path_16338" data-name="Path 16338" class="cls-5" d="M97.681,38.672a9.563,9.563,0,0,1-3.215,1.106c-.7.061-1.42-.026-2.127-.015a.19.19,0,0,0-.162.282c1.246,2.2,2.648,4.3,3.921,6.477a2.183,2.183,0,0,1,.221,1.718c-.062.176-.282.374-.369.549A2.57,2.57,0,0,0,95.688,50c.027,1.067.633,1.493,1.265,2.227s.367,1.442.336,2.319a5.978,5.978,0,0,0,.283,1.835c.167.588.387,1.162.529,1.757a5.129,5.129,0,0,1-.067,2.523c-.275,1.29.258,2.113.923,3.194.851,1.389,1.7,2.782,2.566,4.159a.232.232,0,0,0,.4-.234c-.836-1.4-1.695-2.783-2.548-4.17-.566-.921-1.121-1.677-.879-2.822a6.88,6.88,0,0,0,.249-1.536,18.583,18.583,0,0,0-.875-3.584,8.782,8.782,0,0,1,.025-2.3,1.7,1.7,0,0,0-.3-1.108c-.315-.453-.835-.724-1.137-1.19a2.2,2.2,0,0,1,.18-2.517c.6-.848.351-1.391-.155-2.255-1.276-2.179-2.715-4.257-3.978-6.444l-.162.282a20.207,20.207,0,0,0,2.327-.033A9.451,9.451,0,0,0,97.8,38.878c.135-.073.016-.27-.119-.2Z" transform="translate(-50.734 -21.286)"/>
      <path id="Path_16339" data-name="Path 16339" class="cls-5" d="M110.2,60.441a12.659,12.659,0,0,0,.849-7.424,13.263,13.263,0,0,0-.52-1.993c-.285-.82-.824-1.556-.378-2.446a12.663,12.663,0,0,1,3.009-3.461L112.8,44.9q-.315,1.916-.642,3.829c-.035.2.221.418.387.225a9.447,9.447,0,0,1,10.011-2.886.241.241,0,0,0,.27-.351,7.486,7.486,0,0,1-.8-1.382,4.136,4.136,0,0,1-.5-1.786c.236-1.264,2.007-1.57,3.073-1.735,2.107-.325,4.055.209,6.133.365a1.8,1.8,0,0,0,1.642-.745,2.208,2.208,0,0,1,2.535-.839c2.316.729,2.362,3.5,2.11,5.484-.016.127.12.23.232.232.8.016,1.242-.561,1.766-1.079.678-.671,1.58-.813,2.155.114a4,4,0,0,1,.293,2.337,3.4,3.4,0,0,0,.775,2.746,1.61,1.61,0,0,0,.947.441c.773.077,1.8-.533,2.136.662a9.429,9.429,0,0,1,.081,2.054q.042,1,.154,1.99a28.94,28.94,0,0,0,.7,3.829,29.263,29.263,0,0,0,3.116,7.576.256.256,0,0,0,.441-.258,28.767,28.767,0,0,1-3.331-8.588,28.2,28.2,0,0,1-.593-4.882c-.028-.844.2-2.175-.571-2.787a1.3,1.3,0,0,0-.964-.237c-.539.042-1,.27-1.521,0a1.685,1.685,0,0,1-.8-1.1c-.366-1.279.281-2.669-.383-3.9a1.728,1.728,0,0,0-2.045-.994c-.9.315-1.336,1.63-2.35,1.61l.232.232c.254-2.008.182-4.556-1.83-5.663a2.955,2.955,0,0,0-2.479-.245,2.448,2.448,0,0,0-.872.632,5.3,5.3,0,0,1-.519.6c-.644.5-1.263.28-1.949.161a13.445,13.445,0,0,0-7.323.327c-.788.319-1.5.707-1.463,1.663a6.669,6.669,0,0,0,1.366,3.408l.27-.351a9.853,9.853,0,0,0-10.464,3.02l.387.225q.3-1.92.618-3.836a.221.221,0,0,0-.366-.213,17.007,17.007,0,0,0-2.818,3.159c-.854,1.254-.393,1.854.1,3.168a13.262,13.262,0,0,1-.142,9.22c-.045.12.156.207.209.09Z" transform="translate(-60.317 -21.478)"/>
      <path id="Path_16340" data-name="Path 16340" class="cls-5" d="M199.34,78.094a.473.473,0,0,0-.6.127l.252.252c.921-1.133,2.288-.152,2.523,1.014a11.563,11.563,0,0,1-.3,3.749,12.435,12.435,0,0,0-.117,3.051c.135,1.22.553,2.941-.933,3.531a.225.225,0,0,0,.119.433c1.269-.315,1.553-1.708,1.448-2.848a17.679,17.679,0,0,1-.172-2.867c.072-1.067.277-2.118.407-3.178.146-1.187.21-2.789-.944-3.527a1.593,1.593,0,0,0-2.317.425c-.09.205.2.388.307.18l.265-.125a.113.113,0,0,0,.06-.218Z" transform="translate(-109.384 -42.682)"/>
      <path id="Path_16341" data-name="Path 16341" class="cls-5" d="M109.142,100.27a1.246,1.246,0,0,0-1.525,1.28,3.011,3.011,0,0,0,.732,1.708c.511.719,1.042,1.418,1.525,2.157s.949,1.509,1.383,2.289a14.714,14.714,0,0,0,1.169,2.157c.469.581,1.438.84,1.8,0,.09-.207-.19-.388-.311-.18-.725,1.236-1.881-1.452-2.128-1.9q-.605-1.1-1.287-2.152t-1.435-2.057a9.785,9.785,0,0,1-.732-1.008c-.345-.612-.719-2.308.754-2.091a.106.106,0,1,0,.056-.2Z" transform="translate(-59.247 -55.174)"/>
      <path id="Path_16342" data-name="Path 16342" class="cls-5" d="M71.743,204.959a14.055,14.055,0,0,1,14.509,11.877c.042.26.429.147.393-.108a14.124,14.124,0,0,0-14.9-11.99C71.6,204.746,71.6,204.967,71.743,204.959Z" transform="translate(-39.438 -112.704)"/>
      <path id="Path_16343" data-name="Path 16343" class="cls-5" d="M124.112,165.765a11.135,11.135,0,0,0,1.208,2.969,23.79,23.79,0,0,0,1.713,2.825,25.77,25.77,0,0,0,4.39,4.813,24.631,24.631,0,0,0,11.641,5.581c.213.037.308-.284.09-.329a25.426,25.426,0,0,1-15.882-10.363,24.992,24.992,0,0,1-1.578-2.586c-.514-.968-.854-2.045-1.4-2.986a.1.1,0,0,0-.18.076Z" transform="translate(-68.327 -91.194)"/>
      <path id="Path_16344" data-name="Path 16344" class="cls-5" d="M210.074,168.644c-.391,5.332-2.7,10.731-8.05,12.675-.21.076-.124.412.094.34,5.48-1.8,8.015-7.635,8.188-13.017,0-.15-.221-.147-.232,0Z" transform="translate(-111.154 -92.784)"/>
      <path id="Path_16345" data-name="Path 16345" class="cls-5" d="M176.807,201.065c2.6-.142,5.555-.256,7.932-1.425.164-.08.045-.372-.126-.3-2.508,1.056-5.182,1.1-7.836,1.5-.127.019-.1.231.031.225Z" transform="translate(-97.276 -109.739)"/>
      <path id="Path_16346" data-name="Path 16346" class="cls-5" d="M222.635,240.1a13.378,13.378,0,0,1,7.668-.1l-.086-.327q-3.052,3.25-6.091,6.514l-1.522,1.629c-.344.368-.942.793-1.084,1.3-.148.526.215.827.706.854a5.419,5.419,0,0,0,1.543-.364q1.03-.27,2.073-.489a41.2,41.2,0,0,1,4.5-.677,51,51,0,0,1,8.506.023c.212.015.265-.344.051-.375a38.184,38.184,0,0,0-14.046.778q-.864.2-1.719.442c-.172.048-.728.307-.908.214-.512-.266.151-.821.306-.989l2.655-2.86q2.655-2.86,5.307-5.722a.2.2,0,0,0-.086-.327,12.181,12.181,0,0,0-7.838.234c-.145.057-.09.285.066.239Z" transform="translate(-121.936 -131.63)"/>
      <path id="Path_16347" data-name="Path 16347" class="cls-5" d="M51.629,255.136a6.728,6.728,0,0,0,4.166,5.1c2.644,1.094,5.117.208,7.371-1.339a27.464,27.464,0,0,0,6.85-6.211,19.21,19.21,0,0,0,3.506-8.489c.036-.247-.336-.36-.383-.106a20.432,20.432,0,0,1-2.984,7.61,24.15,24.15,0,0,1-6.137,6.06c-2.2,1.611-4.582,3.154-7.414,2.343a6.751,6.751,0,0,1-4.746-5.031c-.031-.152-.252-.085-.229.063Z" transform="translate(-28.423 -134.303)"/>
      <path id="Path_16348" data-name="Path 16348" class="cls-5" d="M95.86,246.385c-1.921,7.186-3.751,14.437-5.139,21.745a82.4,82.4,0,0,0-1.6,21.785c.019.241.4.245.379,0-.979-14.85,3.426-29.136,6.6-43.464a.121.121,0,0,0-.233-.064Z" transform="translate(-48.96 -135.602)"/>
      <path id="Path_16349" data-name="Path 16349" class="cls-5" d="M283.312,279.092a6.985,6.985,0,0,0,2.285-1.729.159.159,0,0,0-.225-.225c-.686.64-1.462,1.161-2.163,1.777-.076.067,0,.215.1.175Z" transform="translate(-155.899 -152.55)"/>
      <path id="Path_16350" data-name="Path 16350" class="cls-5" d="M186.04,151.826c-.24,2.483-.363,4.972-.653,7.452-.3,2.58-.728,5.137-1.124,7.7-.034.221.293.323.343.094a71.681,71.681,0,0,0,1.169-7.436,64.428,64.428,0,0,0,.536-7.814.137.137,0,0,0-.273,0Z" transform="translate(-101.442 -83.512)"/>
      <path id="Path_16351" data-name="Path 16351" class="cls-5" d="M146.4,167.4a23.606,23.606,0,0,0,3.4,6.68c.135.18.426.024.308-.18-1.25-2.175-2.385-4.34-3.477-6.6-.062-.129-.273-.038-.231.1Z" transform="translate(-80.596 -92.074)"/>
      <path id="Path_16352" data-name="Path 16352" class="cls-5" d="M71.222,270.162a14.381,14.381,0,0,0,7.111-2.607,16.531,16.531,0,0,0,5.315-5.432c.125-.217-.192-.394-.331-.194a19.224,19.224,0,0,1-5.326,5.324,17.976,17.976,0,0,1-3.245,1.663c-1.162.449-2.369.664-3.553,1.026a.113.113,0,0,0,.03.22Z" transform="translate(-39.151 -144.154)"/>
      <path id="Path_16353" data-name="Path 16353" class="cls-5" d="M53.49,269.865c1.353,2.61,4.874,4.714,7.7,3.1.18-.1.022-.35-.159-.27a4.979,4.979,0,0,1-4.523-.237,10.7,10.7,0,0,1-2.842-2.722c-.084-.1-.229.027-.174.135Z" transform="translate(-29.441 -148.478)"/>
      <path id="Path_16354" data-name="Path 16354" class="cls-5" d="M101.979,226.265c.539.362.17,2.364.112,2.913a22.624,22.624,0,0,1-.6,3.111.157.157,0,1,0,.3.084,15.283,15.283,0,0,0,.672-3.908c.03-.611.295-2.005-.378-2.379a.1.1,0,0,0-.105.18Z" transform="translate(-55.869 -124.463)"/>
    </g>
  </g>
</svg>
