<svg xmlns="http://www.w3.org/2000/svg" viewBox="0 0 258.869 274.889">
  <defs>
    <style>
      .cls-1 {
        fill: #fff;
      }

      .cls-2 {
        fill: #00764f;
      }

      .cls-3 {
        fill: #98e19c;
      }

      .cls-4 {
        fill: #59be6c;
      }

      .cls-5 {
        fill: #8acbbb;
      }

      .cls-6 {
        fill: #5faf9b;
      }

      .cls-7 {
        fill: #284b55;
      }

      .cls-8 {
        fill: #2e6e6e;
      }
    </style>
  </defs>
  <g id="Bildmaterial_23" data-name="Bildmaterial 23" transform="translate(0 0)">
    <path id="Path_29122" data-name="Path 29122" class="cls-1" d="M240.646,386.805a1.219,1.219,0,0,0,.1-.8c-.3-1.108-1.65-.188-2.2.005a.149.149,0,0,0-.094.134l-.185.026c-.148-.011-.291-.027-.432-.051a.367.367,0,0,0-.235-.141,8.835,8.835,0,0,1-1.288-.325.355.355,0,0,0-.2-.449l-.053-.02a1.835,1.835,0,0,0-.658-.669.372.372,0,0,0-.083-.041c-.024-.047-.047-.094-.072-.141,0-.01-.009-.017-.013-.027h0c-.017-.031-.031-.064-.049-.1a.338.338,0,0,0-.452-.136.305.305,0,0,0-.374-.218,1.693,1.693,0,0,0-1.087.583,4.663,4.663,0,0,0-.694.3,2.266,2.266,0,0,0-1.57.525.386.386,0,0,0-.043.046,4.5,4.5,0,0,0-.449.081h0c-.035.008-.068.013-.1.022a.336.336,0,0,0-.246.439.151.151,0,0,0-.057.235,2.3,2.3,0,0,1,.258.343c.065.425.133.849.206,1.272a5.632,5.632,0,0,1-1.513,2.308.35.35,0,0,0-.274-.017,1.334,1.334,0,0,0-.849.723c-.072.041-.14.07-.215.12a.3.3,0,0,0-.123.19.343.343,0,0,0-.057.466.362.362,0,0,0,.357.425c.243,0,.482-.005.718-.021v.049a.392.392,0,0,0,.519.337c1.82-.67,3.8-.537,5.629-1.151a12.97,12.97,0,0,0,1.651-.692,5.6,5.6,0,0,0,2.3-1.456c.139-.112.276-.224.407-.339a6.3,6.3,0,0,0,1.512-1.809A.1.1,0,0,1,240.646,386.805Z" transform="translate(-97.301 -164.188)"/>
    <path id="Path_29123" data-name="Path 29123" class="cls-2" d="M230.709,397.177a22.659,22.659,0,0,1-2.684-1.689c-.156-.145-.369.109-.212.253a6.182,6.182,0,0,0,2.722,1.805C230.732,397.586,230.888,397.3,230.709,397.177Z" transform="translate(-97.423 -169.147)"/>
    <path id="Path_29124" data-name="Path 29124" class="cls-2" d="M234.443,395.683l-.154-.09a.189.189,0,0,0-.06-.085,5.607,5.607,0,0,0-1.025-.549l-.581-.339a11.379,11.379,0,0,1-1.2-.966c-.16-.145-.375.112-.216.257.277.253.567.482.862.706a.166.166,0,0,0,.081.114l.343.2.185.137a4.533,4.533,0,0,0,1.365.837.18.18,0,0,0,.1,0l.153.09C234.486,396.1,234.632,395.793,234.443,395.683Z" transform="translate(-98.873 -168.362)"/>
    <path id="Path_29125" data-name="Path 29125" class="cls-2" d="M237.312,392.849l-.089-.038c-.179-.076-.432.1-.336.306-.122-.261-.087-.229-.331-.365-.179-.1-.4-.162-.594-.248-.351-.159-.7-.335-1.03-.526a20.76,20.76,0,0,1-2.069-1.4c-.141-.105-.369.07-.241.222a8.278,8.278,0,0,0,2.271,1.865c.612.349,1.629,1.019,2.363.852a.3.3,0,0,0,.2-.239c0-.039.007-.078.01-.115A.292.292,0,0,0,237.312,392.849Z" transform="translate(-99.487 -167.05)"/>
    <path id="Path_29126" data-name="Path 29126" class="cls-2" d="M239.9,390.138c-1.342-.727-2.742-1.363-4.113-2.045a.2.2,0,0,0-.022-.311,9.284,9.284,0,0,0-1.208-.739l-.633-.343c-.106-.057-.212-.114-.318-.169l-.16-.082a.172.172,0,0,0-.034-.022.158.158,0,0,0-.013-.089l-.028-.05a.168.168,0,0,0-.151-.072.437.437,0,0,0-.219.065.21.21,0,0,0-.076.24c.1.4.687.6,1.012.787s.655.4.992.572a.162.162,0,0,0,.081.2c1.566.817,3.09,1.738,4.672,2.521C239.98,390.751,240.19,390.294,239.9,390.138Z" transform="translate(-99.627 -165.199)"/>
    <path id="Path_29127" data-name="Path 29127" class="cls-2" d="M243.531,388.515a33.32,33.32,0,0,0-5.863-3.039.172.172,0,0,0-.144.305,33.123,33.123,0,0,0,5.771,3.1C243.512,388.961,243.75,388.675,243.531,388.515Z" transform="translate(-101.569 -164.88)"/>
    <path id="Path_29128" data-name="Path 29128" class="cls-2" d="M246.892,386.275a.172.172,0,1,0,.219.1A.172.172,0,0,0,246.892,386.275Z" transform="translate(-105.558 -165.22)"/>
    <path id="Path_29129" data-name="Path 29129" class="cls-3" d="M368.936,317.478a.291.291,0,0,0-.276-.211,1.99,1.99,0,0,0-1.192.286,1.223,1.223,0,0,0-.074-.343c-.007-.019-.017-.033-.025-.05a1.545,1.545,0,0,1,.844-.105c.176.029.252-.241.074-.27a2.028,2.028,0,0,0-1.091.149c-.48-.37-1.419.319-1.681.744a.327.327,0,0,0,.114.437,1.351,1.351,0,0,0,.2.114,1.711,1.711,0,0,0-.007,1.506c.351.712,1.618.311,2.117-.027A2.232,2.232,0,0,0,368.936,317.478Zm-1.4,1.535c-.537.188-.4-.225-.217-.526a.853.853,0,0,1,.129.022C367.763,318.61,367.95,318.868,367.535,319.014Zm-1.3.247a1.556,1.556,0,0,1-.043-.349.311.311,0,0,0,.276.068c.017,0,.031-.014.048-.02a.529.529,0,0,0,.347.581.044.044,0,0,1,.018.006c-.3.056-.572.009-.648-.287Zm2.042-.815a1.072,1.072,0,0,0-.466-.424,1.4,1.4,0,0,1,.589-.176,1.482,1.482,0,0,1-.122.6Z" transform="translate(-156.33 -135.492)"/>
    <path id="Path_29130" data-name="Path 29130" class="cls-3" d="M358.6,198.139a2.508,2.508,0,0,0-3.459-.52,2.2,2.2,0,0,0-.8,2.088,1.019,1.019,0,0,0,.278,1.528,2.18,2.18,0,0,0,.443.871c.957,1.157,2.632.6,3.45-.425a2.923,2.923,0,0,0,.088-3.541Zm-1.589,4.026a1.475,1.475,0,0,1-1.837-.681,1.343,1.343,0,0,0,.15.023c.017.026.033.053.051.077a.434.434,0,0,0,.1.1c.13.266.557.133.584-.114a1.422,1.422,0,0,0,.189-.16,2.128,2.128,0,0,0,1.608-.717,1.932,1.932,0,0,0-.62-2.884,1.738,1.738,0,0,1,.372.159C359.288,198.952,358.716,201.572,357.008,202.164Z" transform="translate(-151.467 -84.327)"/>
    <path id="Path_29131" data-name="Path 29131" class="cls-3" d="M76.6,265.428a1.439,1.439,0,0,0-2.232-.858,1.534,1.534,0,0,0,.243,2.47.309.309,0,0,0,.172.035l.043.05a.334.334,0,0,0,.4.051,2.707,2.707,0,0,0,.412-.316A1.4,1.4,0,0,0,76.6,265.428Z" transform="translate(-31.59 -113.054)"/>
    <path id="Path_29132" data-name="Path 29132" class="cls-3" d="M128.954,230.747a2.346,2.346,0,0,0-2.844.515,2.1,2.1,0,0,0-1.193,1.133,2.318,2.318,0,0,0,1.046,3.01,1.759,1.759,0,0,0,.208.207c1.193.984,3.131-.036,3.8-1.168A2.714,2.714,0,0,0,128.954,230.747Zm-.6,4.492a2.359,2.359,0,0,1-.243.1,2.118,2.118,0,0,0,.48-.37,2.39,2.39,0,0,0,.474-.758,1.971,1.971,0,0,0,.421-1.711,2.006,2.006,0,0,0-.648-1.125,2.183,2.183,0,0,1,.96,1.81,2.437,2.437,0,0,1-1.444,2.056Z" transform="translate(-53.345 -98.583)"/>
    <path id="Path_29133" data-name="Path 29133" class="cls-3" d="M103.718,157.52a1.919,1.919,0,0,1,.2-.2c.168-.145-.077-.389-.244-.244a2.484,2.484,0,0,0-.307.325.386.386,0,0,0-.221.323,2.643,2.643,0,0,0-.125.244.47.47,0,0,0-.488-.081.867.867,0,0,0-.525.465.58.58,0,0,0,.561.834h.036a1,1,0,0,0,.252.3,2.069,2.069,0,0,0,.078.253.3.3,0,0,0,.443.18,1.652,1.652,0,0,0,.342-2.4Z" transform="translate(-43.607 -67.167)"/>
    <path id="Path_29134" data-name="Path 29134" class="cls-3" d="M141.045,103.29c-.1-.03-.194-.06-.294-.089.005-.078.01-.157.014-.234a.323.323,0,0,0-.235-.308,3.2,3.2,0,0,0-.486-.083,1.44,1.44,0,0,0-.636-.7,1.285,1.285,0,0,0-.286-.112l.1-.057c.164-.086.02-.323-.144-.246a5.745,5.745,0,0,0-.515.279,1.239,1.239,0,0,0-.947.724,2.074,2.074,0,0,0-.482,2.9,1.446,1.446,0,0,0,1.326.687c.031.068.057.136.092.2.192.384.753.048.572-.335-.007-.016-.014-.034-.022-.05a5.675,5.675,0,0,0,2.11-2.157.293.293,0,0,0-.169-.422Zm-1.509,1.454a2.727,2.727,0,0,0,.153-.509,1.382,1.382,0,0,0,.124-.121,1.515,1.515,0,0,0,.252-.458,2.5,2.5,0,0,1-.044.275l-.147.409C139.772,104.585,139.658,104.716,139.536,104.743Zm-1.993-1.6a.989.989,0,0,0,.129.312,1.61,1.61,0,0,0-.114.136,1.726,1.726,0,0,0-.292.8,1.66,1.66,0,0,1,.278-1.249Z" transform="translate(-58.485 -43.392)"/>
    <path id="Path_29135" data-name="Path 29135" class="cls-3" d="M193.435,296.789a2.06,2.06,0,0,0-2.2-1.566,2.383,2.383,0,0,0-3.154,2.706,2.28,2.28,0,0,0,1.21,1.52,2,2,0,0,0,2.064.518,2.038,2.038,0,0,0,1.816-1.571,2.544,2.544,0,0,0,.262-1.608Zm-3.376,1.708a1.1,1.1,0,0,1-.585-.5c-.031-.046-.046-.088-.071-.132a.746.746,0,0,1,.01-.148c.212.262.423.521.648.774Zm2.085.463a2.315,2.315,0,0,1-.232.2l-.041.022a3.113,3.113,0,0,0,.723-1.279,1.609,1.609,0,0,1-.208.786,2.562,2.562,0,0,1-.24.276Z" transform="translate(-80.421 -126.224)"/>
    <path id="Path_29136" data-name="Path 29136" class="cls-3" d="M341.724,418.575a.744.744,0,0,0-.142-.409c-.133-.18-.52-.218-.559.073-.021.152-.033.305-.047.458a.884.884,0,0,0-.343.431.267.267,0,0,0,.187.328.711.711,0,0,0,.109,0c0,.046-.005.093-.006.138-.007.394.537.374.6.017a.589.589,0,0,0,.63-.426A.577.577,0,0,0,341.724,418.575Z" transform="translate(-145.7 -178.806)"/>
    <path id="Path_29137" data-name="Path 29137" class="cls-3" d="M286.555,284.358a1.052,1.052,0,0,0-1.579.864.383.383,0,0,0,.262.343,1.1,1.1,0,0,0-.623.629.3.3,0,0,0,.206.362c.744.275,1.826.312,2.08-.639a.831.831,0,0,0-.023-.52A.868.868,0,0,0,286.555,284.358Z" transform="translate(-121.739 -121.569)"/>
    <path id="Path_29138" data-name="Path 29138" class="cls-3" d="M237.525,174.172a1.273,1.273,0,0,0-1.765-1.115,1.016,1.016,0,0,0-.6.706,1.443,1.443,0,0,0-.049,1.748,1.414,1.414,0,0,0,2.19-.343,1.36,1.36,0,0,0,.227-1Zm-1.694,1.209a.644.644,0,0,1-.494-.64,1.08,1.08,0,0,0,.118.114,1.158,1.158,0,0,0,.1.172,1.36,1.36,0,0,0,.452.367.731.731,0,0,1-.173-.013Z" transform="translate(-100.45 -73.98)"/>
    <path id="Path_29139" data-name="Path 29139" class="cls-3" d="M285.62,108.915a.265.265,0,0,0-.3.121,1.284,1.284,0,0,0-.128.629.944.944,0,0,0-.047,1.68,1.677,1.677,0,0,0,.225.358c.183.22.532.01.524-.229a.264.264,0,0,0,.141-.037.9.9,0,0,0,.294-.326,1.1,1.1,0,0,0,.353-.652A1.5,1.5,0,0,0,285.62,108.915Z" transform="translate(-121.76 -46.582)"/>
    <path id="Path_29140" data-name="Path 29140" class="cls-3" d="M197.662,79.527a3.361,3.361,0,0,0,.177-.646.317.317,0,0,0-.063-.249.778.778,0,0,0-.572-.482,1,1,0,0,0-.132-.026.142.142,0,0,0-.188-.053c-.025.013-.045.029-.069.042a.955.955,0,0,0-.4.138,1.442,1.442,0,0,0-1.82.826,1.368,1.368,0,0,0,.1,1.259,1.807,1.807,0,0,0,.225.5,3.67,3.67,0,0,0-.033.6.232.232,0,0,0,.286.22,3.262,3.262,0,0,0,.417-.114,4.39,4.39,0,0,0,.542.343.276.276,0,0,0,.307-.013,1.357,1.357,0,0,0,1.234-.726A1.693,1.693,0,0,0,197.662,79.527Zm-1.284-.046a.515.515,0,0,1,.022.451.584.584,0,0,1-.354.332,1.349,1.349,0,0,1,.332-.784Z" transform="translate(-83.192 -33.385)"/>
    <path id="Path_29141" data-name="Path 29141" class="cls-3" d="M292.208,204.568a.77.77,0,0,0-.063-.063.325.325,0,0,0-.365-.05.135.135,0,0,0-.125-.176c-.863-.05-1.373,1.3-.595,1.769h0a.362.362,0,0,0,.286.172.65.65,0,0,0,.572-.229,1.165,1.165,0,0,0,.494-.841.785.785,0,0,0,.086-.1.334.334,0,0,0-.3-.482Z" transform="translate(-124.335 -87.376)"/>
    <path id="Path_29142" data-name="Path 29142" class="cls-3" d="M304.126,151.687a1.924,1.924,0,0,0-2.5-1.137,2,2,0,0,0-.412.2.887.887,0,0,0-.458.144.652.652,0,0,0-.291.734,1.583,1.583,0,0,0-.115.54,1.634,1.634,0,0,0-.031,1.349,2,2,0,0,0,2.184,1.046.263.263,0,0,0,.134-.028,1.91,1.91,0,0,0,.495-.188A2.324,2.324,0,0,0,304.126,151.687Zm-1.338,2.22c-.031.016-.065.025-.1.039-.01-.006-.015-.015-.027-.02a1.7,1.7,0,0,1-.358-.223c.012-.015.025-.029.035-.045a1.107,1.107,0,0,0,.453-.508,1.21,1.21,0,0,0-.252-1.426c0-.013-.005-.026-.009-.039a1.311,1.311,0,0,0-.419-.6,1.59,1.59,0,0,1,.329-.023c1.528.076,1.5,2.237.345,2.844Z" transform="translate(-128.402 -64.339)"/>
    <path id="Path_29143" data-name="Path 29143" class="cls-3" d="M361.766,120.8c-2.9-.381-6.127-.668-8.722.977a5.894,5.894,0,0,0-2.283,2.544c-.633,1.437-.353,3.244-1.9,4.145a4.831,4.831,0,0,1-3.919.1c-1.417-.512-2.552-1.721-4.1-1.888a3.594,3.594,0,0,0-3.873,3.62.14.14,0,0,0,.28,0,3.143,3.143,0,0,1,3.843-3.033c1.241.343,2.214,1.3,3.39,1.791,1.6.669,3.757.809,5.177-.343a3.857,3.857,0,0,0,1.252-2.354,5.6,5.6,0,0,1,1.941-3.609c2.537-2.011,5.912-1.594,8.913-1.283C362.2,121.513,362.182,120.856,361.766,120.8Z" transform="translate(-144.137 -51.544)"/>
    <path id="Path_29144" data-name="Path 29144" class="cls-3" d="M362.061,269.422a19.117,19.117,0,0,0-4.332-.766c-.882-.136-2.06-.18-2.668-.948-.672-.846.409-2.251.933-2.815,1.249-1.344,2.927-2.976,1.454-4.834-1.63-2.06-4.406-1.183-6.449-.373-.167.066-.094.339.075.272,1.463-.581,3.082-1.182,4.635-.572a2.31,2.31,0,0,1,1.141,3.7c-.979,1.269-2.812,2.363-2.583,4.229.236,1.927,2.734,1.9,4.177,2.121,1.145.179,2.976.147,3.9.932.973.834.731,2.545.553,3.655-.062.389.525.562.6.165C363.814,272.491,363.982,270.224,362.061,269.422Z" transform="translate(-150.098 -110.693)"/>
    <path id="Path_29145" data-name="Path 29145" class="cls-3" d="M316.606,389.65c-.888-.629-1.888-.164-2.868-.172-1.913-.02-2.527-2.185-2.141-3.738.62-2.5,2.959-4.349,3.028-7.033a3.03,3.03,0,0,0-3.151-3.269c-.2.024-.207.343,0,.322,1.67-.187,2.7,1.438,2.644,2.947a8.709,8.709,0,0,1-1.774,4.066c-.933,1.488-1.905,3.229-1.4,5.04a2.96,2.96,0,0,0,2.793,2.342c.509,0,1.01-.157,1.518-.163,1.229-.014,1.613,1.087,1.442,2.1a17.906,17.906,0,0,0-.707,3.181.343.343,0,0,0,.681,0C316.67,393.6,318.486,390.981,316.606,389.65Z" transform="translate(-132.946 -160.581)"/>
    <path id="Path_29146" data-name="Path 29146" class="cls-3" d="M63.389,180.773c-1.573.636-2.735,1.879-4.094,2.844-1.573,1.116-4.153,1.983-5.479-.008-.214-.321-.732-.025-.521.3,1.359,2.127,4.159,1.642,5.971.427a39.429,39.429,0,0,1,3.937-2.9c2.3-1.158,5.261-.2,5.242,2.714a.143.143,0,1,0,.286,0C68.748,181.246,65.966,179.732,63.389,180.773Z" transform="translate(-22.775 -77.182)"/>
    <path id="Path_29147" data-name="Path 29147" class="cls-3" d="M162.216,351.886a2.157,2.157,0,0,0-3.183,2.108,8.789,8.789,0,0,0,1.353,2.779c1.059,2.075-.584,3.61-2.117,4.807-.279.217.1.712.382.494,1.381-1.055,3.056-2.5,2.672-4.448a8.243,8.243,0,0,0-1.244-2.441,2.567,2.567,0,0,1-.489-2.034,1.859,1.859,0,0,1,2.484-1.02C162.236,352.208,162.381,351.969,162.216,351.886Z" transform="translate(-67.656 -150.401)"/>
    <path id="Path_29148" data-name="Path 29148" class="cls-3" d="M189.114,187.924c-1.373-.823-3.048-1.3-3.717-2.907-.65-1.558-.229-3.357.146-4.932.086-.363-.47-.515-.56-.154-.551,2.228-1.055,5,.87,6.73a25.284,25.284,0,0,0,3.313,1.919A4.544,4.544,0,0,1,191.1,193.4c-.046.21.271.3.323.089A4.948,4.948,0,0,0,189.114,187.924Z" transform="translate(-78.912 -76.874)"/>
    <path id="Path_29149" data-name="Path 29149" class="cls-4" d="M328.632,200.209a1.354,1.354,0,0,0-1.393-.846,1.552,1.552,0,0,1,.988.223c.137.09.286-.11.172-.223a1.847,1.847,0,0,0-2.939,2.083,1.749,1.749,0,0,0,2.339.916A1.785,1.785,0,0,0,328.632,200.209Zm-1.655,1.24c-.005,0-.01-.005-.015-.007v0a.736.736,0,0,0,.613-.961v0a.983.983,0,0,1,.057.085C327.955,201.086,327.6,201.65,326.977,201.449Zm.184-1.206a1.4,1.4,0,0,0-.545.4.587.587,0,0,1,.336-.447.434.434,0,0,1,.333.037.248.248,0,0,0-.125.014Z" transform="translate(-139.139 -85.061)"/>
    <path id="Path_29150" data-name="Path 29150" class="cls-4" d="M317.189,91.171a2.023,2.023,0,0,0-.94-.926.143.143,0,0,0-.163-.077,1.854,1.854,0,0,0-2.632,1.2,2.118,2.118,0,0,0,.138,1.282,2.87,2.87,0,0,0,.184.973.391.391,0,0,0,.217.224,1.309,1.309,0,0,0,.406.365C316.134,95.2,317.937,92.722,317.189,91.171Zm-2.022,1.252a1.458,1.458,0,0,0-.041-.219.343.343,0,0,0-.569-.15,1.545,1.545,0,0,0-.279.466c-.005-.008-.012-.015-.016-.023a1.762,1.762,0,0,1,.1-.629,2.3,2.3,0,0,1,.339-.433c.524-.118.766,0,.719.35a.592.592,0,0,1-.153.515,1.537,1.537,0,0,1-.1.123Zm1.552.029c-.225.88-1.47,1.708-2.155,1.245a1.348,1.348,0,0,0,.164-.114.727.727,0,0,0,.324-.128,2.482,2.482,0,0,0,1.026-1.3,1.411,1.411,0,0,0-.471-1.4l.114-.065a1.515,1.515,0,0,1,1,1.767Z" transform="translate(-134.059 -38.495)"/>
    <path id="Path_29151" data-name="Path 29151" class="cls-4" d="M91.406,313.052a1.76,1.76,0,0,0-1.726,1.612,1.935,1.935,0,0,0-.529.973,1.46,1.46,0,0,0,1.553,1.844c1.233-.115,1.864-1.348,2.211-2.393a1.446,1.446,0,0,0-1.508-2.036Zm.266,3.262c-.463.58-1.454.992-1.951.218a1.116,1.116,0,0,1,.038-1.38,1.7,1.7,0,0,0,.79.91c.015.032.029.065.045.1a.33.33,0,0,0,.522.057,1.091,1.091,0,0,0,.691-.223,1.182,1.182,0,0,0,.2-.195,3.789,3.789,0,0,1-.334.514Zm.738-1.6a2.722,2.722,0,0,1-.11.44,1.2,1.2,0,0,0-.43-1.236c-.017-.012-.035-.015-.053-.026l.053-.019a.135.135,0,0,0,.093-.106.815.815,0,0,1,.446.946Z" transform="translate(-38.111 -133.898)"/>
    <path id="Path_29152" data-name="Path 29152" class="cls-4" d="M156.045,258.149a2.42,2.42,0,0,0-2.786,1.725,2.582,2.582,0,0,0,.25,1.694,1.705,1.705,0,0,1-.045,1.459c-.194.272-1,.443-1.316.56-.644.241-1.3.424-1.962.618a.3.3,0,0,0,.157.572c1.011-.233,3.6-.729,4.016-1.927.2-.572-.168-1.054-.413-1.535a1.946,1.946,0,0,1,2.025-2.891C156.146,258.455,156.223,258.187,156.045,258.149Z" transform="translate(-64.148 -110.401)"/>
    <path id="Path_29153" data-name="Path 29153" class="cls-4" d="M376.477,374.756a5.566,5.566,0,0,0-4.967-4.533,5.1,5.1,0,0,0-2.175.343,6.872,6.872,0,0,0-1.946-4.472,5.424,5.424,0,0,0-4.885-1.351,5.107,5.107,0,0,0-.124-2.779,5.521,5.521,0,0,0-6.8-3.354.143.143,0,1,0,.076.276,5.253,5.253,0,0,1,6.188,3.225,4.726,4.726,0,0,1,0,2.808,4.75,4.75,0,0,0-3.275,3.553c-.045.214.148.487.392.392a5.884,5.884,0,0,0,3.333-3.426,4.578,4.578,0,0,1,3.644.386,5.679,5.679,0,0,1,2.491,3.455,6.593,6.593,0,0,1,.229,1.607,5.8,5.8,0,0,0-2.653,3.2.363.363,0,0,0,.164.4c1.9,1.3,3.007-1.308,3.155-2.8.011-.114.01-.229.015-.347a4.407,4.407,0,0,1,2.168-.4,4.746,4.746,0,0,1,3.949,2.989l-.077-.057c-.376-.267-.715.343-.358.612l.911.683C376.22,375.381,376.531,375.035,376.477,374.756Zm-17.067-6.8a4.355,4.355,0,0,1,2.105-2.206,5.189,5.189,0,0,1-2.1,2.2Zm7.382,6.058a5.04,5.04,0,0,1,1.816-2.264c-.136.991-.607,2.818-1.814,2.263Z" transform="translate(-152.055 -153.287)"/>
    <path id="Path_29154" data-name="Path 29154" class="cls-4" d="M244.939,59.848c-2.87,1.185-6.333,2.814-6.518,6.37a3.806,3.806,0,0,0,1.708,3.494c1.05.7,2.037,1.127,2.093,2.592a8.962,8.962,0,0,1-.541,3.151,6.531,6.531,0,0,1-.984,1.855,4.965,4.965,0,0,0-3.687-1.964c-1.4-.088-3.382.589-2.726,2.334a3.442,3.442,0,0,0,3.238,1.979,4.406,4.406,0,0,0,3.133-1.266,5.292,5.292,0,0,1,.767,3.116,9.587,9.587,0,0,1-3.44,6.218c-1.182,1.071-2.6,2.181-2.322,3.963.325,2.109,2.444,3.161,4.177,3.961.163.075.305-.167.141-.242a6.9,6.9,0,0,1-3.5-2.637c-.937-1.73.069-3.064,1.341-4.167a12.059,12.059,0,0,0,3.88-5.258,6.76,6.76,0,0,0-.587-5.427,8.029,8.029,0,0,0,1.77-6.2,2.943,2.943,0,0,0-1.464-2.056c-1.306-.842-2.316-1.568-2.283-3.279.062-3.273,3.408-4.774,6-5.843C245.548,60.365,245.364,59.672,244.939,59.848Zm-7.811,19.081c-.807-.1-3.411-1.35-1.795-2.589.8-.615,2.248-.3,3.072.069a5.1,5.1,0,0,1,1.844,1.413,3.647,3.647,0,0,1-3.121,1.107Z" transform="translate(-100.158 -25.585)"/>
    <path id="Path_29155" data-name="Path 29155" class="cls-4" d="M294.469,262.278a16.9,16.9,0,0,0-2.256-3.844c-.319-.406-.84-.9-1.324-1.444a3.345,3.345,0,0,0,2.557-1.946c.467-1.054.343-2.567-.973-2.877a3.382,3.382,0,0,0-3.418,2.021,2.265,2.265,0,0,0,.306,1.994c-1.456-.638-1.7-2.846-1.8-4.4-.117-1.761-.981-4.2-3.177-3.86-.211.033-.164.4.051.376,2.944-.357,2.374,3.914,2.666,5.63a3.486,3.486,0,0,0,2.839,3.06h.021c.309.357.641.691.923,1A16.621,16.621,0,0,1,295,270.729c-.043.453.654.443.7,0A16.86,16.86,0,0,0,294.469,262.278Zm-4.255-8.529c.79-.782,2.908-1.652,2.727.5a2.592,2.592,0,0,1-2.045,2.056,3.475,3.475,0,0,1-.521.057C289.73,255.5,289.383,254.571,290.214,253.748Z" transform="translate(-121.586 -106.032)"/>
    <path id="Path_29156" data-name="Path 29156" class="cls-4" d="M261.793,363.215c-.039-.229-.072-.465-.092-.7a2.39,2.39,0,0,0,2.581-.3,1.614,1.614,0,0,0-.74-2.9,2.225,2.225,0,0,0-2.464,2.028,4.081,4.081,0,0,1-.995-1.087,4.789,4.789,0,0,1,.544-5.848,4.091,4.091,0,0,0,1.281-1.965c.191-1.1-.5-2.272-.889-3.253-.681-1.717-1.267-3.8-2.781-5a3.383,3.383,0,0,0-.472-.306,6.422,6.422,0,0,0-1.416-3.949,14.175,14.175,0,0,0-2.547-2.309,4.006,4.006,0,0,1-1.506-1.888c-.261-.98.286-2.289,1.447-2.232.185.009.182-.272,0-.286-1.373-.108-2.149,1.416-1.884,2.638a4.221,4.221,0,0,0,1.566,2.147,12.291,12.291,0,0,1,2.724,2.686,5.651,5.651,0,0,1,.967,2.925,3.008,3.008,0,0,0-2.654.338c-.961.687-1.338,2.433-.052,3.022,1.225.561,2.518-.529,3-1.576a3.778,3.778,0,0,0,.262-.791c1.629,1.167,2.423,4.158,3.022,5.683.358.916.767,1.771.176,2.735a11.553,11.553,0,0,1-1.1,1.254,4.989,4.989,0,0,0-1.087,2.365,5.685,5.685,0,0,0,1.091,4.422,4.895,4.895,0,0,0,1.2,1.072,4.532,4.532,0,0,0,.021.607,22.818,22.818,0,0,0,2.844,8.217c.215.4.813.045.6-.353A25.131,25.131,0,0,1,261.793,363.215Zm-4.727-18.894a2.626,2.626,0,0,1-1.215,1.9l-.712.213-.7-1.462c.051-.423.779-.678,1.138-.765a2.461,2.461,0,0,1,1.488.073A.1.1,0,0,1,257.066,344.322ZM262,360.851a1.324,1.324,0,0,1,.782-.712c.668-.239.793-.149,1.116.444.786,1.441-1.213,1.523-2.187,1.139A2.236,2.236,0,0,1,262,360.851Z" transform="translate(-107.711 -142.533)"/>
    <path id="Path_29157" data-name="Path 29157" class="cls-4" d="M217.208,315.662a.661.661,0,0,0-.074-.133,1.087,1.087,0,0,0-.927-.422.791.791,0,0,0-.781.561.713.713,0,0,0,0,.237h-.014a.5.5,0,0,0-.28.75.935.935,0,0,0,.82.5,1.265,1.265,0,0,0,.953-.581l.028-.038a.779.779,0,0,0,.4-.51A.348.348,0,0,0,217.208,315.662Z" transform="translate(-91.988 -134.782)"/>
    <path id="Path_29158" data-name="Path 29158" class="cls-4" d="M179.775,269.931a.948.948,0,0,0-.47.614.661.661,0,0,0,.077.458.681.681,0,0,0,.017.262.572.572,0,0,0,.749.362.991.991,0,0,0,.623-.687C180.934,270.34,180.432,269.573,179.775,269.931Z" transform="translate(-76.692 -115.42)"/>
    <path id="Path_29159" data-name="Path 29159" class="cls-4" d="M41.573,310.287a1.683,1.683,0,0,0-.057-.711.3.3,0,0,0-.5-.133.916.916,0,0,0-.088,1.1,1.244,1.244,0,0,1-.051.125.139.139,0,0,0-.021.035,1.374,1.374,0,0,1-.11.187.261.261,0,0,0,.041.314.492.492,0,0,0,.841-.286.389.389,0,0,0-.06-.217.268.268,0,0,0,.009-.409Z" transform="translate(-17.413 -132.323)"/>
    <path id="Path_29160" data-name="Path 29160" class="cls-4" d="M165.841,221.344a1.317,1.317,0,0,0-.412-.177,1.15,1.15,0,0,0-.861-.068.155.155,0,0,0-.154.062,1.431,1.431,0,0,0,.754,2.706c.01.01.018.021.028.03a.364.364,0,0,0,.6-.176c.027-.013.057-.019.085-.033a1.363,1.363,0,0,0-.037-2.345Z" transform="translate(-69.988 -94.549)"/>
    <path id="Path_29161" data-name="Path 29161" class="cls-4" d="M198.322,385.69a1.831,1.831,0,0,0-.362,2.651,1.888,1.888,0,0,0,3.111-.338.374.374,0,0,0,.176-.458,2.1,2.1,0,0,0,.057-.353C201.417,385.651,199.378,384.445,198.322,385.69Zm.023,2.082c.028.025.05.053.081.075a1.374,1.374,0,0,0,.956.235l.016.008a1.159,1.159,0,0,0,.566.08c-.024.012-.042.029-.068.04a1.566,1.566,0,0,1-.948.057,1.159,1.159,0,0,1-.606-.494Zm1.454-.938a.744.744,0,0,0-.7,0c-.132-.175-.177-.365.179-.4a.445.445,0,0,1,.515.4Z" transform="translate(-84.501 -164.754)"/>
    <path id="Path_29162" data-name="Path 29162" class="cls-4" d="M225.769,216.979c.183.019.181-.267,0-.286a.614.614,0,0,0-.636.54.426.426,0,0,0-.221.353.286.286,0,0,0,.391.277.507.507,0,0,0,.07.067.229.229,0,0,0,.233,0c.27-.172.185-.447-.018-.63a.457.457,0,0,0-.126-.079A.286.286,0,0,1,225.769,216.979Z" transform="translate(-96.205 -92.687)"/>
    <path id="Path_29163" data-name="Path 29163" class="cls-4" d="M143.834,176.8a.343.343,0,0,0-.332-.089c-.018-.015-.031-.031-.05-.045a.318.318,0,0,0-.377.042c-.014-.01-.022-.026-.041-.03a1.186,1.186,0,0,0-1.373.793,1.03,1.03,0,0,0,.1.826.839.839,0,0,0,.017.253.318.318,0,0,0,.474.212,1.259,1.259,0,0,0,.181.08,1.138,1.138,0,0,0,1.521-1.165A.889.889,0,0,0,143.834,176.8Zm-.973.156a1.061,1.061,0,0,0-.163.494,1.093,1.093,0,0,0-.576.212.787.787,0,0,1,.743-.708Zm-.249,1.373a.871.871,0,0,1-.125-.048c.078-.107.317-.191.393-.069a.378.378,0,0,0,.1.1.577.577,0,0,1-.367.015Z" transform="translate(-60.576 -75.546)"/>
    <path id="Path_29164" data-name="Path 29164" class="cls-4" d="M107.791,127.869c-1.21-2.3-2.69-4.759-5.494-5.136-1.74-.233-3.459.134-5.19-.309a4.992,4.992,0,0,1-3.8-3.2c-.694-2.3.346-5.333-1.44-7.268a4.987,4.987,0,0,0-3.13-1.321c-1.586-.223-4.913-.505-4.559-2.919.057-.377-.52-.541-.579-.16-.414,2.71,2.747,3.376,4.762,3.622,2.282.279,3.757,1.233,4,3.635a30.654,30.654,0,0,0,.331,4.226c.651,2.66,3.216,3.876,5.758,4.093,1.995.172,4.072-.425,5.868.747a10.882,10.882,0,0,1,3.221,4.135C107.631,128.176,107.876,128.031,107.791,127.869Z" transform="translate(-35.744 -45.91)"/>
    <path id="Path_29165" data-name="Path 29165" class="cls-5" d="M65.669,241.434c-2.747-.755-6.054-1.644-8.245.821a3.548,3.548,0,0,0-.9,3.018c.217,1.325.54,2.343-.538,3.4a5.8,5.8,0,0,1-2.529,1.471,1.9,1.9,0,0,0-.256-2.2c-1.373-1.66-3.417.589-2.157,2.084a2.159,2.159,0,0,0,1.2.725,9.532,9.532,0,0,1-1.641,1.333c-1.391.956-2.933,1.66-4.406,2.477-2.518,1.395-4.952,3.287-5.591,6.238-.084.387.506.553.6.164.886-3.866,4.807-5.494,7.935-7.231a13.79,13.79,0,0,0,3.9-2.925,5.358,5.358,0,0,0,4.256-3.026,3.781,3.781,0,0,0-.065-2.029,3.318,3.318,0,0,1,.957-3.473c1.981-1.813,5.062-1.193,7.407-.572a.143.143,0,0,0,.077-.274Zm-14.435,7.523q1.774-1.36,1.686.057a1.1,1.1,0,0,1-.181,1.074.915.915,0,0,1-.057.085C51.96,250.1,51.12,249.772,51.235,248.957Z" transform="translate(-17.366 -102.929)"/>
    <path id="Path_29166" data-name="Path 29166" class="cls-5" d="M384.818,233.809a8.812,8.812,0,0,0-3.562-3.158c-.694-.4-1.4-.778-2.073-1.217a9.035,9.035,0,0,1-1.268-.973c-.1-.093-.19-.2-.283-.294a2.34,2.34,0,0,0,.773-.858,1.417,1.417,0,0,0-.358-1.922,1.319,1.319,0,0,0-1.736.762,1.942,1.942,0,0,0,.307,1.84,2.824,2.824,0,0,1-.365.1,2.787,2.787,0,0,1-2.017-.343c-.945-.593-1.332-1.717-1.907-2.611-.724-1.125-1.954-2.122-3.34-1.573-.168.066-.1.343.076.274,2.277-.9,3.036,2.289,4.029,3.568a3.281,3.281,0,0,0,2.743,1.329A3.521,3.521,0,0,0,377,228.5c.141.163.286.314.429.448,2.085,1.989,5.251,2.638,6.776,5.222a.354.354,0,0,0,.609-.361Zm-6.883-7.028c.03.383-.323.708-.733.94C376.9,227.318,377.138,227,377.936,226.781Z" transform="translate(-157.793 -95.56)"/>
    <path id="Path_29167" data-name="Path 29167" class="cls-5" d="M157.632,78.306a11.371,11.371,0,0,0-6.129-5.1c-1.77-.712-3.107-1.85-3.147-3.887,0-.076,0-.163,0-.255,1.242-.052,2.265-2.675.988-3.036a.267.267,0,0,0-.26.069,4.511,4.511,0,0,0-1.129,2.135,1.614,1.614,0,0,1-.229-.211,11.827,11.827,0,0,1-.878-1.723,10.651,10.651,0,0,0-1.139-1.558,7.963,7.963,0,0,0-3.081-2.2,5.783,5.783,0,0,0-6.619,1.633c-.216.278.164.676.395.395a5.366,5.366,0,0,1,6.066-1.451c2.276.875,3.568,2.861,4.628,4.926a2.07,2.07,0,0,0,.753.892,4.362,4.362,0,0,0,1.24,3.445c1.14,1.124,2.853,1.378,4.222,2.112a10.283,10.283,0,0,1,4.063,3.966.148.148,0,0,0,.253-.147Zm-8.556-11.377q.163-.458.38,0a1.322,1.322,0,0,1-.185.687c-.185.429-.48.789-.849.791a2.3,2.3,0,0,1,.654-1.478Z" transform="translate(-58.151 -26.572)"/>
    <path id="Path_29168" data-name="Path 29168" class="cls-5" d="M202.461,160.139a6.842,6.842,0,0,0-2.373-1.907,2.737,2.737,0,0,1-1.454-2.4,11.13,11.13,0,0,0-.2-2.232c-.724-2.919-3.153-5.076-5.361-6.931-.325-.273-.8.191-.47.47,2.486,2.132,5.242,4.563,5.427,8.065.061,1.152.09,2.126,1.033,2.909.993.824,2.337,1.082,3.074,2.217C202.265,160.536,202.592,160.348,202.461,160.139Z" transform="translate(-82.336 -62.698)"/>
    <path id="Path_29169" data-name="Path 29169" class="cls-5" d="M239.222,154.663a.652.652,0,0,0-.148-.889.827.827,0,0,0-.981-.044.7.7,0,0,0-.239.827.578.578,0,0,0,.3.712.744.744,0,0,0,1.056-.434.374.374,0,0,0,.011-.159Z" transform="translate(-101.719 -65.695)"/>
    <path id="Path_29170" data-name="Path 29170" class="cls-5" d="M276.982,155.512a1.043,1.043,0,0,0-.732-.515.5.5,0,0,0-.564.453c-.013.429.482.731.77.5a.329.329,0,0,0,.04.044.306.306,0,0,0,.483-.223.2.2,0,0,0,0-.257Z" transform="translate(-117.923 -66.295)"/>
    <path id="Path_29171" data-name="Path 29171" class="cls-4" d="M253.1,202.316c-.33-.48-.665-.565-.942-.435a2.612,2.612,0,0,0-.576-.2.335.335,0,0,0-.4.229,3.313,3.313,0,0,0-.07,1.28,1.141,1.141,0,0,0,.273,1.563,3.351,3.351,0,0,0,.4.792.306.306,0,0,0,.528-.309c-.034-.077-.074-.162-.114-.252h.013A1.762,1.762,0,0,0,253.1,202.316Z" transform="translate(-107.328 -86.26)"/>
    <path id="Path_29172" data-name="Path 29172" class="cls-4" d="M279.928,312.76a1.538,1.538,0,0,0-1.193.021,1.255,1.255,0,0,0-.561.2,1.58,1.58,0,0,0,.22,2.618c.267.187.559-.219.343-.442a2.475,2.475,0,0,1-.172-.2,1.512,1.512,0,0,0,.41-.189.884.884,0,0,0,.91-.726,1.217,1.217,0,0,0,.03-.243,1.892,1.892,0,0,0,.235-.651A.328.328,0,0,0,279.928,312.76Zm-1.131,1.249a.409.409,0,0,1-.079-.219.707.707,0,0,1,.261-.371.3.3,0,0,1,.208.122,1.111,1.111,0,0,1-.073.252,1.287,1.287,0,0,1-.317.216Z" transform="translate(-118.727 -133.732)"/>
    <path id="Path_29173" data-name="Path 29173" class="cls-6" d="M223.976,334.51a.327.327,0,0,0-.406-.31c-.079.019-.16.041-.241.065a1.148,1.148,0,0,0-.266-.132,1.12,1.12,0,0,0-1.182.4,1.925,1.925,0,0,0-.755.738c-.354.612-.442,1.639.372,1.888a1.512,1.512,0,0,0,1.165-.143,1.113,1.113,0,0,0,.275-.047.315.315,0,0,0,.333-.165,1.348,1.348,0,0,0,.4-.4,1.815,1.815,0,0,0,.229-1.206A1.517,1.517,0,0,0,223.976,334.51Z" transform="translate(-94.474 -142.905)"/>
    <path id="Path_29174" data-name="Path 29174" class="cls-5" d="M167.116,304.98a1.8,1.8,0,0,0-.05-.232,1.432,1.432,0,0,0-.014-.2,1.63,1.63,0,0,0-.843-1.115,1.019,1.019,0,0,0-.64-.379.353.353,0,0,0-.374.151.894.894,0,0,0-.874.833,1.332,1.332,0,0,0-.34.949,1.581,1.581,0,0,0,1.745,1.462.241.241,0,0,0,.044-.013.929.929,0,0,0,.186.078C166.82,306.728,167.2,305.655,167.116,304.98Zm-1.677.4a.912.912,0,0,0,.848-.394c.028,0,.057,0,.085-.006a.333.333,0,0,0,.047-.014,1.03,1.03,0,0,1-.736.843,1.588,1.588,0,0,1-.244-.429Zm-.817-.315a.347.347,0,0,0,.057.006h.078a1.281,1.281,0,0,0,.209.152,2.932,2.932,0,0,0,.18.515,1.008,1.008,0,0,1-.526-.673Z" transform="translate(-70.142 -129.623)"/>
    <path id="Path_29175" data-name="Path 29175" class="cls-5" d="M188.182,221.738c.362-.47.016-1.178-.382-1.482a.249.249,0,0,0-.225-.025.27.27,0,0,0-.189.038,1.589,1.589,0,0,0-.732,1.276.344.344,0,0,0,.082.22.156.156,0,0,0,0,.043.319.319,0,0,0,.308.235,1,1,0,0,0,.172-.044c.241.1.483.191.73.272a.3.3,0,0,0,.233-.535Z" transform="translate(-79.84 -94.194)"/>
    <path id="Path_29176" data-name="Path 29176" class="cls-5" d="M224.574,144.492c-.114-.057-.263-.126-.426-.207a1.773,1.773,0,0,0,.541-.687c.445-1.036.015-2.8-1.411-2.5a1.364,1.364,0,0,0-1.139,1.473,1.178,1.178,0,0,0-.185,1.545,1.367,1.367,0,0,0,1.431.536,5.11,5.11,0,0,0,.959.4.3.3,0,0,0,.231-.557Zm-1.48-1.124a1.815,1.815,0,0,1-.172-.3.659.659,0,0,1,.025-.153.879.879,0,0,1,.268-.348.133.133,0,0,0,.057-.044c.142-.1.3-.162.414-.085.394.27-.21.71-.593.934Zm-.946.021a.718.718,0,0,1,.062-.35c.01.037.022.072.034.108a1.351,1.351,0,0,0,.106.448,1.8,1.8,0,0,0,.235.385.761.761,0,0,1-.437-.591Z" transform="translate(-94.851 -60.336)"/>
    <path id="Path_29177" data-name="Path 29177" class="cls-2" d="M259.43,159.953a.75.75,0,0,0-.773-.7c-.025-.008-.049-.016-.074-.022a2.689,2.689,0,0,0-.6-.239.916.916,0,0,0-.389-.085c-.1-.015-.193-.024-.289-.031.069-.131.139-.259.212-.377.111-.18-.172-.343-.283-.165-.541.854-1.071,2.01-.505,2.988a1.853,1.853,0,0,0,.366.445c.286.4.629.769.882,1.167a.26.26,0,0,0,.448-.262,3.7,3.7,0,0,0-.25-.453,1.244,1.244,0,0,0,.463-.073,1.454,1.454,0,0,0,.87-1.488,1.084,1.084,0,0,0-.082-.709Zm-2.164-.032c.04-.022.075-.038.114-.057a1.115,1.115,0,0,0,.744,1.123.783.783,0,0,1-.366-.084,1.6,1.6,0,0,1-.492-.981Z" transform="translate(-109.713 -67.692)"/>
    <path id="Path_29178" data-name="Path 29178" class="cls-2" d="M35.331,318.788c-3.649.419-7.84,1.392-10.829,3.658a6.783,6.783,0,0,0-2.3,3.812,17.33,17.33,0,0,1-2.39,5.229,10.625,10.625,0,0,1-6.832,4.4,2.885,2.885,0,0,0-1.563-3.138,2.919,2.919,0,0,0-4.126,2.269.3.3,0,0,0,.13.32,8.23,8.23,0,0,0,4.807,1.181c-.713,1.748-2.732,2.61-4.292,3.48A17.508,17.508,0,0,0,.018,348.38c-.114.283.365.486.5.209a17.5,17.5,0,0,1,5.727-6.761c1.951-1.393,4.667-2.186,6.066-4.23a4.171,4.171,0,0,0,.546-1.145,11.514,11.514,0,0,0,7.961-5.5,16.477,16.477,0,0,0,1.616-3.605c.581-1.839.973-3.527,2.648-4.7a23.621,23.621,0,0,1,10.253-3.565C35.513,319.057,35.518,318.766,35.331,318.788ZM9.015,335.5c-.6-.222-1.155-.32-1-.977a2.338,2.338,0,0,1,1.6-1.447,2.387,2.387,0,0,1,2.81,2.81c0,.022-.012.043-.017.065a7.84,7.84,0,0,1-3.392-.452Z" transform="translate(0 -136.357)"/>
    <path id="Path_29179" data-name="Path 29179" class="cls-2" d="M82.453,50.276c-3.642.118-8.049-1.56-6.772-6.009a7.55,7.55,0,0,0-.956-6.955c-1.549-2.267-3.843-3.746-5.916-5.466a11.838,11.838,0,0,1-4.715-8.372c-.025-.335-.542-.343-.527,0A11.242,11.242,0,0,0,67.3,31.309c2.478,2.311,5.629,3.949,7.382,6.959a6.563,6.563,0,0,1,.609,5.463,5.1,5.1,0,0,0-.1,3.646c1.222,2.837,4.535,3.319,7.264,3.188C82.642,50.557,82.642,50.268,82.453,50.276Z" transform="translate(-27.19 -9.93)"/>
    <path id="Path_29180" data-name="Path 29180" class="cls-2" d="M334.125,27.349A28.615,28.615,0,0,0,319.8,41.784c-.086.185.188.348.276.161a30.9,30.9,0,0,1,14.313-14.152C334.687,27.639,334.422,27.223,334.125,27.349Z" transform="translate(-136.784 -11.686)"/>
    <path id="Path_29181" data-name="Path 29181" class="cls-2" d="M243.77,6.416A38.461,38.461,0,0,0,241.9.169a.245.245,0,0,0-.472.13c.324,1.2.682,2.395,1.04,3.587.367,1.222,1.2,2.91.528,4.133-.858,1.566-2.7,2.238-3.452,3.939a6.4,6.4,0,0,0,2.1,7.725c.18.125.343-.166.172-.291a5.79,5.79,0,0,1-2.339-4.934,5.985,5.985,0,0,1,2.443-4.536C243.064,8.956,244,8.01,243.77,6.416Z" transform="translate(-102.238 0.004)"/>
    <path id="Path_29182" data-name="Path 29182" class="cls-2" d="M265.4,16.686a1.457,1.457,0,0,0-.151-.439,1.7,1.7,0,0,0-2.224-.572,1.751,1.751,0,0,0-.814,2.122,1.03,1.03,0,0,0,.057.842,1.394,1.394,0,0,0,1.867.462,1.852,1.852,0,0,0,.764-.229,1.48,1.48,0,0,0,.5-2.185Zm-.692.736a1.008,1.008,0,0,1-.125.192,1.456,1.456,0,0,0-.48-.591,1.235,1.235,0,0,0-.266-.138.477.477,0,0,1,.67-.11A.687.687,0,0,1,264.706,17.422Z" transform="translate(-112.115 -6.616)"/>
    <path id="Path_29183" data-name="Path 29183" class="cls-2" d="M144.012,82.207c.1-.4-.044-.784-.542-.793s-.811.519-.894.95a.193.193,0,0,0-.066.265l.006.007c-.007.042-.021.081-.025.124a.275.275,0,0,0,.157.252c.188.515.6.982.458,1.533a.274.274,0,0,0,.527.145,1.93,1.93,0,0,0-.282-1.561l-.031-.068a.638.638,0,0,0,.693-.847Z" transform="translate(-60.946 -34.822)"/>
    <path id="Path_29184" data-name="Path 29184" class="cls-4" d="M229.76,273.815a.827.827,0,0,1-.364-.037,1.232,1.232,0,0,0,.163-.081,1.4,1.4,0,0,0,.271-2.043,1.11,1.11,0,0,0-.62-.318,1.475,1.475,0,0,0-1.03-.021c-1.215.462-.716,1.975.2,2.439a1.417,1.417,0,0,0,1.457.615C230.141,274.3,230.079,273.777,229.76,273.815Z" transform="translate(-97.295 -116.016)"/>
    <path id="Path_29185" data-name="Path 29185" class="cls-6" d="M223.744,199.661a.9.9,0,0,0-.081-1.371,1.214,1.214,0,0,0-.528-.223.719.719,0,0,0-.426-.258V197.8a.15.15,0,1,0-.3,0v.023a1.288,1.288,0,0,0-.834,1.1A1.2,1.2,0,0,0,223.267,200l.01-.005a1.71,1.71,0,0,1,.115.136.278.278,0,0,0,.479-.28C223.834,199.78,223.785,199.724,223.744,199.661Z" transform="translate(-94.778 -84.543)"/>
    <path id="Path_29186" data-name="Path 29186" class="cls-6" d="M283.705,217.792c-1.254.266-1.07,2.507.244,2.478a.277.277,0,0,0,.259-.229.2.2,0,0,0,.236.051C285.564,219.582,284.947,217.529,283.705,217.792Zm.542,1.967a.166.166,0,0,0-.075.068.229.229,0,0,0-.151-.1c-.546-.106-.782-1.139-.191-1.347.683-.24,1.064,1.079.417,1.375Z" transform="translate(-120.991 -93.147)"/>
    <path id="Path_29187" data-name="Path 29187" class="cls-6" d="M431.234,331.321a52.294,52.294,0,0,0-2.388-5.135c-.749-1.448-1.471-3.371-2.713-4.484a4.262,4.262,0,0,0-3.616-.739,34.874,34.874,0,0,0-5.723,1.572c-2.168.724-4.177.827-5.789-1.013a16.1,16.1,0,0,1-2.321-4.235c-1.02-2.308-2.711-4.952-5.541-4.907a.156.156,0,0,0,0,.312c6.265.036,4.615,11.159,11.21,10.956,1.7-.052,3.336-.873,4.948-1.341,1.63-.473,3.887-1.328,5.564-.712,1.709.63,2.595,3.173,3.371,4.676.892,1.726,1.693,3.5,2.565,5.231C430.921,331.738,431.331,331.572,431.234,331.321Z" transform="translate(-172.38 -133.617)"/>
    <path id="Path_29188" data-name="Path 29188" class="cls-6" d="M396.979,287.729a.7.7,0,0,0-.1-.074c-.013-.009-.025-.021-.038-.029s-.031-.018-.046-.027-.011-.007-.017-.01c-.438-.275-1.36-.587-1.66-.041a1.431,1.431,0,0,0,.036,1.32,1.045,1.045,0,0,0,.114.395,1.268,1.268,0,0,0,.9.844,1.333,1.333,0,0,0,1.5-.863A1.6,1.6,0,0,0,396.979,287.729Zm-1.024,1.094a.514.514,0,0,1-.1-.07c.035-.369.562-.744.678-.451a.446.446,0,0,1-.581.521Z" transform="translate(-168.951 -122.866)"/>
    <path id="Path_29189" data-name="Path 29189" class="cls-6" d="M391.978,264a.979.979,0,0,0-1.009.606.137.137,0,0,0-.142-.128.592.592,0,0,0-.2,1.1.726.726,0,0,0,.556,0,.3.3,0,0,0,.215.026.952.952,0,0,0,.73-.619.589.589,0,0,0-.017-.328,1.478,1.478,0,0,0,.075-.293C392.208,264.228,392.153,264.031,391.978,264Z" transform="translate(-166.959 -112.922)"/>
    <path id="Path_29190" data-name="Path 29190" class="cls-6" d="M292.8,328.592a.723.723,0,0,0-.086.015.967.967,0,0,0-.864.046.326.326,0,0,0-.1.458c-.385.556-.4,1.4.375,1.633a.911.911,0,0,0,.3.031.275.275,0,0,0,.471-.006,1.353,1.353,0,0,0,.064-.16,1.509,1.509,0,0,0,.608-.707.9.9,0,0,0-.77-1.309Z" transform="translate(-124.687 -140.523)"/>
    <path id="Path_29191" data-name="Path 29191" class="cls-6" d="M87.3,215.439a1.114,1.114,0,0,0-.019-.145.308.308,0,0,0-.057-.272A1.463,1.463,0,0,0,86,213.964a.324.324,0,0,0-.308.235.891.891,0,0,0-.037.551,1.194,1.194,0,0,0,.357,1.765.733.733,0,0,0,1.007-.172.216.216,0,0,0,.207-.211.935.935,0,0,0-.018-.119A1.408,1.408,0,0,0,87.3,215.439Zm-1.167.378a.647.647,0,0,1-.124-.486,1.154,1.154,0,0,0,.276.182,1.664,1.664,0,0,0,.255.448c-.12.114-.278.034-.407-.145Z" transform="translate(-36.534 -91.52)"/>
    <path id="Path_29192" data-name="Path 29192" class="cls-2" d="M362.154,67.413a6.6,6.6,0,0,0-6.6,4.944.143.143,0,0,0,.276.076,6.474,6.474,0,0,1,6.328-4.521.251.251,0,0,0,0-.5Z" transform="translate(-152.082 -28.832)"/>
    <path id="Path_29193" data-name="Path 29193" class="cls-2" d="M21.213,208.746c-2.179-1.334-4.928-2.593-6.867-.221-1,1.227-1.618,2.594-3.23,3.144a4.812,4.812,0,0,1-4.614-.852c-.253-.211-.618.141-.367.367a5.194,5.194,0,0,0,6.352.418c1.108-.767,1.569-2.01,2.451-2.976,1.758-1.931,4.281-.744,6.129.378C21.226,209.1,21.375,208.846,21.213,208.746Z" transform="translate(-2.588 -88.624)"/>
    <path id="Path_29194" data-name="Path 29194" class="cls-2" d="M16.1,183.571a.286.286,0,0,0-.358.272h0c.023-.18-.242-.262-.283-.074a1.426,1.426,0,0,0-.022.216.266.266,0,0,0-.031.038c0,.007-.006.014-.01.021s-.023,0-.036,0a.3.3,0,0,0-.22.22.859.859,0,0,0,.01.3c0,.015-.009.031-.011.046a3.593,3.593,0,0,0-.189,1.8c.049.323.556.236.558-.076a5.023,5.023,0,0,1,.031-.544.216.216,0,0,0,.209.048.606.606,0,0,0,.057-.027.265.265,0,0,0,.4-.2c.007-.057.009-.118.015-.177a.856.856,0,0,0,.031-.081,1.425,1.425,0,0,0,.515.132.24.24,0,0,0,.229-.172,1.364,1.364,0,0,0-.9-1.738Z" transform="translate(-6.377 -78.515)"/>
    <path id="Path_29195" data-name="Path 29195" class="cls-2" d="M14.966,249.726a1.452,1.452,0,0,0-.5-.126.858.858,0,0,0-.926-.148,1.248,1.248,0,0,0-.9.378,1.175,1.175,0,0,0-.78,1.888,1.111,1.111,0,0,0,1.545.337l.016.007a.272.272,0,0,0,.348-.243,4.875,4.875,0,0,0,1.3-1.672A.311.311,0,0,0,14.966,249.726Zm-2.873,1.159a.7.7,0,0,1,.286-.637,1.108,1.108,0,0,0-.057.22,1.357,1.357,0,0,0,.41,1.16.759.759,0,0,1-.639-.743Z" transform="translate(-4.97 -106.668)"/>
    <path id="Path_29196" data-name="Path 29196" class="cls-2" d="M29.4,151.287a.228.228,0,0,1-.057-.025.545.545,0,0,0-.172-.544.286.286,0,0,0-.458.1.172.172,0,0,0-.224,0,.544.544,0,0,0,.312.935.484.484,0,0,0,.216-.048.806.806,0,0,0,.312.1C29.626,151.835,29.689,151.352,29.4,151.287Z" transform="translate(-12.116 -64.434)"/>
    <path id="Path_29197" data-name="Path 29197" class="cls-2" d="M205.435,280.505a1.743,1.743,0,0,0,.013-2.289.33.33,0,0,0-.27-.09c-.01-.008-.017-.018-.027-.026a1.373,1.373,0,0,0-2.025.563c-.431.962.4,1.455,1.133,1.379a1.281,1.281,0,0,0,.094.26.978.978,0,0,0,.1.377,3.518,3.518,0,0,0-.25.538.264.264,0,0,0,.323.323,1.3,1.3,0,0,0,.795-.7.249.249,0,0,0,.1-.292C205.428,280.531,205.432,280.516,205.435,280.505Zm-1.488-1.095c-.461-.132-.184-.65.114-.817a.591.591,0,0,1,.644-.024,1.369,1.369,0,0,0-.106.212,1.151,1.151,0,0,0-.349.611.606.606,0,0,1-.305.017Z" transform="translate(-86.835 -118.851)"/>
    <path id="Path_29198" data-name="Path 29198" class="cls-2" d="M68.488,397.854a1.383,1.383,0,0,0,.417-1.545,1.358,1.358,0,0,0-1.449-.791c-.026.005-.048.016-.073.023a1.117,1.117,0,0,0-.213.04,1.373,1.373,0,0,0-.892,1.159A1.27,1.27,0,0,0,68,398.16c.047.053.09.11.139.163.213.229.614-.072.438-.338C68.551,397.939,68.517,397.9,68.488,397.854ZM67.4,396.4c.26-.119.629.086.4.414a.439.439,0,0,1-.043.046q-.175-.231-.355-.46Z" transform="translate(-28.34 -169.171)"/>
    <path id="Path_29199" data-name="Path 29199" class="cls-4" d="M146.05,19.5c0-.144.006-.286.01-.432a.229.229,0,0,0-.168-.22,2.848,2.848,0,0,0-.714-.027.415.415,0,0,0-.169,0,.54.54,0,0,0-.114.045,2.533,2.533,0,0,0-1.534.934c-.58.751.053,1.813.817,2.175a1.66,1.66,0,0,0,2.179-.858A1.431,1.431,0,0,0,146.05,19.5Zm-1.056,2.021c-.706.128-1.66-.826-1.111-1.472a2.137,2.137,0,0,1,.167-.172,2.6,2.6,0,0,0,.037.435c.054.32.209.9.551,1.03a.99.99,0,0,0,.916-.318,1.278,1.278,0,0,0,.082-.1.954.954,0,0,0,.172-.071A1.1,1.1,0,0,1,144.994,21.517Z" transform="translate(-61.226 -8.042)"/>
    <path id="Path_29200" data-name="Path 29200" class="cls-4" d="M154.947,8.678a17.594,17.594,0,0,0-2.87-1.725c-1.332-.749-3.074-2.61-1.545-4.089.185-.179-.068-.529-.282-.366-1.795,1.37-.473,3.681,1.03,4.646,1.408.9,2.929,1.4,4.111,2.652a8.069,8.069,0,0,1,2.145,4.478c.025.175.335.136.312-.042a8.616,8.616,0,0,0-2.9-5.553Z" transform="translate(-63.899 -1.048)"/>
    <path id="Path_29201" data-name="Path 29201" class="cls-4" d="M417.793,164.5c-1.358,5.524-8.44,5.883-12.4,8.709-.193.137-.007.458.187.32,3.979-2.841,11.607-2.988,12.654-8.907C418.287,164.339,417.865,164.211,417.793,164.5Z" transform="translate(-173.371 -70.292)"/>
    <path id="Path_29202" data-name="Path 29202" class="cls-6" d="M415.75,128.591c-2.589-1.05-5.372-.572-7.935.33-1.431.5-2.818,1.13-4.242,1.66a21.977,21.977,0,0,1-2.16.694,7.972,7.972,0,0,1-2.418.3,1.308,1.308,0,0,0-.88-1.407.29.29,0,0,0-.417.172c-.375.973-.038,1.456.636,1.648a2.889,2.889,0,0,1-.642,1.142,5.1,5.1,0,0,1-2.364,1.316c-1.612.418-3.289-.145-4.9.269-1.5.386-3.007,2.326-1.681,3.692.127.13.371-.045.259-.2a1.922,1.922,0,0,1,.846-2.707,5.336,5.336,0,0,1,3-.363,7.158,7.158,0,0,0,4.2-.818,4.84,4.84,0,0,0,1.826-2.238,15.728,15.728,0,0,0,5.058-1.014c3.72-1.4,7.637-3.45,11.659-1.923C415.942,129.265,416.08,128.725,415.75,128.591Z" transform="translate(-166.069 -54.746)"/>
    <path id="Path_29203" data-name="Path 29203" class="cls-6" d="M348.981,53.788a.531.531,0,0,0,.013-.057c.041-.716-.908-.967-1.4-.614a1.355,1.355,0,0,0-.5,1.171c.034.633.69,1.079,1.3,1.249a.268.268,0,0,0,.3-.372.682.682,0,0,0,.486-.534,1.138,1.138,0,0,0-.193-.842Z" transform="translate(-148.463 -22.65)"/>
    <path id="Path_29204" data-name="Path 29204" class="cls-7" d="M195.8,234.806c1.359-.243,2.653-.678,4.037-.826.928-.1,2.148-.039,1.805,1.348a3.789,3.789,0,0,1-1.13,1.545c-1.664,1.72-3.416,3.353-5.228,4.917a.265.265,0,0,0-.07.264c.391,1.1,1.62.858,2.543.676,2.215-.438,4.476-.858,6.647-1.481.3-.086.167-.5-.125-.455-1.365.2-2.712.52-4.059.813-.852.185-3.271,1.128-3.917.5-.4-.386-.13-.371.237-.7q.433-.385.858-.775.683-.625,1.352-1.267a37.875,37.875,0,0,0,2.668-2.7c.7-.818,1.33-2.414.064-3.1a3.671,3.671,0,0,0-2.175-.03,12.15,12.15,0,0,0-3.636.963c-.179.089-.045.334.128.3Z" transform="translate(-83.497 -99.826)"/>
    <path id="Path_29205" data-name="Path 29205" class="cls-7" d="M216.815,233.194a19.818,19.818,0,0,0,.286,8.255.274.274,0,0,0,.495.065c1.368-2.368,2.719-4.745,4.077-7.119l-.521-.068c.337,1.173.706,2.336,1.124,3.483a11.869,11.869,0,0,0,.973,2.45c.641.968,1.63.545,2.263-.249,1.872-2.354.014-6.057,2.294-8.183.255-.237-.114-.581-.374-.374-1.67,1.335-1.409,3.612-1.579,5.528a6.8,6.8,0,0,1-.335,1.8c-.114.3-.343.9-.629,1.053l-1.13.132q-.183-.4-.347-.814a49.261,49.261,0,0,1-1.708-4.975.286.286,0,0,0-.521-.068c-1.353,2.377-2.711,4.75-4.053,7.134l.495.065a28.087,28.087,0,0,1-.5-8.069.16.16,0,0,0-.312-.042Z" transform="translate(-92.612 -98.973)"/>
    <path id="Path_29206" data-name="Path 29206" class="cls-7" d="M243.832,233.65c-1.21,1.712-2,5.434-.454,7.2,1.76,2,3.992-1.477,4.653-2.843.876-1.809.769-4.658-1.584-5.245-2.513-.629-3.11,2.128-2.927,4a.248.248,0,1,0,.5,0c.009-1.551.471-4.521,2.81-3.2,1.888,1.066,1.108,3.62.193,5.042a6.192,6.192,0,0,1-1.554,1.888c-1.739,1.121-2.232-.945-2.313-2.067a10.392,10.392,0,0,1,.954-4.652c.065-.168-.182-.243-.272-.114Z" transform="translate(-103.737 -99.519)"/>
    <path id="Path_29207" data-name="Path 29207" class="cls-7" d="M258.779,233.008c-.6,6.036-.536,12.16-.587,18.219a.282.282,0,0,0,.474.2l.37-.3c.278-.222-.114-.6-.389-.389l-.374.292.474.2c-.122-6.082.253-12.142.328-18.219a.148.148,0,0,0-.3,0Z" transform="translate(-110.44 -99.605)"/>
    <path id="Path_29208" data-name="Path 29208" class="cls-7" d="M258.815,236.532c-.536-.744.83-2.175,1.253-2.6.874-.87,2.282-1.616,3.434-.723a2.45,2.45,0,0,1,.591,2.827,4.517,4.517,0,0,1-.7,1.242,4.653,4.653,0,0,1-.462.553q-.493.687-1.4.042a.235.235,0,0,0-.453-.125.906.906,0,0,0,.528,1.17c.659.286,1.3-.24,1.731-.683,1.2-1.245,2.086-3.216,1.06-4.832-2.144-3.376-7.435,1.952-5.807,3.3.114.1.334-.032.229-.177Z" transform="translate(-110.478 -99.364)"/>
    <path id="Path_29209" data-name="Path 29209" class="cls-7" d="M200.313,99.966a9.366,9.366,0,0,0,.7,1.53q.276.67.544,1.343.58,1.459,1.121,2.934c.693,1.892,1.329,3.806,1.959,5.72a.263.263,0,0,0,.506-.14,75.372,75.372,0,0,0-3.262-9.175c-.229-.539-.7-2.569-1.454-2.667a.41.41,0,0,0-.462.55.179.179,0,0,0,.343-.095Z" transform="translate(-85.523 -42.559)"/>
    <path id="Path_29210" data-name="Path 29210" class="cls-7" d="M144.295,146.375c.629.6,1.324,1.122,1.92,1.765a14.72,14.72,0,0,1,1.69,2.239.261.261,0,0,0,.45-.263,9.972,9.972,0,0,0-3.834-4.036c-.183-.092-.389.14-.229.295Z" transform="translate(-61.695 -62.474)"/>
    <path id="Path_29211" data-name="Path 29211" class="cls-7" d="M104.033,205.727a29.025,29.025,0,0,1,8.836,2.255c.323.145.609-.325.282-.482a20.361,20.361,0,0,0-9.118-2.158.193.193,0,1,0,0,.385Z" transform="translate(-44.417 -87.832)"/>
    <path id="Path_29212" data-name="Path 29212" class="cls-7" d="M115.288,276.824a8.377,8.377,0,0,1,5.517-1.389c.308.032.3-.439,0-.478a7.5,7.5,0,0,0-5.758,1.554C114.871,276.654,115.1,276.945,115.288,276.824Z" transform="translate(-49.184 -117.575)"/>
    <path id="Path_29213" data-name="Path 29213" class="cls-7" d="M125.661,319.221A41.276,41.276,0,0,1,141.443,307.6c.29-.122.172-.6-.133-.484A36.711,36.711,0,0,0,125.4,318.956c-.143.185.108.451.264.264Z" transform="translate(-53.62 -131.359)"/>
    <path id="Path_29214" data-name="Path 29214" class="cls-7" d="M153.848,340.657a7.21,7.21,0,0,1,3.235-3.787c.222-.122.068-.521-.177-.42a5.465,5.465,0,0,0-3.359,4.08c-.022.164.221.317.3.127Z" transform="translate(-65.678 -143.906)"/>
    <path id="Path_29215" data-name="Path 29215" class="cls-7" d="M200.546,368.973a52.3,52.3,0,0,1,3.446-6.588c.172-.273-.255-.515-.429-.251a33.535,33.535,0,0,0-3.43,6.666c-.089.237.31.409.413.172Z" transform="translate(-85.601 -154.849)"/>
    <path id="Path_29216" data-name="Path 29216" class="cls-7" d="M268.04,114.09a33.372,33.372,0,0,1,9.869-12.819c.229-.183-.077-.587-.317-.411a28.951,28.951,0,0,0-9.927,13.068c-.081.215.282.371.375.158Z" transform="translate(-114.487 -43.122)"/>
    <path id="Path_29217" data-name="Path 29217" class="cls-7" d="M326.564,166.682a58.252,58.252,0,0,1,5.453-3.447c.3-.148.037-.583-.259-.443a16.744,16.744,0,0,0-5.376,3.654C326.275,166.568,326.413,166.779,326.564,166.682Z" transform="translate(-139.592 -69.62)"/>
    <path id="Path_29218" data-name="Path 29218" class="cls-7" d="M339.313,239.173a5.141,5.141,0,0,1-.633.295l.207.355a12.533,12.533,0,0,1,7.861-1.176c.32.057.463-.423.136-.495a11.188,11.188,0,0,0-8.205,1.316c-.229.136-.013.5.207.355a5.079,5.079,0,0,1,.593-.363c.187-.106.022-.382-.167-.286Z" transform="translate(-144.827 -101.749)"/>
    <path id="Path_29219" data-name="Path 29219" class="cls-7" d="M328.4,280.659c2.22.821,4.476,1.506,6.673,2.4.331.134.474-.4.148-.535a36.589,36.589,0,0,0-6.732-2.181.165.165,0,0,0-.088.318Z" transform="translate(-140.42 -119.91)"/>
    <path id="Path_29220" data-name="Path 29220" class="cls-7" d="M281.152,334.639a107.49,107.49,0,0,1,11.536,11.22c.237.27.6-.118.388-.388a60.6,60.6,0,0,0-11.667-11.165c-.194-.14-.441.178-.257.333Z" transform="translate(-120.233 -142.98)"/>
    <path id="Path_29221" data-name="Path 29221" class="cls-7" d="M307.763,318.079q2.215,1.333,4.45,2.629a.275.275,0,0,0,.278-.476q-2.232-1.308-4.484-2.571a.242.242,0,0,0-.244.418Z" transform="translate(-131.597 -135.863)"/>
    <path id="Path_29222" data-name="Path 29222" class="cls-7" d="M169.942,125.442a28.758,28.758,0,0,1,2.88,3.581c.172.255.589.021.419-.245a19.305,19.305,0,0,0-3.007-3.627.207.207,0,0,0-.292.292Z" transform="translate(-72.669 -53.507)"/>
    <path id="Path_29223" data-name="Path 29223" class="cls-7" d="M230.458,386.888a3.11,3.11,0,0,1-.916,4.044.265.265,0,0,0,.3.433,3.221,3.221,0,0,0,.877-4.615c-.1-.122-.35-.025-.267.138Z" transform="translate(-98.143 -165.404)"/>
    <path id="Path_29224" data-name="Path 29224" class="cls-7" d="M240.6,383.254a4.743,4.743,0,0,0,4.128,2.861c.264.014.28-.419.025-.458a5.6,5.6,0,0,1-3.891-2.538.15.15,0,0,0-.264.137Z" transform="translate(-102.913 -163.849)"/>
    <path id="Path_29225" data-name="Path 29225" class="cls-7" d="M228.528,390.21c-.778.33-2.721,1.11-2.758,2.137s1.389,1.009,2.071,1.01a18.783,18.783,0,0,0,10.052-2.9,6.4,6.4,0,0,0,2.765-2.9c.253-.744.114-1.628-.783-1.761a4.544,4.544,0,0,0-1.867.469c-.969.323-1.926.687-2.861,1.087a27.436,27.436,0,0,0-5.021,2.751c-.268.19.013.572.29.411a44.153,44.153,0,0,1,6.674-3.328q.663-.247,1.336-.465.449-.145.9-.278,1.277.319.675,1.188a6.524,6.524,0,0,1-2.438,2.35,18.475,18.475,0,0,1-6.429,2.528,18.2,18.2,0,0,1-3.106.343,9.193,9.193,0,0,1-1.158-.027q-.52-1,.283-1.408a5.684,5.684,0,0,1,1.515-.944c.15-.08.018-.332-.138-.266Z" transform="translate(-96.572 -165.014)"/>
    <path id="Path_29226" data-name="Path 29226" class="cls-7" d="M233.475,398.074a14.757,14.757,0,0,0,.532,11.191c1.885,3.971,5.669,6.546,8.312,9.957a33.477,33.477,0,0,1,6.516,25.6.255.255,0,0,0,.5.094A33.863,33.863,0,0,0,244.4,421.3a31.972,31.972,0,0,0-3.61-4.615,57.474,57.474,0,0,1-5.186-5.551,14.374,14.374,0,0,1-1.861-12.936c.061-.181-.208-.313-.273-.129Z" transform="translate(-99.502 -170.232)"/>
    <path id="Path_29227" data-name="Path 29227" class="cls-5" d="M93.382,448.746c-.167-.114-.114-.405-.119-.578a1.053,1.053,0,0,0-.157-.544.671.671,0,0,0-.443-.286.151.151,0,0,0-.252.033.4.4,0,0,0-.144.109.356.356,0,0,0-.033.075h0c-.4.042-.855.458-.54.85a1.363,1.363,0,0,0,1.157.49,1.58,1.58,0,0,0,.3.247C93.4,449.3,93.62,448.912,93.382,448.746Z" transform="translate(-39.177 -191.321)"/>
    <path id="Path_29228" data-name="Path 29228" class="cls-5" d="M99.345,365.568a.373.373,0,0,0-.451-.256,1.455,1.455,0,0,0-.541.294.277.277,0,0,0-.092-.032,1.632,1.632,0,0,0-1.88,1.358,1.437,1.437,0,0,0,1.281,1.568,1.546,1.546,0,0,0,.612-.031,1.391,1.391,0,0,0,.172.054.373.373,0,0,0,.4-.164,3.2,3.2,0,0,0,.5-2.792Z" transform="translate(-41.224 -156.253)"/>
    <path id="Path_29229" data-name="Path 29229" class="cls-5" d="M70.554,151.189a2.1,2.1,0,0,0-3.47,1.512,1.933,1.933,0,0,0,2.138,2.1,2.509,2.509,0,0,0,.3.007.278.278,0,0,0,.2.042,1.7,1.7,0,0,0,.476-.172A1.972,1.972,0,0,0,70.554,151.189Z" transform="translate(-28.692 -64.452)"/>
    <path id="Path_29230" data-name="Path 29230" class="cls-5" d="M342.134,180.1a.6.6,0,0,1-.1-.125.891.891,0,0,0-.124-1.316.268.268,0,0,0-.326.042,1.324,1.324,0,0,0,.224,1.965C342.142,180.913,342.471,180.345,342.134,180.1Z" transform="translate(-145.965 -76.4)"/>
    <path id="Path_29231" data-name="Path 29231" class="cls-5" d="M266.159,192.512a.515.515,0,0,0-.283.034.735.735,0,0,0-.973-.172.343.343,0,0,0-.152.373.77.77,0,0,0,.749.572.542.542,0,0,0,.13.246.207.207,0,0,0,.286,0,.619.619,0,0,0,.13-.776.179.179,0,0,1,.037,0C266.263,192.824,266.341,192.546,266.159,192.512Z" transform="translate(-113.242 -82.237)"/>
    <path id="Path_29232" data-name="Path 29232" class="cls-5" d="M286.251,58.434a1.437,1.437,0,0,0-1.642.623c-.011.021-.016.041-.025.061a2.554,2.554,0,0,0-.9,1.449,1.539,1.539,0,0,0,.624,1.558c1.331.8,3.106-.916,3-2.246A1.61,1.61,0,0,0,286.251,58.434ZM284.058,60.7a1.7,1.7,0,0,1,.437-1.03c0,.027.007.054.012.081a1.259,1.259,0,0,0,1.3,1.739l0,.005C285.022,61.97,284.025,61.811,284.058,60.7Z" transform="translate(-121.333 -24.966)"/>
    <path id="Path_29233" data-name="Path 29233" class="cls-8" d="M309.8,156.406a28.762,28.762,0,0,0-8.455,3.312,28.448,28.448,0,0,0-3.671,2.584c-1.175.973-2.329,2.555-3.853,2.963-.066.018-.137.027-.205.041.35-.927.326-2.407-.762-2.82a1.5,1.5,0,0,0-1.922,1.373,1.9,1.9,0,0,0,1.694,2.06,10.576,10.576,0,0,1-3.408,2.437c-2.086,1.159-4.367,2.672-4.453,5.309-.008.241.365.24.375,0,.193-4.525,6.18-4.464,8.148-7.694,1.752-.069,2.981-1.607,4.2-2.673a28.273,28.273,0,0,1,12.488-6.258C310.386,156.949,310.211,156.315,309.8,156.406Zm-18.276,7.731q-.093-.812.7-.839c.766-.279.977.124,1.017.853a2.556,2.556,0,0,1-.254,1.194,1.736,1.736,0,0,1-.621-.152,1.157,1.157,0,0,1-.84-1.055Z" transform="translate(-121.806 -66.896)"/>
    <path id="Path_29234" data-name="Path 29234" class="cls-8" d="M183.935,52.57a3.727,3.727,0,0,1-3.668-3.04c-.448-1.724.057-3.577.483-5.251.088-.347-.454-.494-.535-.148-.465,2-1,4.287-.1,6.253a3.975,3.975,0,0,0,3.816,2.477C184.121,52.848,184.123,52.555,183.935,52.57Z" transform="translate(-76.836 -18.79)"/>
    <path id="Path_29235" data-name="Path 29235" class="cls-8" d="M60.572,126.3c-.9-.769-.658-2.065-1.113-3.062a3.605,3.605,0,0,0-1.582-1.617c-1.878-1.023-4-.6-5.972-.148-1.5.347-4.239,1.288-4.753-.931a8.123,8.123,0,0,0-.711-2.651,4.75,4.75,0,0,0-4.424-2.278c-.388.03-.393.637,0,.61a4.169,4.169,0,0,1,3.319,1.236c.922.94.98,1.951,1.211,3.169.339,1.795,1.857,2.044,3.452,1.81,2.346-.343,4.735-1.494,7.1-.647a3.376,3.376,0,0,1,2.283,2.569,3.323,3.323,0,0,0,.98,2.145C60.509,126.624,60.715,126.425,60.572,126.3Z" transform="translate(-17.847 -49.446)"/>
    <path id="Path_29236" data-name="Path 29236" class="cls-8" d="M114.252,396.721c-2.32-.039-5.65.1-6.382,2.882a3.77,3.77,0,0,0-.019,1.465,4.189,4.189,0,0,1-.374,3.04c-1.14,1.845-3.452,2.3-5.436,2.518-.379.042-.385.641,0,.6,2.489-.264,5.446-1.035,6.328-3.71.5-1.516-.572-3.129.255-4.544,1.134-1.946,3.653-1.993,5.631-1.96a.145.145,0,0,0,0-.29Z" transform="translate(-43.525 -169.691)"/>
    <path id="Path_29237" data-name="Path 29237" class="cls-2" d="M318.494,351.745a.8.8,0,0,0-.6-.331.94.94,0,0,0-.073-.211c-.014-.027-.033-.048-.048-.073a4.135,4.135,0,0,0-.3-1.191.328.328,0,0,0-.4-.224,1.555,1.555,0,0,0-1.037,1.4.943.943,0,0,0-.183.435,1.07,1.07,0,0,0,1.265,1.132.923.923,0,0,0,.229-.086.286.286,0,0,0,.189-.1,1.6,1.6,0,0,0,.9-.339A.334.334,0,0,0,318.494,351.745Z" transform="translate(-135.105 -149.582)"/>
    <path id="Path_29238" data-name="Path 29238" class="cls-2" d="M376.8,247.677a.62.62,0,0,0-.233,1.15.266.266,0,0,0,.369-.13.129.129,0,0,0,.16.011.572.572,0,0,0-.295-1.031Zm.148.779-.009.008a.212.212,0,0,0-.1-.1.22.22,0,0,1-.03-.354c.2-.122.327.327.142.44Z" transform="translate(-160.941 -105.94)"/>
    <path id="Path_29239" data-name="Path 29239" class="cls-2" d="M382.252,173.205a2.259,2.259,0,0,0-2.764.791,2.1,2.1,0,0,0-.391,1.225,1.689,1.689,0,0,0-.083.567,1.949,1.949,0,0,0,1.863,1.793,1.739,1.739,0,0,0,1.1-.34,2.117,2.117,0,0,0,.669-.751,1.571,1.571,0,0,0,.66-.849,2.109,2.109,0,0,0-1.058-2.436Zm-1.19,2.6a.7.7,0,0,1-.138-.139.137.137,0,0,0-.017-.233.783.783,0,0,0-.122-.042h0a.592.592,0,0,1,.443-.015,1.194,1.194,0,0,0-.166.43Zm1.091-.718c-.01-.011-.017-.023-.027-.034a1.319,1.319,0,0,0-1.161-.407.909.909,0,0,1,.294-.235c.02-.01.039-.016.057-.025a.988.988,0,0,1,.662.286.96.96,0,0,1,.185.271c0,.049,0,.1-.011.143Zm-2.1.973a2.38,2.38,0,0,0,1.013.728,1,1,0,0,1-.181.043.977.977,0,0,1-.392-.114,1.423,1.423,0,0,1-.414-.337.714.714,0,0,1-.026-.319Z" transform="translate(-162.121 -74.005)"/>
    <path id="Path_29240" data-name="Path 29240" class="cls-2" d="M165.088,165.276a2.158,2.158,0,0,0-.264-.25.208.208,0,0,0-.245-.031q-.172.121-.343.249a1.841,1.841,0,0,0-1.619,2.026,2.016,2.016,0,0,0,.667,2.112,1.849,1.849,0,0,0,2.56-.619,2.21,2.21,0,0,0,.622-.973,1.922,1.922,0,0,0-1.377-2.514Zm-1.245,1.254a3.089,3.089,0,0,0,.089.99.347.347,0,0,0,.246.246,1.258,1.258,0,0,0,.214.022c.07.053.142.1.213.157a1.265,1.265,0,0,1-.979-.635.849.849,0,0,1,.216-.779Z" transform="translate(-69.526 -70.562)"/>
    <path id="Path_29241" data-name="Path 29241" class="cls-2" d="M251.775,294.516a1.345,1.345,0,0,0-.666-.983.853.853,0,0,0-.505-.2,1.6,1.6,0,0,0-1.207.178,1.1,1.1,0,0,0-1.1,1.666,1.256,1.256,0,0,0,.841.561,1.352,1.352,0,0,0,.8.473.291.291,0,0,0,.246-.057c.367.292.691.442,1.1.064a4.238,4.238,0,0,0,.5-1.7Zm-3.1.273a.6.6,0,0,1,.252-.779,1.483,1.483,0,0,0-.157.895.586.586,0,0,1-.093-.116Z" transform="translate(-106.136 -125.448)"/>
    <path id="Path_29242" data-name="Path 29242" class="cls-2" d="M145.474,204.618c-.286.111-.731.373-.733.719a1.379,1.379,0,0,0,.735,1.043.725.725,0,0,0,.625-.018,2.168,2.168,0,0,0,.108.308c.155.346.738.1.615-.259a2.272,2.272,0,0,1-.074-.262.806.806,0,0,0,.248-.464c.175.031.362-.057.343-.365C147.283,204.5,146.038,204.4,145.474,204.618Zm-.132.744a1.1,1.1,0,0,1,.557-.326.947.947,0,0,0-.184.49.8.8,0,0,0,.033.268c-.189-.021-.327-.237-.406-.433Z" transform="translate(-61.912 -87.48)"/>
    <path id="Path_29243" data-name="Path 29243" class="cls-2" d="M329.854,251.255c-1.6.6-2.505-1.246-3.562-2.065a2.683,2.683,0,0,0-2.271-.563c-2.153.469-4.1,3.572-6.385,1.657-1.6-1.344-1.983-4.1-4.112-4.86-1.254-.449-3.127.276-2.99,1.806a.18.18,0,1,0,.359,0c.057-2.021,2.56-1.57,3.5-.584a24.068,24.068,0,0,1,1.937,3.023c.919,1.306,2.27,2.218,3.9,1.682,1.559-.515,3.129-2.568,4.9-2.076,1.825.509,2.6,3.527,4.9,2.6C330.4,251.721,330.242,251.109,329.854,251.255Z" transform="translate(-132.827 -104.92)"/>
    <path id="Path_29244" data-name="Path 29244" class="cls-2" d="M312.358,230.827a2.06,2.06,0,0,0,.637-1.807,1.149,1.149,0,0,0-1.354-.858.3.3,0,0,0-.081.037,1.394,1.394,0,0,0-.921.515c-.9,1.158.223,2.485,1.417,2.725a.351.351,0,0,0,.3-.611Z" transform="translate(-132.735 -97.582)"/>
    <path id="Path_29245" data-name="Path 29245" class="cls-2" d="M151.023,470.255c-.761-.609-1.4-.085-1.935.522a.908.908,0,0,0-.533,1.722,1.091,1.091,0,0,0,.862.132.366.366,0,0,0,.67-.027c.032-.077.061-.156.092-.233a1.983,1.983,0,0,0,.473-.572A.877.877,0,0,0,151.023,470.255Z" transform="translate(-63.315 -201.031)"/>
    <path id="Path_29246" data-name="Path 29246" class="cls-2" d="M152.622,394.559a1.7,1.7,0,0,0,.052-.22,1.463,1.463,0,0,0-.1-.873c.031,0,.062,0,.094.01.187.033.268-.251.079-.286a3.453,3.453,0,0,0-.4-.049,1.6,1.6,0,0,0-2.31.263,3.45,3.45,0,0,0-.535,1.123,2.756,2.756,0,0,0-.351.98c-.2,1.242.995,4.12,2.623,2.872A3.136,3.136,0,0,0,152.622,394.559Zm-.633-.6a1.578,1.578,0,0,0-1.008-.2,2.541,2.541,0,0,1,.7-.264.572.572,0,0,1,.3.465Zm-.295,3.521c-.769.858-1.316.333-1.685-.319a1.194,1.194,0,0,0,.32.092,1.679,1.679,0,0,0,1.132-.253,1.731,1.731,0,0,0,.414.215,1.547,1.547,0,0,1-.181.268Z" transform="translate(-63.788 -168.001)"/>
    <path id="Path_29247" data-name="Path 29247" class="cls-2" d="M55.824,209.153a2.429,2.429,0,0,0,.038-1.035,6.51,6.51,0,0,0-.506-2.251.215.215,0,0,0-.08-.189,6.891,6.891,0,0,0-.428-.81.351.351,0,0,0-.546-.07,4.3,4.3,0,0,0-1.2,2.726c-.049.865.161,2.3,1,2.794a.794.794,0,0,0,.744.07,3,3,0,0,0,.172.251c.152.189.431.057.5-.132.057-.16.1-.323.141-.485a.37.37,0,0,0,.123-.563C55.791,209.356,55.812,209.254,55.824,209.153Zm-1.207-2.834a.333.333,0,0,0-.486,0c-.007.009-.013.018-.019.028a3.849,3.849,0,0,1,.387-.687c.086.159.162.32.232.482C54.693,206.2,54.651,206.256,54.617,206.318Z" transform="translate(-22.711 -87.556)"/>
    <path id="Path_29248" data-name="Path 29248" class="cls-2" d="M357.619,99.231a1.492,1.492,0,0,0-.424-.7.172.172,0,0,0-.11-.3,1.7,1.7,0,0,0-1.358.757,1.121,1.121,0,0,0-.315.882,1.022,1.022,0,0,0,.995.858h.065a.953.953,0,0,0,1.3-.723A1.075,1.075,0,0,0,357.619,99.231Z" transform="translate(-152.024 -42.017)"/>
    <path id="Path_29249" data-name="Path 29249" class="cls-2" d="M213.891,50.826c-.1-.118-.216-.223-.326-.332.008-.023.016-.046.023-.07.3-.362.343-.829-.155-1.074-.018-.009-.038-.013-.057-.021h0a1.181,1.181,0,0,0-1.359-.193c-.382.176-1,.7-.761,1.171a1.248,1.248,0,0,0,1.2.617.666.666,0,0,0,.272.118.711.711,0,0,0,.449-.061c.122.1.24.2.37.286C213.828,51.462,214.088,51.056,213.891,50.826Z" transform="translate(-90.341 -20.958)"/>
    <path id="Path_29250" data-name="Path 29250" class="cls-2" d="M301.448,450.332a2.307,2.307,0,0,0-3.27,2.2.3.3,0,0,0,.292.292,2.161,2.161,0,0,0,1.072-.37.788.788,0,0,0,.172.133.757.757,0,0,0,.135.051c-.006.114-.013.234-.018.351-.023.458.687.458.711,0l.031-.592a.854.854,0,0,0,.2-.469.136.136,0,0,0,.017-.021c.235-.443.462-.892.723-1.321A.189.189,0,0,0,301.448,450.332Zm-.779,1.17a.636.636,0,0,0-.109-.115,1.722,1.722,0,0,0,.193-.724.3.3,0,0,0-.03-.138,1.608,1.608,0,0,1,.378.076C300.963,450.9,300.818,451.2,300.669,451.5Z" transform="translate(-127.543 -192.534)"/>
    <path id="Path_29251" data-name="Path 29251" class="cls-3" d="M311.921,188.061a.492.492,0,0,0-.387.11.424.424,0,0,1,.114-.545c.161-.09.019-.327-.144-.246a.906.906,0,0,0-.182,1.392.43.43,0,0,0,.307.326.269.269,0,0,0,.2-.028.757.757,0,0,0,.093.011C312.592,189.1,312.495,188.142,311.921,188.061Z" transform="translate(-133.061 -80.142)"/>
    <path id="Path_29252" data-name="Path 29252" class="cls-3" d="M118.339,189.208a.6.6,0,0,0,.114-.122.783.783,0,0,0-.629-1.169.641.641,0,0,0-.468.075.433.433,0,0,0-.057.035l-.038.03a.719.719,0,0,0-.062.048l.007.007a.707.707,0,0,0-.061.062.276.276,0,0,0,0,.347.629.629,0,0,0,.364.732.8.8,0,0,0,.083.261c.211.4.806.567.977.044a.264.264,0,0,0-.227-.349Z" transform="translate(-50.081 -80.371)"/>
    <path id="Path_29253" data-name="Path 29253" class="cls-3" d="M48.329,355.438a1.475,1.475,0,0,0-.539-.943.829.829,0,0,0-.683-.332,1.062,1.062,0,0,0-1.115.98,1.114,1.114,0,0,0,.614,1.014A1.03,1.03,0,0,1,45.989,355a1.632,1.632,0,0,1,1.259-1.22.143.143,0,0,0-.076-.276,1.926,1.926,0,0,0-1.527,1.871,1.539,1.539,0,0,0,1.419,1.352,1.14,1.14,0,0,0,1.265-1.291Z" transform="translate(-19.525 -151.206)"/>
    <path id="Path_29254" data-name="Path 29254" class="cls-7" d="M119.886,173.319a25.231,25.231,0,0,1,2.664.682,7.587,7.587,0,0,1,2.249,1.59.291.291,0,0,0,.411-.411c-1.2-1.259-3.508-2.652-5.325-2.142a.147.147,0,0,0,0,.282Z" transform="translate(-51.236 -73.967)"/>
    <path id="Path_29255" data-name="Path 29255" class="cls-7" d="M144.221,125.587c2.968,3.223,5.888,6.491,8.885,9.687.208.221.534-.109.332-.332-2.937-3.25-5.951-6.429-8.92-9.652C144.334,125.09,144.038,125.388,144.221,125.587Z" transform="translate(-61.665 -53.561)"/>
    <path id="Path_29256" data-name="Path 29256" class="cls-7" d="M90.394,249.543c2.99.525,5.974-.719,8.941-.933a23.745,23.745,0,0,1,9.421,1.3c.323.111.446-.384.139-.5a21.655,21.655,0,0,0-8.887-1.474c-3.232.146-6.306,1.367-9.557,1.186C90.213,249.107,90.153,249.5,90.394,249.543Z" transform="translate(-38.6 -106.041)"/>
    <path id="Path_29257" data-name="Path 29257" class="cls-7" d="M126.36,301a6.409,6.409,0,0,1,4.86-2.154c.365.011.358-.536,0-.563a5.593,5.593,0,0,0-5.2,2.453.218.218,0,0,0,.343.263Z" transform="translate(-53.891 -127.581)"/>
    <path id="Path_29258" data-name="Path 29258" class="cls-7" d="M289.807,135.775a25.1,25.1,0,0,1,2.893-3.023,16.109,16.109,0,0,1,3.916-2.209c.323-.133.207-.646-.149-.54-2.738.81-5.748,2.865-7.005,5.507-.1.211.166.462.343.265Z" transform="translate(-123.807 -55.599)"/>
    <path id="Path_29259" data-name="Path 29259" class="cls-7" d="M332.009,216.713a.84.84,0,0,0,.973-.276q.42-.175.845-.338.851-.327,1.72-.6c1.161-.365,2.346-.63,3.523-.93.286-.073.236-.567-.072-.529a20.085,20.085,0,0,0-4.693,1.229c-.786.3-2.386.64-2.7,1.483a.225.225,0,0,0,.1.248l.133.1a.18.18,0,0,0,.186,0l.12-.077c.154-.1.057-.386-.132-.312Z" transform="translate(-141.838 -91.551)"/>
    <path id="Path_29260" data-name="Path 29260" class="cls-7" d="M317.7,301.969a40.672,40.672,0,0,1,6.534,3.43,35.989,35.989,0,0,1,5.783,5.114c.229.245.56-.11.362-.362a25.491,25.491,0,0,0-12.539-8.515c-.192-.053-.332.246-.14.332Z" transform="translate(-135.857 -129.019)"/>
    <path id="Path_29261" data-name="Path 29261" class="cls-7" d="M248.242,359.375a31.665,31.665,0,0,0,.953,3.072c.1.282.541.165.451-.124a32.369,32.369,0,0,0-1.062-3.09c-.086-.2-.389-.053-.343.144Z" transform="translate(-106.182 -153.616)"/>
    <path id="Path_29262" data-name="Path 29262" class="cls-7" d="M270.474,345.592a6.72,6.72,0,0,1,3.37,4,.261.261,0,1,0,.5-.139,5.935,5.935,0,0,0-3.671-4.341c-.278-.109-.466.343-.2.482Z" transform="translate(-115.64 -147.61)"/>
    <path id="Path_29263" data-name="Path 29263" class="cls-7" d="M165.752,369.116a24.911,24.911,0,0,1,7.714-12.293c.28-.243-.128-.648-.406-.406a24.316,24.316,0,0,0-7.7,12.59.2.2,0,0,0,.388.107Z" transform="translate(-70.731 -152.421)"/>
    <path id="Path_29264" data-name="Path 29264" class="cls-7" d="M111.563,262.9a5.289,5.289,0,0,1,3.886-.5.262.262,0,1,0,.139-.5,4.85,4.85,0,0,0-4.242.63.215.215,0,0,0,.217.371Z" transform="translate(-47.585 -111.924)"/>
    <path id="Path_29265" data-name="Path 29265" class="cls-7" d="M221.486,79.087a128.884,128.884,0,0,0,1.018,19.7c.038.343.577.35.542,0-.637-6.567-.779-13.124-1.152-19.7a.2.2,0,0,0-.409,0Z" transform="translate(-94.708 -33.74)"/>
  </g>
</svg>
