<svg xmlns="http://www.w3.org/2000/svg" viewBox="0 0 130.162 33.892">
  <defs>
    <style>
      .cls-1 {
        fill: #fff;
      }
    </style>
  </defs>
  <g id="Group_13255" data-name="Group 13255" transform="translate(0.025)">
    <g id="Group_12164" data-name="Group 12164" transform="translate(25.452 1.735)">
      <path id="Path_6093" data-name="Path 6093" class="cls-1" d="M55.892,2.5A5.5,5.5,0,0,0,53.116,1.8a8.99,8.99,0,0,0-1.851.231,6.45,6.45,0,0,0-1.851.81c-.347,2.66-.578,5.321-.925,7.981s-.694,5.09-1.041,7.519h-.231c-.116-.463-.231-1.157-.463-2.082-.231-.81-.463-1.851-.81-3.008-.231-1.157-.578-2.313-.925-3.586s-.694-2.66-1.041-4.049A2.612,2.612,0,0,0,42.474,4a6.105,6.105,0,0,0-2.892-.463,15.676,15.676,0,0,0-2.313.231,8.954,8.954,0,0,0-1.851.81c-.347,1.388-.694,2.892-1.041,4.28s-.694,2.776-1.041,4.049-.578,2.313-.81,3.239-.347,1.735-.463,2.2h-.231c-.116-.347-.116-.694-.231-1.272a20.564,20.564,0,0,1-.347-2.313c-.116-1.041-.347-2.313-.578-3.817s-.231-3.47-.578-5.9A3.413,3.413,0,0,0,28.825,2.5a4.39,4.39,0,0,0-2.66-.694,6.041,6.041,0,0,0-2.429.463A4.576,4.576,0,0,0,22,3.422c.231,1.5.578,3.355.925,5.321s.81,4.049,1.272,6.015.925,3.7,1.388,5.437a32.521,32.521,0,0,0,1.157,3.586,3.388,3.388,0,0,0,1.851,1.5,10.747,10.747,0,0,0,3.355.578,9.86,9.86,0,0,0,2.661-.347,5.566,5.566,0,0,0,1.851-.925,15.014,15.014,0,0,1,.694-2.2h0c.231-.925.578-1.966.925-3.123s.694-2.313.925-3.47c.347-1.157.578-2.313.81-3.47.231,1.041.463,2.082.694,3.239a26.467,26.467,0,0,0,.925,3.239c.347,1.041.578,1.966.925,2.892.231.81.463,1.619.694,2.2.463,1.272,2.082,1.966,4.627,1.966a11.654,11.654,0,0,0,2.892-.347,5.505,5.505,0,0,0,2.082-.925c.231-.578.463-1.388.81-2.429s.578-2.2.925-3.47.694-2.66,1.041-4.049.578-2.66.925-3.933a22.723,22.723,0,0,0,.578-3.355,14.24,14.24,0,0,0,.231-2.313A3.413,3.413,0,0,0,55.892,2.5Z" transform="translate(-22 -1.456)"/>
      <path id="Path_6094" data-name="Path 6094" class="cls-1" d="M113.21,2.425a7.514,7.514,0,0,0-3.586-.925,22.462,22.462,0,0,0-2.776.231,21.88,21.88,0,0,0-2.661.578,20.854,20.854,0,0,0-2.429.925,6.214,6.214,0,0,0-1.851,1.157A3.4,3.4,0,0,0,98.751,5.78,3.527,3.527,0,0,0,98.4,7.631V21.859a5.875,5.875,0,0,0,.347,1.966,2.938,2.938,0,0,0,.925,1.157,3.563,3.563,0,0,0,1.388.578,9.95,9.95,0,0,0,1.851.116A12.572,12.572,0,0,0,105,25.56c.463-.116,1.041-.116,1.5-.231V9.25a5.727,5.727,0,0,1,1.5-.463c.578-.116,1.157-.231,1.851-.347a12.746,12.746,0,0,1,2.082-.231,12.572,12.572,0,0,1,2.082-.116,4.834,4.834,0,0,0,.463-1.157,4.92,4.92,0,0,0,.231-1.272A4.763,4.763,0,0,0,113.21,2.425Z" transform="translate(-10.029 -1.5)"/>
      <path id="Path_6095" data-name="Path 6095" class="cls-1" d="M76.76,8.772h0a9.645,9.645,0,0,0-2.545-3.817,10.688,10.688,0,0,0-3.933-2.429A15.366,15.366,0,0,0,60.1,2.41,12.473,12.473,0,0,0,56.17,4.839a10.539,10.539,0,0,0-2.545,3.817,15.237,15.237,0,0,0-.925,5.09,12.811,12.811,0,0,0,.925,5.09,9.645,9.645,0,0,0,2.545,3.817A12.473,12.473,0,0,0,60.1,25.082a12.715,12.715,0,0,0,5.09.81,15.132,15.132,0,0,0,5.09-.81,10.416,10.416,0,0,0,3.933-2.313,10.539,10.539,0,0,0,2.545-3.817,15.911,15.911,0,0,0,.925-5.205A12.26,12.26,0,0,0,76.76,8.772Zm-8.329,9.37a3.267,3.267,0,0,1-3.008,1.5,3.894,3.894,0,0,1-3.123-1.5,8.337,8.337,0,0,1-1.157-4.4,7.508,7.508,0,0,1,1.041-4.4,3.34,3.34,0,0,1,3.123-1.5,3.894,3.894,0,0,1,3.123,1.5,7.31,7.31,0,0,1,1.041,4.4A7.31,7.31,0,0,1,68.432,18.141Z" transform="translate(-17.188 -1.484)"/>
      <path id="Path_6096" data-name="Path 6096" class="cls-1" d="M98.788,8.309a9.066,9.066,0,0,0-2.776-3.817,10.371,10.371,0,0,0-4.164-2.2A20.347,20.347,0,0,0,86.526,1.6a17.452,17.452,0,0,0-4.858.578h0a12.382,12.382,0,0,0-3.586,1.5,6.185,6.185,0,0,0-1.5,1.5A4.329,4.329,0,0,0,76,7.268V29.824a11.4,11.4,0,0,0,.231,1.966,2.644,2.644,0,0,0,.81,1.157,3.563,3.563,0,0,0,1.388.578,9.95,9.95,0,0,0,1.851.116,12.572,12.572,0,0,0,2.082-.116c.463-.116,1.041-.231,1.5-.347V25.313a10.945,10.945,0,0,0,3.817.578,13.827,13.827,0,0,0,4.858-.81,9.544,9.544,0,0,0,3.7-2.313,11.941,11.941,0,0,0,2.429-3.817,13.857,13.857,0,0,0,.81-5.321A9.488,9.488,0,0,0,98.788,8.309ZM86.758,19.645a5.806,5.806,0,0,1-1.388-.231h0a5.639,5.639,0,0,1-1.272-.463V8.54a4.144,4.144,0,0,1,1.272-.463,3.416,3.416,0,0,1,1.5-.231,4.062,4.062,0,0,1,3.47,1.5c.81.925,1.157,2.429,1.157,4.511C91.616,17.679,90,19.645,86.758,19.645Z" transform="translate(-13.536 -1.484)"/>
    </g>
    <path id="Path_6097" data-name="Path 6097" class="cls-1" d="M27.534,21.515l-6.709-4.858a.605.605,0,0,0-.925.463v2.2H13.769l7.866-9.6a15.071,15.071,0,0,0,1.157-1.735,5.445,5.445,0,0,0,.463-1.851,4.537,4.537,0,0,0-.463-2.082,5.189,5.189,0,0,0-1.157-1.5H7.87V0L.235,5.437a.541.541,0,0,0,0,.925L6.944,11.22a.605.605,0,0,0,.925-.463V8.791h5.668l-8.1,9.6a15.071,15.071,0,0,0-1.157,1.735,5.445,5.445,0,0,0-.463,1.851,4.537,4.537,0,0,0,.463,2.082,5.189,5.189,0,0,0,1.157,1.5H19.784v2.429l7.634-5.437C27.881,22.209,27.881,21.747,27.534,21.515Z"/>
  </g>
</svg>
