<svg xmlns="http://www.w3.org/2000/svg" viewBox="0 0 158.924 41.382"><defs><style>.a{fill:#59be6c;}</style></defs><g transform="translate(0.025)"><g transform="translate(31.082 2.119)"><path class="a" d="M63.381,2.655a6.71,6.71,0,0,0-3.39-.847,10.977,10.977,0,0,0-2.26.282,7.876,7.876,0,0,0-2.26.989c-.424,3.248-.706,6.5-1.13,9.745S53.5,19.039,53.071,22h-.282c-.141-.565-.282-1.412-.565-2.542-.282-.989-.565-2.26-.989-3.672-.282-1.412-.706-2.825-1.13-4.378s-.847-3.248-1.271-4.943A3.189,3.189,0,0,0,47,4.491a7.454,7.454,0,0,0-3.531-.565,19.14,19.14,0,0,0-2.825.282,10.932,10.932,0,0,0-2.26.989c-.424,1.695-.847,3.531-1.271,5.226s-.847,3.39-1.271,4.943-.706,2.825-.989,3.955-.424,2.119-.565,2.683H34c-.141-.424-.141-.847-.282-1.554a25.108,25.108,0,0,1-.424-2.825c-.141-1.271-.424-2.825-.706-4.661s-.282-4.237-.706-7.2a4.167,4.167,0,0,0-1.554-3.107,5.36,5.36,0,0,0-3.248-.847,7.376,7.376,0,0,0-2.966.565A5.587,5.587,0,0,0,22,3.785c.282,1.836.706,4.1,1.13,6.5s.989,4.943,1.554,7.344,1.13,4.519,1.695,6.638a39.707,39.707,0,0,0,1.412,4.378,4.137,4.137,0,0,0,2.26,1.836,13.122,13.122,0,0,0,4.1.706,12.039,12.039,0,0,0,3.248-.424,6.8,6.8,0,0,0,2.26-1.13,18.331,18.331,0,0,1,.847-2.683h0c.282-1.13.706-2.4,1.13-3.813s.847-2.825,1.13-4.237c.424-1.412.706-2.825.989-4.237.282,1.271.565,2.542.847,3.955a32.316,32.316,0,0,0,1.13,3.955c.424,1.271.706,2.4,1.13,3.531.282.989.565,1.977.847,2.683.565,1.554,2.542,2.4,5.649,2.4a14.229,14.229,0,0,0,3.531-.424,6.722,6.722,0,0,0,2.542-1.13c.282-.706.565-1.695.989-2.966s.706-2.683,1.13-4.237.847-3.248,1.271-4.943.706-3.248,1.13-4.8a27.744,27.744,0,0,0,.706-4.1,17.387,17.387,0,0,0,.282-2.825A4.167,4.167,0,0,0,63.381,2.655Z" transform="translate(-22 -1.384)"/><path class="a" d="M116.489,2.63a9.174,9.174,0,0,0-4.378-1.13,27.426,27.426,0,0,0-3.39.282,26.714,26.714,0,0,0-3.248.706,25.462,25.462,0,0,0-2.966,1.13,7.587,7.587,0,0,0-2.26,1.412,4.152,4.152,0,0,0-1.412,1.695,4.307,4.307,0,0,0-.424,2.26V26.357a7.173,7.173,0,0,0,.424,2.4,3.587,3.587,0,0,0,1.13,1.412,4.35,4.35,0,0,0,1.695.706,12.149,12.149,0,0,0,2.26.141,15.35,15.35,0,0,0,2.542-.141c.565-.141,1.271-.141,1.836-.282V10.963a6.992,6.992,0,0,1,1.836-.565c.706-.141,1.412-.282,2.26-.424a15.563,15.563,0,0,1,2.542-.282,15.35,15.35,0,0,1,2.542-.141,5.9,5.9,0,0,0,.565-1.412,6.006,6.006,0,0,0,.282-1.554A5.815,5.815,0,0,0,116.489,2.63Z" transform="translate(9.492 -1.5)"/><path class="a" d="M82.077,10.356h0A11.776,11.776,0,0,0,78.969,5.7a13.049,13.049,0,0,0-4.8-2.966,18.762,18.762,0,0,0-12.429-.141,15.229,15.229,0,0,0-4.8,2.966,12.868,12.868,0,0,0-3.107,4.661A18.6,18.6,0,0,0,52.7,16.43a15.642,15.642,0,0,0,1.13,6.214A11.777,11.777,0,0,0,56.937,27.3a15.229,15.229,0,0,0,4.8,2.966,15.525,15.525,0,0,0,6.214.989,18.476,18.476,0,0,0,6.214-.989,12.718,12.718,0,0,0,4.8-2.825,12.868,12.868,0,0,0,3.107-4.661,19.426,19.426,0,0,0,1.13-6.356A14.969,14.969,0,0,0,82.077,10.356ZM71.908,21.8a3.989,3.989,0,0,1-3.672,1.836A4.754,4.754,0,0,1,64.422,21.8,10.179,10.179,0,0,1,63.01,16.43a9.167,9.167,0,0,1,1.271-5.367,4.078,4.078,0,0,1,3.813-1.836,4.754,4.754,0,0,1,3.813,1.836,8.925,8.925,0,0,1,1.271,5.367A8.925,8.925,0,0,1,71.908,21.8Z" transform="translate(-9.341 -1.459)"/><path class="a" d="M103.823,9.792a11.07,11.07,0,0,0-3.39-4.661,12.663,12.663,0,0,0-5.084-2.683,24.843,24.843,0,0,0-6.5-.847,21.308,21.308,0,0,0-5.932.706h0a15.118,15.118,0,0,0-4.378,1.836,7.551,7.551,0,0,0-1.836,1.836A5.286,5.286,0,0,0,76,8.52V36.061a13.916,13.916,0,0,0,.282,2.4,3.229,3.229,0,0,0,.989,1.412,4.35,4.35,0,0,0,1.695.706,12.149,12.149,0,0,0,2.26.141,15.35,15.35,0,0,0,2.542-.141c.565-.141,1.271-.282,1.836-.424v-9.6a13.363,13.363,0,0,0,4.661.706A16.882,16.882,0,0,0,96.2,30.27a11.653,11.653,0,0,0,4.519-2.825,14.58,14.58,0,0,0,2.966-4.661,16.919,16.919,0,0,0,.989-6.5A11.585,11.585,0,0,0,103.823,9.792ZM89.135,23.632a7.089,7.089,0,0,1-1.695-.282h0a6.884,6.884,0,0,1-1.554-.565V10.074a5.059,5.059,0,0,1,1.554-.565,4.171,4.171,0,0,1,1.836-.282,4.959,4.959,0,0,1,4.237,1.836c.989,1.13,1.412,2.966,1.412,5.508C95.067,21.231,93.089,23.632,89.135,23.632Z" transform="translate(0.266 -1.459)"/></g><path class="a" d="M33.624,26.269l-8.192-5.932a.739.739,0,0,0-1.13.565v2.683H16.817l9.6-11.722a18.4,18.4,0,0,0,1.412-2.119,6.648,6.648,0,0,0,.565-2.26,5.539,5.539,0,0,0-.565-2.542,6.335,6.335,0,0,0-1.412-1.836H9.614V0L.293,6.638a.661.661,0,0,0,0,1.13L8.484,13.7a.739.739,0,0,0,1.13-.565v-2.4h6.92L6.648,22.456a18.4,18.4,0,0,0-1.412,2.119,6.648,6.648,0,0,0-.565,2.26,5.539,5.539,0,0,0,.565,2.542,6.335,6.335,0,0,0,1.412,1.836H24.161v2.966l9.321-6.638C34.048,27.117,34.048,26.552,33.624,26.269Z"/></g></svg>