<svg xmlns="http://www.w3.org/2000/svg" viewBox="0 0 13.999 14">
  <defs>
    <style>
      .cls-1 {
        fill: #163d56;
      }
    </style>
  </defs>
  <path id="ic_update_24px" class="cls-1" d="M17,8.538H11.727l2.131-2.193a5.475,5.475,0,0,0-7.684-.078,5.347,5.347,0,0,0,0,7.614,5.46,5.46,0,0,0,7.684,0,5.066,5.066,0,0,0,1.587-3.8H17a7.265,7.265,0,0,1-2.053,4.892,7.042,7.042,0,0,1-9.893,0,6.875,6.875,0,0,1-.016-9.784,6.99,6.99,0,0,1,9.839,0L17,3ZM10.389,6.889v3.306l2.722,1.618-.56.941L9.222,10.778V6.889Z" transform="translate(-3.001 -3)"/>
</svg>
